G04 #@! TF.GenerationSoftware,KiCad,Pcbnew,(5.0.2)-1*
G04 #@! TF.CreationDate,2019-01-03T12:41:09+01:00*
G04 #@! TF.ProjectId,CPU6502,43505536-3530-4322-9e6b-696361645f70,rev?*
G04 #@! TF.SameCoordinates,Original*
G04 #@! TF.FileFunction,Legend,Top*
G04 #@! TF.FilePolarity,Positive*
%FSLAX46Y46*%
G04 Gerber Fmt 4.6, Leading zero omitted, Abs format (unit mm)*
G04 Created by KiCad (PCBNEW (5.0.2)-1) date 03.01.2019 12:41:09*
%MOMM*%
%LPD*%
G01*
G04 APERTURE LIST*
%ADD10C,0.200000*%
%ADD11C,0.300000*%
%ADD12C,0.150000*%
%ADD13C,0.120000*%
G04 APERTURE END LIST*
D10*
X155727500Y-116499642D02*
X155651309Y-116652023D01*
X155651309Y-116880595D01*
X155727500Y-117109166D01*
X155879880Y-117261547D01*
X156032261Y-117337738D01*
X156337023Y-117413928D01*
X156565595Y-117413928D01*
X156870357Y-117337738D01*
X157022738Y-117261547D01*
X157175119Y-117109166D01*
X157251309Y-116880595D01*
X157251309Y-116728214D01*
X157175119Y-116499642D01*
X157098928Y-116423452D01*
X156565595Y-116423452D01*
X156565595Y-116728214D01*
X157251309Y-115737738D02*
X155651309Y-115737738D01*
X157251309Y-114823452D01*
X155651309Y-114823452D01*
X157251309Y-114061547D02*
X155651309Y-114061547D01*
X155651309Y-113680595D01*
X155727500Y-113452023D01*
X155879880Y-113299642D01*
X156032261Y-113223452D01*
X156337023Y-113147261D01*
X156565595Y-113147261D01*
X156870357Y-113223452D01*
X157022738Y-113299642D01*
X157175119Y-113452023D01*
X157251309Y-113680595D01*
X157251309Y-114061547D01*
X153187500Y-116499642D02*
X153111309Y-116652023D01*
X153111309Y-116880595D01*
X153187500Y-117109166D01*
X153339880Y-117261547D01*
X153492261Y-117337738D01*
X153797023Y-117413928D01*
X154025595Y-117413928D01*
X154330357Y-117337738D01*
X154482738Y-117261547D01*
X154635119Y-117109166D01*
X154711309Y-116880595D01*
X154711309Y-116728214D01*
X154635119Y-116499642D01*
X154558928Y-116423452D01*
X154025595Y-116423452D01*
X154025595Y-116728214D01*
X154711309Y-115737738D02*
X153111309Y-115737738D01*
X154711309Y-114823452D01*
X153111309Y-114823452D01*
X154711309Y-114061547D02*
X153111309Y-114061547D01*
X153111309Y-113680595D01*
X153187500Y-113452023D01*
X153339880Y-113299642D01*
X153492261Y-113223452D01*
X153797023Y-113147261D01*
X154025595Y-113147261D01*
X154330357Y-113223452D01*
X154482738Y-113299642D01*
X154635119Y-113452023D01*
X154711309Y-113680595D01*
X154711309Y-114061547D01*
X140335119Y-117261547D02*
X142392261Y-118632976D01*
X142011309Y-116728214D02*
X140411309Y-116728214D01*
X142011309Y-115813928D01*
X140411309Y-115813928D01*
X142011309Y-115052023D02*
X140411309Y-115052023D01*
X141554166Y-114518690D01*
X140411309Y-113985357D01*
X142011309Y-113985357D01*
X142011309Y-113223452D02*
X140411309Y-113223452D01*
X126314166Y-116956785D02*
X126314166Y-116194880D01*
X126771309Y-117109166D02*
X125171309Y-116575833D01*
X126771309Y-116042500D01*
X126771309Y-114671071D02*
X126771309Y-115585357D01*
X126771309Y-115128214D02*
X125171309Y-115128214D01*
X125399880Y-115280595D01*
X125552261Y-115432976D01*
X125628452Y-115585357D01*
X125171309Y-113223452D02*
X125171309Y-113985357D01*
X125933214Y-114061547D01*
X125857023Y-113985357D01*
X125780833Y-113832976D01*
X125780833Y-113452023D01*
X125857023Y-113299642D01*
X125933214Y-113223452D01*
X126085595Y-113147261D01*
X126466547Y-113147261D01*
X126618928Y-113223452D01*
X126695119Y-113299642D01*
X126771309Y-113452023D01*
X126771309Y-113832976D01*
X126695119Y-113985357D01*
X126618928Y-114061547D01*
X123774166Y-116956785D02*
X123774166Y-116194880D01*
X124231309Y-117109166D02*
X122631309Y-116575833D01*
X124231309Y-116042500D01*
X124231309Y-114671071D02*
X124231309Y-115585357D01*
X124231309Y-115128214D02*
X122631309Y-115128214D01*
X122859880Y-115280595D01*
X123012261Y-115432976D01*
X123088452Y-115585357D01*
X123164642Y-113299642D02*
X124231309Y-113299642D01*
X122555119Y-113680595D02*
X123697976Y-114061547D01*
X123697976Y-113071071D01*
X121234166Y-116956785D02*
X121234166Y-116194880D01*
X121691309Y-117109166D02*
X120091309Y-116575833D01*
X121691309Y-116042500D01*
X121691309Y-114671071D02*
X121691309Y-115585357D01*
X121691309Y-115128214D02*
X120091309Y-115128214D01*
X120319880Y-115280595D01*
X120472261Y-115432976D01*
X120548452Y-115585357D01*
X120091309Y-114137738D02*
X120091309Y-113147261D01*
X120700833Y-113680595D01*
X120700833Y-113452023D01*
X120777023Y-113299642D01*
X120853214Y-113223452D01*
X121005595Y-113147261D01*
X121386547Y-113147261D01*
X121538928Y-113223452D01*
X121615119Y-113299642D01*
X121691309Y-113452023D01*
X121691309Y-113909166D01*
X121615119Y-114061547D01*
X121538928Y-114137738D01*
X118694166Y-116956785D02*
X118694166Y-116194880D01*
X119151309Y-117109166D02*
X117551309Y-116575833D01*
X119151309Y-116042500D01*
X119151309Y-114671071D02*
X119151309Y-115585357D01*
X119151309Y-115128214D02*
X117551309Y-115128214D01*
X117779880Y-115280595D01*
X117932261Y-115432976D01*
X118008452Y-115585357D01*
X117703690Y-114061547D02*
X117627500Y-113985357D01*
X117551309Y-113832976D01*
X117551309Y-113452023D01*
X117627500Y-113299642D01*
X117703690Y-113223452D01*
X117856071Y-113147261D01*
X118008452Y-113147261D01*
X118237023Y-113223452D01*
X119151309Y-114137738D01*
X119151309Y-113147261D01*
X116154166Y-116956785D02*
X116154166Y-116194880D01*
X116611309Y-117109166D02*
X115011309Y-116575833D01*
X116611309Y-116042500D01*
X116611309Y-114671071D02*
X116611309Y-115585357D01*
X116611309Y-115128214D02*
X115011309Y-115128214D01*
X115239880Y-115280595D01*
X115392261Y-115432976D01*
X115468452Y-115585357D01*
X116611309Y-113147261D02*
X116611309Y-114061547D01*
X116611309Y-113604404D02*
X115011309Y-113604404D01*
X115239880Y-113756785D01*
X115392261Y-113909166D01*
X115468452Y-114061547D01*
X113614166Y-116956785D02*
X113614166Y-116194880D01*
X114071309Y-117109166D02*
X112471309Y-116575833D01*
X114071309Y-116042500D01*
X114071309Y-114671071D02*
X114071309Y-115585357D01*
X114071309Y-115128214D02*
X112471309Y-115128214D01*
X112699880Y-115280595D01*
X112852261Y-115432976D01*
X112928452Y-115585357D01*
X112471309Y-113680595D02*
X112471309Y-113528214D01*
X112547500Y-113375833D01*
X112623690Y-113299642D01*
X112776071Y-113223452D01*
X113080833Y-113147261D01*
X113461785Y-113147261D01*
X113766547Y-113223452D01*
X113918928Y-113299642D01*
X113995119Y-113375833D01*
X114071309Y-113528214D01*
X114071309Y-113680595D01*
X113995119Y-113832976D01*
X113918928Y-113909166D01*
X113766547Y-113985357D01*
X113461785Y-114061547D01*
X113080833Y-114061547D01*
X112776071Y-113985357D01*
X112623690Y-113909166D01*
X112547500Y-113832976D01*
X112471309Y-113680595D01*
X111074166Y-115432976D02*
X111074166Y-114671071D01*
X111531309Y-115585357D02*
X109931309Y-115052023D01*
X111531309Y-114518690D01*
X111531309Y-113909166D02*
X111531309Y-113604404D01*
X111455119Y-113452023D01*
X111378928Y-113375833D01*
X111150357Y-113223452D01*
X110845595Y-113147261D01*
X110236071Y-113147261D01*
X110083690Y-113223452D01*
X110007500Y-113299642D01*
X109931309Y-113452023D01*
X109931309Y-113756785D01*
X110007500Y-113909166D01*
X110083690Y-113985357D01*
X110236071Y-114061547D01*
X110617023Y-114061547D01*
X110769404Y-113985357D01*
X110845595Y-113909166D01*
X110921785Y-113756785D01*
X110921785Y-113452023D01*
X110845595Y-113299642D01*
X110769404Y-113223452D01*
X110617023Y-113147261D01*
X108534166Y-115432976D02*
X108534166Y-114671071D01*
X108991309Y-115585357D02*
X107391309Y-115052023D01*
X108991309Y-114518690D01*
X108077023Y-113756785D02*
X108000833Y-113909166D01*
X107924642Y-113985357D01*
X107772261Y-114061547D01*
X107696071Y-114061547D01*
X107543690Y-113985357D01*
X107467500Y-113909166D01*
X107391309Y-113756785D01*
X107391309Y-113452023D01*
X107467500Y-113299642D01*
X107543690Y-113223452D01*
X107696071Y-113147261D01*
X107772261Y-113147261D01*
X107924642Y-113223452D01*
X108000833Y-113299642D01*
X108077023Y-113452023D01*
X108077023Y-113756785D01*
X108153214Y-113909166D01*
X108229404Y-113985357D01*
X108381785Y-114061547D01*
X108686547Y-114061547D01*
X108838928Y-113985357D01*
X108915119Y-113909166D01*
X108991309Y-113756785D01*
X108991309Y-113452023D01*
X108915119Y-113299642D01*
X108838928Y-113223452D01*
X108686547Y-113147261D01*
X108381785Y-113147261D01*
X108229404Y-113223452D01*
X108153214Y-113299642D01*
X108077023Y-113452023D01*
X102235119Y-116652023D02*
X104292261Y-118023452D01*
X103911309Y-116118690D02*
X102311309Y-116118690D01*
X103911309Y-115356785D02*
X102311309Y-115356785D01*
X103911309Y-114442500D01*
X102311309Y-114442500D01*
X102311309Y-113909166D02*
X102311309Y-112994880D01*
X103911309Y-113452023D02*
X102311309Y-113452023D01*
X98678928Y-116042500D02*
X98755119Y-116118690D01*
X98831309Y-116347261D01*
X98831309Y-116499642D01*
X98755119Y-116728214D01*
X98602738Y-116880595D01*
X98450357Y-116956785D01*
X98145595Y-117032976D01*
X97917023Y-117032976D01*
X97612261Y-116956785D01*
X97459880Y-116880595D01*
X97307500Y-116728214D01*
X97231309Y-116499642D01*
X97231309Y-116347261D01*
X97307500Y-116118690D01*
X97383690Y-116042500D01*
X98831309Y-114594880D02*
X98831309Y-115356785D01*
X97231309Y-115356785D01*
X98831309Y-114061547D02*
X97231309Y-114061547D01*
X98831309Y-113147261D02*
X97917023Y-113832976D01*
X97231309Y-113147261D02*
X98145595Y-114061547D01*
X92075119Y-119309166D02*
X94132261Y-120509166D01*
X93751309Y-118042500D02*
X92989404Y-118509166D01*
X93751309Y-118842500D02*
X92151309Y-118842500D01*
X92151309Y-118309166D01*
X92227500Y-118175833D01*
X92303690Y-118109166D01*
X92456071Y-118042500D01*
X92684642Y-118042500D01*
X92837023Y-118109166D01*
X92913214Y-118175833D01*
X92989404Y-118309166D01*
X92989404Y-118842500D01*
X92913214Y-117442500D02*
X92913214Y-116975833D01*
X93751309Y-116775833D02*
X93751309Y-117442500D01*
X92151309Y-117442500D01*
X92151309Y-116775833D01*
X93675119Y-116242500D02*
X93751309Y-116042500D01*
X93751309Y-115709166D01*
X93675119Y-115575833D01*
X93598928Y-115509166D01*
X93446547Y-115442500D01*
X93294166Y-115442500D01*
X93141785Y-115509166D01*
X93065595Y-115575833D01*
X92989404Y-115709166D01*
X92913214Y-115975833D01*
X92837023Y-116109166D01*
X92760833Y-116175833D01*
X92608452Y-116242500D01*
X92456071Y-116242500D01*
X92303690Y-116175833D01*
X92227500Y-116109166D01*
X92151309Y-115975833D01*
X92151309Y-115642500D01*
X92227500Y-115442500D01*
X92913214Y-114842500D02*
X92913214Y-114375833D01*
X93751309Y-114175833D02*
X93751309Y-114842500D01*
X92151309Y-114842500D01*
X92151309Y-114175833D01*
X92151309Y-113775833D02*
X92151309Y-112975833D01*
X93751309Y-113375833D02*
X92151309Y-113375833D01*
X90754166Y-115432976D02*
X90754166Y-114671071D01*
X91211309Y-115585357D02*
X89611309Y-115052023D01*
X91211309Y-114518690D01*
X89611309Y-114137738D02*
X89611309Y-113071071D01*
X91211309Y-113756785D01*
X88214166Y-115432976D02*
X88214166Y-114671071D01*
X88671309Y-115585357D02*
X87071309Y-115052023D01*
X88671309Y-114518690D01*
X87071309Y-113299642D02*
X87071309Y-113604404D01*
X87147500Y-113756785D01*
X87223690Y-113832976D01*
X87452261Y-113985357D01*
X87757023Y-114061547D01*
X88366547Y-114061547D01*
X88518928Y-113985357D01*
X88595119Y-113909166D01*
X88671309Y-113756785D01*
X88671309Y-113452023D01*
X88595119Y-113299642D01*
X88518928Y-113223452D01*
X88366547Y-113147261D01*
X87985595Y-113147261D01*
X87833214Y-113223452D01*
X87757023Y-113299642D01*
X87680833Y-113452023D01*
X87680833Y-113756785D01*
X87757023Y-113909166D01*
X87833214Y-113985357D01*
X87985595Y-114061547D01*
X85674166Y-115432976D02*
X85674166Y-114671071D01*
X86131309Y-115585357D02*
X84531309Y-115052023D01*
X86131309Y-114518690D01*
X84531309Y-113223452D02*
X84531309Y-113985357D01*
X85293214Y-114061547D01*
X85217023Y-113985357D01*
X85140833Y-113832976D01*
X85140833Y-113452023D01*
X85217023Y-113299642D01*
X85293214Y-113223452D01*
X85445595Y-113147261D01*
X85826547Y-113147261D01*
X85978928Y-113223452D01*
X86055119Y-113299642D01*
X86131309Y-113452023D01*
X86131309Y-113832976D01*
X86055119Y-113985357D01*
X85978928Y-114061547D01*
X83134166Y-115432976D02*
X83134166Y-114671071D01*
X83591309Y-115585357D02*
X81991309Y-115052023D01*
X83591309Y-114518690D01*
X82524642Y-113299642D02*
X83591309Y-113299642D01*
X81915119Y-113680595D02*
X83057976Y-114061547D01*
X83057976Y-113071071D01*
X80594166Y-115432976D02*
X80594166Y-114671071D01*
X81051309Y-115585357D02*
X79451309Y-115052023D01*
X81051309Y-114518690D01*
X79451309Y-114137738D02*
X79451309Y-113147261D01*
X80060833Y-113680595D01*
X80060833Y-113452023D01*
X80137023Y-113299642D01*
X80213214Y-113223452D01*
X80365595Y-113147261D01*
X80746547Y-113147261D01*
X80898928Y-113223452D01*
X80975119Y-113299642D01*
X81051309Y-113452023D01*
X81051309Y-113909166D01*
X80975119Y-114061547D01*
X80898928Y-114137738D01*
X78054166Y-115432976D02*
X78054166Y-114671071D01*
X78511309Y-115585357D02*
X76911309Y-115052023D01*
X78511309Y-114518690D01*
X77063690Y-114061547D02*
X76987500Y-113985357D01*
X76911309Y-113832976D01*
X76911309Y-113452023D01*
X76987500Y-113299642D01*
X77063690Y-113223452D01*
X77216071Y-113147261D01*
X77368452Y-113147261D01*
X77597023Y-113223452D01*
X78511309Y-114137738D01*
X78511309Y-113147261D01*
X75514166Y-115432976D02*
X75514166Y-114671071D01*
X75971309Y-115585357D02*
X74371309Y-115052023D01*
X75971309Y-114518690D01*
X75971309Y-113147261D02*
X75971309Y-114061547D01*
X75971309Y-113604404D02*
X74371309Y-113604404D01*
X74599880Y-113756785D01*
X74752261Y-113909166D01*
X74828452Y-114061547D01*
X72974166Y-115432976D02*
X72974166Y-114671071D01*
X73431309Y-115585357D02*
X71831309Y-115052023D01*
X73431309Y-114518690D01*
X71831309Y-113680595D02*
X71831309Y-113528214D01*
X71907500Y-113375833D01*
X71983690Y-113299642D01*
X72136071Y-113223452D01*
X72440833Y-113147261D01*
X72821785Y-113147261D01*
X73126547Y-113223452D01*
X73278928Y-113299642D01*
X73355119Y-113375833D01*
X73431309Y-113528214D01*
X73431309Y-113680595D01*
X73355119Y-113832976D01*
X73278928Y-113909166D01*
X73126547Y-113985357D01*
X72821785Y-114061547D01*
X72440833Y-114061547D01*
X72136071Y-113985357D01*
X71983690Y-113909166D01*
X71907500Y-113832976D01*
X71831309Y-113680595D01*
X69215119Y-119128214D02*
X71272261Y-120413928D01*
X70891309Y-118628214D02*
X69291309Y-118628214D01*
X70434166Y-118128214D01*
X69291309Y-117628214D01*
X70891309Y-117628214D01*
X70891309Y-116056785D02*
X70129404Y-116556785D01*
X70891309Y-116913928D02*
X69291309Y-116913928D01*
X69291309Y-116342500D01*
X69367500Y-116199642D01*
X69443690Y-116128214D01*
X69596071Y-116056785D01*
X69824642Y-116056785D01*
X69977023Y-116128214D01*
X70053214Y-116199642D01*
X70129404Y-116342500D01*
X70129404Y-116913928D01*
X70053214Y-115413928D02*
X70053214Y-114913928D01*
X70891309Y-114699642D02*
X70891309Y-115413928D01*
X69291309Y-115413928D01*
X69291309Y-114699642D01*
X71043690Y-113056785D02*
X70967500Y-113199642D01*
X70815119Y-113342500D01*
X70586547Y-113556785D01*
X70510357Y-113699642D01*
X70510357Y-113842500D01*
X70891309Y-113771071D02*
X70815119Y-113913928D01*
X70662738Y-114056785D01*
X70357976Y-114128214D01*
X69824642Y-114128214D01*
X69519880Y-114056785D01*
X69367500Y-113913928D01*
X69291309Y-113771071D01*
X69291309Y-113485357D01*
X69367500Y-113342500D01*
X69519880Y-113199642D01*
X69824642Y-113128214D01*
X70357976Y-113128214D01*
X70662738Y-113199642D01*
X70815119Y-113342500D01*
X70891309Y-113485357D01*
X70891309Y-113771071D01*
X66675119Y-118709166D02*
X68732261Y-120080595D01*
X68351309Y-118175833D02*
X66751309Y-118175833D01*
X66751309Y-117109166D02*
X66751309Y-116804404D01*
X66827500Y-116652023D01*
X66979880Y-116499642D01*
X67284642Y-116423452D01*
X67817976Y-116423452D01*
X68122738Y-116499642D01*
X68275119Y-116652023D01*
X68351309Y-116804404D01*
X68351309Y-117109166D01*
X68275119Y-117261547D01*
X68122738Y-117413928D01*
X67817976Y-117490119D01*
X67284642Y-117490119D01*
X66979880Y-117413928D01*
X66827500Y-117261547D01*
X66751309Y-117109166D01*
X68351309Y-114823452D02*
X67589404Y-115356785D01*
X68351309Y-115737738D02*
X66751309Y-115737738D01*
X66751309Y-115128214D01*
X66827500Y-114975833D01*
X66903690Y-114899642D01*
X67056071Y-114823452D01*
X67284642Y-114823452D01*
X67437023Y-114899642D01*
X67513214Y-114975833D01*
X67589404Y-115128214D01*
X67589404Y-115737738D01*
X68503690Y-113071071D02*
X68427500Y-113223452D01*
X68275119Y-113375833D01*
X68046547Y-113604404D01*
X67970357Y-113756785D01*
X67970357Y-113909166D01*
X68351309Y-113832976D02*
X68275119Y-113985357D01*
X68122738Y-114137738D01*
X67817976Y-114213928D01*
X67284642Y-114213928D01*
X66979880Y-114137738D01*
X66827500Y-113985357D01*
X66751309Y-113832976D01*
X66751309Y-113528214D01*
X66827500Y-113375833D01*
X66979880Y-113223452D01*
X67284642Y-113147261D01*
X67817976Y-113147261D01*
X68122738Y-113223452D01*
X68275119Y-113375833D01*
X68351309Y-113528214D01*
X68351309Y-113832976D01*
X64135119Y-116423452D02*
X66192261Y-117794880D01*
X64211309Y-116042500D02*
X65811309Y-115661547D01*
X64668452Y-115356785D01*
X65811309Y-115052023D01*
X64211309Y-114671071D01*
X65811309Y-113147261D02*
X65049404Y-113680595D01*
X65811309Y-114061547D02*
X64211309Y-114061547D01*
X64211309Y-113452023D01*
X64287500Y-113299642D01*
X64363690Y-113223452D01*
X64516071Y-113147261D01*
X64744642Y-113147261D01*
X64897023Y-113223452D01*
X64973214Y-113299642D01*
X65049404Y-113452023D01*
X65049404Y-114061547D01*
X61595119Y-116194880D02*
X63652261Y-117566309D01*
X63271309Y-114747261D02*
X62509404Y-115280595D01*
X63271309Y-115661547D02*
X61671309Y-115661547D01*
X61671309Y-115052023D01*
X61747500Y-114899642D01*
X61823690Y-114823452D01*
X61976071Y-114747261D01*
X62204642Y-114747261D01*
X62357023Y-114823452D01*
X62433214Y-114899642D01*
X62509404Y-115052023D01*
X62509404Y-115661547D01*
X63271309Y-114061547D02*
X61671309Y-114061547D01*
X61671309Y-113680595D01*
X61747500Y-113452023D01*
X61899880Y-113299642D01*
X62052261Y-113223452D01*
X62357023Y-113147261D01*
X62585595Y-113147261D01*
X62890357Y-113223452D01*
X63042738Y-113299642D01*
X63195119Y-113452023D01*
X63271309Y-113680595D01*
X63271309Y-114061547D01*
X60731309Y-115585357D02*
X59131309Y-115585357D01*
X59131309Y-115204404D01*
X59207500Y-114975833D01*
X59359880Y-114823452D01*
X59512261Y-114747261D01*
X59817023Y-114671071D01*
X60045595Y-114671071D01*
X60350357Y-114747261D01*
X60502738Y-114823452D01*
X60655119Y-114975833D01*
X60731309Y-115204404D01*
X60731309Y-115585357D01*
X59131309Y-114137738D02*
X59131309Y-113071071D01*
X60731309Y-113756785D01*
X58191309Y-115585357D02*
X56591309Y-115585357D01*
X56591309Y-115204404D01*
X56667500Y-114975833D01*
X56819880Y-114823452D01*
X56972261Y-114747261D01*
X57277023Y-114671071D01*
X57505595Y-114671071D01*
X57810357Y-114747261D01*
X57962738Y-114823452D01*
X58115119Y-114975833D01*
X58191309Y-115204404D01*
X58191309Y-115585357D01*
X56591309Y-113299642D02*
X56591309Y-113604404D01*
X56667500Y-113756785D01*
X56743690Y-113832976D01*
X56972261Y-113985357D01*
X57277023Y-114061547D01*
X57886547Y-114061547D01*
X58038928Y-113985357D01*
X58115119Y-113909166D01*
X58191309Y-113756785D01*
X58191309Y-113452023D01*
X58115119Y-113299642D01*
X58038928Y-113223452D01*
X57886547Y-113147261D01*
X57505595Y-113147261D01*
X57353214Y-113223452D01*
X57277023Y-113299642D01*
X57200833Y-113452023D01*
X57200833Y-113756785D01*
X57277023Y-113909166D01*
X57353214Y-113985357D01*
X57505595Y-114061547D01*
X55651309Y-115585357D02*
X54051309Y-115585357D01*
X54051309Y-115204404D01*
X54127500Y-114975833D01*
X54279880Y-114823452D01*
X54432261Y-114747261D01*
X54737023Y-114671071D01*
X54965595Y-114671071D01*
X55270357Y-114747261D01*
X55422738Y-114823452D01*
X55575119Y-114975833D01*
X55651309Y-115204404D01*
X55651309Y-115585357D01*
X54051309Y-113223452D02*
X54051309Y-113985357D01*
X54813214Y-114061547D01*
X54737023Y-113985357D01*
X54660833Y-113832976D01*
X54660833Y-113452023D01*
X54737023Y-113299642D01*
X54813214Y-113223452D01*
X54965595Y-113147261D01*
X55346547Y-113147261D01*
X55498928Y-113223452D01*
X55575119Y-113299642D01*
X55651309Y-113452023D01*
X55651309Y-113832976D01*
X55575119Y-113985357D01*
X55498928Y-114061547D01*
X53111309Y-115585357D02*
X51511309Y-115585357D01*
X51511309Y-115204404D01*
X51587500Y-114975833D01*
X51739880Y-114823452D01*
X51892261Y-114747261D01*
X52197023Y-114671071D01*
X52425595Y-114671071D01*
X52730357Y-114747261D01*
X52882738Y-114823452D01*
X53035119Y-114975833D01*
X53111309Y-115204404D01*
X53111309Y-115585357D01*
X52044642Y-113299642D02*
X53111309Y-113299642D01*
X51435119Y-113680595D02*
X52577976Y-114061547D01*
X52577976Y-113071071D01*
X50571309Y-115585357D02*
X48971309Y-115585357D01*
X48971309Y-115204404D01*
X49047500Y-114975833D01*
X49199880Y-114823452D01*
X49352261Y-114747261D01*
X49657023Y-114671071D01*
X49885595Y-114671071D01*
X50190357Y-114747261D01*
X50342738Y-114823452D01*
X50495119Y-114975833D01*
X50571309Y-115204404D01*
X50571309Y-115585357D01*
X48971309Y-114137738D02*
X48971309Y-113147261D01*
X49580833Y-113680595D01*
X49580833Y-113452023D01*
X49657023Y-113299642D01*
X49733214Y-113223452D01*
X49885595Y-113147261D01*
X50266547Y-113147261D01*
X50418928Y-113223452D01*
X50495119Y-113299642D01*
X50571309Y-113452023D01*
X50571309Y-113909166D01*
X50495119Y-114061547D01*
X50418928Y-114137738D01*
X48031309Y-115585357D02*
X46431309Y-115585357D01*
X46431309Y-115204404D01*
X46507500Y-114975833D01*
X46659880Y-114823452D01*
X46812261Y-114747261D01*
X47117023Y-114671071D01*
X47345595Y-114671071D01*
X47650357Y-114747261D01*
X47802738Y-114823452D01*
X47955119Y-114975833D01*
X48031309Y-115204404D01*
X48031309Y-115585357D01*
X46583690Y-114061547D02*
X46507500Y-113985357D01*
X46431309Y-113832976D01*
X46431309Y-113452023D01*
X46507500Y-113299642D01*
X46583690Y-113223452D01*
X46736071Y-113147261D01*
X46888452Y-113147261D01*
X47117023Y-113223452D01*
X48031309Y-114137738D01*
X48031309Y-113147261D01*
X45491309Y-115585357D02*
X43891309Y-115585357D01*
X43891309Y-115204404D01*
X43967500Y-114975833D01*
X44119880Y-114823452D01*
X44272261Y-114747261D01*
X44577023Y-114671071D01*
X44805595Y-114671071D01*
X45110357Y-114747261D01*
X45262738Y-114823452D01*
X45415119Y-114975833D01*
X45491309Y-115204404D01*
X45491309Y-115585357D01*
X45491309Y-113147261D02*
X45491309Y-114061547D01*
X45491309Y-113604404D02*
X43891309Y-113604404D01*
X44119880Y-113756785D01*
X44272261Y-113909166D01*
X44348452Y-114061547D01*
X42951309Y-115585357D02*
X41351309Y-115585357D01*
X41351309Y-115204404D01*
X41427500Y-114975833D01*
X41579880Y-114823452D01*
X41732261Y-114747261D01*
X42037023Y-114671071D01*
X42265595Y-114671071D01*
X42570357Y-114747261D01*
X42722738Y-114823452D01*
X42875119Y-114975833D01*
X42951309Y-115204404D01*
X42951309Y-115585357D01*
X41351309Y-113680595D02*
X41351309Y-113528214D01*
X41427500Y-113375833D01*
X41503690Y-113299642D01*
X41656071Y-113223452D01*
X41960833Y-113147261D01*
X42341785Y-113147261D01*
X42646547Y-113223452D01*
X42798928Y-113299642D01*
X42875119Y-113375833D01*
X42951309Y-113528214D01*
X42951309Y-113680595D01*
X42875119Y-113832976D01*
X42798928Y-113909166D01*
X42646547Y-113985357D01*
X42341785Y-114061547D01*
X41960833Y-114061547D01*
X41656071Y-113985357D01*
X41503690Y-113909166D01*
X41427500Y-113832976D01*
X41351309Y-113680595D01*
X38887500Y-116499642D02*
X38811309Y-116652023D01*
X38811309Y-116880595D01*
X38887500Y-117109166D01*
X39039880Y-117261547D01*
X39192261Y-117337738D01*
X39497023Y-117413928D01*
X39725595Y-117413928D01*
X40030357Y-117337738D01*
X40182738Y-117261547D01*
X40335119Y-117109166D01*
X40411309Y-116880595D01*
X40411309Y-116728214D01*
X40335119Y-116499642D01*
X40258928Y-116423452D01*
X39725595Y-116423452D01*
X39725595Y-116728214D01*
X40411309Y-115737738D02*
X38811309Y-115737738D01*
X40411309Y-114823452D01*
X38811309Y-114823452D01*
X40411309Y-114061547D02*
X38811309Y-114061547D01*
X38811309Y-113680595D01*
X38887500Y-113452023D01*
X39039880Y-113299642D01*
X39192261Y-113223452D01*
X39497023Y-113147261D01*
X39725595Y-113147261D01*
X40030357Y-113223452D01*
X40182738Y-113299642D01*
X40335119Y-113452023D01*
X40411309Y-113680595D01*
X40411309Y-114061547D01*
X36347500Y-116499642D02*
X36271309Y-116652023D01*
X36271309Y-116880595D01*
X36347500Y-117109166D01*
X36499880Y-117261547D01*
X36652261Y-117337738D01*
X36957023Y-117413928D01*
X37185595Y-117413928D01*
X37490357Y-117337738D01*
X37642738Y-117261547D01*
X37795119Y-117109166D01*
X37871309Y-116880595D01*
X37871309Y-116728214D01*
X37795119Y-116499642D01*
X37718928Y-116423452D01*
X37185595Y-116423452D01*
X37185595Y-116728214D01*
X37871309Y-115737738D02*
X36271309Y-115737738D01*
X37871309Y-114823452D01*
X36271309Y-114823452D01*
X37871309Y-114061547D02*
X36271309Y-114061547D01*
X36271309Y-113680595D01*
X36347500Y-113452023D01*
X36499880Y-113299642D01*
X36652261Y-113223452D01*
X36957023Y-113147261D01*
X37185595Y-113147261D01*
X37490357Y-113223452D01*
X37642738Y-113299642D01*
X37795119Y-113452023D01*
X37871309Y-113680595D01*
X37871309Y-114061547D01*
X34721785Y-117337738D02*
X34721785Y-116118690D01*
X35331309Y-116728214D02*
X34112261Y-116728214D01*
X33731309Y-114594880D02*
X33731309Y-115356785D01*
X34493214Y-115432976D01*
X34417023Y-115356785D01*
X34340833Y-115204404D01*
X34340833Y-114823452D01*
X34417023Y-114671071D01*
X34493214Y-114594880D01*
X34645595Y-114518690D01*
X35026547Y-114518690D01*
X35178928Y-114594880D01*
X35255119Y-114671071D01*
X35331309Y-114823452D01*
X35331309Y-115204404D01*
X35255119Y-115356785D01*
X35178928Y-115432976D01*
X33731309Y-114061547D02*
X35331309Y-113528214D01*
X33731309Y-112994880D01*
X32181785Y-117337738D02*
X32181785Y-116118690D01*
X32791309Y-116728214D02*
X31572261Y-116728214D01*
X31191309Y-114594880D02*
X31191309Y-115356785D01*
X31953214Y-115432976D01*
X31877023Y-115356785D01*
X31800833Y-115204404D01*
X31800833Y-114823452D01*
X31877023Y-114671071D01*
X31953214Y-114594880D01*
X32105595Y-114518690D01*
X32486547Y-114518690D01*
X32638928Y-114594880D01*
X32715119Y-114671071D01*
X32791309Y-114823452D01*
X32791309Y-115204404D01*
X32715119Y-115356785D01*
X32638928Y-115432976D01*
X31191309Y-114061547D02*
X32791309Y-113528214D01*
X31191309Y-112994880D01*
D11*
X161766309Y-109712261D02*
X160813928Y-109712261D01*
X160718690Y-110664642D01*
X160813928Y-110569404D01*
X161004404Y-110474166D01*
X161480595Y-110474166D01*
X161671071Y-110569404D01*
X161766309Y-110664642D01*
X161861547Y-110855119D01*
X161861547Y-111331309D01*
X161766309Y-111521785D01*
X161671071Y-111617023D01*
X161480595Y-111712261D01*
X161004404Y-111712261D01*
X160813928Y-111617023D01*
X160718690Y-111521785D01*
X163575833Y-110378928D02*
X163575833Y-111712261D01*
X163099642Y-109617023D02*
X162623452Y-111045595D01*
X163861547Y-111045595D01*
X21208928Y-111712261D02*
X20066071Y-111712261D01*
X20637500Y-111712261D02*
X20637500Y-109712261D01*
X20447023Y-109997976D01*
X20256547Y-110188452D01*
X20066071Y-110283690D01*
D12*
X52697023Y-47759880D02*
X52363690Y-47283690D01*
X52125595Y-47759880D02*
X52125595Y-46759880D01*
X52506547Y-46759880D01*
X52601785Y-46807500D01*
X52649404Y-46855119D01*
X52697023Y-46950357D01*
X52697023Y-47093214D01*
X52649404Y-47188452D01*
X52601785Y-47236071D01*
X52506547Y-47283690D01*
X52125595Y-47283690D01*
D10*
X126414880Y-38623928D02*
X126891071Y-39957261D01*
X127367261Y-38623928D01*
X128510119Y-37957261D02*
X128700595Y-37957261D01*
X128891071Y-38052500D01*
X128986309Y-38147738D01*
X129081547Y-38338214D01*
X129176785Y-38719166D01*
X129176785Y-39195357D01*
X129081547Y-39576309D01*
X128986309Y-39766785D01*
X128891071Y-39862023D01*
X128700595Y-39957261D01*
X128510119Y-39957261D01*
X128319642Y-39862023D01*
X128224404Y-39766785D01*
X128129166Y-39576309D01*
X128033928Y-39195357D01*
X128033928Y-38719166D01*
X128129166Y-38338214D01*
X128224404Y-38147738D01*
X128319642Y-38052500D01*
X128510119Y-37957261D01*
X130033928Y-39766785D02*
X130129166Y-39862023D01*
X130033928Y-39957261D01*
X129938690Y-39862023D01*
X130033928Y-39766785D01*
X130033928Y-39957261D01*
X132033928Y-39957261D02*
X130891071Y-39957261D01*
X131462500Y-39957261D02*
X131462500Y-37957261D01*
X131272023Y-38242976D01*
X131081547Y-38433452D01*
X130891071Y-38528690D01*
X134414880Y-39195357D02*
X135938690Y-39195357D01*
X138224404Y-37957261D02*
X139462500Y-37957261D01*
X138795833Y-38719166D01*
X139081547Y-38719166D01*
X139272023Y-38814404D01*
X139367261Y-38909642D01*
X139462500Y-39100119D01*
X139462500Y-39576309D01*
X139367261Y-39766785D01*
X139272023Y-39862023D01*
X139081547Y-39957261D01*
X138510119Y-39957261D01*
X138319642Y-39862023D01*
X138224404Y-39766785D01*
X140319642Y-39766785D02*
X140414880Y-39862023D01*
X140319642Y-39957261D01*
X140224404Y-39862023D01*
X140319642Y-39766785D01*
X140319642Y-39957261D01*
X142319642Y-39957261D02*
X141176785Y-39957261D01*
X141748214Y-39957261D02*
X141748214Y-37957261D01*
X141557738Y-38242976D01*
X141367261Y-38433452D01*
X141176785Y-38528690D01*
X143176785Y-39766785D02*
X143272023Y-39862023D01*
X143176785Y-39957261D01*
X143081547Y-39862023D01*
X143176785Y-39766785D01*
X143176785Y-39957261D01*
X144033928Y-38147738D02*
X144129166Y-38052500D01*
X144319642Y-37957261D01*
X144795833Y-37957261D01*
X144986309Y-38052500D01*
X145081547Y-38147738D01*
X145176785Y-38338214D01*
X145176785Y-38528690D01*
X145081547Y-38814404D01*
X143938690Y-39957261D01*
X145176785Y-39957261D01*
X146414880Y-37957261D02*
X146605357Y-37957261D01*
X146795833Y-38052500D01*
X146891071Y-38147738D01*
X146986309Y-38338214D01*
X147081547Y-38719166D01*
X147081547Y-39195357D01*
X146986309Y-39576309D01*
X146891071Y-39766785D01*
X146795833Y-39862023D01*
X146605357Y-39957261D01*
X146414880Y-39957261D01*
X146224404Y-39862023D01*
X146129166Y-39766785D01*
X146033928Y-39576309D01*
X145938690Y-39195357D01*
X145938690Y-38719166D01*
X146033928Y-38338214D01*
X146129166Y-38147738D01*
X146224404Y-38052500D01*
X146414880Y-37957261D01*
X148986309Y-39957261D02*
X147843452Y-39957261D01*
X148414880Y-39957261D02*
X148414880Y-37957261D01*
X148224404Y-38242976D01*
X148033928Y-38433452D01*
X147843452Y-38528690D01*
X150129166Y-38814404D02*
X149938690Y-38719166D01*
X149843452Y-38623928D01*
X149748214Y-38433452D01*
X149748214Y-38338214D01*
X149843452Y-38147738D01*
X149938690Y-38052500D01*
X150129166Y-37957261D01*
X150510119Y-37957261D01*
X150700595Y-38052500D01*
X150795833Y-38147738D01*
X150891071Y-38338214D01*
X150891071Y-38433452D01*
X150795833Y-38623928D01*
X150700595Y-38719166D01*
X150510119Y-38814404D01*
X150129166Y-38814404D01*
X149938690Y-38909642D01*
X149843452Y-39004880D01*
X149748214Y-39195357D01*
X149748214Y-39576309D01*
X149843452Y-39766785D01*
X149938690Y-39862023D01*
X150129166Y-39957261D01*
X150510119Y-39957261D01*
X150700595Y-39862023D01*
X150795833Y-39766785D01*
X150891071Y-39576309D01*
X150891071Y-39195357D01*
X150795833Y-39004880D01*
X150700595Y-38909642D01*
X150510119Y-38814404D01*
X154414880Y-39957261D02*
X153748214Y-39004880D01*
X153272023Y-39957261D02*
X153272023Y-37957261D01*
X154033928Y-37957261D01*
X154224404Y-38052500D01*
X154319642Y-38147738D01*
X154414880Y-38338214D01*
X154414880Y-38623928D01*
X154319642Y-38814404D01*
X154224404Y-38909642D01*
X154033928Y-39004880D01*
X153272023Y-39004880D01*
X154986309Y-37957261D02*
X155652976Y-39957261D01*
X156319642Y-37957261D01*
X156986309Y-39195357D02*
X158510119Y-39195357D01*
X157748214Y-39957261D02*
X157748214Y-38433452D01*
X160033928Y-37957261D02*
X160033928Y-39385833D01*
X159938690Y-39671547D01*
X159748214Y-39862023D01*
X159462500Y-39957261D01*
X159272023Y-39957261D01*
X160986309Y-39957261D02*
X160986309Y-37957261D01*
X161652976Y-39385833D01*
X162319642Y-37957261D01*
X162319642Y-39957261D01*
D11*
X58612500Y-40409642D02*
X58612500Y-37409642D01*
X60326785Y-40409642D01*
X60326785Y-37409642D01*
X61755357Y-40409642D02*
X61755357Y-37409642D01*
X63469642Y-40409642D02*
X62183928Y-38695357D01*
X63469642Y-37409642D02*
X61755357Y-39123928D01*
X66469642Y-40123928D02*
X66326785Y-40266785D01*
X65898214Y-40409642D01*
X65612500Y-40409642D01*
X65183928Y-40266785D01*
X64898214Y-39981071D01*
X64755357Y-39695357D01*
X64612500Y-39123928D01*
X64612500Y-38695357D01*
X64755357Y-38123928D01*
X64898214Y-37838214D01*
X65183928Y-37552500D01*
X65612500Y-37409642D01*
X65898214Y-37409642D01*
X66326785Y-37552500D01*
X66469642Y-37695357D01*
X67755357Y-39266785D02*
X70041071Y-39266785D01*
X73183928Y-40123928D02*
X73041071Y-40266785D01*
X72612500Y-40409642D01*
X72326785Y-40409642D01*
X71898214Y-40266785D01*
X71612500Y-39981071D01*
X71469642Y-39695357D01*
X71326785Y-39123928D01*
X71326785Y-38695357D01*
X71469642Y-38123928D01*
X71612500Y-37838214D01*
X71898214Y-37552500D01*
X72326785Y-37409642D01*
X72612500Y-37409642D01*
X73041071Y-37552500D01*
X73183928Y-37695357D01*
X74469642Y-40409642D02*
X74469642Y-37409642D01*
X75612500Y-37409642D01*
X75898214Y-37552500D01*
X76041071Y-37695357D01*
X76183928Y-37981071D01*
X76183928Y-38409642D01*
X76041071Y-38695357D01*
X75898214Y-38838214D01*
X75612500Y-38981071D01*
X74469642Y-38981071D01*
X77469642Y-37409642D02*
X77469642Y-39838214D01*
X77612500Y-40123928D01*
X77755357Y-40266785D01*
X78041071Y-40409642D01*
X78612500Y-40409642D01*
X78898214Y-40266785D01*
X79041071Y-40123928D01*
X79183928Y-39838214D01*
X79183928Y-37409642D01*
X81898214Y-37409642D02*
X81326785Y-37409642D01*
X81041071Y-37552500D01*
X80898214Y-37695357D01*
X80612500Y-38123928D01*
X80469642Y-38695357D01*
X80469642Y-39838214D01*
X80612500Y-40123928D01*
X80755357Y-40266785D01*
X81041071Y-40409642D01*
X81612500Y-40409642D01*
X81898214Y-40266785D01*
X82041071Y-40123928D01*
X82183928Y-39838214D01*
X82183928Y-39123928D01*
X82041071Y-38838214D01*
X81898214Y-38695357D01*
X81612500Y-38552500D01*
X81041071Y-38552500D01*
X80755357Y-38695357D01*
X80612500Y-38838214D01*
X80469642Y-39123928D01*
X84898214Y-37409642D02*
X83469642Y-37409642D01*
X83326785Y-38838214D01*
X83469642Y-38695357D01*
X83755357Y-38552500D01*
X84469642Y-38552500D01*
X84755357Y-38695357D01*
X84898214Y-38838214D01*
X85041071Y-39123928D01*
X85041071Y-39838214D01*
X84898214Y-40123928D01*
X84755357Y-40266785D01*
X84469642Y-40409642D01*
X83755357Y-40409642D01*
X83469642Y-40266785D01*
X83326785Y-40123928D01*
X86898214Y-37409642D02*
X87183928Y-37409642D01*
X87469642Y-37552500D01*
X87612500Y-37695357D01*
X87755357Y-37981071D01*
X87898214Y-38552500D01*
X87898214Y-39266785D01*
X87755357Y-39838214D01*
X87612500Y-40123928D01*
X87469642Y-40266785D01*
X87183928Y-40409642D01*
X86898214Y-40409642D01*
X86612500Y-40266785D01*
X86469642Y-40123928D01*
X86326785Y-39838214D01*
X86183928Y-39266785D01*
X86183928Y-38552500D01*
X86326785Y-37981071D01*
X86469642Y-37695357D01*
X86612500Y-37552500D01*
X86898214Y-37409642D01*
X89041071Y-37695357D02*
X89183928Y-37552500D01*
X89469642Y-37409642D01*
X90183928Y-37409642D01*
X90469642Y-37552500D01*
X90612500Y-37695357D01*
X90755357Y-37981071D01*
X90755357Y-38266785D01*
X90612500Y-38695357D01*
X88898214Y-40409642D01*
X90755357Y-40409642D01*
D10*
X24852500Y-98786071D02*
X24852500Y-97286071D01*
X25209642Y-97286071D01*
X25423928Y-97357500D01*
X25566785Y-97500357D01*
X25638214Y-97643214D01*
X25709642Y-97928928D01*
X25709642Y-98143214D01*
X25638214Y-98428928D01*
X25566785Y-98571785D01*
X25423928Y-98714642D01*
X25209642Y-98786071D01*
X24852500Y-98786071D01*
X26352500Y-98786071D02*
X26352500Y-97286071D01*
X27923928Y-98786071D02*
X27423928Y-98071785D01*
X27066785Y-98786071D02*
X27066785Y-97286071D01*
X27638214Y-97286071D01*
X27781071Y-97357500D01*
X27852500Y-97428928D01*
X27923928Y-97571785D01*
X27923928Y-97786071D01*
X27852500Y-97928928D01*
X27781071Y-98000357D01*
X27638214Y-98071785D01*
X27066785Y-98071785D01*
X83066071Y-80577500D02*
X83780357Y-80577500D01*
X82923214Y-81006071D02*
X83423214Y-79506071D01*
X83923214Y-81006071D01*
X84637500Y-80148928D02*
X84494642Y-80077500D01*
X84423214Y-80006071D01*
X84351785Y-79863214D01*
X84351785Y-79791785D01*
X84423214Y-79648928D01*
X84494642Y-79577500D01*
X84637500Y-79506071D01*
X84923214Y-79506071D01*
X85066071Y-79577500D01*
X85137500Y-79648928D01*
X85208928Y-79791785D01*
X85208928Y-79863214D01*
X85137500Y-80006071D01*
X85066071Y-80077500D01*
X84923214Y-80148928D01*
X84637500Y-80148928D01*
X84494642Y-80220357D01*
X84423214Y-80291785D01*
X84351785Y-80434642D01*
X84351785Y-80720357D01*
X84423214Y-80863214D01*
X84494642Y-80934642D01*
X84637500Y-81006071D01*
X84923214Y-81006071D01*
X85066071Y-80934642D01*
X85137500Y-80863214D01*
X85208928Y-80720357D01*
X85208928Y-80434642D01*
X85137500Y-80291785D01*
X85066071Y-80220357D01*
X84923214Y-80148928D01*
X83066071Y-78037500D02*
X83780357Y-78037500D01*
X82923214Y-78466071D02*
X83423214Y-76966071D01*
X83923214Y-78466071D01*
X84494642Y-78466071D02*
X84780357Y-78466071D01*
X84923214Y-78394642D01*
X84994642Y-78323214D01*
X85137500Y-78108928D01*
X85208928Y-77823214D01*
X85208928Y-77251785D01*
X85137500Y-77108928D01*
X85066071Y-77037500D01*
X84923214Y-76966071D01*
X84637500Y-76966071D01*
X84494642Y-77037500D01*
X84423214Y-77108928D01*
X84351785Y-77251785D01*
X84351785Y-77608928D01*
X84423214Y-77751785D01*
X84494642Y-77823214D01*
X84637500Y-77894642D01*
X84923214Y-77894642D01*
X85066071Y-77823214D01*
X85137500Y-77751785D01*
X85208928Y-77608928D01*
X82351785Y-75497500D02*
X83066071Y-75497500D01*
X82208928Y-75926071D02*
X82708928Y-74426071D01*
X83208928Y-75926071D01*
X84494642Y-75926071D02*
X83637500Y-75926071D01*
X84066071Y-75926071D02*
X84066071Y-74426071D01*
X83923214Y-74640357D01*
X83780357Y-74783214D01*
X83637500Y-74854642D01*
X85423214Y-74426071D02*
X85566071Y-74426071D01*
X85708928Y-74497500D01*
X85780357Y-74568928D01*
X85851785Y-74711785D01*
X85923214Y-74997500D01*
X85923214Y-75354642D01*
X85851785Y-75640357D01*
X85780357Y-75783214D01*
X85708928Y-75854642D01*
X85566071Y-75926071D01*
X85423214Y-75926071D01*
X85280357Y-75854642D01*
X85208928Y-75783214D01*
X85137500Y-75640357D01*
X85066071Y-75354642D01*
X85066071Y-74997500D01*
X85137500Y-74711785D01*
X85208928Y-74568928D01*
X85280357Y-74497500D01*
X85423214Y-74426071D01*
X82351785Y-72957500D02*
X83066071Y-72957500D01*
X82208928Y-73386071D02*
X82708928Y-71886071D01*
X83208928Y-73386071D01*
X84494642Y-73386071D02*
X83637500Y-73386071D01*
X84066071Y-73386071D02*
X84066071Y-71886071D01*
X83923214Y-72100357D01*
X83780357Y-72243214D01*
X83637500Y-72314642D01*
X85923214Y-73386071D02*
X85066071Y-73386071D01*
X85494642Y-73386071D02*
X85494642Y-71886071D01*
X85351785Y-72100357D01*
X85208928Y-72243214D01*
X85066071Y-72314642D01*
X82351785Y-70417500D02*
X83066071Y-70417500D01*
X82208928Y-70846071D02*
X82708928Y-69346071D01*
X83208928Y-70846071D01*
X84494642Y-70846071D02*
X83637500Y-70846071D01*
X84066071Y-70846071D02*
X84066071Y-69346071D01*
X83923214Y-69560357D01*
X83780357Y-69703214D01*
X83637500Y-69774642D01*
X85066071Y-69488928D02*
X85137500Y-69417500D01*
X85280357Y-69346071D01*
X85637500Y-69346071D01*
X85780357Y-69417500D01*
X85851785Y-69488928D01*
X85923214Y-69631785D01*
X85923214Y-69774642D01*
X85851785Y-69988928D01*
X84994642Y-70846071D01*
X85923214Y-70846071D01*
X82351785Y-67877500D02*
X83066071Y-67877500D01*
X82208928Y-68306071D02*
X82708928Y-66806071D01*
X83208928Y-68306071D01*
X84494642Y-68306071D02*
X83637500Y-68306071D01*
X84066071Y-68306071D02*
X84066071Y-66806071D01*
X83923214Y-67020357D01*
X83780357Y-67163214D01*
X83637500Y-67234642D01*
X84994642Y-66806071D02*
X85923214Y-66806071D01*
X85423214Y-67377500D01*
X85637500Y-67377500D01*
X85780357Y-67448928D01*
X85851785Y-67520357D01*
X85923214Y-67663214D01*
X85923214Y-68020357D01*
X85851785Y-68163214D01*
X85780357Y-68234642D01*
X85637500Y-68306071D01*
X85208928Y-68306071D01*
X85066071Y-68234642D01*
X84994642Y-68163214D01*
X82351785Y-65337500D02*
X83066071Y-65337500D01*
X82208928Y-65766071D02*
X82708928Y-64266071D01*
X83208928Y-65766071D01*
X84494642Y-65766071D02*
X83637500Y-65766071D01*
X84066071Y-65766071D02*
X84066071Y-64266071D01*
X83923214Y-64480357D01*
X83780357Y-64623214D01*
X83637500Y-64694642D01*
X85780357Y-64766071D02*
X85780357Y-65766071D01*
X85423214Y-64194642D02*
X85066071Y-65266071D01*
X85994642Y-65266071D01*
X82351785Y-62797500D02*
X83066071Y-62797500D01*
X82208928Y-63226071D02*
X82708928Y-61726071D01*
X83208928Y-63226071D01*
X84494642Y-63226071D02*
X83637500Y-63226071D01*
X84066071Y-63226071D02*
X84066071Y-61726071D01*
X83923214Y-61940357D01*
X83780357Y-62083214D01*
X83637500Y-62154642D01*
X85851785Y-61726071D02*
X85137500Y-61726071D01*
X85066071Y-62440357D01*
X85137500Y-62368928D01*
X85280357Y-62297500D01*
X85637500Y-62297500D01*
X85780357Y-62368928D01*
X85851785Y-62440357D01*
X85923214Y-62583214D01*
X85923214Y-62940357D01*
X85851785Y-63083214D01*
X85780357Y-63154642D01*
X85637500Y-63226071D01*
X85280357Y-63226071D01*
X85137500Y-63154642D01*
X85066071Y-63083214D01*
X82626071Y-60051071D02*
X82626071Y-58551071D01*
X84411785Y-58479642D02*
X83126071Y-60408214D01*
X85197500Y-58551071D02*
X85483214Y-58551071D01*
X85626071Y-58622500D01*
X85768928Y-58765357D01*
X85840357Y-59051071D01*
X85840357Y-59551071D01*
X85768928Y-59836785D01*
X85626071Y-59979642D01*
X85483214Y-60051071D01*
X85197500Y-60051071D01*
X85054642Y-59979642D01*
X84911785Y-59836785D01*
X84840357Y-59551071D01*
X84840357Y-59051071D01*
X84911785Y-58765357D01*
X85054642Y-58622500D01*
X85197500Y-58551071D01*
X86483214Y-59479642D02*
X87626071Y-59479642D01*
X88268928Y-59622500D02*
X88983214Y-59622500D01*
X88126071Y-60051071D02*
X88626071Y-58551071D01*
X89126071Y-60051071D01*
X90268928Y-60051071D02*
X90268928Y-58551071D01*
X90268928Y-59979642D02*
X90126071Y-60051071D01*
X89840357Y-60051071D01*
X89697500Y-59979642D01*
X89626071Y-59908214D01*
X89554642Y-59765357D01*
X89554642Y-59336785D01*
X89626071Y-59193928D01*
X89697500Y-59122500D01*
X89840357Y-59051071D01*
X90126071Y-59051071D01*
X90268928Y-59122500D01*
X91626071Y-60051071D02*
X91626071Y-58551071D01*
X91626071Y-59979642D02*
X91483214Y-60051071D01*
X91197500Y-60051071D01*
X91054642Y-59979642D01*
X90983214Y-59908214D01*
X90911785Y-59765357D01*
X90911785Y-59336785D01*
X90983214Y-59193928D01*
X91054642Y-59122500D01*
X91197500Y-59051071D01*
X91483214Y-59051071D01*
X91626071Y-59122500D01*
X92340357Y-60051071D02*
X92340357Y-59051071D01*
X92340357Y-59336785D02*
X92411785Y-59193928D01*
X92483214Y-59122500D01*
X92626071Y-59051071D01*
X92768928Y-59051071D01*
X93268928Y-59908214D02*
X93340357Y-59979642D01*
X93268928Y-60051071D01*
X93197500Y-59979642D01*
X93268928Y-59908214D01*
X93268928Y-60051071D01*
X99008928Y-41001071D02*
X98151785Y-41001071D01*
X98580357Y-41001071D02*
X98580357Y-39501071D01*
X98437500Y-39715357D01*
X98294642Y-39858214D01*
X98151785Y-39929642D01*
X99651785Y-40858214D02*
X99723214Y-40929642D01*
X99651785Y-41001071D01*
X99580357Y-40929642D01*
X99651785Y-40858214D01*
X99651785Y-41001071D01*
X100366071Y-40858214D02*
X100437500Y-40929642D01*
X100366071Y-41001071D01*
X100294642Y-40929642D01*
X100366071Y-40858214D01*
X100366071Y-41001071D01*
X101080357Y-40858214D02*
X101151785Y-40929642D01*
X101080357Y-41001071D01*
X101008928Y-40929642D01*
X101080357Y-40858214D01*
X101080357Y-41001071D01*
X102437500Y-40001071D02*
X102437500Y-41001071D01*
X102080357Y-39429642D02*
X101723214Y-40501071D01*
X102651785Y-40501071D01*
X104366071Y-41001071D02*
X104366071Y-39501071D01*
X104866071Y-40572500D01*
X105366071Y-39501071D01*
X105366071Y-41001071D01*
X106080357Y-41001071D02*
X106080357Y-39501071D01*
X106080357Y-40215357D02*
X106937500Y-40215357D01*
X106937500Y-41001071D02*
X106937500Y-39501071D01*
X107508928Y-40001071D02*
X108294642Y-40001071D01*
X107508928Y-41001071D01*
X108294642Y-41001071D01*
D11*
X117475357Y-39227261D02*
X118618214Y-39227261D01*
X118046785Y-41227261D02*
X118046785Y-39227261D01*
X120142023Y-41227261D02*
X120142023Y-40179642D01*
X120046785Y-39989166D01*
X119856309Y-39893928D01*
X119475357Y-39893928D01*
X119284880Y-39989166D01*
X120142023Y-41132023D02*
X119951547Y-41227261D01*
X119475357Y-41227261D01*
X119284880Y-41132023D01*
X119189642Y-40941547D01*
X119189642Y-40751071D01*
X119284880Y-40560595D01*
X119475357Y-40465357D01*
X119951547Y-40465357D01*
X120142023Y-40370119D01*
X121094404Y-41227261D02*
X121094404Y-39227261D01*
X121284880Y-40465357D02*
X121856309Y-41227261D01*
X121856309Y-39893928D02*
X121094404Y-40655833D01*
X122427738Y-39893928D02*
X123189642Y-39893928D01*
X122713452Y-39227261D02*
X122713452Y-40941547D01*
X122808690Y-41132023D01*
X122999166Y-41227261D01*
X123189642Y-41227261D01*
D10*
X123186071Y-51633214D02*
X123186071Y-51061785D01*
X124186071Y-51418928D02*
X122900357Y-51418928D01*
X122757500Y-51347500D01*
X122686071Y-51204642D01*
X122686071Y-51061785D01*
X122614642Y-49490357D02*
X124543214Y-50776071D01*
X123186071Y-48347500D02*
X124186071Y-48347500D01*
X122614642Y-48704642D02*
X123686071Y-49061785D01*
X123686071Y-48133214D01*
X118106071Y-51633214D02*
X118106071Y-51061785D01*
X119106071Y-51418928D02*
X117820357Y-51418928D01*
X117677500Y-51347500D01*
X117606071Y-51204642D01*
X117606071Y-51061785D01*
X117534642Y-49490357D02*
X119463214Y-50776071D01*
X119106071Y-48204642D02*
X119106071Y-49061785D01*
X119106071Y-48633214D02*
X117606071Y-48633214D01*
X117820357Y-48776071D01*
X117963214Y-48918928D01*
X118034642Y-49061785D01*
X120646071Y-51633214D02*
X120646071Y-51061785D01*
X121646071Y-51418928D02*
X120360357Y-51418928D01*
X120217500Y-51347500D01*
X120146071Y-51204642D01*
X120146071Y-51061785D01*
X120074642Y-49490357D02*
X122003214Y-50776071D01*
X120288928Y-49061785D02*
X120217500Y-48990357D01*
X120146071Y-48847500D01*
X120146071Y-48490357D01*
X120217500Y-48347500D01*
X120288928Y-48276071D01*
X120431785Y-48204642D01*
X120574642Y-48204642D01*
X120788928Y-48276071D01*
X121646071Y-49133214D01*
X121646071Y-48204642D01*
D12*
X22263214Y-82902500D02*
X22148928Y-82845357D01*
X21977500Y-82845357D01*
X21806071Y-82902500D01*
X21691785Y-83016785D01*
X21634642Y-83131071D01*
X21577500Y-83359642D01*
X21577500Y-83531071D01*
X21634642Y-83759642D01*
X21691785Y-83873928D01*
X21806071Y-83988214D01*
X21977500Y-84045357D01*
X22091785Y-84045357D01*
X22263214Y-83988214D01*
X22320357Y-83931071D01*
X22320357Y-83531071D01*
X22091785Y-83531071D01*
X22834642Y-84045357D02*
X22834642Y-82845357D01*
X23520357Y-84045357D01*
X23520357Y-82845357D01*
X24091785Y-84045357D02*
X24091785Y-82845357D01*
X24377500Y-82845357D01*
X24548928Y-82902500D01*
X24663214Y-83016785D01*
X24720357Y-83131071D01*
X24777500Y-83359642D01*
X24777500Y-83531071D01*
X24720357Y-83759642D01*
X24663214Y-83873928D01*
X24548928Y-83988214D01*
X24377500Y-84045357D01*
X24091785Y-84045357D01*
X21577500Y-75860357D02*
X21977500Y-77060357D01*
X22377500Y-75860357D01*
X22777500Y-77060357D02*
X22777500Y-75860357D01*
X23234642Y-75860357D01*
X23348928Y-75917500D01*
X23406071Y-75974642D01*
X23463214Y-76088928D01*
X23463214Y-76260357D01*
X23406071Y-76374642D01*
X23348928Y-76431785D01*
X23234642Y-76488928D01*
X22777500Y-76488928D01*
X24377500Y-76431785D02*
X24548928Y-76488928D01*
X24606071Y-76546071D01*
X24663214Y-76660357D01*
X24663214Y-76831785D01*
X24606071Y-76946071D01*
X24548928Y-77003214D01*
X24434642Y-77060357D01*
X23977500Y-77060357D01*
X23977500Y-75860357D01*
X24377500Y-75860357D01*
X24491785Y-75917500D01*
X24548928Y-75974642D01*
X24606071Y-76088928D01*
X24606071Y-76203214D01*
X24548928Y-76317500D01*
X24491785Y-76374642D01*
X24377500Y-76431785D01*
X23977500Y-76431785D01*
D10*
X25808928Y-101326071D02*
X25308928Y-100611785D01*
X24951785Y-101326071D02*
X24951785Y-99826071D01*
X25523214Y-99826071D01*
X25666071Y-99897500D01*
X25737500Y-99968928D01*
X25808928Y-100111785D01*
X25808928Y-100326071D01*
X25737500Y-100468928D01*
X25666071Y-100540357D01*
X25523214Y-100611785D01*
X24951785Y-100611785D01*
X27523214Y-99754642D02*
X26237500Y-101683214D01*
X27880357Y-99826071D02*
X28237500Y-101326071D01*
X28523214Y-100254642D01*
X28808928Y-101326071D01*
X29166071Y-99826071D01*
X25388214Y-94674642D02*
X24102500Y-96603214D01*
X25745357Y-94746071D02*
X26102500Y-96246071D01*
X26388214Y-95174642D01*
X26673928Y-96246071D01*
X27031071Y-94746071D01*
X28459642Y-96246071D02*
X27959642Y-95531785D01*
X27602500Y-96246071D02*
X27602500Y-94746071D01*
X28173928Y-94746071D01*
X28316785Y-94817500D01*
X28388214Y-94888928D01*
X28459642Y-95031785D01*
X28459642Y-95246071D01*
X28388214Y-95388928D01*
X28316785Y-95460357D01*
X28173928Y-95531785D01*
X27602500Y-95531785D01*
X131127500Y-94297500D02*
X131127500Y-96837500D01*
X136207500Y-94297500D02*
X131127500Y-94297500D01*
X136207500Y-96837500D02*
X136207500Y-94297500D01*
X131127500Y-96837500D02*
X136207500Y-96837500D01*
X156527500Y-106997500D02*
X156527500Y-104457500D01*
X161607500Y-106997500D02*
X156527500Y-106997500D01*
X161607500Y-104457500D02*
X161607500Y-106997500D01*
X156527500Y-104457500D02*
X161607500Y-104457500D01*
D11*
X162127500Y-107187857D02*
X162056071Y-107330714D01*
X162056071Y-107545000D01*
X162127500Y-107759285D01*
X162270357Y-107902142D01*
X162413214Y-107973571D01*
X162698928Y-108045000D01*
X162913214Y-108045000D01*
X163198928Y-107973571D01*
X163341785Y-107902142D01*
X163484642Y-107759285D01*
X163556071Y-107545000D01*
X163556071Y-107402142D01*
X163484642Y-107187857D01*
X163413214Y-107116428D01*
X162913214Y-107116428D01*
X162913214Y-107402142D01*
X163556071Y-106473571D02*
X162056071Y-106473571D01*
X163556071Y-105616428D01*
X162056071Y-105616428D01*
X163556071Y-104902142D02*
X162056071Y-104902142D01*
X162056071Y-104545000D01*
X162127500Y-104330714D01*
X162270357Y-104187857D01*
X162413214Y-104116428D01*
X162698928Y-104045000D01*
X162913214Y-104045000D01*
X163198928Y-104116428D01*
X163341785Y-104187857D01*
X163484642Y-104330714D01*
X163556071Y-104545000D01*
X163556071Y-104902142D01*
X131350000Y-92523571D02*
X131850000Y-94023571D01*
X132350000Y-92523571D01*
X133707142Y-93880714D02*
X133635714Y-93952142D01*
X133421428Y-94023571D01*
X133278571Y-94023571D01*
X133064285Y-93952142D01*
X132921428Y-93809285D01*
X132850000Y-93666428D01*
X132778571Y-93380714D01*
X132778571Y-93166428D01*
X132850000Y-92880714D01*
X132921428Y-92737857D01*
X133064285Y-92595000D01*
X133278571Y-92523571D01*
X133421428Y-92523571D01*
X133635714Y-92595000D01*
X133707142Y-92666428D01*
X135207142Y-93880714D02*
X135135714Y-93952142D01*
X134921428Y-94023571D01*
X134778571Y-94023571D01*
X134564285Y-93952142D01*
X134421428Y-93809285D01*
X134350000Y-93666428D01*
X134278571Y-93380714D01*
X134278571Y-93166428D01*
X134350000Y-92880714D01*
X134421428Y-92737857D01*
X134564285Y-92595000D01*
X134778571Y-92523571D01*
X134921428Y-92523571D01*
X135135714Y-92595000D01*
X135207142Y-92666428D01*
X151824642Y-86323928D02*
X153753214Y-87609642D01*
X153396071Y-85823928D02*
X151896071Y-85823928D01*
X152967500Y-85323928D01*
X151896071Y-84823928D01*
X153396071Y-84823928D01*
X153396071Y-83252500D02*
X152681785Y-83752500D01*
X153396071Y-84109642D02*
X151896071Y-84109642D01*
X151896071Y-83538214D01*
X151967500Y-83395357D01*
X152038928Y-83323928D01*
X152181785Y-83252500D01*
X152396071Y-83252500D01*
X152538928Y-83323928D01*
X152610357Y-83395357D01*
X152681785Y-83538214D01*
X152681785Y-84109642D01*
X149284642Y-86323928D02*
X151213214Y-87609642D01*
X150856071Y-85823928D02*
X149356071Y-85823928D01*
X149356071Y-84823928D02*
X149356071Y-84538214D01*
X149427500Y-84395357D01*
X149570357Y-84252500D01*
X149856071Y-84181071D01*
X150356071Y-84181071D01*
X150641785Y-84252500D01*
X150784642Y-84395357D01*
X150856071Y-84538214D01*
X150856071Y-84823928D01*
X150784642Y-84966785D01*
X150641785Y-85109642D01*
X150356071Y-85181071D01*
X149856071Y-85181071D01*
X149570357Y-85109642D01*
X149427500Y-84966785D01*
X149356071Y-84823928D01*
X146744642Y-86323928D02*
X148673214Y-87609642D01*
X148316071Y-84966785D02*
X147601785Y-85466785D01*
X148316071Y-85823928D02*
X146816071Y-85823928D01*
X146816071Y-85252500D01*
X146887500Y-85109642D01*
X146958928Y-85038214D01*
X147101785Y-84966785D01*
X147316071Y-84966785D01*
X147458928Y-85038214D01*
X147530357Y-85109642D01*
X147601785Y-85252500D01*
X147601785Y-85823928D01*
X148316071Y-84323928D02*
X146816071Y-84323928D01*
X146816071Y-83966785D01*
X146887500Y-83752500D01*
X147030357Y-83609642D01*
X147173214Y-83538214D01*
X147458928Y-83466785D01*
X147673214Y-83466785D01*
X147958928Y-83538214D01*
X148101785Y-83609642D01*
X148244642Y-83752500D01*
X148316071Y-83966785D01*
X148316071Y-84323928D01*
X144204642Y-86323928D02*
X146133214Y-87609642D01*
X144276071Y-85966785D02*
X145776071Y-85609642D01*
X144704642Y-85323928D01*
X145776071Y-85038214D01*
X144276071Y-84681071D01*
X145776071Y-83252500D02*
X145061785Y-83752500D01*
X145776071Y-84109642D02*
X144276071Y-84109642D01*
X144276071Y-83538214D01*
X144347500Y-83395357D01*
X144418928Y-83323928D01*
X144561785Y-83252500D01*
X144776071Y-83252500D01*
X144918928Y-83323928D01*
X144990357Y-83395357D01*
X145061785Y-83538214D01*
X145061785Y-84109642D01*
X143236071Y-86538214D02*
X142521785Y-87038214D01*
X143236071Y-87395357D02*
X141736071Y-87395357D01*
X141736071Y-86823928D01*
X141807500Y-86681071D01*
X141878928Y-86609642D01*
X142021785Y-86538214D01*
X142236071Y-86538214D01*
X142378928Y-86609642D01*
X142450357Y-86681071D01*
X142521785Y-86823928D01*
X142521785Y-87395357D01*
X141664642Y-84823928D02*
X143593214Y-86109642D01*
X141736071Y-84466785D02*
X143236071Y-84109642D01*
X142164642Y-83823928D01*
X143236071Y-83538214D01*
X141736071Y-83181071D01*
X140696071Y-87395357D02*
X139196071Y-87395357D01*
X139196071Y-86823928D01*
X139267500Y-86681071D01*
X139338928Y-86609642D01*
X139481785Y-86538214D01*
X139696071Y-86538214D01*
X139838928Y-86609642D01*
X139910357Y-86681071D01*
X139981785Y-86823928D01*
X139981785Y-87395357D01*
X140696071Y-85895357D02*
X139196071Y-85895357D01*
X139910357Y-85895357D02*
X139910357Y-85038214D01*
X140696071Y-85038214D02*
X139196071Y-85038214D01*
X140696071Y-84323928D02*
X139196071Y-84323928D01*
X139338928Y-83681071D02*
X139267500Y-83609642D01*
X139196071Y-83466785D01*
X139196071Y-83109642D01*
X139267500Y-82966785D01*
X139338928Y-82895357D01*
X139481785Y-82823928D01*
X139624642Y-82823928D01*
X139838928Y-82895357D01*
X140696071Y-83752500D01*
X140696071Y-82823928D01*
X138013214Y-86538214D02*
X138084642Y-86609642D01*
X138156071Y-86823928D01*
X138156071Y-86966785D01*
X138084642Y-87181071D01*
X137941785Y-87323928D01*
X137798928Y-87395357D01*
X137513214Y-87466785D01*
X137298928Y-87466785D01*
X137013214Y-87395357D01*
X136870357Y-87323928D01*
X136727500Y-87181071D01*
X136656071Y-86966785D01*
X136656071Y-86823928D01*
X136727500Y-86609642D01*
X136798928Y-86538214D01*
X138156071Y-85181071D02*
X138156071Y-85895357D01*
X136656071Y-85895357D01*
X138156071Y-84681071D02*
X136656071Y-84681071D01*
X138156071Y-83823928D02*
X137298928Y-84466785D01*
X136656071Y-83823928D02*
X137513214Y-84681071D01*
X54638214Y-83306071D02*
X54638214Y-84377500D01*
X54566785Y-84591785D01*
X54423928Y-84734642D01*
X54209642Y-84806071D01*
X54066785Y-84806071D01*
X55352500Y-84806071D02*
X55352500Y-83306071D01*
X55923928Y-83306071D01*
X56066785Y-83377500D01*
X56138214Y-83448928D01*
X56209642Y-83591785D01*
X56209642Y-83806071D01*
X56138214Y-83948928D01*
X56066785Y-84020357D01*
X55923928Y-84091785D01*
X55352500Y-84091785D01*
X57638214Y-84806071D02*
X56781071Y-84806071D01*
X57209642Y-84806071D02*
X57209642Y-83306071D01*
X57066785Y-83520357D01*
X56923928Y-83663214D01*
X56781071Y-83734642D01*
X58281071Y-84663214D02*
X58352500Y-84734642D01*
X58281071Y-84806071D01*
X58209642Y-84734642D01*
X58281071Y-84663214D01*
X58281071Y-84806071D01*
X58281071Y-83877500D02*
X58352500Y-83948928D01*
X58281071Y-84020357D01*
X58209642Y-83948928D01*
X58281071Y-83877500D01*
X58281071Y-84020357D01*
X54209642Y-87356071D02*
X54209642Y-85856071D01*
X54709642Y-86927500D01*
X55209642Y-85856071D01*
X55209642Y-87356071D01*
X56209642Y-85856071D02*
X56495357Y-85856071D01*
X56638214Y-85927500D01*
X56781071Y-86070357D01*
X56852500Y-86356071D01*
X56852500Y-86856071D01*
X56781071Y-87141785D01*
X56638214Y-87284642D01*
X56495357Y-87356071D01*
X56209642Y-87356071D01*
X56066785Y-87284642D01*
X55923928Y-87141785D01*
X55852500Y-86856071D01*
X55852500Y-86356071D01*
X55923928Y-86070357D01*
X56066785Y-85927500D01*
X56209642Y-85856071D01*
X57423928Y-87284642D02*
X57638214Y-87356071D01*
X57995357Y-87356071D01*
X58138214Y-87284642D01*
X58209642Y-87213214D01*
X58281071Y-87070357D01*
X58281071Y-86927500D01*
X58209642Y-86784642D01*
X58138214Y-86713214D01*
X57995357Y-86641785D01*
X57709642Y-86570357D01*
X57566785Y-86498928D01*
X57495357Y-86427500D01*
X57423928Y-86284642D01*
X57423928Y-86141785D01*
X57495357Y-85998928D01*
X57566785Y-85927500D01*
X57709642Y-85856071D01*
X58066785Y-85856071D01*
X58281071Y-85927500D01*
X59566785Y-85856071D02*
X59281071Y-85856071D01*
X59138214Y-85927500D01*
X59066785Y-85998928D01*
X58923928Y-86213214D01*
X58852500Y-86498928D01*
X58852500Y-87070357D01*
X58923928Y-87213214D01*
X58995357Y-87284642D01*
X59138214Y-87356071D01*
X59423928Y-87356071D01*
X59566785Y-87284642D01*
X59638214Y-87213214D01*
X59709642Y-87070357D01*
X59709642Y-86713214D01*
X59638214Y-86570357D01*
X59566785Y-86498928D01*
X59423928Y-86427500D01*
X59138214Y-86427500D01*
X58995357Y-86498928D01*
X58923928Y-86570357D01*
X58852500Y-86713214D01*
X61066785Y-85856071D02*
X60352500Y-85856071D01*
X60281071Y-86570357D01*
X60352500Y-86498928D01*
X60495357Y-86427500D01*
X60852500Y-86427500D01*
X60995357Y-86498928D01*
X61066785Y-86570357D01*
X61138214Y-86713214D01*
X61138214Y-87070357D01*
X61066785Y-87213214D01*
X60995357Y-87284642D01*
X60852500Y-87356071D01*
X60495357Y-87356071D01*
X60352500Y-87284642D01*
X60281071Y-87213214D01*
X62209642Y-87927500D02*
X62138214Y-87856071D01*
X61995357Y-87641785D01*
X61923928Y-87498928D01*
X61852500Y-87284642D01*
X61781071Y-86927500D01*
X61781071Y-86641785D01*
X61852500Y-86284642D01*
X61923928Y-86070357D01*
X61995357Y-85927500D01*
X62138214Y-85713214D01*
X62209642Y-85641785D01*
X63423928Y-87284642D02*
X63281071Y-87356071D01*
X62995357Y-87356071D01*
X62852500Y-87284642D01*
X62781071Y-87213214D01*
X62709642Y-87070357D01*
X62709642Y-86641785D01*
X62781071Y-86498928D01*
X62852500Y-86427500D01*
X62995357Y-86356071D01*
X63281071Y-86356071D01*
X63423928Y-86427500D01*
X63923928Y-87927500D02*
X63995357Y-87856071D01*
X64138214Y-87641785D01*
X64209642Y-87498928D01*
X64281071Y-87284642D01*
X64352500Y-86927500D01*
X64352500Y-86641785D01*
X64281071Y-86284642D01*
X64209642Y-86070357D01*
X64138214Y-85927500D01*
X63995357Y-85713214D01*
X63923928Y-85641785D01*
X65352500Y-85856071D02*
X65495357Y-85856071D01*
X65638214Y-85927500D01*
X65709642Y-85998928D01*
X65781071Y-86141785D01*
X65852500Y-86427500D01*
X65852500Y-86784642D01*
X65781071Y-87070357D01*
X65709642Y-87213214D01*
X65638214Y-87284642D01*
X65495357Y-87356071D01*
X65352500Y-87356071D01*
X65209642Y-87284642D01*
X65138214Y-87213214D01*
X65066785Y-87070357D01*
X64995357Y-86784642D01*
X64995357Y-86427500D01*
X65066785Y-86141785D01*
X65138214Y-85998928D01*
X65209642Y-85927500D01*
X65352500Y-85856071D01*
X66423928Y-85998928D02*
X66495357Y-85927500D01*
X66638214Y-85856071D01*
X66995357Y-85856071D01*
X67138214Y-85927500D01*
X67209642Y-85998928D01*
X67281071Y-86141785D01*
X67281071Y-86284642D01*
X67209642Y-86498928D01*
X66352500Y-87356071D01*
X67281071Y-87356071D01*
X67923928Y-87213214D02*
X67995357Y-87284642D01*
X67923928Y-87356071D01*
X67852500Y-87284642D01*
X67923928Y-87213214D01*
X67923928Y-87356071D01*
X67923928Y-86427500D02*
X67995357Y-86498928D01*
X67923928Y-86570357D01*
X67852500Y-86498928D01*
X67923928Y-86427500D01*
X67923928Y-86570357D01*
X70423928Y-86356071D02*
X70423928Y-87570357D01*
X70352500Y-87713214D01*
X70281071Y-87784642D01*
X70138214Y-87856071D01*
X69923928Y-87856071D01*
X69781071Y-87784642D01*
X70423928Y-87284642D02*
X70281071Y-87356071D01*
X69995357Y-87356071D01*
X69852500Y-87284642D01*
X69781071Y-87213214D01*
X69709642Y-87070357D01*
X69709642Y-86641785D01*
X69781071Y-86498928D01*
X69852500Y-86427500D01*
X69995357Y-86356071D01*
X70281071Y-86356071D01*
X70423928Y-86427500D01*
X71709642Y-87284642D02*
X71566785Y-87356071D01*
X71281071Y-87356071D01*
X71138214Y-87284642D01*
X71066785Y-87141785D01*
X71066785Y-86570357D01*
X71138214Y-86427500D01*
X71281071Y-86356071D01*
X71566785Y-86356071D01*
X71709642Y-86427500D01*
X71781071Y-86570357D01*
X71781071Y-86713214D01*
X71066785Y-86856071D01*
X72352500Y-87284642D02*
X72495357Y-87356071D01*
X72781071Y-87356071D01*
X72923928Y-87284642D01*
X72995357Y-87141785D01*
X72995357Y-87070357D01*
X72923928Y-86927500D01*
X72781071Y-86856071D01*
X72566785Y-86856071D01*
X72423928Y-86784642D01*
X72352500Y-86641785D01*
X72352500Y-86570357D01*
X72423928Y-86427500D01*
X72566785Y-86356071D01*
X72781071Y-86356071D01*
X72923928Y-86427500D01*
X74281071Y-87284642D02*
X74138214Y-87356071D01*
X73852500Y-87356071D01*
X73709642Y-87284642D01*
X73638214Y-87213214D01*
X73566785Y-87070357D01*
X73566785Y-86641785D01*
X73638214Y-86498928D01*
X73709642Y-86427500D01*
X73852500Y-86356071D01*
X74138214Y-86356071D01*
X74281071Y-86427500D01*
X74923928Y-87356071D02*
X74923928Y-85856071D01*
X75566785Y-87356071D02*
X75566785Y-86570357D01*
X75495357Y-86427500D01*
X75352500Y-86356071D01*
X75138214Y-86356071D01*
X74995357Y-86427500D01*
X74923928Y-86498928D01*
X76495357Y-87356071D02*
X76352500Y-87284642D01*
X76281071Y-87141785D01*
X76281071Y-85856071D01*
X77281071Y-87356071D02*
X77138214Y-87284642D01*
X77066785Y-87213214D01*
X76995357Y-87070357D01*
X76995357Y-86641785D01*
X77066785Y-86498928D01*
X77138214Y-86427500D01*
X77281071Y-86356071D01*
X77495357Y-86356071D01*
X77638214Y-86427500D01*
X77709642Y-86498928D01*
X77781071Y-86641785D01*
X77781071Y-87070357D01*
X77709642Y-87213214D01*
X77638214Y-87284642D01*
X77495357Y-87356071D01*
X77281071Y-87356071D01*
X78352500Y-87284642D02*
X78495357Y-87356071D01*
X78781071Y-87356071D01*
X78923928Y-87284642D01*
X78995357Y-87141785D01*
X78995357Y-87070357D01*
X78923928Y-86927500D01*
X78781071Y-86856071D01*
X78566785Y-86856071D01*
X78423928Y-86784642D01*
X78352500Y-86641785D01*
X78352500Y-86570357D01*
X78423928Y-86427500D01*
X78566785Y-86356071D01*
X78781071Y-86356071D01*
X78923928Y-86427500D01*
X79566785Y-87284642D02*
X79709642Y-87356071D01*
X79995357Y-87356071D01*
X80138214Y-87284642D01*
X80209642Y-87141785D01*
X80209642Y-87070357D01*
X80138214Y-86927500D01*
X79995357Y-86856071D01*
X79781071Y-86856071D01*
X79638214Y-86784642D01*
X79566785Y-86641785D01*
X79566785Y-86570357D01*
X79638214Y-86427500D01*
X79781071Y-86356071D01*
X79995357Y-86356071D01*
X80138214Y-86427500D01*
X81423928Y-87284642D02*
X81281071Y-87356071D01*
X80995357Y-87356071D01*
X80852500Y-87284642D01*
X80781071Y-87141785D01*
X80781071Y-86570357D01*
X80852500Y-86427500D01*
X80995357Y-86356071D01*
X81281071Y-86356071D01*
X81423928Y-86427500D01*
X81495357Y-86570357D01*
X81495357Y-86713214D01*
X80781071Y-86856071D01*
X82138214Y-86356071D02*
X82138214Y-87356071D01*
X82138214Y-86498928D02*
X82209642Y-86427500D01*
X82352500Y-86356071D01*
X82566785Y-86356071D01*
X82709642Y-86427500D01*
X82781071Y-86570357D01*
X82781071Y-87356071D01*
X54066785Y-88406071D02*
X54423928Y-89906071D01*
X54709642Y-88834642D01*
X54995357Y-89906071D01*
X55352500Y-88406071D01*
X55923928Y-89906071D02*
X55923928Y-88406071D01*
X56281071Y-88406071D01*
X56495357Y-88477500D01*
X56638214Y-88620357D01*
X56709642Y-88763214D01*
X56781071Y-89048928D01*
X56781071Y-89263214D01*
X56709642Y-89548928D01*
X56638214Y-89691785D01*
X56495357Y-89834642D01*
X56281071Y-89906071D01*
X55923928Y-89906071D01*
X58281071Y-89763214D02*
X58209642Y-89834642D01*
X57995357Y-89906071D01*
X57852500Y-89906071D01*
X57638214Y-89834642D01*
X57495357Y-89691785D01*
X57423928Y-89548928D01*
X57352500Y-89263214D01*
X57352500Y-89048928D01*
X57423928Y-88763214D01*
X57495357Y-88620357D01*
X57638214Y-88477500D01*
X57852500Y-88406071D01*
X57995357Y-88406071D01*
X58209642Y-88477500D01*
X58281071Y-88548928D01*
X59566785Y-88406071D02*
X59281071Y-88406071D01*
X59138214Y-88477500D01*
X59066785Y-88548928D01*
X58923928Y-88763214D01*
X58852500Y-89048928D01*
X58852500Y-89620357D01*
X58923928Y-89763214D01*
X58995357Y-89834642D01*
X59138214Y-89906071D01*
X59423928Y-89906071D01*
X59566785Y-89834642D01*
X59638214Y-89763214D01*
X59709642Y-89620357D01*
X59709642Y-89263214D01*
X59638214Y-89120357D01*
X59566785Y-89048928D01*
X59423928Y-88977500D01*
X59138214Y-88977500D01*
X58995357Y-89048928D01*
X58923928Y-89120357D01*
X58852500Y-89263214D01*
X61066785Y-88406071D02*
X60352500Y-88406071D01*
X60281071Y-89120357D01*
X60352500Y-89048928D01*
X60495357Y-88977500D01*
X60852500Y-88977500D01*
X60995357Y-89048928D01*
X61066785Y-89120357D01*
X61138214Y-89263214D01*
X61138214Y-89620357D01*
X61066785Y-89763214D01*
X60995357Y-89834642D01*
X60852500Y-89906071D01*
X60495357Y-89906071D01*
X60352500Y-89834642D01*
X60281071Y-89763214D01*
X62423928Y-89834642D02*
X62281071Y-89906071D01*
X61995357Y-89906071D01*
X61852500Y-89834642D01*
X61781071Y-89763214D01*
X61709642Y-89620357D01*
X61709642Y-89191785D01*
X61781071Y-89048928D01*
X61852500Y-88977500D01*
X61995357Y-88906071D01*
X62281071Y-88906071D01*
X62423928Y-88977500D01*
X63352500Y-88406071D02*
X63495357Y-88406071D01*
X63638214Y-88477500D01*
X63709642Y-88548928D01*
X63781071Y-88691785D01*
X63852500Y-88977500D01*
X63852500Y-89334642D01*
X63781071Y-89620357D01*
X63709642Y-89763214D01*
X63638214Y-89834642D01*
X63495357Y-89906071D01*
X63352500Y-89906071D01*
X63209642Y-89834642D01*
X63138214Y-89763214D01*
X63066785Y-89620357D01*
X62995357Y-89334642D01*
X62995357Y-88977500D01*
X63066785Y-88691785D01*
X63138214Y-88548928D01*
X63209642Y-88477500D01*
X63352500Y-88406071D01*
X64423928Y-88548928D02*
X64495357Y-88477500D01*
X64638214Y-88406071D01*
X64995357Y-88406071D01*
X65138214Y-88477500D01*
X65209642Y-88548928D01*
X65281071Y-88691785D01*
X65281071Y-88834642D01*
X65209642Y-89048928D01*
X64352500Y-89906071D01*
X65281071Y-89906071D01*
X65923928Y-89763214D02*
X65995357Y-89834642D01*
X65923928Y-89906071D01*
X65852500Y-89834642D01*
X65923928Y-89763214D01*
X65923928Y-89906071D01*
X65923928Y-88977500D02*
X65995357Y-89048928D01*
X65923928Y-89120357D01*
X65852500Y-89048928D01*
X65923928Y-88977500D01*
X65923928Y-89120357D01*
X67995357Y-89906071D02*
X67852500Y-89834642D01*
X67781071Y-89763214D01*
X67709642Y-89620357D01*
X67709642Y-89191785D01*
X67781071Y-89048928D01*
X67852500Y-88977500D01*
X67995357Y-88906071D01*
X68209642Y-88906071D01*
X68352500Y-88977500D01*
X68423928Y-89048928D01*
X68495357Y-89191785D01*
X68495357Y-89620357D01*
X68423928Y-89763214D01*
X68352500Y-89834642D01*
X68209642Y-89906071D01*
X67995357Y-89906071D01*
X68923928Y-88906071D02*
X69495357Y-88906071D01*
X69138214Y-89906071D02*
X69138214Y-88620357D01*
X69209642Y-88477500D01*
X69352500Y-88406071D01*
X69495357Y-88406071D01*
X69781071Y-88906071D02*
X70352500Y-88906071D01*
X69995357Y-89906071D02*
X69995357Y-88620357D01*
X70066785Y-88477500D01*
X70209642Y-88406071D01*
X70352500Y-88406071D01*
X71423928Y-89834642D02*
X71281071Y-89906071D01*
X70995357Y-89906071D01*
X70852500Y-89834642D01*
X70781071Y-89691785D01*
X70781071Y-89120357D01*
X70852500Y-88977500D01*
X70995357Y-88906071D01*
X71281071Y-88906071D01*
X71423928Y-88977500D01*
X71495357Y-89120357D01*
X71495357Y-89263214D01*
X70781071Y-89406071D01*
X72138214Y-88906071D02*
X72138214Y-89906071D01*
X72138214Y-89048928D02*
X72209642Y-88977500D01*
X72352500Y-88906071D01*
X72566785Y-88906071D01*
X72709642Y-88977500D01*
X72781071Y-89120357D01*
X72781071Y-89906071D01*
X75066785Y-90477500D02*
X74995357Y-90406071D01*
X74852500Y-90191785D01*
X74781071Y-90048928D01*
X74709642Y-89834642D01*
X74638214Y-89477500D01*
X74638214Y-89191785D01*
X74709642Y-88834642D01*
X74781071Y-88620357D01*
X74852500Y-88477500D01*
X74995357Y-88263214D01*
X75066785Y-88191785D01*
X75423928Y-88406071D02*
X75923928Y-89906071D01*
X76423928Y-88406071D01*
X76923928Y-89906071D02*
X76923928Y-88406071D01*
X77495357Y-88406071D01*
X77638214Y-88477500D01*
X77709642Y-88548928D01*
X77781071Y-88691785D01*
X77781071Y-88906071D01*
X77709642Y-89048928D01*
X77638214Y-89120357D01*
X77495357Y-89191785D01*
X76923928Y-89191785D01*
X78923928Y-89120357D02*
X79138214Y-89191785D01*
X79209642Y-89263214D01*
X79281071Y-89406071D01*
X79281071Y-89620357D01*
X79209642Y-89763214D01*
X79138214Y-89834642D01*
X78995357Y-89906071D01*
X78423928Y-89906071D01*
X78423928Y-88406071D01*
X78923928Y-88406071D01*
X79066785Y-88477500D01*
X79138214Y-88548928D01*
X79209642Y-88691785D01*
X79209642Y-88834642D01*
X79138214Y-88977500D01*
X79066785Y-89048928D01*
X78923928Y-89120357D01*
X78423928Y-89120357D01*
X79781071Y-90477500D02*
X79852500Y-90406071D01*
X79995357Y-90191785D01*
X80066785Y-90048928D01*
X80138214Y-89834642D01*
X80209642Y-89477500D01*
X80209642Y-89191785D01*
X80138214Y-88834642D01*
X80066785Y-88620357D01*
X79995357Y-88477500D01*
X79852500Y-88263214D01*
X79781071Y-88191785D01*
D12*
G04 #@! TO.C,J2*
X25400000Y-108740000D02*
X25400000Y-112240000D01*
X22830000Y-112240000D02*
X22830000Y-108740000D01*
X160050000Y-112240000D02*
X22830000Y-112240000D01*
X160050000Y-108740000D02*
X160050000Y-112240000D01*
X22830000Y-108740000D02*
X160050000Y-108740000D01*
D13*
G04 #@! TO.C,U8*
X68520000Y-98060000D02*
G75*
G02X68520000Y-100060000I0J-1000000D01*
G01*
X68520000Y-100060000D02*
X68520000Y-101710000D01*
X68520000Y-101710000D02*
X94040000Y-101710000D01*
X94040000Y-101710000D02*
X94040000Y-96410000D01*
X94040000Y-96410000D02*
X68520000Y-96410000D01*
X68520000Y-96410000D02*
X68520000Y-98060000D01*
G04 #@! TO.C,U6*
X38040000Y-98060000D02*
G75*
G02X38040000Y-100060000I0J-1000000D01*
G01*
X38040000Y-100060000D02*
X38040000Y-101710000D01*
X38040000Y-101710000D02*
X63560000Y-101710000D01*
X63560000Y-101710000D02*
X63560000Y-96410000D01*
X63560000Y-96410000D02*
X38040000Y-96410000D01*
X38040000Y-96410000D02*
X38040000Y-98060000D01*
G04 #@! TO.C,U9*
X99000000Y-96410000D02*
X99000000Y-98060000D01*
X124520000Y-96410000D02*
X99000000Y-96410000D01*
X124520000Y-101710000D02*
X124520000Y-96410000D01*
X99000000Y-101710000D02*
X124520000Y-101710000D01*
X99000000Y-100060000D02*
X99000000Y-101710000D01*
X99000000Y-98060000D02*
G75*
G02X99000000Y-100060000I0J-1000000D01*
G01*
G04 #@! TO.C,RN1*
X26500000Y-84960000D02*
X26500000Y-87760000D01*
X26500000Y-87760000D02*
X39540000Y-87760000D01*
X39540000Y-87760000D02*
X39540000Y-84960000D01*
X39540000Y-84960000D02*
X26500000Y-84960000D01*
X29210000Y-84960000D02*
X29210000Y-87760000D01*
G04 #@! TO.C,C1*
X45099000Y-87280000D02*
X43841000Y-87280000D01*
X45099000Y-85440000D02*
X43841000Y-85440000D01*
G04 #@! TO.C,C2*
X110198500Y-58387500D02*
X111456500Y-58387500D01*
X110198500Y-56547500D02*
X111456500Y-56547500D01*
G04 #@! TO.C,C4*
X135586500Y-62197500D02*
X134328500Y-62197500D01*
X135586500Y-60357500D02*
X134328500Y-60357500D01*
G04 #@! TO.C,C5*
X152096500Y-60357500D02*
X150838500Y-60357500D01*
X152096500Y-62197500D02*
X150838500Y-62197500D01*
G04 #@! TO.C,C6*
X36480000Y-95871000D02*
X36480000Y-97129000D01*
X34640000Y-95871000D02*
X34640000Y-97129000D01*
G04 #@! TO.C,C8*
X67277500Y-96188500D02*
X67277500Y-97446500D01*
X65437500Y-96188500D02*
X65437500Y-97446500D01*
G04 #@! TO.C,C9*
X95917500Y-96188500D02*
X95917500Y-97446500D01*
X97757500Y-96188500D02*
X97757500Y-97446500D01*
G04 #@! TO.C,C10*
X133317500Y-47293500D02*
X133317500Y-48551500D01*
X131477500Y-47293500D02*
X131477500Y-48551500D01*
G04 #@! TO.C,C3*
X120346500Y-62197500D02*
X119088500Y-62197500D01*
X120346500Y-60357500D02*
X119088500Y-60357500D01*
G04 #@! TO.C,C11*
X90137500Y-44753500D02*
X90137500Y-46011500D01*
X88297500Y-44753500D02*
X88297500Y-46011500D01*
G04 #@! TO.C,U10*
X136147500Y-49482500D02*
G75*
G02X136147500Y-51482500I0J-1000000D01*
G01*
X136147500Y-51482500D02*
X136147500Y-53132500D01*
X136147500Y-53132500D02*
X154047500Y-53132500D01*
X154047500Y-53132500D02*
X154047500Y-47832500D01*
X154047500Y-47832500D02*
X136147500Y-47832500D01*
X136147500Y-47832500D02*
X136147500Y-49482500D01*
G04 #@! TO.C,C12*
X60927500Y-45388500D02*
X60927500Y-46646500D01*
X59087500Y-45388500D02*
X59087500Y-46646500D01*
G04 #@! TO.C,R1*
X66257500Y-58737500D02*
X66187500Y-58737500D01*
X68997500Y-58737500D02*
G75*
G03X68997500Y-58737500I-1370000J0D01*
G01*
G04 #@! TO.C,R2*
X72807500Y-58737500D02*
G75*
G03X72807500Y-58737500I-1370000J0D01*
G01*
X72807500Y-58737500D02*
X72877500Y-58737500D01*
G04 #@! TO.C,SW1*
X38837500Y-46307500D02*
X38837500Y-41807500D01*
X34837500Y-47557500D02*
X36337500Y-47557500D01*
X32337500Y-41807500D02*
X32337500Y-46307500D01*
X36337500Y-40557500D02*
X34837500Y-40557500D01*
G04 #@! TO.C,U11*
X69897500Y-43437500D02*
G75*
G02X67897500Y-43437500I-1000000J0D01*
G01*
X67897500Y-43437500D02*
X66247500Y-43437500D01*
X66247500Y-43437500D02*
X66247500Y-53717500D01*
X66247500Y-53717500D02*
X71547500Y-53717500D01*
X71547500Y-53717500D02*
X71547500Y-43437500D01*
X71547500Y-43437500D02*
X69897500Y-43437500D01*
G04 #@! TO.C,JP2*
X29150000Y-101660000D02*
X31810000Y-101660000D01*
X29150000Y-96520000D02*
X29150000Y-101660000D01*
X31810000Y-96520000D02*
X31810000Y-101660000D01*
X29150000Y-96520000D02*
X31810000Y-96520000D01*
X29150000Y-95250000D02*
X29150000Y-93920000D01*
X29150000Y-93920000D02*
X30480000Y-93920000D01*
G04 #@! TO.C,J11*
X45977500Y-45867500D02*
X51177500Y-45867500D01*
X51177500Y-45867500D02*
X51177500Y-43207500D01*
X51177500Y-43207500D02*
X45977500Y-43207500D01*
X45977500Y-43207500D02*
X45977500Y-45867500D01*
X46927500Y-43207500D02*
X46927500Y-37207500D01*
X46927500Y-37207500D02*
X47687500Y-37207500D01*
X47687500Y-37207500D02*
X47687500Y-43207500D01*
X46987500Y-43207500D02*
X46987500Y-37207500D01*
X47107500Y-43207500D02*
X47107500Y-37207500D01*
X47227500Y-43207500D02*
X47227500Y-37207500D01*
X47347500Y-43207500D02*
X47347500Y-37207500D01*
X47467500Y-43207500D02*
X47467500Y-37207500D01*
X47587500Y-43207500D02*
X47587500Y-37207500D01*
X46927500Y-46197500D02*
X46927500Y-45867500D01*
X47687500Y-46197500D02*
X47687500Y-45867500D01*
X48577500Y-45867500D02*
X48577500Y-43207500D01*
X49467500Y-43207500D02*
X49467500Y-37207500D01*
X49467500Y-37207500D02*
X50227500Y-37207500D01*
X50227500Y-37207500D02*
X50227500Y-43207500D01*
X49467500Y-46264571D02*
X49467500Y-45867500D01*
X50227500Y-46264571D02*
X50227500Y-45867500D01*
X47307500Y-48577500D02*
X46037500Y-48577500D01*
X46037500Y-48577500D02*
X46037500Y-47307500D01*
G04 #@! TO.C,JP1*
X21847500Y-82610000D02*
X24507500Y-82610000D01*
X21847500Y-80010000D02*
X21847500Y-82610000D01*
X24507500Y-80010000D02*
X24507500Y-82610000D01*
X21847500Y-80010000D02*
X24507500Y-80010000D01*
X21847500Y-78740000D02*
X21847500Y-77410000D01*
X21847500Y-77410000D02*
X23177500Y-77410000D01*
G04 #@! TO.C,RN2*
X94167500Y-81767500D02*
X96967500Y-81767500D01*
X96967500Y-81767500D02*
X96967500Y-58567500D01*
X96967500Y-58567500D02*
X94167500Y-58567500D01*
X94167500Y-58567500D02*
X94167500Y-81767500D01*
X94167500Y-79057500D02*
X96967500Y-79057500D01*
G04 #@! TO.C,JP3*
X124837500Y-47367500D02*
X124837500Y-42167500D01*
X119697500Y-47367500D02*
X124837500Y-47367500D01*
X117097500Y-42167500D02*
X124837500Y-42167500D01*
X119697500Y-47367500D02*
X119697500Y-44767500D01*
X119697500Y-44767500D02*
X117097500Y-44767500D01*
X117097500Y-44767500D02*
X117097500Y-42167500D01*
X118427500Y-47367500D02*
X117097500Y-47367500D01*
X117097500Y-47367500D02*
X117097500Y-46037500D01*
G04 #@! TO.C,J12*
X86617500Y-61217500D02*
X91817500Y-61217500D01*
X86617500Y-79057500D02*
X86617500Y-61217500D01*
X91817500Y-81657500D02*
X91817500Y-61217500D01*
X86617500Y-79057500D02*
X89217500Y-79057500D01*
X89217500Y-79057500D02*
X89217500Y-81657500D01*
X89217500Y-81657500D02*
X91817500Y-81657500D01*
X86617500Y-80327500D02*
X86617500Y-81657500D01*
X86617500Y-81657500D02*
X87947500Y-81657500D01*
G04 #@! TO.C,C13*
X62067500Y-56197500D02*
G75*
G03X62067500Y-56197500I-4120000J0D01*
G01*
X57947500Y-52117500D02*
X57947500Y-60277500D01*
X57987500Y-52117500D02*
X57987500Y-60277500D01*
X58027500Y-52117500D02*
X58027500Y-60277500D01*
X58067500Y-52118500D02*
X58067500Y-60276500D01*
X58107500Y-52120500D02*
X58107500Y-60274500D01*
X58147500Y-52121500D02*
X58147500Y-60273500D01*
X58187500Y-52123500D02*
X58187500Y-60271500D01*
X58227500Y-52126500D02*
X58227500Y-60268500D01*
X58267500Y-52129500D02*
X58267500Y-60265500D01*
X58307500Y-52132500D02*
X58307500Y-60262500D01*
X58347500Y-52136500D02*
X58347500Y-60258500D01*
X58387500Y-52140500D02*
X58387500Y-60254500D01*
X58427500Y-52145500D02*
X58427500Y-60249500D01*
X58467500Y-52149500D02*
X58467500Y-60245500D01*
X58507500Y-52155500D02*
X58507500Y-60239500D01*
X58547500Y-52160500D02*
X58547500Y-60234500D01*
X58587500Y-52167500D02*
X58587500Y-60227500D01*
X58627500Y-52173500D02*
X58627500Y-60221500D01*
X58668500Y-52180500D02*
X58668500Y-55157500D01*
X58668500Y-57237500D02*
X58668500Y-60214500D01*
X58708500Y-52187500D02*
X58708500Y-55157500D01*
X58708500Y-57237500D02*
X58708500Y-60207500D01*
X58748500Y-52195500D02*
X58748500Y-55157500D01*
X58748500Y-57237500D02*
X58748500Y-60199500D01*
X58788500Y-52203500D02*
X58788500Y-55157500D01*
X58788500Y-57237500D02*
X58788500Y-60191500D01*
X58828500Y-52212500D02*
X58828500Y-55157500D01*
X58828500Y-57237500D02*
X58828500Y-60182500D01*
X58868500Y-52221500D02*
X58868500Y-55157500D01*
X58868500Y-57237500D02*
X58868500Y-60173500D01*
X58908500Y-52230500D02*
X58908500Y-55157500D01*
X58908500Y-57237500D02*
X58908500Y-60164500D01*
X58948500Y-52240500D02*
X58948500Y-55157500D01*
X58948500Y-57237500D02*
X58948500Y-60154500D01*
X58988500Y-52250500D02*
X58988500Y-55157500D01*
X58988500Y-57237500D02*
X58988500Y-60144500D01*
X59028500Y-52261500D02*
X59028500Y-55157500D01*
X59028500Y-57237500D02*
X59028500Y-60133500D01*
X59068500Y-52272500D02*
X59068500Y-55157500D01*
X59068500Y-57237500D02*
X59068500Y-60122500D01*
X59108500Y-52283500D02*
X59108500Y-55157500D01*
X59108500Y-57237500D02*
X59108500Y-60111500D01*
X59148500Y-52295500D02*
X59148500Y-55157500D01*
X59148500Y-57237500D02*
X59148500Y-60099500D01*
X59188500Y-52308500D02*
X59188500Y-55157500D01*
X59188500Y-57237500D02*
X59188500Y-60086500D01*
X59228500Y-52320500D02*
X59228500Y-55157500D01*
X59228500Y-57237500D02*
X59228500Y-60074500D01*
X59268500Y-52334500D02*
X59268500Y-55157500D01*
X59268500Y-57237500D02*
X59268500Y-60060500D01*
X59308500Y-52347500D02*
X59308500Y-55157500D01*
X59308500Y-57237500D02*
X59308500Y-60047500D01*
X59348500Y-52362500D02*
X59348500Y-55157500D01*
X59348500Y-57237500D02*
X59348500Y-60032500D01*
X59388500Y-52376500D02*
X59388500Y-55157500D01*
X59388500Y-57237500D02*
X59388500Y-60018500D01*
X59428500Y-52392500D02*
X59428500Y-55157500D01*
X59428500Y-57237500D02*
X59428500Y-60002500D01*
X59468500Y-52407500D02*
X59468500Y-55157500D01*
X59468500Y-57237500D02*
X59468500Y-59987500D01*
X59508500Y-52423500D02*
X59508500Y-55157500D01*
X59508500Y-57237500D02*
X59508500Y-59971500D01*
X59548500Y-52440500D02*
X59548500Y-55157500D01*
X59548500Y-57237500D02*
X59548500Y-59954500D01*
X59588500Y-52457500D02*
X59588500Y-55157500D01*
X59588500Y-57237500D02*
X59588500Y-59937500D01*
X59628500Y-52475500D02*
X59628500Y-55157500D01*
X59628500Y-57237500D02*
X59628500Y-59919500D01*
X59668500Y-52493500D02*
X59668500Y-55157500D01*
X59668500Y-57237500D02*
X59668500Y-59901500D01*
X59708500Y-52511500D02*
X59708500Y-55157500D01*
X59708500Y-57237500D02*
X59708500Y-59883500D01*
X59748500Y-52531500D02*
X59748500Y-55157500D01*
X59748500Y-57237500D02*
X59748500Y-59863500D01*
X59788500Y-52550500D02*
X59788500Y-55157500D01*
X59788500Y-57237500D02*
X59788500Y-59844500D01*
X59828500Y-52570500D02*
X59828500Y-55157500D01*
X59828500Y-57237500D02*
X59828500Y-59824500D01*
X59868500Y-52591500D02*
X59868500Y-55157500D01*
X59868500Y-57237500D02*
X59868500Y-59803500D01*
X59908500Y-52613500D02*
X59908500Y-55157500D01*
X59908500Y-57237500D02*
X59908500Y-59781500D01*
X59948500Y-52635500D02*
X59948500Y-55157500D01*
X59948500Y-57237500D02*
X59948500Y-59759500D01*
X59988500Y-52657500D02*
X59988500Y-55157500D01*
X59988500Y-57237500D02*
X59988500Y-59737500D01*
X60028500Y-52680500D02*
X60028500Y-55157500D01*
X60028500Y-57237500D02*
X60028500Y-59714500D01*
X60068500Y-52704500D02*
X60068500Y-55157500D01*
X60068500Y-57237500D02*
X60068500Y-59690500D01*
X60108500Y-52728500D02*
X60108500Y-55157500D01*
X60108500Y-57237500D02*
X60108500Y-59666500D01*
X60148500Y-52753500D02*
X60148500Y-55157500D01*
X60148500Y-57237500D02*
X60148500Y-59641500D01*
X60188500Y-52779500D02*
X60188500Y-55157500D01*
X60188500Y-57237500D02*
X60188500Y-59615500D01*
X60228500Y-52805500D02*
X60228500Y-55157500D01*
X60228500Y-57237500D02*
X60228500Y-59589500D01*
X60268500Y-52832500D02*
X60268500Y-55157500D01*
X60268500Y-57237500D02*
X60268500Y-59562500D01*
X60308500Y-52859500D02*
X60308500Y-55157500D01*
X60308500Y-57237500D02*
X60308500Y-59535500D01*
X60348500Y-52888500D02*
X60348500Y-55157500D01*
X60348500Y-57237500D02*
X60348500Y-59506500D01*
X60388500Y-52917500D02*
X60388500Y-55157500D01*
X60388500Y-57237500D02*
X60388500Y-59477500D01*
X60428500Y-52947500D02*
X60428500Y-55157500D01*
X60428500Y-57237500D02*
X60428500Y-59447500D01*
X60468500Y-52977500D02*
X60468500Y-55157500D01*
X60468500Y-57237500D02*
X60468500Y-59417500D01*
X60508500Y-53008500D02*
X60508500Y-55157500D01*
X60508500Y-57237500D02*
X60508500Y-59386500D01*
X60548500Y-53041500D02*
X60548500Y-55157500D01*
X60548500Y-57237500D02*
X60548500Y-59353500D01*
X60588500Y-53073500D02*
X60588500Y-55157500D01*
X60588500Y-57237500D02*
X60588500Y-59321500D01*
X60628500Y-53107500D02*
X60628500Y-55157500D01*
X60628500Y-57237500D02*
X60628500Y-59287500D01*
X60668500Y-53142500D02*
X60668500Y-55157500D01*
X60668500Y-57237500D02*
X60668500Y-59252500D01*
X60708500Y-53178500D02*
X60708500Y-55157500D01*
X60708500Y-57237500D02*
X60708500Y-59216500D01*
X60748500Y-53214500D02*
X60748500Y-59180500D01*
X60788500Y-53252500D02*
X60788500Y-59142500D01*
X60828500Y-53290500D02*
X60828500Y-59104500D01*
X60868500Y-53330500D02*
X60868500Y-59064500D01*
X60908500Y-53371500D02*
X60908500Y-59023500D01*
X60948500Y-53413500D02*
X60948500Y-58981500D01*
X60988500Y-53456500D02*
X60988500Y-58938500D01*
X61028500Y-53500500D02*
X61028500Y-58894500D01*
X61068500Y-53546500D02*
X61068500Y-58848500D01*
X61108500Y-53593500D02*
X61108500Y-58801500D01*
X61148500Y-53641500D02*
X61148500Y-58753500D01*
X61188500Y-53692500D02*
X61188500Y-58702500D01*
X61228500Y-53743500D02*
X61228500Y-58651500D01*
X61268500Y-53797500D02*
X61268500Y-58597500D01*
X61308500Y-53852500D02*
X61308500Y-58542500D01*
X61348500Y-53910500D02*
X61348500Y-58484500D01*
X61388500Y-53969500D02*
X61388500Y-58425500D01*
X61428500Y-54031500D02*
X61428500Y-58363500D01*
X61468500Y-54095500D02*
X61468500Y-58299500D01*
X61508500Y-54163500D02*
X61508500Y-58231500D01*
X61548500Y-54233500D02*
X61548500Y-58161500D01*
X61588500Y-54307500D02*
X61588500Y-58087500D01*
X61628500Y-54384500D02*
X61628500Y-58010500D01*
X61668500Y-54466500D02*
X61668500Y-57928500D01*
X61708500Y-54552500D02*
X61708500Y-57842500D01*
X61748500Y-54645500D02*
X61748500Y-57749500D01*
X61788500Y-54744500D02*
X61788500Y-57650500D01*
X61828500Y-54851500D02*
X61828500Y-57543500D01*
X61868500Y-54968500D02*
X61868500Y-57426500D01*
X61908500Y-55099500D02*
X61908500Y-57295500D01*
X61948500Y-55249500D02*
X61948500Y-57145500D01*
X61988500Y-55429500D02*
X61988500Y-56965500D01*
X62028500Y-55664500D02*
X62028500Y-56730500D01*
X53537802Y-53882500D02*
X54337802Y-53882500D01*
X53937802Y-53482500D02*
X53937802Y-54282500D01*
G04 #@! TO.C,U1*
X26610000Y-72660000D02*
G75*
G02X26610000Y-74660000I0J-1000000D01*
G01*
X26610000Y-74660000D02*
X26610000Y-80120000D01*
X26610000Y-80120000D02*
X77530000Y-80120000D01*
X77530000Y-80120000D02*
X77530000Y-67200000D01*
X77530000Y-67200000D02*
X26610000Y-67200000D01*
X26610000Y-67200000D02*
X26610000Y-72660000D01*
G04 #@! TO.C,U2*
X104187500Y-56137500D02*
G75*
G02X102187500Y-56137500I-1000000J0D01*
G01*
X102187500Y-56137500D02*
X100537500Y-56137500D01*
X100537500Y-56137500D02*
X100537500Y-81657500D01*
X100537500Y-81657500D02*
X105837500Y-81657500D01*
X105837500Y-81657500D02*
X105837500Y-56137500D01*
X105837500Y-56137500D02*
X104187500Y-56137500D01*
G04 #@! TO.C,U3*
X118157500Y-63757500D02*
G75*
G02X116157500Y-63757500I-1000000J0D01*
G01*
X116157500Y-63757500D02*
X114507500Y-63757500D01*
X114507500Y-63757500D02*
X114507500Y-81657500D01*
X114507500Y-81657500D02*
X119807500Y-81657500D01*
X119807500Y-81657500D02*
X119807500Y-63757500D01*
X119807500Y-63757500D02*
X118157500Y-63757500D01*
G04 #@! TO.C,U4*
X135047500Y-63757500D02*
X133397500Y-63757500D01*
X135047500Y-81657500D02*
X135047500Y-63757500D01*
X129747500Y-81657500D02*
X135047500Y-81657500D01*
X129747500Y-63757500D02*
X129747500Y-81657500D01*
X131397500Y-63757500D02*
X129747500Y-63757500D01*
X133397500Y-63757500D02*
G75*
G02X131397500Y-63757500I-1000000J0D01*
G01*
G04 #@! TO.C,U5*
X149907500Y-63757500D02*
G75*
G02X147907500Y-63757500I-1000000J0D01*
G01*
X147907500Y-63757500D02*
X146257500Y-63757500D01*
X146257500Y-63757500D02*
X146257500Y-81657500D01*
X146257500Y-81657500D02*
X151557500Y-81657500D01*
X151557500Y-81657500D02*
X151557500Y-63757500D01*
X151557500Y-63757500D02*
X149907500Y-63757500D01*
G04 #@! TO.C,X1*
X92102500Y-42242500D02*
X92102500Y-54392500D01*
X112252500Y-41492500D02*
X92852500Y-41492500D01*
X113002500Y-53642500D02*
X113002500Y-42242500D01*
X92102500Y-54392500D02*
X112252500Y-54392500D01*
X112252500Y-54392500D02*
G75*
G03X113002500Y-53642500I0J750000D01*
G01*
X113002500Y-42242500D02*
G75*
G03X112252500Y-41492500I-750000J0D01*
G01*
X92852500Y-41492500D02*
G75*
G03X92102500Y-42242500I0J-750000D01*
G01*
G04 #@! TO.C,X2*
X99912500Y-42242500D02*
X99912500Y-54392500D01*
X112062500Y-41492500D02*
X100662500Y-41492500D01*
X112812500Y-53642500D02*
X112812500Y-42242500D01*
X99912500Y-54392500D02*
X112062500Y-54392500D01*
X112062500Y-54392500D02*
G75*
G03X112812500Y-53642500I0J750000D01*
G01*
X112812500Y-42242500D02*
G75*
G03X112062500Y-41492500I-750000J0D01*
G01*
X100662500Y-41492500D02*
G75*
G03X99912500Y-42242500I0J-750000D01*
G01*
G04 #@! TO.C,J13*
X154047500Y-90547500D02*
X154047500Y-87887500D01*
X138747500Y-90547500D02*
X154047500Y-90547500D01*
X138747500Y-87887500D02*
X154047500Y-87887500D01*
X138747500Y-90547500D02*
X138747500Y-87887500D01*
X137477500Y-90547500D02*
X136147500Y-90547500D01*
X136147500Y-90547500D02*
X136147500Y-89217500D01*
G04 #@! TO.C,J2*
D12*
X89519166Y-106865833D02*
X89519166Y-107865833D01*
X89471547Y-108065833D01*
X89376309Y-108199166D01*
X89233452Y-108265833D01*
X89138214Y-108265833D01*
X89947738Y-106999166D02*
X89995357Y-106932500D01*
X90090595Y-106865833D01*
X90328690Y-106865833D01*
X90423928Y-106932500D01*
X90471547Y-106999166D01*
X90519166Y-107132500D01*
X90519166Y-107265833D01*
X90471547Y-107465833D01*
X89900119Y-108265833D01*
X90519166Y-108265833D01*
G04 #@! TO.C,U8*
X71564642Y-104271071D02*
X71564642Y-105485357D01*
X71636071Y-105628214D01*
X71707500Y-105699642D01*
X71850357Y-105771071D01*
X72136071Y-105771071D01*
X72278928Y-105699642D01*
X72350357Y-105628214D01*
X72421785Y-105485357D01*
X72421785Y-104271071D01*
X73350357Y-104913928D02*
X73207500Y-104842500D01*
X73136071Y-104771071D01*
X73064642Y-104628214D01*
X73064642Y-104556785D01*
X73136071Y-104413928D01*
X73207500Y-104342500D01*
X73350357Y-104271071D01*
X73636071Y-104271071D01*
X73778928Y-104342500D01*
X73850357Y-104413928D01*
X73921785Y-104556785D01*
X73921785Y-104628214D01*
X73850357Y-104771071D01*
X73778928Y-104842500D01*
X73636071Y-104913928D01*
X73350357Y-104913928D01*
X73207500Y-104985357D01*
X73136071Y-105056785D01*
X73064642Y-105199642D01*
X73064642Y-105485357D01*
X73136071Y-105628214D01*
X73207500Y-105699642D01*
X73350357Y-105771071D01*
X73636071Y-105771071D01*
X73778928Y-105699642D01*
X73850357Y-105628214D01*
X73921785Y-105485357D01*
X73921785Y-105199642D01*
X73850357Y-105056785D01*
X73778928Y-104985357D01*
X73636071Y-104913928D01*
X76918928Y-104271071D02*
X77918928Y-104271071D01*
X77276071Y-105771071D01*
X79133214Y-104771071D02*
X79133214Y-105771071D01*
X78776071Y-104199642D02*
X78418928Y-105271071D01*
X79347500Y-105271071D01*
X80633214Y-105771071D02*
X79918928Y-105771071D01*
X79918928Y-104271071D01*
X81061785Y-105699642D02*
X81276071Y-105771071D01*
X81633214Y-105771071D01*
X81776071Y-105699642D01*
X81847500Y-105628214D01*
X81918928Y-105485357D01*
X81918928Y-105342500D01*
X81847500Y-105199642D01*
X81776071Y-105128214D01*
X81633214Y-105056785D01*
X81347500Y-104985357D01*
X81204642Y-104913928D01*
X81133214Y-104842500D01*
X81061785Y-104699642D01*
X81061785Y-104556785D01*
X81133214Y-104413928D01*
X81204642Y-104342500D01*
X81347500Y-104271071D01*
X81704642Y-104271071D01*
X81918928Y-104342500D01*
X82490357Y-104413928D02*
X82561785Y-104342500D01*
X82704642Y-104271071D01*
X83061785Y-104271071D01*
X83204642Y-104342500D01*
X83276071Y-104413928D01*
X83347500Y-104556785D01*
X83347500Y-104699642D01*
X83276071Y-104913928D01*
X82418928Y-105771071D01*
X83347500Y-105771071D01*
X84633214Y-104771071D02*
X84633214Y-105771071D01*
X84276071Y-104199642D02*
X83918928Y-105271071D01*
X84847500Y-105271071D01*
X86133214Y-104271071D02*
X85418928Y-104271071D01*
X85347500Y-104985357D01*
X85418928Y-104913928D01*
X85561785Y-104842500D01*
X85918928Y-104842500D01*
X86061785Y-104913928D01*
X86133214Y-104985357D01*
X86204642Y-105128214D01*
X86204642Y-105485357D01*
X86133214Y-105628214D01*
X86061785Y-105699642D01*
X85918928Y-105771071D01*
X85561785Y-105771071D01*
X85418928Y-105699642D01*
X85347500Y-105628214D01*
G04 #@! TO.C,U6*
X41084642Y-104271071D02*
X41084642Y-105485357D01*
X41156071Y-105628214D01*
X41227500Y-105699642D01*
X41370357Y-105771071D01*
X41656071Y-105771071D01*
X41798928Y-105699642D01*
X41870357Y-105628214D01*
X41941785Y-105485357D01*
X41941785Y-104271071D01*
X43298928Y-104271071D02*
X43013214Y-104271071D01*
X42870357Y-104342500D01*
X42798928Y-104413928D01*
X42656071Y-104628214D01*
X42584642Y-104913928D01*
X42584642Y-105485357D01*
X42656071Y-105628214D01*
X42727500Y-105699642D01*
X42870357Y-105771071D01*
X43156071Y-105771071D01*
X43298928Y-105699642D01*
X43370357Y-105628214D01*
X43441785Y-105485357D01*
X43441785Y-105128214D01*
X43370357Y-104985357D01*
X43298928Y-104913928D01*
X43156071Y-104842500D01*
X42870357Y-104842500D01*
X42727500Y-104913928D01*
X42656071Y-104985357D01*
X42584642Y-105128214D01*
X46438928Y-104325833D02*
X47438928Y-104325833D01*
X46796071Y-105725833D01*
X48653214Y-104792500D02*
X48653214Y-105725833D01*
X48296071Y-104259166D02*
X47938928Y-105259166D01*
X48867500Y-105259166D01*
X50153214Y-105725833D02*
X49438928Y-105725833D01*
X49438928Y-104325833D01*
X50581785Y-105659166D02*
X50796071Y-105725833D01*
X51153214Y-105725833D01*
X51296071Y-105659166D01*
X51367500Y-105592500D01*
X51438928Y-105459166D01*
X51438928Y-105325833D01*
X51367500Y-105192500D01*
X51296071Y-105125833D01*
X51153214Y-105059166D01*
X50867500Y-104992500D01*
X50724642Y-104925833D01*
X50653214Y-104859166D01*
X50581785Y-104725833D01*
X50581785Y-104592500D01*
X50653214Y-104459166D01*
X50724642Y-104392500D01*
X50867500Y-104325833D01*
X51224642Y-104325833D01*
X51438928Y-104392500D01*
X52010357Y-104459166D02*
X52081785Y-104392500D01*
X52224642Y-104325833D01*
X52581785Y-104325833D01*
X52724642Y-104392500D01*
X52796071Y-104459166D01*
X52867500Y-104592500D01*
X52867500Y-104725833D01*
X52796071Y-104925833D01*
X51938928Y-105725833D01*
X52867500Y-105725833D01*
X54153214Y-104792500D02*
X54153214Y-105725833D01*
X53796071Y-104259166D02*
X53438928Y-105259166D01*
X54367500Y-105259166D01*
X55653214Y-104325833D02*
X54938928Y-104325833D01*
X54867500Y-104992500D01*
X54938928Y-104925833D01*
X55081785Y-104859166D01*
X55438928Y-104859166D01*
X55581785Y-104925833D01*
X55653214Y-104992500D01*
X55724642Y-105125833D01*
X55724642Y-105459166D01*
X55653214Y-105592500D01*
X55581785Y-105659166D01*
X55438928Y-105725833D01*
X55081785Y-105725833D01*
X54938928Y-105659166D01*
X54867500Y-105592500D01*
G04 #@! TO.C,U9*
X102044642Y-104271071D02*
X102044642Y-105485357D01*
X102116071Y-105628214D01*
X102187500Y-105699642D01*
X102330357Y-105771071D01*
X102616071Y-105771071D01*
X102758928Y-105699642D01*
X102830357Y-105628214D01*
X102901785Y-105485357D01*
X102901785Y-104271071D01*
X103687500Y-105771071D02*
X103973214Y-105771071D01*
X104116071Y-105699642D01*
X104187500Y-105628214D01*
X104330357Y-105413928D01*
X104401785Y-105128214D01*
X104401785Y-104556785D01*
X104330357Y-104413928D01*
X104258928Y-104342500D01*
X104116071Y-104271071D01*
X103830357Y-104271071D01*
X103687500Y-104342500D01*
X103616071Y-104413928D01*
X103544642Y-104556785D01*
X103544642Y-104913928D01*
X103616071Y-105056785D01*
X103687500Y-105128214D01*
X103830357Y-105199642D01*
X104116071Y-105199642D01*
X104258928Y-105128214D01*
X104330357Y-105056785D01*
X104401785Y-104913928D01*
X107398928Y-104271071D02*
X108398928Y-104271071D01*
X107756071Y-105771071D01*
X109613214Y-104771071D02*
X109613214Y-105771071D01*
X109256071Y-104199642D02*
X108898928Y-105271071D01*
X109827500Y-105271071D01*
X111113214Y-105771071D02*
X110398928Y-105771071D01*
X110398928Y-104271071D01*
X111541785Y-105699642D02*
X111756071Y-105771071D01*
X112113214Y-105771071D01*
X112256071Y-105699642D01*
X112327500Y-105628214D01*
X112398928Y-105485357D01*
X112398928Y-105342500D01*
X112327500Y-105199642D01*
X112256071Y-105128214D01*
X112113214Y-105056785D01*
X111827500Y-104985357D01*
X111684642Y-104913928D01*
X111613214Y-104842500D01*
X111541785Y-104699642D01*
X111541785Y-104556785D01*
X111613214Y-104413928D01*
X111684642Y-104342500D01*
X111827500Y-104271071D01*
X112184642Y-104271071D01*
X112398928Y-104342500D01*
X112970357Y-104413928D02*
X113041785Y-104342500D01*
X113184642Y-104271071D01*
X113541785Y-104271071D01*
X113684642Y-104342500D01*
X113756071Y-104413928D01*
X113827500Y-104556785D01*
X113827500Y-104699642D01*
X113756071Y-104913928D01*
X112898928Y-105771071D01*
X113827500Y-105771071D01*
X115113214Y-104771071D02*
X115113214Y-105771071D01*
X114756071Y-104199642D02*
X114398928Y-105271071D01*
X115327500Y-105271071D01*
X116613214Y-104271071D02*
X115898928Y-104271071D01*
X115827500Y-104985357D01*
X115898928Y-104913928D01*
X116041785Y-104842500D01*
X116398928Y-104842500D01*
X116541785Y-104913928D01*
X116613214Y-104985357D01*
X116684642Y-105128214D01*
X116684642Y-105485357D01*
X116613214Y-105628214D01*
X116541785Y-105699642D01*
X116398928Y-105771071D01*
X116041785Y-105771071D01*
X115898928Y-105699642D01*
X115827500Y-105628214D01*
G04 #@! TO.C,RN1*
X33461428Y-84502857D02*
X33061428Y-83931428D01*
X32775714Y-84502857D02*
X32775714Y-83302857D01*
X33232857Y-83302857D01*
X33347142Y-83360000D01*
X33404285Y-83417142D01*
X33461428Y-83531428D01*
X33461428Y-83702857D01*
X33404285Y-83817142D01*
X33347142Y-83874285D01*
X33232857Y-83931428D01*
X32775714Y-83931428D01*
X33975714Y-84502857D02*
X33975714Y-83302857D01*
X34661428Y-84502857D01*
X34661428Y-83302857D01*
X35861428Y-84502857D02*
X35175714Y-84502857D01*
X35518571Y-84502857D02*
X35518571Y-83302857D01*
X35404285Y-83474285D01*
X35290000Y-83588571D01*
X35175714Y-83645714D01*
X30980357Y-88896071D02*
X30980357Y-89896071D01*
X30623214Y-88324642D02*
X30266071Y-89396071D01*
X31194642Y-89396071D01*
X31623214Y-89896071D02*
X32408928Y-88896071D01*
X31623214Y-88896071D02*
X32408928Y-89896071D01*
X32837500Y-88396071D02*
X33766071Y-88396071D01*
X33266071Y-88967500D01*
X33480357Y-88967500D01*
X33623214Y-89038928D01*
X33694642Y-89110357D01*
X33766071Y-89253214D01*
X33766071Y-89610357D01*
X33694642Y-89753214D01*
X33623214Y-89824642D01*
X33480357Y-89896071D01*
X33051785Y-89896071D01*
X32908928Y-89824642D01*
X32837500Y-89753214D01*
X34408928Y-89896071D02*
X34408928Y-88396071D01*
X34551785Y-89324642D02*
X34980357Y-89896071D01*
X34980357Y-88896071D02*
X34408928Y-89467500D01*
X35480357Y-88396071D02*
X36408928Y-88396071D01*
X35908928Y-88967500D01*
X36123214Y-88967500D01*
X36266071Y-89038928D01*
X36337500Y-89110357D01*
X36408928Y-89253214D01*
X36408928Y-89610357D01*
X36337500Y-89753214D01*
X36266071Y-89824642D01*
X36123214Y-89896071D01*
X35694642Y-89896071D01*
X35551785Y-89824642D01*
X35480357Y-89753214D01*
G04 #@! TO.C,C1*
X44270000Y-88838571D02*
X44212857Y-88895714D01*
X44041428Y-88952857D01*
X43927142Y-88952857D01*
X43755714Y-88895714D01*
X43641428Y-88781428D01*
X43584285Y-88667142D01*
X43527142Y-88438571D01*
X43527142Y-88267142D01*
X43584285Y-88038571D01*
X43641428Y-87924285D01*
X43755714Y-87810000D01*
X43927142Y-87752857D01*
X44041428Y-87752857D01*
X44212857Y-87810000D01*
X44270000Y-87867142D01*
X45412857Y-88952857D02*
X44727142Y-88952857D01*
X45070000Y-88952857D02*
X45070000Y-87752857D01*
X44955714Y-87924285D01*
X44841428Y-88038571D01*
X44727142Y-88095714D01*
X42791428Y-84988571D02*
X41934285Y-84988571D01*
X42362857Y-84988571D02*
X42362857Y-83488571D01*
X42220000Y-83702857D01*
X42077142Y-83845714D01*
X41934285Y-83917142D01*
X43720000Y-83488571D02*
X43862857Y-83488571D01*
X44005714Y-83560000D01*
X44077142Y-83631428D01*
X44148571Y-83774285D01*
X44220000Y-84060000D01*
X44220000Y-84417142D01*
X44148571Y-84702857D01*
X44077142Y-84845714D01*
X44005714Y-84917142D01*
X43862857Y-84988571D01*
X43720000Y-84988571D01*
X43577142Y-84917142D01*
X43505714Y-84845714D01*
X43434285Y-84702857D01*
X43362857Y-84417142D01*
X43362857Y-84060000D01*
X43434285Y-83774285D01*
X43505714Y-83631428D01*
X43577142Y-83560000D01*
X43720000Y-83488571D01*
X45148571Y-83488571D02*
X45291428Y-83488571D01*
X45434285Y-83560000D01*
X45505714Y-83631428D01*
X45577142Y-83774285D01*
X45648571Y-84060000D01*
X45648571Y-84417142D01*
X45577142Y-84702857D01*
X45505714Y-84845714D01*
X45434285Y-84917142D01*
X45291428Y-84988571D01*
X45148571Y-84988571D01*
X45005714Y-84917142D01*
X44934285Y-84845714D01*
X44862857Y-84702857D01*
X44791428Y-84417142D01*
X44791428Y-84060000D01*
X44862857Y-83774285D01*
X44934285Y-83631428D01*
X45005714Y-83560000D01*
X45148571Y-83488571D01*
X46291428Y-83988571D02*
X46291428Y-84988571D01*
X46291428Y-84131428D02*
X46362857Y-84060000D01*
X46505714Y-83988571D01*
X46720000Y-83988571D01*
X46862857Y-84060000D01*
X46934285Y-84202857D01*
X46934285Y-84988571D01*
G04 #@! TO.C,C2*
X110627500Y-55846071D02*
X110570357Y-55903214D01*
X110398928Y-55960357D01*
X110284642Y-55960357D01*
X110113214Y-55903214D01*
X109998928Y-55788928D01*
X109941785Y-55674642D01*
X109884642Y-55446071D01*
X109884642Y-55274642D01*
X109941785Y-55046071D01*
X109998928Y-54931785D01*
X110113214Y-54817500D01*
X110284642Y-54760357D01*
X110398928Y-54760357D01*
X110570357Y-54817500D01*
X110627500Y-54874642D01*
X111084642Y-54874642D02*
X111141785Y-54817500D01*
X111256071Y-54760357D01*
X111541785Y-54760357D01*
X111656071Y-54817500D01*
X111713214Y-54874642D01*
X111770357Y-54988928D01*
X111770357Y-55103214D01*
X111713214Y-55274642D01*
X111027500Y-55960357D01*
X111770357Y-55960357D01*
X109148928Y-60196071D02*
X108291785Y-60196071D01*
X108720357Y-60196071D02*
X108720357Y-58696071D01*
X108577500Y-58910357D01*
X108434642Y-59053214D01*
X108291785Y-59124642D01*
X110077500Y-58696071D02*
X110220357Y-58696071D01*
X110363214Y-58767500D01*
X110434642Y-58838928D01*
X110506071Y-58981785D01*
X110577500Y-59267500D01*
X110577500Y-59624642D01*
X110506071Y-59910357D01*
X110434642Y-60053214D01*
X110363214Y-60124642D01*
X110220357Y-60196071D01*
X110077500Y-60196071D01*
X109934642Y-60124642D01*
X109863214Y-60053214D01*
X109791785Y-59910357D01*
X109720357Y-59624642D01*
X109720357Y-59267500D01*
X109791785Y-58981785D01*
X109863214Y-58838928D01*
X109934642Y-58767500D01*
X110077500Y-58696071D01*
X111506071Y-58696071D02*
X111648928Y-58696071D01*
X111791785Y-58767500D01*
X111863214Y-58838928D01*
X111934642Y-58981785D01*
X112006071Y-59267500D01*
X112006071Y-59624642D01*
X111934642Y-59910357D01*
X111863214Y-60053214D01*
X111791785Y-60124642D01*
X111648928Y-60196071D01*
X111506071Y-60196071D01*
X111363214Y-60124642D01*
X111291785Y-60053214D01*
X111220357Y-59910357D01*
X111148928Y-59624642D01*
X111148928Y-59267500D01*
X111220357Y-58981785D01*
X111291785Y-58838928D01*
X111363214Y-58767500D01*
X111506071Y-58696071D01*
X112648928Y-59196071D02*
X112648928Y-60196071D01*
X112648928Y-59338928D02*
X112720357Y-59267500D01*
X112863214Y-59196071D01*
X113077500Y-59196071D01*
X113220357Y-59267500D01*
X113291785Y-59410357D01*
X113291785Y-60196071D01*
G04 #@! TO.C,C4*
X130927500Y-61706071D02*
X130870357Y-61763214D01*
X130698928Y-61820357D01*
X130584642Y-61820357D01*
X130413214Y-61763214D01*
X130298928Y-61648928D01*
X130241785Y-61534642D01*
X130184642Y-61306071D01*
X130184642Y-61134642D01*
X130241785Y-60906071D01*
X130298928Y-60791785D01*
X130413214Y-60677500D01*
X130584642Y-60620357D01*
X130698928Y-60620357D01*
X130870357Y-60677500D01*
X130927500Y-60734642D01*
X131956071Y-61020357D02*
X131956071Y-61820357D01*
X131670357Y-60563214D02*
X131384642Y-61420357D01*
X132127500Y-61420357D01*
X133278928Y-59906071D02*
X132421785Y-59906071D01*
X132850357Y-59906071D02*
X132850357Y-58406071D01*
X132707500Y-58620357D01*
X132564642Y-58763214D01*
X132421785Y-58834642D01*
X134207500Y-58406071D02*
X134350357Y-58406071D01*
X134493214Y-58477500D01*
X134564642Y-58548928D01*
X134636071Y-58691785D01*
X134707500Y-58977500D01*
X134707500Y-59334642D01*
X134636071Y-59620357D01*
X134564642Y-59763214D01*
X134493214Y-59834642D01*
X134350357Y-59906071D01*
X134207500Y-59906071D01*
X134064642Y-59834642D01*
X133993214Y-59763214D01*
X133921785Y-59620357D01*
X133850357Y-59334642D01*
X133850357Y-58977500D01*
X133921785Y-58691785D01*
X133993214Y-58548928D01*
X134064642Y-58477500D01*
X134207500Y-58406071D01*
X135636071Y-58406071D02*
X135778928Y-58406071D01*
X135921785Y-58477500D01*
X135993214Y-58548928D01*
X136064642Y-58691785D01*
X136136071Y-58977500D01*
X136136071Y-59334642D01*
X136064642Y-59620357D01*
X135993214Y-59763214D01*
X135921785Y-59834642D01*
X135778928Y-59906071D01*
X135636071Y-59906071D01*
X135493214Y-59834642D01*
X135421785Y-59763214D01*
X135350357Y-59620357D01*
X135278928Y-59334642D01*
X135278928Y-58977500D01*
X135350357Y-58691785D01*
X135421785Y-58548928D01*
X135493214Y-58477500D01*
X135636071Y-58406071D01*
X136778928Y-58906071D02*
X136778928Y-59906071D01*
X136778928Y-59048928D02*
X136850357Y-58977500D01*
X136993214Y-58906071D01*
X137207500Y-58906071D01*
X137350357Y-58977500D01*
X137421785Y-59120357D01*
X137421785Y-59906071D01*
G04 #@! TO.C,C5*
X147437500Y-61706071D02*
X147380357Y-61763214D01*
X147208928Y-61820357D01*
X147094642Y-61820357D01*
X146923214Y-61763214D01*
X146808928Y-61648928D01*
X146751785Y-61534642D01*
X146694642Y-61306071D01*
X146694642Y-61134642D01*
X146751785Y-60906071D01*
X146808928Y-60791785D01*
X146923214Y-60677500D01*
X147094642Y-60620357D01*
X147208928Y-60620357D01*
X147380357Y-60677500D01*
X147437500Y-60734642D01*
X148523214Y-60620357D02*
X147951785Y-60620357D01*
X147894642Y-61191785D01*
X147951785Y-61134642D01*
X148066071Y-61077500D01*
X148351785Y-61077500D01*
X148466071Y-61134642D01*
X148523214Y-61191785D01*
X148580357Y-61306071D01*
X148580357Y-61591785D01*
X148523214Y-61706071D01*
X148466071Y-61763214D01*
X148351785Y-61820357D01*
X148066071Y-61820357D01*
X147951785Y-61763214D01*
X147894642Y-61706071D01*
X149788928Y-59906071D02*
X148931785Y-59906071D01*
X149360357Y-59906071D02*
X149360357Y-58406071D01*
X149217500Y-58620357D01*
X149074642Y-58763214D01*
X148931785Y-58834642D01*
X150717500Y-58406071D02*
X150860357Y-58406071D01*
X151003214Y-58477500D01*
X151074642Y-58548928D01*
X151146071Y-58691785D01*
X151217500Y-58977500D01*
X151217500Y-59334642D01*
X151146071Y-59620357D01*
X151074642Y-59763214D01*
X151003214Y-59834642D01*
X150860357Y-59906071D01*
X150717500Y-59906071D01*
X150574642Y-59834642D01*
X150503214Y-59763214D01*
X150431785Y-59620357D01*
X150360357Y-59334642D01*
X150360357Y-58977500D01*
X150431785Y-58691785D01*
X150503214Y-58548928D01*
X150574642Y-58477500D01*
X150717500Y-58406071D01*
X152146071Y-58406071D02*
X152288928Y-58406071D01*
X152431785Y-58477500D01*
X152503214Y-58548928D01*
X152574642Y-58691785D01*
X152646071Y-58977500D01*
X152646071Y-59334642D01*
X152574642Y-59620357D01*
X152503214Y-59763214D01*
X152431785Y-59834642D01*
X152288928Y-59906071D01*
X152146071Y-59906071D01*
X152003214Y-59834642D01*
X151931785Y-59763214D01*
X151860357Y-59620357D01*
X151788928Y-59334642D01*
X151788928Y-58977500D01*
X151860357Y-58691785D01*
X151931785Y-58548928D01*
X152003214Y-58477500D01*
X152146071Y-58406071D01*
X153288928Y-58906071D02*
X153288928Y-59906071D01*
X153288928Y-59048928D02*
X153360357Y-58977500D01*
X153503214Y-58906071D01*
X153717500Y-58906071D01*
X153860357Y-58977500D01*
X153931785Y-59120357D01*
X153931785Y-59906071D01*
G04 #@! TO.C,C6*
X35360000Y-93773571D02*
X35302857Y-93830714D01*
X35131428Y-93887857D01*
X35017142Y-93887857D01*
X34845714Y-93830714D01*
X34731428Y-93716428D01*
X34674285Y-93602142D01*
X34617142Y-93373571D01*
X34617142Y-93202142D01*
X34674285Y-92973571D01*
X34731428Y-92859285D01*
X34845714Y-92745000D01*
X35017142Y-92687857D01*
X35131428Y-92687857D01*
X35302857Y-92745000D01*
X35360000Y-92802142D01*
X36388571Y-92687857D02*
X36160000Y-92687857D01*
X36045714Y-92745000D01*
X35988571Y-92802142D01*
X35874285Y-92973571D01*
X35817142Y-93202142D01*
X35817142Y-93659285D01*
X35874285Y-93773571D01*
X35931428Y-93830714D01*
X36045714Y-93887857D01*
X36274285Y-93887857D01*
X36388571Y-93830714D01*
X36445714Y-93773571D01*
X36502857Y-93659285D01*
X36502857Y-93373571D01*
X36445714Y-93259285D01*
X36388571Y-93202142D01*
X36274285Y-93145000D01*
X36045714Y-93145000D01*
X35931428Y-93202142D01*
X35874285Y-93259285D01*
X35817142Y-93373571D01*
X34188571Y-98178571D02*
X34188571Y-99035714D01*
X34188571Y-98607142D02*
X32688571Y-98607142D01*
X32902857Y-98750000D01*
X33045714Y-98892857D01*
X33117142Y-99035714D01*
X32688571Y-97250000D02*
X32688571Y-97107142D01*
X32760000Y-96964285D01*
X32831428Y-96892857D01*
X32974285Y-96821428D01*
X33260000Y-96750000D01*
X33617142Y-96750000D01*
X33902857Y-96821428D01*
X34045714Y-96892857D01*
X34117142Y-96964285D01*
X34188571Y-97107142D01*
X34188571Y-97250000D01*
X34117142Y-97392857D01*
X34045714Y-97464285D01*
X33902857Y-97535714D01*
X33617142Y-97607142D01*
X33260000Y-97607142D01*
X32974285Y-97535714D01*
X32831428Y-97464285D01*
X32760000Y-97392857D01*
X32688571Y-97250000D01*
X32688571Y-95821428D02*
X32688571Y-95678571D01*
X32760000Y-95535714D01*
X32831428Y-95464285D01*
X32974285Y-95392857D01*
X33260000Y-95321428D01*
X33617142Y-95321428D01*
X33902857Y-95392857D01*
X34045714Y-95464285D01*
X34117142Y-95535714D01*
X34188571Y-95678571D01*
X34188571Y-95821428D01*
X34117142Y-95964285D01*
X34045714Y-96035714D01*
X33902857Y-96107142D01*
X33617142Y-96178571D01*
X33260000Y-96178571D01*
X32974285Y-96107142D01*
X32831428Y-96035714D01*
X32760000Y-95964285D01*
X32688571Y-95821428D01*
X33188571Y-94678571D02*
X34188571Y-94678571D01*
X33331428Y-94678571D02*
X33260000Y-94607142D01*
X33188571Y-94464285D01*
X33188571Y-94250000D01*
X33260000Y-94107142D01*
X33402857Y-94035714D01*
X34188571Y-94035714D01*
G04 #@! TO.C,C8*
X66157500Y-94091071D02*
X66100357Y-94148214D01*
X65928928Y-94205357D01*
X65814642Y-94205357D01*
X65643214Y-94148214D01*
X65528928Y-94033928D01*
X65471785Y-93919642D01*
X65414642Y-93691071D01*
X65414642Y-93519642D01*
X65471785Y-93291071D01*
X65528928Y-93176785D01*
X65643214Y-93062500D01*
X65814642Y-93005357D01*
X65928928Y-93005357D01*
X66100357Y-93062500D01*
X66157500Y-93119642D01*
X66843214Y-93519642D02*
X66728928Y-93462500D01*
X66671785Y-93405357D01*
X66614642Y-93291071D01*
X66614642Y-93233928D01*
X66671785Y-93119642D01*
X66728928Y-93062500D01*
X66843214Y-93005357D01*
X67071785Y-93005357D01*
X67186071Y-93062500D01*
X67243214Y-93119642D01*
X67300357Y-93233928D01*
X67300357Y-93291071D01*
X67243214Y-93405357D01*
X67186071Y-93462500D01*
X67071785Y-93519642D01*
X66843214Y-93519642D01*
X66728928Y-93576785D01*
X66671785Y-93633928D01*
X66614642Y-93748214D01*
X66614642Y-93976785D01*
X66671785Y-94091071D01*
X66728928Y-94148214D01*
X66843214Y-94205357D01*
X67071785Y-94205357D01*
X67186071Y-94148214D01*
X67243214Y-94091071D01*
X67300357Y-93976785D01*
X67300357Y-93748214D01*
X67243214Y-93633928D01*
X67186071Y-93576785D01*
X67071785Y-93519642D01*
X64986071Y-98496071D02*
X64986071Y-99353214D01*
X64986071Y-98924642D02*
X63486071Y-98924642D01*
X63700357Y-99067500D01*
X63843214Y-99210357D01*
X63914642Y-99353214D01*
X63486071Y-97567500D02*
X63486071Y-97424642D01*
X63557500Y-97281785D01*
X63628928Y-97210357D01*
X63771785Y-97138928D01*
X64057500Y-97067500D01*
X64414642Y-97067500D01*
X64700357Y-97138928D01*
X64843214Y-97210357D01*
X64914642Y-97281785D01*
X64986071Y-97424642D01*
X64986071Y-97567500D01*
X64914642Y-97710357D01*
X64843214Y-97781785D01*
X64700357Y-97853214D01*
X64414642Y-97924642D01*
X64057500Y-97924642D01*
X63771785Y-97853214D01*
X63628928Y-97781785D01*
X63557500Y-97710357D01*
X63486071Y-97567500D01*
X63486071Y-96138928D02*
X63486071Y-95996071D01*
X63557500Y-95853214D01*
X63628928Y-95781785D01*
X63771785Y-95710357D01*
X64057500Y-95638928D01*
X64414642Y-95638928D01*
X64700357Y-95710357D01*
X64843214Y-95781785D01*
X64914642Y-95853214D01*
X64986071Y-95996071D01*
X64986071Y-96138928D01*
X64914642Y-96281785D01*
X64843214Y-96353214D01*
X64700357Y-96424642D01*
X64414642Y-96496071D01*
X64057500Y-96496071D01*
X63771785Y-96424642D01*
X63628928Y-96353214D01*
X63557500Y-96281785D01*
X63486071Y-96138928D01*
X63986071Y-94996071D02*
X64986071Y-94996071D01*
X64128928Y-94996071D02*
X64057500Y-94924642D01*
X63986071Y-94781785D01*
X63986071Y-94567500D01*
X64057500Y-94424642D01*
X64200357Y-94353214D01*
X64986071Y-94353214D01*
G04 #@! TO.C,C9*
X96637500Y-94091071D02*
X96580357Y-94148214D01*
X96408928Y-94205357D01*
X96294642Y-94205357D01*
X96123214Y-94148214D01*
X96008928Y-94033928D01*
X95951785Y-93919642D01*
X95894642Y-93691071D01*
X95894642Y-93519642D01*
X95951785Y-93291071D01*
X96008928Y-93176785D01*
X96123214Y-93062500D01*
X96294642Y-93005357D01*
X96408928Y-93005357D01*
X96580357Y-93062500D01*
X96637500Y-93119642D01*
X97208928Y-94205357D02*
X97437500Y-94205357D01*
X97551785Y-94148214D01*
X97608928Y-94091071D01*
X97723214Y-93919642D01*
X97780357Y-93691071D01*
X97780357Y-93233928D01*
X97723214Y-93119642D01*
X97666071Y-93062500D01*
X97551785Y-93005357D01*
X97323214Y-93005357D01*
X97208928Y-93062500D01*
X97151785Y-93119642D01*
X97094642Y-93233928D01*
X97094642Y-93519642D01*
X97151785Y-93633928D01*
X97208928Y-93691071D01*
X97323214Y-93748214D01*
X97551785Y-93748214D01*
X97666071Y-93691071D01*
X97723214Y-93633928D01*
X97780357Y-93519642D01*
X95466071Y-98496071D02*
X95466071Y-99353214D01*
X95466071Y-98924642D02*
X93966071Y-98924642D01*
X94180357Y-99067500D01*
X94323214Y-99210357D01*
X94394642Y-99353214D01*
X93966071Y-97567500D02*
X93966071Y-97424642D01*
X94037500Y-97281785D01*
X94108928Y-97210357D01*
X94251785Y-97138928D01*
X94537500Y-97067500D01*
X94894642Y-97067500D01*
X95180357Y-97138928D01*
X95323214Y-97210357D01*
X95394642Y-97281785D01*
X95466071Y-97424642D01*
X95466071Y-97567500D01*
X95394642Y-97710357D01*
X95323214Y-97781785D01*
X95180357Y-97853214D01*
X94894642Y-97924642D01*
X94537500Y-97924642D01*
X94251785Y-97853214D01*
X94108928Y-97781785D01*
X94037500Y-97710357D01*
X93966071Y-97567500D01*
X93966071Y-96138928D02*
X93966071Y-95996071D01*
X94037500Y-95853214D01*
X94108928Y-95781785D01*
X94251785Y-95710357D01*
X94537500Y-95638928D01*
X94894642Y-95638928D01*
X95180357Y-95710357D01*
X95323214Y-95781785D01*
X95394642Y-95853214D01*
X95466071Y-95996071D01*
X95466071Y-96138928D01*
X95394642Y-96281785D01*
X95323214Y-96353214D01*
X95180357Y-96424642D01*
X94894642Y-96496071D01*
X94537500Y-96496071D01*
X94251785Y-96424642D01*
X94108928Y-96353214D01*
X94037500Y-96281785D01*
X93966071Y-96138928D01*
X94466071Y-94996071D02*
X95466071Y-94996071D01*
X94608928Y-94996071D02*
X94537500Y-94924642D01*
X94466071Y-94781785D01*
X94466071Y-94567500D01*
X94537500Y-94424642D01*
X94680357Y-94353214D01*
X95466071Y-94353214D01*
G04 #@! TO.C,C10*
X134876071Y-48693928D02*
X134933214Y-48751071D01*
X134990357Y-48922500D01*
X134990357Y-49036785D01*
X134933214Y-49208214D01*
X134818928Y-49322500D01*
X134704642Y-49379642D01*
X134476071Y-49436785D01*
X134304642Y-49436785D01*
X134076071Y-49379642D01*
X133961785Y-49322500D01*
X133847500Y-49208214D01*
X133790357Y-49036785D01*
X133790357Y-48922500D01*
X133847500Y-48751071D01*
X133904642Y-48693928D01*
X134990357Y-47551071D02*
X134990357Y-48236785D01*
X134990357Y-47893928D02*
X133790357Y-47893928D01*
X133961785Y-48008214D01*
X134076071Y-48122500D01*
X134133214Y-48236785D01*
X133790357Y-46808214D02*
X133790357Y-46693928D01*
X133847500Y-46579642D01*
X133904642Y-46522500D01*
X134018928Y-46465357D01*
X134247500Y-46408214D01*
X134533214Y-46408214D01*
X134761785Y-46465357D01*
X134876071Y-46522500D01*
X134933214Y-46579642D01*
X134990357Y-46693928D01*
X134990357Y-46808214D01*
X134933214Y-46922500D01*
X134876071Y-46979642D01*
X134761785Y-47036785D01*
X134533214Y-47093928D01*
X134247500Y-47093928D01*
X134018928Y-47036785D01*
X133904642Y-46979642D01*
X133847500Y-46922500D01*
X133790357Y-46808214D01*
X131026071Y-49601071D02*
X131026071Y-50458214D01*
X131026071Y-50029642D02*
X129526071Y-50029642D01*
X129740357Y-50172500D01*
X129883214Y-50315357D01*
X129954642Y-50458214D01*
X129526071Y-48672500D02*
X129526071Y-48529642D01*
X129597500Y-48386785D01*
X129668928Y-48315357D01*
X129811785Y-48243928D01*
X130097500Y-48172500D01*
X130454642Y-48172500D01*
X130740357Y-48243928D01*
X130883214Y-48315357D01*
X130954642Y-48386785D01*
X131026071Y-48529642D01*
X131026071Y-48672500D01*
X130954642Y-48815357D01*
X130883214Y-48886785D01*
X130740357Y-48958214D01*
X130454642Y-49029642D01*
X130097500Y-49029642D01*
X129811785Y-48958214D01*
X129668928Y-48886785D01*
X129597500Y-48815357D01*
X129526071Y-48672500D01*
X129526071Y-47243928D02*
X129526071Y-47101071D01*
X129597500Y-46958214D01*
X129668928Y-46886785D01*
X129811785Y-46815357D01*
X130097500Y-46743928D01*
X130454642Y-46743928D01*
X130740357Y-46815357D01*
X130883214Y-46886785D01*
X130954642Y-46958214D01*
X131026071Y-47101071D01*
X131026071Y-47243928D01*
X130954642Y-47386785D01*
X130883214Y-47458214D01*
X130740357Y-47529642D01*
X130454642Y-47601071D01*
X130097500Y-47601071D01*
X129811785Y-47529642D01*
X129668928Y-47458214D01*
X129597500Y-47386785D01*
X129526071Y-47243928D01*
X130026071Y-46101071D02*
X131026071Y-46101071D01*
X130168928Y-46101071D02*
X130097500Y-46029642D01*
X130026071Y-45886785D01*
X130026071Y-45672500D01*
X130097500Y-45529642D01*
X130240357Y-45458214D01*
X131026071Y-45458214D01*
G04 #@! TO.C,C3*
X115687500Y-61706071D02*
X115630357Y-61763214D01*
X115458928Y-61820357D01*
X115344642Y-61820357D01*
X115173214Y-61763214D01*
X115058928Y-61648928D01*
X115001785Y-61534642D01*
X114944642Y-61306071D01*
X114944642Y-61134642D01*
X115001785Y-60906071D01*
X115058928Y-60791785D01*
X115173214Y-60677500D01*
X115344642Y-60620357D01*
X115458928Y-60620357D01*
X115630357Y-60677500D01*
X115687500Y-60734642D01*
X116087500Y-60620357D02*
X116830357Y-60620357D01*
X116430357Y-61077500D01*
X116601785Y-61077500D01*
X116716071Y-61134642D01*
X116773214Y-61191785D01*
X116830357Y-61306071D01*
X116830357Y-61591785D01*
X116773214Y-61706071D01*
X116716071Y-61763214D01*
X116601785Y-61820357D01*
X116258928Y-61820357D01*
X116144642Y-61763214D01*
X116087500Y-61706071D01*
X118038928Y-59846071D02*
X117181785Y-59846071D01*
X117610357Y-59846071D02*
X117610357Y-58346071D01*
X117467500Y-58560357D01*
X117324642Y-58703214D01*
X117181785Y-58774642D01*
X118967500Y-58346071D02*
X119110357Y-58346071D01*
X119253214Y-58417500D01*
X119324642Y-58488928D01*
X119396071Y-58631785D01*
X119467500Y-58917500D01*
X119467500Y-59274642D01*
X119396071Y-59560357D01*
X119324642Y-59703214D01*
X119253214Y-59774642D01*
X119110357Y-59846071D01*
X118967500Y-59846071D01*
X118824642Y-59774642D01*
X118753214Y-59703214D01*
X118681785Y-59560357D01*
X118610357Y-59274642D01*
X118610357Y-58917500D01*
X118681785Y-58631785D01*
X118753214Y-58488928D01*
X118824642Y-58417500D01*
X118967500Y-58346071D01*
X120396071Y-58346071D02*
X120538928Y-58346071D01*
X120681785Y-58417500D01*
X120753214Y-58488928D01*
X120824642Y-58631785D01*
X120896071Y-58917500D01*
X120896071Y-59274642D01*
X120824642Y-59560357D01*
X120753214Y-59703214D01*
X120681785Y-59774642D01*
X120538928Y-59846071D01*
X120396071Y-59846071D01*
X120253214Y-59774642D01*
X120181785Y-59703214D01*
X120110357Y-59560357D01*
X120038928Y-59274642D01*
X120038928Y-58917500D01*
X120110357Y-58631785D01*
X120181785Y-58488928D01*
X120253214Y-58417500D01*
X120396071Y-58346071D01*
X121538928Y-58846071D02*
X121538928Y-59846071D01*
X121538928Y-58988928D02*
X121610357Y-58917500D01*
X121753214Y-58846071D01*
X121967500Y-58846071D01*
X122110357Y-58917500D01*
X122181785Y-59060357D01*
X122181785Y-59846071D01*
G04 #@! TO.C,C11*
X91696071Y-46153928D02*
X91753214Y-46211071D01*
X91810357Y-46382500D01*
X91810357Y-46496785D01*
X91753214Y-46668214D01*
X91638928Y-46782500D01*
X91524642Y-46839642D01*
X91296071Y-46896785D01*
X91124642Y-46896785D01*
X90896071Y-46839642D01*
X90781785Y-46782500D01*
X90667500Y-46668214D01*
X90610357Y-46496785D01*
X90610357Y-46382500D01*
X90667500Y-46211071D01*
X90724642Y-46153928D01*
X91810357Y-45011071D02*
X91810357Y-45696785D01*
X91810357Y-45353928D02*
X90610357Y-45353928D01*
X90781785Y-45468214D01*
X90896071Y-45582500D01*
X90953214Y-45696785D01*
X91810357Y-43868214D02*
X91810357Y-44553928D01*
X91810357Y-44211071D02*
X90610357Y-44211071D01*
X90781785Y-44325357D01*
X90896071Y-44439642D01*
X90953214Y-44553928D01*
X87846071Y-47061071D02*
X87846071Y-47918214D01*
X87846071Y-47489642D02*
X86346071Y-47489642D01*
X86560357Y-47632500D01*
X86703214Y-47775357D01*
X86774642Y-47918214D01*
X86346071Y-46132500D02*
X86346071Y-45989642D01*
X86417500Y-45846785D01*
X86488928Y-45775357D01*
X86631785Y-45703928D01*
X86917500Y-45632500D01*
X87274642Y-45632500D01*
X87560357Y-45703928D01*
X87703214Y-45775357D01*
X87774642Y-45846785D01*
X87846071Y-45989642D01*
X87846071Y-46132500D01*
X87774642Y-46275357D01*
X87703214Y-46346785D01*
X87560357Y-46418214D01*
X87274642Y-46489642D01*
X86917500Y-46489642D01*
X86631785Y-46418214D01*
X86488928Y-46346785D01*
X86417500Y-46275357D01*
X86346071Y-46132500D01*
X86346071Y-44703928D02*
X86346071Y-44561071D01*
X86417500Y-44418214D01*
X86488928Y-44346785D01*
X86631785Y-44275357D01*
X86917500Y-44203928D01*
X87274642Y-44203928D01*
X87560357Y-44275357D01*
X87703214Y-44346785D01*
X87774642Y-44418214D01*
X87846071Y-44561071D01*
X87846071Y-44703928D01*
X87774642Y-44846785D01*
X87703214Y-44918214D01*
X87560357Y-44989642D01*
X87274642Y-45061071D01*
X86917500Y-45061071D01*
X86631785Y-44989642D01*
X86488928Y-44918214D01*
X86417500Y-44846785D01*
X86346071Y-44703928D01*
X86846071Y-43561071D02*
X87846071Y-43561071D01*
X86988928Y-43561071D02*
X86917500Y-43489642D01*
X86846071Y-43346785D01*
X86846071Y-43132500D01*
X86917500Y-42989642D01*
X87060357Y-42918214D01*
X87846071Y-42918214D01*
G04 #@! TO.C,U10*
X136890357Y-56011071D02*
X136890357Y-57225357D01*
X136961785Y-57368214D01*
X137033214Y-57439642D01*
X137176071Y-57511071D01*
X137461785Y-57511071D01*
X137604642Y-57439642D01*
X137676071Y-57368214D01*
X137747500Y-57225357D01*
X137747500Y-56011071D01*
X139247500Y-57511071D02*
X138390357Y-57511071D01*
X138818928Y-57511071D02*
X138818928Y-56011071D01*
X138676071Y-56225357D01*
X138533214Y-56368214D01*
X138390357Y-56439642D01*
X140176071Y-56011071D02*
X140318928Y-56011071D01*
X140461785Y-56082500D01*
X140533214Y-56153928D01*
X140604642Y-56296785D01*
X140676071Y-56582500D01*
X140676071Y-56939642D01*
X140604642Y-57225357D01*
X140533214Y-57368214D01*
X140461785Y-57439642D01*
X140318928Y-57511071D01*
X140176071Y-57511071D01*
X140033214Y-57439642D01*
X139961785Y-57368214D01*
X139890357Y-57225357D01*
X139818928Y-56939642D01*
X139818928Y-56582500D01*
X139890357Y-56296785D01*
X139961785Y-56153928D01*
X140033214Y-56082500D01*
X140176071Y-56011071D01*
X142403214Y-56011071D02*
X143403214Y-56011071D01*
X142760357Y-57511071D01*
X144617500Y-56511071D02*
X144617500Y-57511071D01*
X144260357Y-55939642D02*
X143903214Y-57011071D01*
X144831785Y-57011071D01*
X146117500Y-57511071D02*
X145403214Y-57511071D01*
X145403214Y-56011071D01*
X146546071Y-57439642D02*
X146760357Y-57511071D01*
X147117500Y-57511071D01*
X147260357Y-57439642D01*
X147331785Y-57368214D01*
X147403214Y-57225357D01*
X147403214Y-57082500D01*
X147331785Y-56939642D01*
X147260357Y-56868214D01*
X147117500Y-56796785D01*
X146831785Y-56725357D01*
X146688928Y-56653928D01*
X146617500Y-56582500D01*
X146546071Y-56439642D01*
X146546071Y-56296785D01*
X146617500Y-56153928D01*
X146688928Y-56082500D01*
X146831785Y-56011071D01*
X147188928Y-56011071D01*
X147403214Y-56082500D01*
X147903214Y-56011071D02*
X148903214Y-56011071D01*
X148260357Y-57511071D01*
X150117500Y-56511071D02*
X150117500Y-57511071D01*
X149760357Y-55939642D02*
X149403214Y-57011071D01*
X150331785Y-57011071D01*
G04 #@! TO.C,C12*
X62486071Y-46788928D02*
X62543214Y-46846071D01*
X62600357Y-47017500D01*
X62600357Y-47131785D01*
X62543214Y-47303214D01*
X62428928Y-47417500D01*
X62314642Y-47474642D01*
X62086071Y-47531785D01*
X61914642Y-47531785D01*
X61686071Y-47474642D01*
X61571785Y-47417500D01*
X61457500Y-47303214D01*
X61400357Y-47131785D01*
X61400357Y-47017500D01*
X61457500Y-46846071D01*
X61514642Y-46788928D01*
X62600357Y-45646071D02*
X62600357Y-46331785D01*
X62600357Y-45988928D02*
X61400357Y-45988928D01*
X61571785Y-46103214D01*
X61686071Y-46217500D01*
X61743214Y-46331785D01*
X61514642Y-45188928D02*
X61457500Y-45131785D01*
X61400357Y-45017500D01*
X61400357Y-44731785D01*
X61457500Y-44617500D01*
X61514642Y-44560357D01*
X61628928Y-44503214D01*
X61743214Y-44503214D01*
X61914642Y-44560357D01*
X62600357Y-45246071D01*
X62600357Y-44503214D01*
X58636071Y-47696071D02*
X58636071Y-48553214D01*
X58636071Y-48124642D02*
X57136071Y-48124642D01*
X57350357Y-48267499D01*
X57493214Y-48410357D01*
X57564642Y-48553214D01*
X57136071Y-46767499D02*
X57136071Y-46624642D01*
X57207500Y-46481785D01*
X57278928Y-46410357D01*
X57421785Y-46338928D01*
X57707500Y-46267500D01*
X58064642Y-46267500D01*
X58350357Y-46338928D01*
X58493214Y-46410357D01*
X58564642Y-46481785D01*
X58636071Y-46624642D01*
X58636071Y-46767499D01*
X58564642Y-46910357D01*
X58493214Y-46981785D01*
X58350357Y-47053214D01*
X58064642Y-47124642D01*
X57707500Y-47124642D01*
X57421785Y-47053214D01*
X57278928Y-46981785D01*
X57207500Y-46910357D01*
X57136071Y-46767499D01*
X57136071Y-45338928D02*
X57136071Y-45196071D01*
X57207500Y-45053214D01*
X57278928Y-44981785D01*
X57421785Y-44910357D01*
X57707500Y-44838928D01*
X58064642Y-44838928D01*
X58350357Y-44910357D01*
X58493214Y-44981785D01*
X58564642Y-45053214D01*
X58636071Y-45196071D01*
X58636071Y-45338928D01*
X58564642Y-45481785D01*
X58493214Y-45553214D01*
X58350357Y-45624642D01*
X58064642Y-45696071D01*
X57707500Y-45696071D01*
X57421785Y-45624642D01*
X57278928Y-45553214D01*
X57207500Y-45481785D01*
X57136071Y-45338928D01*
X57636071Y-44196071D02*
X58636071Y-44196071D01*
X57778928Y-44196071D02*
X57707500Y-44124642D01*
X57636071Y-43981785D01*
X57636071Y-43767500D01*
X57707500Y-43624642D01*
X57850357Y-43553214D01*
X58636071Y-43553214D01*
G04 #@! TO.C,R1*
X66157500Y-56740357D02*
X65757500Y-56168928D01*
X65471785Y-56740357D02*
X65471785Y-55540357D01*
X65928928Y-55540357D01*
X66043214Y-55597500D01*
X66100357Y-55654642D01*
X66157500Y-55768928D01*
X66157500Y-55940357D01*
X66100357Y-56054642D01*
X66043214Y-56111785D01*
X65928928Y-56168928D01*
X65471785Y-56168928D01*
X67300357Y-56740357D02*
X66614642Y-56740357D01*
X66957500Y-56740357D02*
X66957500Y-55540357D01*
X66843214Y-55711785D01*
X66728928Y-55826071D01*
X66614642Y-55883214D01*
X65242500Y-60598928D02*
X65313928Y-60527500D01*
X65456785Y-60456071D01*
X65813928Y-60456071D01*
X65956785Y-60527500D01*
X66028214Y-60598928D01*
X66099642Y-60741785D01*
X66099642Y-60884642D01*
X66028214Y-61098928D01*
X65171071Y-61956071D01*
X66099642Y-61956071D01*
X66671071Y-60598928D02*
X66742500Y-60527500D01*
X66885357Y-60456071D01*
X67242500Y-60456071D01*
X67385357Y-60527500D01*
X67456785Y-60598928D01*
X67528214Y-60741785D01*
X67528214Y-60884642D01*
X67456785Y-61098928D01*
X66599642Y-61956071D01*
X67528214Y-61956071D01*
X68171071Y-61956071D02*
X68171071Y-60456071D01*
X68313928Y-61384642D02*
X68742500Y-61956071D01*
X68742500Y-60956071D02*
X68171071Y-61527500D01*
G04 #@! TO.C,R2*
X72507500Y-56910357D02*
X72107500Y-56338928D01*
X71821785Y-56910357D02*
X71821785Y-55710357D01*
X72278928Y-55710357D01*
X72393214Y-55767500D01*
X72450357Y-55824642D01*
X72507500Y-55938928D01*
X72507500Y-56110357D01*
X72450357Y-56224642D01*
X72393214Y-56281785D01*
X72278928Y-56338928D01*
X71821785Y-56338928D01*
X72964642Y-55824642D02*
X73021785Y-55767500D01*
X73136071Y-55710357D01*
X73421785Y-55710357D01*
X73536071Y-55767500D01*
X73593214Y-55824642D01*
X73650357Y-55938928D01*
X73650357Y-56053214D01*
X73593214Y-56224642D01*
X72907500Y-56910357D01*
X73650357Y-56910357D01*
X70957500Y-60598928D02*
X71028928Y-60527500D01*
X71171785Y-60456071D01*
X71528928Y-60456071D01*
X71671785Y-60527500D01*
X71743214Y-60598928D01*
X71814642Y-60741785D01*
X71814642Y-60884642D01*
X71743214Y-61098928D01*
X70886071Y-61956071D01*
X71814642Y-61956071D01*
X72386071Y-60598928D02*
X72457500Y-60527500D01*
X72600357Y-60456071D01*
X72957500Y-60456071D01*
X73100357Y-60527500D01*
X73171785Y-60598928D01*
X73243214Y-60741785D01*
X73243214Y-60884642D01*
X73171785Y-61098928D01*
X72314642Y-61956071D01*
X73243214Y-61956071D01*
X73886071Y-61956071D02*
X73886071Y-60456071D01*
X74028928Y-61384642D02*
X74457500Y-61956071D01*
X74457500Y-60956071D02*
X73886071Y-61527500D01*
G04 #@! TO.C,SW1*
X31742261Y-45390833D02*
X31789880Y-45247976D01*
X31789880Y-45009880D01*
X31742261Y-44914642D01*
X31694642Y-44867023D01*
X31599404Y-44819404D01*
X31504166Y-44819404D01*
X31408928Y-44867023D01*
X31361309Y-44914642D01*
X31313690Y-45009880D01*
X31266071Y-45200357D01*
X31218452Y-45295595D01*
X31170833Y-45343214D01*
X31075595Y-45390833D01*
X30980357Y-45390833D01*
X30885119Y-45343214D01*
X30837500Y-45295595D01*
X30789880Y-45200357D01*
X30789880Y-44962261D01*
X30837500Y-44819404D01*
X30789880Y-44486071D02*
X31789880Y-44247976D01*
X31075595Y-44057500D01*
X31789880Y-43867023D01*
X30789880Y-43628928D01*
X31789880Y-42724166D02*
X31789880Y-43295595D01*
X31789880Y-43009880D02*
X30789880Y-43009880D01*
X30932738Y-43105119D01*
X31027976Y-43200357D01*
X31075595Y-43295595D01*
X29992500Y-38389642D02*
X30206785Y-38461071D01*
X30563928Y-38461071D01*
X30706785Y-38389642D01*
X30778214Y-38318214D01*
X30849642Y-38175357D01*
X30849642Y-38032500D01*
X30778214Y-37889642D01*
X30706785Y-37818214D01*
X30563928Y-37746785D01*
X30278214Y-37675357D01*
X30135357Y-37603928D01*
X30063928Y-37532500D01*
X29992500Y-37389642D01*
X29992500Y-37246785D01*
X30063928Y-37103928D01*
X30135357Y-37032500D01*
X30278214Y-36961071D01*
X30635357Y-36961071D01*
X30849642Y-37032500D01*
X31349642Y-36961071D02*
X31706785Y-38461071D01*
X31992500Y-37389642D01*
X32278214Y-38461071D01*
X32635357Y-36961071D01*
X32849642Y-38603928D02*
X33992500Y-38603928D01*
X35206785Y-38461071D02*
X34706785Y-37746785D01*
X34349642Y-38461071D02*
X34349642Y-36961071D01*
X34921071Y-36961071D01*
X35063928Y-37032500D01*
X35135357Y-37103928D01*
X35206785Y-37246785D01*
X35206785Y-37461071D01*
X35135357Y-37603928D01*
X35063928Y-37675357D01*
X34921071Y-37746785D01*
X34349642Y-37746785D01*
X35849642Y-37675357D02*
X36349642Y-37675357D01*
X36563928Y-38461071D02*
X35849642Y-38461071D01*
X35849642Y-36961071D01*
X36563928Y-36961071D01*
X37135357Y-38389642D02*
X37349642Y-38461071D01*
X37706785Y-38461071D01*
X37849642Y-38389642D01*
X37921071Y-38318214D01*
X37992500Y-38175357D01*
X37992500Y-38032500D01*
X37921071Y-37889642D01*
X37849642Y-37818214D01*
X37706785Y-37746785D01*
X37421071Y-37675357D01*
X37278214Y-37603928D01*
X37206785Y-37532500D01*
X37135357Y-37389642D01*
X37135357Y-37246785D01*
X37206785Y-37103928D01*
X37278214Y-37032500D01*
X37421071Y-36961071D01*
X37778214Y-36961071D01*
X37992500Y-37032500D01*
X38635357Y-37675357D02*
X39135357Y-37675357D01*
X39349642Y-38461071D02*
X38635357Y-38461071D01*
X38635357Y-36961071D01*
X39349642Y-36961071D01*
X39778214Y-36961071D02*
X40635357Y-36961071D01*
X40206785Y-38461071D02*
X40206785Y-36961071D01*
G04 #@! TO.C,U11*
X67040357Y-41616071D02*
X67040357Y-42830357D01*
X67111785Y-42973214D01*
X67183214Y-43044642D01*
X67326071Y-43116071D01*
X67611785Y-43116071D01*
X67754642Y-43044642D01*
X67826071Y-42973214D01*
X67897500Y-42830357D01*
X67897500Y-41616071D01*
X69397500Y-43116071D02*
X68540357Y-43116071D01*
X68968928Y-43116071D02*
X68968928Y-41616071D01*
X68826071Y-41830357D01*
X68683214Y-41973214D01*
X68540357Y-42044642D01*
X70826071Y-43116071D02*
X69968928Y-43116071D01*
X70397500Y-43116071D02*
X70397500Y-41616071D01*
X70254642Y-41830357D01*
X70111785Y-41973214D01*
X69968928Y-42044642D01*
X74426071Y-53113214D02*
X74426071Y-52256071D01*
X75926071Y-52684642D02*
X74426071Y-52684642D01*
X75926071Y-51041785D02*
X75926071Y-51756071D01*
X74426071Y-51756071D01*
X74426071Y-50684642D02*
X74426071Y-49684642D01*
X75926071Y-50327500D01*
X74426071Y-49256071D02*
X74426071Y-48256071D01*
X75926071Y-48898928D01*
X74426071Y-47398928D02*
X74426071Y-47256071D01*
X74497500Y-47113214D01*
X74568928Y-47041785D01*
X74711785Y-46970357D01*
X74997500Y-46898928D01*
X75354642Y-46898928D01*
X75640357Y-46970357D01*
X75783214Y-47041785D01*
X75854642Y-47113214D01*
X75926071Y-47256071D01*
X75926071Y-47398928D01*
X75854642Y-47541785D01*
X75783214Y-47613214D01*
X75640357Y-47684642D01*
X75354642Y-47756071D01*
X74997500Y-47756071D01*
X74711785Y-47684642D01*
X74568928Y-47613214D01*
X74497500Y-47541785D01*
X74426071Y-47398928D01*
X74426071Y-45541785D02*
X74426071Y-46256071D01*
X75140357Y-46327500D01*
X75068928Y-46256071D01*
X74997500Y-46113214D01*
X74997500Y-45756071D01*
X75068928Y-45613214D01*
X75140357Y-45541785D01*
X75283214Y-45470357D01*
X75640357Y-45470357D01*
X75783214Y-45541785D01*
X75854642Y-45613214D01*
X75926071Y-45756071D01*
X75926071Y-46113214D01*
X75854642Y-46256071D01*
X75783214Y-46327500D01*
X75497500Y-44898928D02*
X75497500Y-44184642D01*
X75926071Y-45041785D02*
X74426071Y-44541785D01*
X75926071Y-44041785D01*
G04 #@! TO.C,JP2*
X29480000Y-92262857D02*
X29480000Y-93120000D01*
X29422857Y-93291428D01*
X29308571Y-93405714D01*
X29137142Y-93462857D01*
X29022857Y-93462857D01*
X30051428Y-93462857D02*
X30051428Y-92262857D01*
X30508571Y-92262857D01*
X30622857Y-92320000D01*
X30680000Y-92377142D01*
X30737142Y-92491428D01*
X30737142Y-92662857D01*
X30680000Y-92777142D01*
X30622857Y-92834285D01*
X30508571Y-92891428D01*
X30051428Y-92891428D01*
X31194285Y-92377142D02*
X31251428Y-92320000D01*
X31365714Y-92262857D01*
X31651428Y-92262857D01*
X31765714Y-92320000D01*
X31822857Y-92377142D01*
X31880000Y-92491428D01*
X31880000Y-92605714D01*
X31822857Y-92777142D01*
X31137142Y-93462857D01*
X31880000Y-93462857D01*
G04 #@! TO.C,J11*
X44489880Y-43732023D02*
X45204166Y-43732023D01*
X45347023Y-43779642D01*
X45442261Y-43874880D01*
X45489880Y-44017738D01*
X45489880Y-44112976D01*
X45489880Y-42732023D02*
X45489880Y-43303452D01*
X45489880Y-43017738D02*
X44489880Y-43017738D01*
X44632738Y-43112976D01*
X44727976Y-43208214D01*
X44775595Y-43303452D01*
X45489880Y-41779642D02*
X45489880Y-42351071D01*
X45489880Y-42065357D02*
X44489880Y-42065357D01*
X44632738Y-42160595D01*
X44727976Y-42255833D01*
X44775595Y-42351071D01*
X46398928Y-51161071D02*
X45898928Y-50446785D01*
X45541785Y-51161071D02*
X45541785Y-49661071D01*
X46113214Y-49661071D01*
X46256071Y-49732500D01*
X46327500Y-49803928D01*
X46398928Y-49946785D01*
X46398928Y-50161071D01*
X46327500Y-50303928D01*
X46256071Y-50375357D01*
X46113214Y-50446785D01*
X45541785Y-50446785D01*
X47041785Y-50375357D02*
X47541785Y-50375357D01*
X47756071Y-51161071D02*
X47041785Y-51161071D01*
X47041785Y-49661071D01*
X47756071Y-49661071D01*
X48327500Y-51089642D02*
X48541785Y-51161071D01*
X48898928Y-51161071D01*
X49041785Y-51089642D01*
X49113214Y-51018214D01*
X49184642Y-50875357D01*
X49184642Y-50732500D01*
X49113214Y-50589642D01*
X49041785Y-50518214D01*
X48898928Y-50446785D01*
X48613214Y-50375357D01*
X48470357Y-50303928D01*
X48398928Y-50232500D01*
X48327500Y-50089642D01*
X48327500Y-49946785D01*
X48398928Y-49803928D01*
X48470357Y-49732500D01*
X48613214Y-49661071D01*
X48970357Y-49661071D01*
X49184642Y-49732500D01*
X49827500Y-50375357D02*
X50327500Y-50375357D01*
X50541785Y-51161071D02*
X49827500Y-51161071D01*
X49827500Y-49661071D01*
X50541785Y-49661071D01*
X50970357Y-49661071D02*
X51827500Y-49661071D01*
X51398928Y-51161071D02*
X51398928Y-49661071D01*
G04 #@! TO.C,JP1*
X19980357Y-81010000D02*
X20837500Y-81010000D01*
X21008928Y-81067142D01*
X21123214Y-81181428D01*
X21180357Y-81352857D01*
X21180357Y-81467142D01*
X21180357Y-80438571D02*
X19980357Y-80438571D01*
X19980357Y-79981428D01*
X20037500Y-79867142D01*
X20094642Y-79810000D01*
X20208928Y-79752857D01*
X20380357Y-79752857D01*
X20494642Y-79810000D01*
X20551785Y-79867142D01*
X20608928Y-79981428D01*
X20608928Y-80438571D01*
X21180357Y-78610000D02*
X21180357Y-79295714D01*
X21180357Y-78952857D02*
X19980357Y-78952857D01*
X20151785Y-79067142D01*
X20266071Y-79181428D01*
X20323214Y-79295714D01*
G04 #@! TO.C,RN2*
X94738928Y-83410357D02*
X94338928Y-82838928D01*
X94053214Y-83410357D02*
X94053214Y-82210357D01*
X94510357Y-82210357D01*
X94624642Y-82267500D01*
X94681785Y-82324642D01*
X94738928Y-82438928D01*
X94738928Y-82610357D01*
X94681785Y-82724642D01*
X94624642Y-82781785D01*
X94510357Y-82838928D01*
X94053214Y-82838928D01*
X95253214Y-83410357D02*
X95253214Y-82210357D01*
X95938928Y-83410357D01*
X95938928Y-82210357D01*
X96453214Y-82324642D02*
X96510357Y-82267500D01*
X96624642Y-82210357D01*
X96910357Y-82210357D01*
X97024642Y-82267500D01*
X97081785Y-82324642D01*
X97138928Y-82438928D01*
X97138928Y-82553214D01*
X97081785Y-82724642D01*
X96396071Y-83410357D01*
X97138928Y-83410357D01*
X92848928Y-73524642D02*
X92777500Y-73667500D01*
X92706071Y-73738928D01*
X92563214Y-73810357D01*
X92491785Y-73810357D01*
X92348928Y-73738928D01*
X92277500Y-73667500D01*
X92206071Y-73524642D01*
X92206071Y-73238928D01*
X92277500Y-73096071D01*
X92348928Y-73024642D01*
X92491785Y-72953214D01*
X92563214Y-72953214D01*
X92706071Y-73024642D01*
X92777500Y-73096071D01*
X92848928Y-73238928D01*
X92848928Y-73524642D01*
X92920357Y-73667500D01*
X92991785Y-73738928D01*
X93134642Y-73810357D01*
X93420357Y-73810357D01*
X93563214Y-73738928D01*
X93634642Y-73667500D01*
X93706071Y-73524642D01*
X93706071Y-73238928D01*
X93634642Y-73096071D01*
X93563214Y-73024642D01*
X93420357Y-72953214D01*
X93134642Y-72953214D01*
X92991785Y-73024642D01*
X92920357Y-73096071D01*
X92848928Y-73238928D01*
X93706071Y-72453214D02*
X92706071Y-71667500D01*
X92706071Y-72453214D02*
X93706071Y-71667500D01*
X92206071Y-70096071D02*
X92206071Y-69167500D01*
X92777500Y-69667500D01*
X92777500Y-69453214D01*
X92848928Y-69310357D01*
X92920357Y-69238928D01*
X93063214Y-69167500D01*
X93420357Y-69167500D01*
X93563214Y-69238928D01*
X93634642Y-69310357D01*
X93706071Y-69453214D01*
X93706071Y-69881785D01*
X93634642Y-70024642D01*
X93563214Y-70096071D01*
X93706071Y-68524642D02*
X92206071Y-68524642D01*
X93134642Y-68381785D02*
X93706071Y-67953214D01*
X92706071Y-67953214D02*
X93277500Y-68524642D01*
X92206071Y-67453214D02*
X92206071Y-66524642D01*
X92777500Y-67024642D01*
X92777500Y-66810357D01*
X92848928Y-66667500D01*
X92920357Y-66596071D01*
X93063214Y-66524642D01*
X93420357Y-66524642D01*
X93563214Y-66596071D01*
X93634642Y-66667500D01*
X93706071Y-66810357D01*
X93706071Y-67238928D01*
X93634642Y-67381785D01*
X93563214Y-67453214D01*
G04 #@! TO.C,JP3*
X115440357Y-45767500D02*
X116297500Y-45767500D01*
X116468928Y-45824642D01*
X116583214Y-45938928D01*
X116640357Y-46110357D01*
X116640357Y-46224642D01*
X116640357Y-45196071D02*
X115440357Y-45196071D01*
X115440357Y-44738928D01*
X115497500Y-44624642D01*
X115554642Y-44567500D01*
X115668928Y-44510357D01*
X115840357Y-44510357D01*
X115954642Y-44567500D01*
X116011785Y-44624642D01*
X116068928Y-44738928D01*
X116068928Y-45196071D01*
X115440357Y-44110357D02*
X115440357Y-43367500D01*
X115897500Y-43767500D01*
X115897500Y-43596071D01*
X115954642Y-43481785D01*
X116011785Y-43424642D01*
X116126071Y-43367500D01*
X116411785Y-43367500D01*
X116526071Y-43424642D01*
X116583214Y-43481785D01*
X116640357Y-43596071D01*
X116640357Y-43938928D01*
X116583214Y-44053214D01*
X116526071Y-44110357D01*
G04 #@! TO.C,J12*
X88246071Y-82000357D02*
X88246071Y-82857500D01*
X88188928Y-83028928D01*
X88074642Y-83143214D01*
X87903214Y-83200357D01*
X87788928Y-83200357D01*
X89446071Y-83200357D02*
X88760357Y-83200357D01*
X89103214Y-83200357D02*
X89103214Y-82000357D01*
X88988928Y-82171785D01*
X88874642Y-82286071D01*
X88760357Y-82343214D01*
X89903214Y-82114642D02*
X89960357Y-82057500D01*
X90074642Y-82000357D01*
X90360357Y-82000357D01*
X90474642Y-82057500D01*
X90531785Y-82114642D01*
X90588928Y-82228928D01*
X90588928Y-82343214D01*
X90531785Y-82514642D01*
X89846071Y-83200357D01*
X90588928Y-83200357D01*
G04 #@! TO.C,C13*
X57176071Y-51376071D02*
X57118928Y-51433214D01*
X56947500Y-51490357D01*
X56833214Y-51490357D01*
X56661785Y-51433214D01*
X56547500Y-51318928D01*
X56490357Y-51204642D01*
X56433214Y-50976071D01*
X56433214Y-50804642D01*
X56490357Y-50576071D01*
X56547500Y-50461785D01*
X56661785Y-50347500D01*
X56833214Y-50290357D01*
X56947500Y-50290357D01*
X57118928Y-50347500D01*
X57176071Y-50404642D01*
X58318928Y-51490357D02*
X57633214Y-51490357D01*
X57976071Y-51490357D02*
X57976071Y-50290357D01*
X57861785Y-50461785D01*
X57747500Y-50576071D01*
X57633214Y-50633214D01*
X58718928Y-50290357D02*
X59461785Y-50290357D01*
X59061785Y-50747500D01*
X59233214Y-50747500D01*
X59347500Y-50804642D01*
X59404642Y-50861785D01*
X59461785Y-50976071D01*
X59461785Y-51261785D01*
X59404642Y-51376071D01*
X59347500Y-51433214D01*
X59233214Y-51490357D01*
X58890357Y-51490357D01*
X58776071Y-51433214D01*
X58718928Y-51376071D01*
X56733214Y-61591071D02*
X56733214Y-62591071D01*
X56376071Y-61019642D02*
X56018928Y-62091071D01*
X56947500Y-62091071D01*
X57376071Y-61091071D02*
X58376071Y-61091071D01*
X57733214Y-62591071D01*
X58947500Y-61591071D02*
X58947500Y-63091071D01*
X59661785Y-62376785D02*
X59733214Y-62519642D01*
X59876071Y-62591071D01*
X58947500Y-62376785D02*
X59018928Y-62519642D01*
X59161785Y-62591071D01*
X59447500Y-62591071D01*
X59590357Y-62519642D01*
X59661785Y-62376785D01*
X59661785Y-61591071D01*
G04 #@! TO.C,U1*
D11*
X36258690Y-62087261D02*
X36258690Y-63706309D01*
X36353928Y-63896785D01*
X36449166Y-63992023D01*
X36639642Y-64087261D01*
X37020595Y-64087261D01*
X37211071Y-63992023D01*
X37306309Y-63896785D01*
X37401547Y-63706309D01*
X37401547Y-62087261D01*
X39401547Y-64087261D02*
X38258690Y-64087261D01*
X38830119Y-64087261D02*
X38830119Y-62087261D01*
X38639642Y-62372976D01*
X38449166Y-62563452D01*
X38258690Y-62658690D01*
X44196309Y-62087261D02*
X43815357Y-62087261D01*
X43624880Y-62182500D01*
X43529642Y-62277738D01*
X43339166Y-62563452D01*
X43243928Y-62944404D01*
X43243928Y-63706309D01*
X43339166Y-63896785D01*
X43434404Y-63992023D01*
X43624880Y-64087261D01*
X44005833Y-64087261D01*
X44196309Y-63992023D01*
X44291547Y-63896785D01*
X44386785Y-63706309D01*
X44386785Y-63230119D01*
X44291547Y-63039642D01*
X44196309Y-62944404D01*
X44005833Y-62849166D01*
X43624880Y-62849166D01*
X43434404Y-62944404D01*
X43339166Y-63039642D01*
X43243928Y-63230119D01*
X46196309Y-62087261D02*
X45243928Y-62087261D01*
X45148690Y-63039642D01*
X45243928Y-62944404D01*
X45434404Y-62849166D01*
X45910595Y-62849166D01*
X46101071Y-62944404D01*
X46196309Y-63039642D01*
X46291547Y-63230119D01*
X46291547Y-63706309D01*
X46196309Y-63896785D01*
X46101071Y-63992023D01*
X45910595Y-64087261D01*
X45434404Y-64087261D01*
X45243928Y-63992023D01*
X45148690Y-63896785D01*
X47529642Y-62087261D02*
X47720119Y-62087261D01*
X47910595Y-62182500D01*
X48005833Y-62277738D01*
X48101071Y-62468214D01*
X48196309Y-62849166D01*
X48196309Y-63325357D01*
X48101071Y-63706309D01*
X48005833Y-63896785D01*
X47910595Y-63992023D01*
X47720119Y-64087261D01*
X47529642Y-64087261D01*
X47339166Y-63992023D01*
X47243928Y-63896785D01*
X47148690Y-63706309D01*
X47053452Y-63325357D01*
X47053452Y-62849166D01*
X47148690Y-62468214D01*
X47243928Y-62277738D01*
X47339166Y-62182500D01*
X47529642Y-62087261D01*
X48958214Y-62277738D02*
X49053452Y-62182500D01*
X49243928Y-62087261D01*
X49720119Y-62087261D01*
X49910595Y-62182500D01*
X50005833Y-62277738D01*
X50101071Y-62468214D01*
X50101071Y-62658690D01*
X50005833Y-62944404D01*
X48862976Y-64087261D01*
X50101071Y-64087261D01*
G04 #@! TO.C,U2*
D12*
X108716071Y-80835357D02*
X109930357Y-80835357D01*
X110073214Y-80763928D01*
X110144642Y-80692500D01*
X110216071Y-80549642D01*
X110216071Y-80263928D01*
X110144642Y-80121071D01*
X110073214Y-80049642D01*
X109930357Y-79978214D01*
X108716071Y-79978214D01*
X108858928Y-79335357D02*
X108787500Y-79263928D01*
X108716071Y-79121071D01*
X108716071Y-78763928D01*
X108787500Y-78621071D01*
X108858928Y-78549642D01*
X109001785Y-78478214D01*
X109144642Y-78478214D01*
X109358928Y-78549642D01*
X110216071Y-79406785D01*
X110216071Y-78478214D01*
X108716071Y-76116071D02*
X108716071Y-75116071D01*
X110216071Y-75758928D01*
X109216071Y-73901785D02*
X110216071Y-73901785D01*
X108644642Y-74258928D02*
X109716071Y-74616071D01*
X109716071Y-73687500D01*
X110216071Y-72401785D02*
X110216071Y-73116071D01*
X108716071Y-73116071D01*
X110144642Y-71973214D02*
X110216071Y-71758928D01*
X110216071Y-71401785D01*
X110144642Y-71258928D01*
X110073214Y-71187500D01*
X109930357Y-71116071D01*
X109787500Y-71116071D01*
X109644642Y-71187500D01*
X109573214Y-71258928D01*
X109501785Y-71401785D01*
X109430357Y-71687500D01*
X109358928Y-71830357D01*
X109287500Y-71901785D01*
X109144642Y-71973214D01*
X109001785Y-71973214D01*
X108858928Y-71901785D01*
X108787500Y-71830357D01*
X108716071Y-71687500D01*
X108716071Y-71330357D01*
X108787500Y-71116071D01*
X108716071Y-69830357D02*
X108716071Y-70116071D01*
X108787500Y-70258928D01*
X108858928Y-70330357D01*
X109073214Y-70473214D01*
X109358928Y-70544642D01*
X109930357Y-70544642D01*
X110073214Y-70473214D01*
X110144642Y-70401785D01*
X110216071Y-70258928D01*
X110216071Y-69973214D01*
X110144642Y-69830357D01*
X110073214Y-69758928D01*
X109930357Y-69687500D01*
X109573214Y-69687500D01*
X109430357Y-69758928D01*
X109358928Y-69830357D01*
X109287500Y-69973214D01*
X109287500Y-70258928D01*
X109358928Y-70401785D01*
X109430357Y-70473214D01*
X109573214Y-70544642D01*
X109358928Y-68830357D02*
X109287500Y-68973214D01*
X109216071Y-69044642D01*
X109073214Y-69116071D01*
X109001785Y-69116071D01*
X108858928Y-69044642D01*
X108787500Y-68973214D01*
X108716071Y-68830357D01*
X108716071Y-68544642D01*
X108787500Y-68401785D01*
X108858928Y-68330357D01*
X109001785Y-68258928D01*
X109073214Y-68258928D01*
X109216071Y-68330357D01*
X109287500Y-68401785D01*
X109358928Y-68544642D01*
X109358928Y-68830357D01*
X109430357Y-68973214D01*
X109501785Y-69044642D01*
X109644642Y-69116071D01*
X109930357Y-69116071D01*
X110073214Y-69044642D01*
X110144642Y-68973214D01*
X110216071Y-68830357D01*
X110216071Y-68544642D01*
X110144642Y-68401785D01*
X110073214Y-68330357D01*
X109930357Y-68258928D01*
X109644642Y-68258928D01*
X109501785Y-68330357D01*
X109430357Y-68401785D01*
X109358928Y-68544642D01*
X109358928Y-67401785D02*
X109287500Y-67544642D01*
X109216071Y-67616071D01*
X109073214Y-67687500D01*
X109001785Y-67687500D01*
X108858928Y-67616071D01*
X108787500Y-67544642D01*
X108716071Y-67401785D01*
X108716071Y-67116071D01*
X108787500Y-66973214D01*
X108858928Y-66901785D01*
X109001785Y-66830357D01*
X109073214Y-66830357D01*
X109216071Y-66901785D01*
X109287500Y-66973214D01*
X109358928Y-67116071D01*
X109358928Y-67401785D01*
X109430357Y-67544642D01*
X109501785Y-67616071D01*
X109644642Y-67687500D01*
X109930357Y-67687500D01*
X110073214Y-67616071D01*
X110144642Y-67544642D01*
X110216071Y-67401785D01*
X110216071Y-67116071D01*
X110144642Y-66973214D01*
X110073214Y-66901785D01*
X109930357Y-66830357D01*
X109644642Y-66830357D01*
X109501785Y-66901785D01*
X109430357Y-66973214D01*
X109358928Y-67116071D01*
G04 #@! TO.C,U3*
X122686071Y-80835357D02*
X123900357Y-80835357D01*
X124043214Y-80763928D01*
X124114642Y-80692500D01*
X124186071Y-80549642D01*
X124186071Y-80263928D01*
X124114642Y-80121071D01*
X124043214Y-80049642D01*
X123900357Y-79978214D01*
X122686071Y-79978214D01*
X122686071Y-79406785D02*
X122686071Y-78478214D01*
X123257500Y-78978214D01*
X123257500Y-78763928D01*
X123328928Y-78621071D01*
X123400357Y-78549642D01*
X123543214Y-78478214D01*
X123900357Y-78478214D01*
X124043214Y-78549642D01*
X124114642Y-78621071D01*
X124186071Y-78763928D01*
X124186071Y-79192500D01*
X124114642Y-79335357D01*
X124043214Y-79406785D01*
X122686071Y-76036785D02*
X122686071Y-75036785D01*
X124186071Y-75679642D01*
X123186071Y-73822500D02*
X124186071Y-73822500D01*
X122614642Y-74179642D02*
X123686071Y-74536785D01*
X123686071Y-73608214D01*
X124186071Y-72322500D02*
X124186071Y-73036785D01*
X122686071Y-73036785D01*
X124114642Y-71893928D02*
X124186071Y-71679642D01*
X124186071Y-71322500D01*
X124114642Y-71179642D01*
X124043214Y-71108214D01*
X123900357Y-71036785D01*
X123757500Y-71036785D01*
X123614642Y-71108214D01*
X123543214Y-71179642D01*
X123471785Y-71322500D01*
X123400357Y-71608214D01*
X123328928Y-71751071D01*
X123257500Y-71822500D01*
X123114642Y-71893928D01*
X122971785Y-71893928D01*
X122828928Y-71822500D01*
X122757500Y-71751071D01*
X122686071Y-71608214D01*
X122686071Y-71251071D01*
X122757500Y-71036785D01*
X122686071Y-70536785D02*
X122686071Y-69536785D01*
X124186071Y-70179642D01*
X123186071Y-68322500D02*
X124186071Y-68322500D01*
X122614642Y-68679642D02*
X123686071Y-69036785D01*
X123686071Y-68108214D01*
G04 #@! TO.C,U4*
X137926071Y-80835357D02*
X139140357Y-80835357D01*
X139283214Y-80763928D01*
X139354642Y-80692500D01*
X139426071Y-80549642D01*
X139426071Y-80263928D01*
X139354642Y-80121071D01*
X139283214Y-80049642D01*
X139140357Y-79978214D01*
X137926071Y-79978214D01*
X138426071Y-78621071D02*
X139426071Y-78621071D01*
X137854642Y-78978214D02*
X138926071Y-79335357D01*
X138926071Y-78406785D01*
X137926071Y-76036785D02*
X137926071Y-75036785D01*
X139426071Y-75679642D01*
X138426071Y-73822500D02*
X139426071Y-73822500D01*
X137854642Y-74179642D02*
X138926071Y-74536785D01*
X138926071Y-73608214D01*
X139426071Y-72322500D02*
X139426071Y-73036785D01*
X137926071Y-73036785D01*
X139354642Y-71893928D02*
X139426071Y-71679642D01*
X139426071Y-71322500D01*
X139354642Y-71179642D01*
X139283214Y-71108214D01*
X139140357Y-71036785D01*
X138997500Y-71036785D01*
X138854642Y-71108214D01*
X138783214Y-71179642D01*
X138711785Y-71322500D01*
X138640357Y-71608214D01*
X138568928Y-71751071D01*
X138497500Y-71822500D01*
X138354642Y-71893928D01*
X138211785Y-71893928D01*
X138068928Y-71822500D01*
X137997500Y-71751071D01*
X137926071Y-71608214D01*
X137926071Y-71251071D01*
X137997500Y-71036785D01*
X137926071Y-70108214D02*
X137926071Y-69965357D01*
X137997500Y-69822500D01*
X138068928Y-69751071D01*
X138211785Y-69679642D01*
X138497500Y-69608214D01*
X138854642Y-69608214D01*
X139140357Y-69679642D01*
X139283214Y-69751071D01*
X139354642Y-69822500D01*
X139426071Y-69965357D01*
X139426071Y-70108214D01*
X139354642Y-70251071D01*
X139283214Y-70322500D01*
X139140357Y-70393928D01*
X138854642Y-70465357D01*
X138497500Y-70465357D01*
X138211785Y-70393928D01*
X138068928Y-70322500D01*
X137997500Y-70251071D01*
X137926071Y-70108214D01*
X138426071Y-68322500D02*
X139426071Y-68322500D01*
X137854642Y-68679642D02*
X138926071Y-69036785D01*
X138926071Y-68108214D01*
G04 #@! TO.C,U5*
X154436071Y-80835357D02*
X155650357Y-80835357D01*
X155793214Y-80763928D01*
X155864642Y-80692500D01*
X155936071Y-80549642D01*
X155936071Y-80263928D01*
X155864642Y-80121071D01*
X155793214Y-80049642D01*
X155650357Y-79978214D01*
X154436071Y-79978214D01*
X154436071Y-78549642D02*
X154436071Y-79263928D01*
X155150357Y-79335357D01*
X155078928Y-79263928D01*
X155007500Y-79121071D01*
X155007500Y-78763928D01*
X155078928Y-78621071D01*
X155150357Y-78549642D01*
X155293214Y-78478214D01*
X155650357Y-78478214D01*
X155793214Y-78549642D01*
X155864642Y-78621071D01*
X155936071Y-78763928D01*
X155936071Y-79121071D01*
X155864642Y-79263928D01*
X155793214Y-79335357D01*
X154436071Y-76036785D02*
X154436071Y-75036785D01*
X155936071Y-75679642D01*
X154936071Y-73822500D02*
X155936071Y-73822500D01*
X154364642Y-74179642D02*
X155436071Y-74536785D01*
X155436071Y-73608214D01*
X155936071Y-72322500D02*
X155936071Y-73036785D01*
X154436071Y-73036785D01*
X155864642Y-71893928D02*
X155936071Y-71679642D01*
X155936071Y-71322500D01*
X155864642Y-71179642D01*
X155793214Y-71108214D01*
X155650357Y-71036785D01*
X155507500Y-71036785D01*
X155364642Y-71108214D01*
X155293214Y-71179642D01*
X155221785Y-71322500D01*
X155150357Y-71608214D01*
X155078928Y-71751071D01*
X155007500Y-71822500D01*
X154864642Y-71893928D01*
X154721785Y-71893928D01*
X154578928Y-71822500D01*
X154507500Y-71751071D01*
X154436071Y-71608214D01*
X154436071Y-71251071D01*
X154507500Y-71036785D01*
X154436071Y-70108214D02*
X154436071Y-69965357D01*
X154507500Y-69822500D01*
X154578928Y-69751071D01*
X154721785Y-69679642D01*
X155007500Y-69608214D01*
X155364642Y-69608214D01*
X155650357Y-69679642D01*
X155793214Y-69751071D01*
X155864642Y-69822500D01*
X155936071Y-69965357D01*
X155936071Y-70108214D01*
X155864642Y-70251071D01*
X155793214Y-70322500D01*
X155650357Y-70393928D01*
X155364642Y-70465357D01*
X155007500Y-70465357D01*
X154721785Y-70393928D01*
X154578928Y-70322500D01*
X154507500Y-70251071D01*
X154436071Y-70108214D01*
X154436071Y-68679642D02*
X154436071Y-68536785D01*
X154507500Y-68393928D01*
X154578928Y-68322500D01*
X154721785Y-68251071D01*
X155007500Y-68179642D01*
X155364642Y-68179642D01*
X155650357Y-68251071D01*
X155793214Y-68322500D01*
X155864642Y-68393928D01*
X155936071Y-68536785D01*
X155936071Y-68679642D01*
X155864642Y-68822500D01*
X155793214Y-68893928D01*
X155650357Y-68965357D01*
X155364642Y-69036785D01*
X155007500Y-69036785D01*
X154721785Y-68965357D01*
X154578928Y-68893928D01*
X154507500Y-68822500D01*
X154436071Y-68679642D01*
G04 #@! TO.C,X1*
X93718214Y-39501071D02*
X94718214Y-41001071D01*
X94718214Y-39501071D02*
X93718214Y-41001071D01*
X96075357Y-41001071D02*
X95218214Y-41001071D01*
X95646785Y-41001071D02*
X95646785Y-39501071D01*
X95503928Y-39715357D01*
X95361071Y-39858214D01*
X95218214Y-39929642D01*
G04 #@! TO.C,J13*
X134490357Y-90188928D02*
X135347500Y-90188928D01*
X135518928Y-90246071D01*
X135633214Y-90360357D01*
X135690357Y-90531785D01*
X135690357Y-90646071D01*
X135690357Y-88988928D02*
X135690357Y-89674642D01*
X135690357Y-89331785D02*
X134490357Y-89331785D01*
X134661785Y-89446071D01*
X134776071Y-89560357D01*
X134833214Y-89674642D01*
X134490357Y-88588928D02*
X134490357Y-87846071D01*
X134947500Y-88246071D01*
X134947500Y-88074642D01*
X135004642Y-87960357D01*
X135061785Y-87903214D01*
X135176071Y-87846071D01*
X135461785Y-87846071D01*
X135576071Y-87903214D01*
X135633214Y-87960357D01*
X135690357Y-88074642D01*
X135690357Y-88417500D01*
X135633214Y-88531785D01*
X135576071Y-88588928D01*
G04 #@! TD*
M02*
