M48
;DRILL file {KiCad (5.0.2)-1} date 03.01.2019 12:41:12
;FORMAT={-:-/ absolute / inch / decimal}
FMAT,2
INCH,TZ
T1C0.0157
T2C0.0315
T3C0.0354
T4C0.0394
T5C0.0433
%
G90
G05
T1
X0.8Y-3.4
X0.8Y-3.6
X0.8Y-3.65
X0.9875Y-3.65
X0.9875Y-3.7
X1.1528Y-3.0125
X1.4125Y-4.2125
X1.5Y-4.4875
X1.55Y-3.6
X1.5953Y-4.5328
X1.7Y-3.0125
X1.7Y-3.65
X1.8Y-3.6
X2.45Y-4.2614
X2.5047Y-2.2578
X2.5125Y-3.5631
X2.55Y-4.2125
X2.6125Y-3.6019
X2.65Y-4.6
X2.7Y-2.9125
X2.7Y-3.45
X2.7Y-4.4375
X2.75Y-4.5744
X2.8Y-3.4756
X2.8547Y-3.5047
X2.9Y-3.125
X2.95Y-3.425
X3.0208Y-3.2488
X3.0208Y-3.6917
X3.05Y-3.4
X3.1Y-3.65
X3.1488Y-3.3744
X3.2Y-3.3512
X3.35Y-3.4125
X3.4125Y-3.425
X3.475Y-3.65
X3.55Y-3.4244
X3.65Y-4.2614
X3.6608Y-2.798
X3.6625Y-3.1125
X3.8369Y-3.375
X3.8625Y-3.4125
X3.95Y-3.6
X3.95Y-4.2614
X3.9625Y-3.0125
X3.9875Y-2.1375
X4.Y-3.5369
X4.0256Y-2.5625
X4.05Y-3.65
X4.1125Y-2.7125
X4.1141Y-3.0609
X4.15Y-2.6375
X4.15Y-3.45
X4.1625Y-2.5375
X4.25Y-3.475
X4.2994Y-3.5048
X4.325Y-3.5369
X4.3506Y-2.7125
X4.3506Y-3.375
X4.45Y-3.425
X4.5125Y-3.65
X4.55Y-2.9172
X4.5519Y-3.325
X4.65Y-3.5
X4.7Y-2.9625
X4.7875Y-3.5369
X4.8375Y-3.6
X4.9625Y-4.2614
X5.Y-3.5125
X5.Y-4.4875
X5.0625Y-3.65
X5.1Y-4.5744
X5.1125Y-2.9125
X5.2Y-2.8125
X5.2125Y-3.6
X5.2625Y-2.3125
X5.2625Y-3.3625
X5.3625Y-2.2625
X5.6125Y-3.0625
X5.6625Y-3.1125
X5.7125Y-1.9875
X5.7125Y-2.2625
X5.7625Y-3.1125
X5.7625Y-4.2125
X5.8125Y-1.725
X5.9Y-4.6
X5.9625Y-2.3125
X6.1625Y-2.2625
X6.1625Y-3.6
X6.2125Y-2.2625
X6.2125Y-2.2625
X6.2125Y-3.6
X6.2125Y-3.65
X6.2625Y-2.3125
X6.2625Y-2.3625
X6.2625Y-3.65
T2
X3.7375Y-1.7375
X3.7375Y-2.0375
X4.3375Y-1.7375
X4.3375Y-2.0375
X5.7125Y-3.7625
X6.0125Y-3.7625
X5.6125Y-3.9625
X5.4125Y-3.7625
X5.6125Y-3.8625
X5.2125Y-3.8625
X5.2125Y-3.7625
X4.3141Y-2.2625
X4.4125Y-2.2625
X4.6641Y-2.4125
X4.7625Y-2.4125
X6.2125Y-4.0625
X6.1125Y-4.0625
X4.4625Y-2.5625
X4.4625Y-2.6625
X4.4625Y-2.7625
X4.4625Y-2.8625
X4.4625Y-2.9625
X4.4625Y-3.0625
X4.4625Y-3.1625
X4.7625Y-2.5625
X4.7625Y-2.6625
X4.7625Y-2.7625
X4.7625Y-2.8625
X4.7625Y-2.9625
X4.7625Y-3.0625
X4.7625Y-3.1625
X5.8125Y-3.8625
X5.8125Y-4.1625
X5.5125Y-3.9625
X5.4125Y-4.1625
X5.7125Y-3.8625
X5.2125Y-4.0625
X5.3125Y-3.8625
X5.2641Y-2.4125
X5.3625Y-2.4125
X2.5625Y-1.7625
X2.5625Y-1.8625
X2.5625Y-1.9625
X2.5625Y-2.0625
X2.8625Y-1.7625
X2.8625Y-1.8625
X2.8625Y-1.9625
X2.8625Y-2.0625
X3.8125Y-3.7625
X3.8125Y-3.8609
X6.2125Y-4.1625
X6.1125Y-3.7625
X5.0625Y-2.5625
X5.0625Y-2.6625
X5.0625Y-2.7625
X5.0625Y-2.8625
X5.0625Y-2.9625
X5.0625Y-3.0625
X5.0625Y-3.1625
X5.3625Y-2.5625
X5.3625Y-2.6625
X5.3625Y-2.7625
X5.3625Y-2.8625
X5.3625Y-2.9625
X5.3625Y-3.0625
X5.3625Y-3.1625
X5.8125Y-3.9625
X5.8125Y-3.7625
X5.6125Y-4.0625
X5.5125Y-4.1625
X1.1Y-3.4
X1.2Y-3.4
X1.3Y-3.4
X1.4Y-3.4
X1.5Y-3.4
X5.3125Y-4.1625
X1.7016Y-3.4
X1.8Y-3.4
X2.6125Y-3.7625
X2.6125Y-3.8609
X3.5125Y-1.7375
X3.5125Y-1.8359
X5.4125Y-1.8375
X5.4125Y-2.1375
X5.5125Y-1.8375
X5.5125Y-2.1375
X5.6125Y-1.8375
X5.6125Y-2.1375
X5.7125Y-1.8375
X5.7125Y-2.1375
X5.8125Y-1.8375
X5.8125Y-2.1375
X5.9125Y-1.8375
X5.9125Y-2.1375
X6.0125Y-1.8375
X6.0125Y-2.1375
X6.3125Y-4.0625
X6.2125Y-3.8625
X3.9125Y-2.2625
X3.9125Y-2.3625
X3.9125Y-2.4625
X3.9125Y-2.5625
X3.9125Y-2.6625
X3.9125Y-2.7625
X3.9125Y-2.8625
X3.9125Y-2.9625
X3.9125Y-3.0625
X3.9125Y-3.1625
X4.2125Y-2.2625
X4.2125Y-2.3625
X4.2125Y-2.4625
X4.2125Y-2.5625
X4.2125Y-2.6625
X4.2125Y-2.7625
X4.2125Y-2.8625
X4.2125Y-2.9625
X4.2125Y-3.0625
X4.2125Y-3.1625
X5.9125Y-3.7625
X5.7125Y-2.5625
X5.7125Y-2.6625
X5.7125Y-2.7625
X5.7125Y-2.8625
X5.7125Y-2.9625
X5.7125Y-3.0625
X5.7125Y-3.1625
X6.0125Y-2.5625
X6.0125Y-2.6625
X6.0125Y-2.7625
X6.0125Y-2.8625
X6.0125Y-2.9625
X6.0125Y-3.0625
X6.0125Y-3.1625
X5.9125Y-3.8625
X5.9125Y-4.1625
X5.6125Y-3.7625
X5.4125Y-3.9625
X1.55Y-3.75
X1.55Y-4.05
X1.65Y-3.75
X1.65Y-4.05
X1.75Y-3.75
X1.75Y-4.05
X1.85Y-3.75
X1.85Y-4.05
X1.95Y-3.75
X1.95Y-4.05
X2.05Y-3.75
X2.05Y-4.05
X2.15Y-3.75
X2.15Y-4.05
X2.25Y-3.75
X2.25Y-4.05
X2.35Y-3.75
X2.35Y-4.05
X2.45Y-3.75
X2.45Y-4.05
X5.3125Y-3.9625
X5.2125Y-1.8375
X5.2125Y-1.9359
X1.4Y-3.75
X1.4Y-3.8484
X6.3125Y-3.8625
X6.1125Y-3.8625
X2.2125Y-2.2125
X2.3503Y-2.2125
X6.0125Y-4.0625
X1.1Y-2.6
X1.1Y-3.2
X1.2Y-2.6
X1.2Y-3.2
X1.3Y-2.6
X1.3Y-3.2
X1.4Y-2.6
X1.4Y-3.2
X1.5Y-2.6
X1.5Y-3.2
X1.6Y-2.6
X1.6Y-3.2
X1.7Y-2.6
X1.7Y-3.2
X1.8Y-2.6
X1.8Y-3.2
X1.9Y-2.6
X1.9Y-3.2
X2.Y-2.6
X2.Y-3.2
X2.1Y-2.6
X2.1Y-3.2
X2.2Y-2.6
X2.2Y-3.2
X2.3Y-2.6
X2.3Y-3.2
X2.4Y-2.6
X2.4Y-3.2
X2.5Y-2.6
X2.5Y-3.2
X2.6Y-2.6
X2.6Y-3.2
X2.7Y-2.6
X2.7Y-3.2
X2.8Y-2.6
X2.8Y-3.2
X2.9Y-2.6
X2.9Y-3.2
X3.Y-2.6
X3.Y-3.2
X6.0125Y-4.1625
X5.9125Y-3.9625
X5.7125Y-4.1625
X5.5125Y-3.8625
X3.95Y-3.75
X3.95Y-4.05
X4.05Y-3.75
X4.05Y-4.05
X4.15Y-3.75
X4.15Y-4.05
X4.25Y-3.75
X4.25Y-4.05
X4.35Y-3.75
X4.35Y-4.05
X4.45Y-3.75
X4.45Y-4.05
X4.55Y-3.75
X4.55Y-4.05
X4.65Y-3.75
X4.65Y-4.05
X4.75Y-3.75
X4.75Y-4.05
X4.85Y-3.75
X4.85Y-4.05
X5.2125Y-3.9625
X6.1125Y-3.9625
X5.7125Y-3.9625
X6.0125Y-3.9625
X5.4125Y-4.0625
X5.8125Y-4.0625
X5.3125Y-3.7625
X5.5125Y-4.0625
X2.75Y-3.75
X2.75Y-4.05
X2.85Y-3.75
X2.85Y-4.05
X2.95Y-3.75
X2.95Y-4.05
X3.05Y-3.75
X3.05Y-4.05
X3.15Y-3.75
X3.15Y-4.05
X3.25Y-3.75
X3.25Y-4.05
X3.35Y-3.75
X3.35Y-4.05
X3.45Y-3.75
X3.45Y-4.05
X3.55Y-3.75
X3.55Y-4.05
X3.65Y-3.75
X3.65Y-4.05
X5.3125Y-4.0625
X2.8125Y-2.3125
X2.9125Y-2.3125
X2.5625Y-2.3125
X2.6625Y-2.3125
X6.2125Y-3.7625
X6.3125Y-3.9625
X6.3125Y-3.7625
X4.0375Y-1.7375
X4.0375Y-2.0375
X4.3375Y-1.7375
X4.3375Y-2.0375
X5.7125Y-4.0625
X6.0125Y-3.8625
X5.6125Y-4.1625
X5.9125Y-4.0625
X5.4125Y-3.8625
X5.5125Y-3.7625
X5.2125Y-4.1625
X5.9141Y-2.4125
X6.0125Y-2.4125
X3.7625Y-2.3625
X3.7625Y-2.4625
X3.7625Y-2.5625
X3.7625Y-2.6625
X3.7625Y-2.7625
X3.7625Y-2.8625
X3.7625Y-2.9625
X3.7625Y-3.0625
X3.7625Y-3.1625
X2.3625Y-1.7625
X2.3625Y-1.8609
X6.2125Y-3.9625
X6.1125Y-4.1625
X6.3125Y-4.1625
T3
X0.95Y-4.35
X1.05Y-4.35
X1.15Y-4.35
X1.25Y-4.35
X1.35Y-4.35
X1.45Y-4.35
X1.55Y-4.35
X1.65Y-4.35
X1.75Y-4.35
X1.85Y-4.35
X1.95Y-4.35
X2.05Y-4.35
X2.15Y-4.35
X2.25Y-4.35
X2.35Y-4.35
X2.45Y-4.35
X2.55Y-4.35
X2.65Y-4.35
X2.75Y-4.35
X2.85Y-4.35
X2.95Y-4.35
X3.05Y-4.35
X3.15Y-4.35
X3.25Y-4.35
X3.35Y-4.35
X3.45Y-4.35
X3.55Y-4.35
X3.65Y-4.35
X3.75Y-4.35
X3.85Y-4.35
X3.95Y-4.35
X4.05Y-4.35
X4.15Y-4.35
X4.25Y-4.35
X4.35Y-4.35
X4.45Y-4.35
X4.55Y-4.35
X4.65Y-4.35
X4.75Y-4.35
X4.85Y-4.35
X4.95Y-4.35
X5.05Y-4.35
X5.15Y-4.35
X5.25Y-4.35
X5.35Y-4.35
X5.45Y-4.35
X5.55Y-4.35
X5.65Y-4.35
X5.75Y-4.35
X5.85Y-4.35
X5.95Y-4.35
X6.05Y-4.35
X6.15Y-4.35
X6.25Y-4.35
T4
X0.9125Y-3.1
X0.9125Y-3.2
X3.4625Y-2.4625
X3.4625Y-2.5625
X3.4625Y-2.6625
X3.4625Y-2.7625
X3.4625Y-2.8625
X3.4625Y-2.9625
X3.4625Y-3.0625
X3.4625Y-3.1625
X3.5625Y-2.4625
X3.5625Y-2.5625
X3.5625Y-2.6625
X3.5625Y-2.7625
X3.5625Y-2.8625
X3.5625Y-2.9625
X3.5625Y-3.0625
X3.5625Y-3.1625
X5.4125Y-3.5125
X5.5125Y-3.5125
X5.6125Y-3.5125
X5.7125Y-3.5125
X5.8125Y-3.5125
X5.9125Y-3.5125
X6.0125Y-3.5125
X1.8625Y-1.8625
X1.9625Y-1.8625
X1.2Y-3.75
X1.2Y-3.85
X1.2Y-3.95
X4.6625Y-1.7125
X4.6625Y-1.8125
X4.7625Y-1.7125
X4.7625Y-1.8125
X4.8625Y-1.7125
X4.8625Y-1.8125
T5
X1.3125Y-1.6066
X1.3125Y-1.8625
X1.4897Y-1.6066
X1.4897Y-1.8625
T0
M30
