; Drill file
; Format: 2.4 (00.0000)
M48
INCH
T01C0.0354
T02C0.0472
T03C0.126
%
G05
G90
T01
X000780Y-059230
X000780Y-058230
X000780Y-057230
X000780Y-056230
X000780Y-055230
X000780Y-054230
X000780Y-053230
X000780Y-052230
X000780Y-051230
X000780Y-050230
X000780Y-049230
X000780Y-048230
X000780Y-047230
X000780Y-046230
X000780Y-045230
X000780Y-044230
X000780Y-043230
X000780Y-042230
X000780Y-041230
X000780Y-040230
X000780Y-039230
X000780Y-038230
X000780Y-037230
X000780Y-036230
X000780Y-035230
X000780Y-034230
X000780Y-033230
X000780Y-032230
X000780Y-031230
X000780Y-030230
X000780Y-029230
X000780Y-028230
X000780Y-027230
X000780Y-026230
X000780Y-025230
X000780Y-024230
X000780Y-023230
X000780Y-022230
X000780Y-021230
X000780Y-020230
X000780Y-019230
X000780Y-018230
X000780Y-017230
X000780Y-016230
X000780Y-015230
X000780Y-014230
X000780Y-013230
X000780Y-012230
X000780Y-011230
X000780Y-010230
X000780Y-009230
X000780Y-008230
X000780Y-007230
X000780Y-006230
X002280Y-006230
X002280Y-007230
X002280Y-008230
X002280Y-009230
X002280Y-010230
X002280Y-011230
X002280Y-012230
X002280Y-013230
X002280Y-014230
X002280Y-015230
X002280Y-016230
X002280Y-017230
X002280Y-018230
X002280Y-019230
X002280Y-020230
X002280Y-021230
X002280Y-022230
X002280Y-023230
X002280Y-024230
X002280Y-025230
X002280Y-026230
X002280Y-027230
X002280Y-028230
X002280Y-029230
X002280Y-030230
X002280Y-031230
X002280Y-032230
X002280Y-033230
X002280Y-034230
X002280Y-035230
X002280Y-036230
X002280Y-037230
X002280Y-038230
X002280Y-039230
X002280Y-040230
X002280Y-041230
X002280Y-042230
X002280Y-043230
X002280Y-044230
X002280Y-045230
X002280Y-046230
X002280Y-047230
X002280Y-048230
X002280Y-049230
X002280Y-050230
X002280Y-051230
X002280Y-052230
X002280Y-053230
X002280Y-054230
X002280Y-055230
X002280Y-056230
X002280Y-057230
X002280Y-058230
X002280Y-059230
X009280Y-059230
X009280Y-058230
X009280Y-057230
X009280Y-056230
X009280Y-055230
X009280Y-054230
X009280Y-053230
X009280Y-052230
X009280Y-051230
X009280Y-050230
X009280Y-049230
X009280Y-048230
X009280Y-047230
X009280Y-046230
X009280Y-045230
X009280Y-044230
X009280Y-043230
X009280Y-042230
X009280Y-041230
X009280Y-040230
X009280Y-039230
X009280Y-038230
X009280Y-037230
X009280Y-036230
X009280Y-035230
X009280Y-034230
X009280Y-033230
X009280Y-032230
X009280Y-031230
X009280Y-030230
X009280Y-029230
X009280Y-028230
X009280Y-027230
X009280Y-026230
X009280Y-025230
X009280Y-024230
X009280Y-023230
X009280Y-022230
X009280Y-021230
X009280Y-020230
X009280Y-019230
X009280Y-018230
X009280Y-017230
X009280Y-016230
X009280Y-015230
X009280Y-014230
X009280Y-013230
X009280Y-012230
X009280Y-011230
X009280Y-010230
X009280Y-009230
X009280Y-008230
X009280Y-007230
X009280Y-006230
X016280Y-006230
X016280Y-007230
X016280Y-008230
X016280Y-009230
X016280Y-010230
X016280Y-011230
X016280Y-012230
X016280Y-013230
X016280Y-014230
X016280Y-015230
X016280Y-016230
X016280Y-017230
X016280Y-018230
X016280Y-019230
X016280Y-020230
X016280Y-021230
X016280Y-022230
X016280Y-023230
X016280Y-024230
X016280Y-025230
X016280Y-026230
X016280Y-027230
X016280Y-028230
X016280Y-029230
X016280Y-030230
X016280Y-031230
X016280Y-032230
X016280Y-033230
X016280Y-034230
X016280Y-035230
X016280Y-036230
X016280Y-037230
X016280Y-038230
X016280Y-039230
X016280Y-040230
X016280Y-041230
X016280Y-042230
X016280Y-043230
X016280Y-044230
X016280Y-045230
X016280Y-046230
X016280Y-047230
X016280Y-048230
X016280Y-049230
X016280Y-050230
X016280Y-051230
X016280Y-052230
X016280Y-053230
X016280Y-054230
X016280Y-055230
X016280Y-056230
X016280Y-057230
X016280Y-058230
X016280Y-059230
X023280Y-059230
X023280Y-058230
X023280Y-057230
X023280Y-056230
X023280Y-055230
X023280Y-054230
X023280Y-053230
X023280Y-052230
X023280Y-051230
X023280Y-050230
X023280Y-049230
X023280Y-048230
X023280Y-047230
X023280Y-046230
X023280Y-045230
X023280Y-044230
X023280Y-043230
X023280Y-042230
X023280Y-041230
X023280Y-040230
X023280Y-039230
X023280Y-038230
X023280Y-037230
X023280Y-036230
X023280Y-035230
X023280Y-034230
X023280Y-033230
X023280Y-032230
X023280Y-031230
X023280Y-030230
X023280Y-029230
X023280Y-028230
X023280Y-027230
X023280Y-026230
X023280Y-025230
X023280Y-024230
X023280Y-023230
X023280Y-022230
X023280Y-021230
X023280Y-020230
X023280Y-019230
X023280Y-018230
X023280Y-017230
X023280Y-016230
X023280Y-015230
X023280Y-014230
X023280Y-013230
X023280Y-012230
X023280Y-011230
X023280Y-010230
X023280Y-009230
X023280Y-008230
X023280Y-007230
X023280Y-006230
X030280Y-006230
X030280Y-007230
X030280Y-008230
X030280Y-009230
X030280Y-010230
X030280Y-011230
X030280Y-012230
X030280Y-013230
X030280Y-014230
X030280Y-015230
X030280Y-016230
X030280Y-017230
X030280Y-018230
X030280Y-019230
X030280Y-020230
X030280Y-021230
X030280Y-022230
X030280Y-023230
X030280Y-024230
X030280Y-025230
X030280Y-026230
X030280Y-027230
X030280Y-028230
X030280Y-029230
X030280Y-030230
X030280Y-031230
X030280Y-032230
X030280Y-033230
X030280Y-034230
X030280Y-035230
X030280Y-036230
X030280Y-037230
X030280Y-038230
X030280Y-039230
X030280Y-040230
X030280Y-041230
X030280Y-042230
X030280Y-043230
X030280Y-044230
X030280Y-045230
X030280Y-046230
X030280Y-047230
X030280Y-048230
X030280Y-049230
X030280Y-050230
X030280Y-051230
X030280Y-052230
X030280Y-053230
X030280Y-054230
X030280Y-055230
X030280Y-056230
X030280Y-057230
X030280Y-058230
X030280Y-059230
X037280Y-059230
X037280Y-058230
X037280Y-057230
X037280Y-056230
X037280Y-055230
X037280Y-054230
X037280Y-053230
X037280Y-052230
X037280Y-051230
X037280Y-050230
X037280Y-049230
X037280Y-048230
X037280Y-047230
X037280Y-046230
X037280Y-045230
X037280Y-044230
X037280Y-043230
X037280Y-042230
X037280Y-041230
X037280Y-040230
X037280Y-039230
X037280Y-038230
X037280Y-037230
X037280Y-036230
X037280Y-035230
X037280Y-034230
X037280Y-033230
X037280Y-032230
X037280Y-031230
X037280Y-030230
X037280Y-029230
X037280Y-028230
X037280Y-027230
X037280Y-026230
X037280Y-025230
X037280Y-024230
X037280Y-023230
X037280Y-022230
X037280Y-021230
X037280Y-020230
X037280Y-019230
X037280Y-018230
X037280Y-017230
X037280Y-016230
X037280Y-015230
X037280Y-014230
X037280Y-013230
X037280Y-012230
X037280Y-011230
X037280Y-010230
X037280Y-009230
X037280Y-008230
X037280Y-007230
X037280Y-006230
X038780Y-006230
X038780Y-007230
X038780Y-008230
X038780Y-009230
X038780Y-010230
X038780Y-011230
X038780Y-012230
X038780Y-013230
X038780Y-014230
X038780Y-015230
X038780Y-016230
X038780Y-017230
X038780Y-018230
X038780Y-019230
X038780Y-020230
X038780Y-021230
X038780Y-022230
X038780Y-023230
X038780Y-024230
X038780Y-025230
X038780Y-026230
X038780Y-027230
X038780Y-028230
X038780Y-029230
X038780Y-030230
X038780Y-031230
X038780Y-032230
X038780Y-033230
X038780Y-034230
X038780Y-035230
X038780Y-036230
X038780Y-037230
X038780Y-038230
X038780Y-039230
X038780Y-040230
X038780Y-041230
X038780Y-042230
X038780Y-043230
X038780Y-044230
X038780Y-045230
X038780Y-046230
X038780Y-047230
X038780Y-048230
X038780Y-049230
X038780Y-050230
X038780Y-051230
X038780Y-052230
X038780Y-053230
X038780Y-054230
X038780Y-055230
X038780Y-056230
X038780Y-057230
X038780Y-058230
X038780Y-059230
T02
X007780Y-062230
X008780Y-062230
X009780Y-062230
X010780Y-062230
X011780Y-062230
X012780Y-062230
X013780Y-062230
X014780Y-062230
X015780Y-062230
X016780Y-062230
X017780Y-062230
X018780Y-062230
X019780Y-062230
X020780Y-062230
X021780Y-062230
X022780Y-062230
X023780Y-062230
X024780Y-062230
X025780Y-062230
X026780Y-062230
X027780Y-062230
X027780Y-061230
X026780Y-061230
X025780Y-061230
X024780Y-061230
X023780Y-061230
X022780Y-061230
X021780Y-061230
X020780Y-061230
X019780Y-061230
X018780Y-061230
X017780Y-061230
X017780Y-060230
X018780Y-060230
X019780Y-060230
X020780Y-060230
X021780Y-060230
X022780Y-060230
X023780Y-060230
X024780Y-060230
X025780Y-060230
X026780Y-060230
X027780Y-060230
X028780Y-060230
X028780Y-061230
X028780Y-062230
X029780Y-062230
X030780Y-062230
X031780Y-062230
X032780Y-062230
X033780Y-062230
X034780Y-062230
X035780Y-062230
X035780Y-061230
X034780Y-061230
X033780Y-061230
X032780Y-061230
X031780Y-061230
X030780Y-061230
X029780Y-061230
X029780Y-060230
X030780Y-060230
X031780Y-060230
X032780Y-060230
X033780Y-060230
X034780Y-060230
X035780Y-060230
X016780Y-060230
X016780Y-061230
X015780Y-061230
X014780Y-061230
X013780Y-061230
X012780Y-061230
X011780Y-061230
X010780Y-061230
X010780Y-060230
X011780Y-060230
X012780Y-060230
X013780Y-060230
X014780Y-060230
X015780Y-060230
X009780Y-060230
X009780Y-061230
X008780Y-061230
X007780Y-061230
X007780Y-060230
X008780Y-060230
X008280Y-004980
X008280Y-003980
X008280Y-002980
X007280Y-002980
X007280Y-003980
X007280Y-004980
X009280Y-004980
X009280Y-003980
X009280Y-002980
X010280Y-002980
X011280Y-002980
X012280Y-002980
X013280Y-002980
X014280Y-002980
X015280Y-002980
X016280Y-002980
X017280Y-002980
X018280Y-002980
X019280Y-002980
X020280Y-002980
X021280Y-002980
X022280Y-002980
X023280Y-002980
X024280Y-002980
X025280Y-002980
X026280Y-002980
X027280Y-002980
X028280Y-002980
X029280Y-002980
X030280Y-002980
X031280Y-002980
X032280Y-002980
X032280Y-003980
X031280Y-003980
X030280Y-003980
X029280Y-003980
X028280Y-003980
X027280Y-003980
X026280Y-003980
X025280Y-003980
X024280Y-003980
X023280Y-003980
X022280Y-003980
X021280Y-003980
X020280Y-003980
X019280Y-003980
X018280Y-003980
X017280Y-003980
X016280Y-003980
X015280Y-003980
X014280Y-003980
X013280Y-003980
X012280Y-003980
X011280Y-003980
X010280Y-003980
X010280Y-004980
X011280Y-004980
X012280Y-004980
X013280Y-004980
X014280Y-004980
X015280Y-004980
X016280Y-004980
X017280Y-004980
X018280Y-004980
X019280Y-004980
X020280Y-004980
X021280Y-004980
X022280Y-004980
X023280Y-004980
X024280Y-004980
X025280Y-004980
X026280Y-004980
X027280Y-004980
X028280Y-004980
X029280Y-004980
X030280Y-004980
X031280Y-004980
X032280Y-004980
X032280Y-001980
X031280Y-001980
X030280Y-001980
X029280Y-001980
X028280Y-001980
X027280Y-001980
X026280Y-001980
X025280Y-001980
X024280Y-001980
X023280Y-001980
X022280Y-001980
X021280Y-001980
X020280Y-001980
X019280Y-001980
X018280Y-001980
X017280Y-001980
X016280Y-001980
X015280Y-001980
X014280Y-001980
X013280Y-001980
X012280Y-001980
X011280Y-001980
X010280Y-001980
X009280Y-001980
X008280Y-001980
X007280Y-001980
X007280Y-000980
X008280Y-000980
X009280Y-000980
X010280Y-000980
X011280Y-000980
X012280Y-000980
X013280Y-000980
X014280Y-000980
X015280Y-000980
X016280Y-000980
X017280Y-000980
X018280Y-000980
X019280Y-000980
X020280Y-000980
X021280Y-000980
X022280Y-000980
X023280Y-000980
X024280Y-000980
X025280Y-000980
X026280Y-000980
X027280Y-000980
X028280Y-000980
X029280Y-000980
X030280Y-000980
X031280Y-000980
X032280Y-000980
T03
X002280Y-061230
X037280Y-061230
X037280Y-004230
X037280Y-001230
X034380Y-003280
X005440Y-003280
X002280Y-004230
X002280Y-001230
M30
