%FSLAX34Y34*%
%MOMM*%
%LNSILK_TOP*%
G71*
G01*
%ADD10C, 0.200*%
%ADD11C, 0.244*%
%ADD12C, 0.349*%
%LPD*%
G54D10*
X165100Y-158100D02*
X174700Y-158100D01*
G54D10*
X188700Y-149100D02*
X179100Y-149100D01*
X179100Y-156100D01*
X180300Y-156100D01*
X182700Y-155100D01*
X185100Y-155100D01*
X187500Y-156100D01*
X188700Y-158100D01*
X188700Y-162100D01*
X187500Y-164100D01*
X185100Y-165100D01*
X182700Y-165100D01*
X180300Y-164100D01*
X179100Y-162100D01*
G54D10*
X193100Y-149100D02*
X199100Y-165100D01*
X205100Y-149100D01*
G54D10*
X152400Y-183500D02*
X162000Y-183500D01*
G54D10*
X157200Y-179500D02*
X157200Y-187500D01*
G54D10*
X166400Y-180500D02*
X172400Y-174500D01*
X172400Y-190500D01*
G54D10*
X186400Y-190500D02*
X176800Y-190500D01*
X176800Y-189500D01*
X178000Y-187500D01*
X185200Y-181500D01*
X186400Y-179500D01*
X186400Y-177500D01*
X185200Y-175500D01*
X182800Y-174500D01*
X180400Y-174500D01*
X178000Y-175500D01*
X176800Y-177500D01*
G54D10*
X190800Y-174500D02*
X196800Y-190500D01*
X202800Y-174500D01*
G54D10*
X152400Y-208900D02*
X162000Y-208900D01*
G54D10*
X166400Y-205900D02*
X172400Y-199900D01*
X172400Y-215900D01*
G54D10*
X186400Y-215900D02*
X176800Y-215900D01*
X176800Y-214900D01*
X178000Y-212900D01*
X185200Y-206900D01*
X186400Y-204900D01*
X186400Y-202900D01*
X185200Y-200900D01*
X182800Y-199900D01*
X180400Y-199900D01*
X178000Y-200900D01*
X176800Y-202900D01*
G54D10*
X190800Y-199900D02*
X196800Y-215900D01*
X202800Y-199900D01*
G54D10*
X165100Y-234300D02*
X174700Y-234300D01*
G54D10*
X169900Y-230300D02*
X169900Y-238300D01*
G54D10*
X188700Y-225300D02*
X179100Y-225300D01*
X179100Y-232300D01*
X180300Y-232300D01*
X182700Y-231300D01*
X185100Y-231300D01*
X187500Y-232300D01*
X188700Y-234300D01*
X188700Y-238300D01*
X187500Y-240300D01*
X185100Y-241300D01*
X182700Y-241300D01*
X180300Y-240300D01*
X179100Y-238300D01*
G54D10*
X193100Y-225300D02*
X199100Y-241300D01*
X205100Y-225300D01*
G54D10*
X165100Y-259700D02*
X174700Y-259700D01*
G54D10*
X169900Y-255700D02*
X169900Y-263700D01*
G54D10*
X188700Y-250700D02*
X179100Y-250700D01*
X179100Y-257700D01*
X180300Y-257700D01*
X182700Y-256700D01*
X185100Y-256700D01*
X187500Y-257700D01*
X188700Y-259700D01*
X188700Y-263700D01*
X187500Y-265700D01*
X185100Y-266700D01*
X182700Y-266700D01*
X180300Y-265700D01*
X179100Y-263700D01*
G54D10*
X193100Y-250700D02*
X199100Y-266700D01*
X205100Y-250700D01*
G54D10*
X169900Y-284100D02*
X174700Y-284100D01*
X174700Y-289100D01*
X173500Y-291100D01*
X171100Y-292100D01*
X168700Y-292100D01*
X166300Y-291100D01*
X165100Y-289100D01*
X165100Y-279100D01*
X166300Y-277100D01*
X168700Y-276100D01*
X171100Y-276100D01*
X173500Y-277100D01*
X174700Y-279100D01*
G54D10*
X179100Y-292100D02*
X179100Y-276100D01*
X188700Y-292100D01*
X188700Y-276100D01*
G54D10*
X193100Y-292100D02*
X193100Y-276100D01*
X199100Y-276100D01*
X201500Y-277100D01*
X202700Y-279100D01*
X202700Y-289100D01*
X201500Y-291100D01*
X199100Y-292100D01*
X193100Y-292100D01*
G54D10*
X169900Y-309500D02*
X174700Y-309500D01*
X174700Y-314500D01*
X173500Y-316500D01*
X171100Y-317500D01*
X168700Y-317500D01*
X166300Y-316500D01*
X165100Y-314500D01*
X165100Y-304500D01*
X166300Y-302500D01*
X168700Y-301500D01*
X171100Y-301500D01*
X173500Y-302500D01*
X174700Y-304500D01*
G54D10*
X179100Y-317500D02*
X179100Y-301500D01*
X188700Y-317500D01*
X188700Y-301500D01*
G54D10*
X193100Y-317500D02*
X193100Y-301500D01*
X199100Y-301500D01*
X201500Y-302500D01*
X202700Y-304500D01*
X202700Y-314500D01*
X201500Y-316500D01*
X199100Y-317500D01*
X193100Y-317500D01*
G54D10*
X177800Y-342900D02*
X177800Y-326900D01*
X183800Y-326900D01*
X186200Y-327900D01*
X187400Y-329900D01*
X187400Y-339900D01*
X186200Y-341900D01*
X183800Y-342900D01*
X177800Y-342900D01*
G54D10*
X201400Y-329900D02*
X201400Y-339900D01*
X200200Y-341900D01*
X197800Y-342900D01*
X195400Y-342900D01*
X193000Y-341900D01*
X191800Y-339900D01*
X191800Y-329900D01*
X193000Y-327900D01*
X195400Y-326900D01*
X197800Y-326900D01*
X200200Y-327900D01*
X201400Y-329900D01*
G54D10*
X177800Y-368300D02*
X177800Y-352300D01*
X183800Y-352300D01*
X186200Y-353300D01*
X187400Y-355300D01*
X187400Y-365300D01*
X186200Y-367300D01*
X183800Y-368300D01*
X177800Y-368300D01*
G54D10*
X191800Y-358300D02*
X197800Y-352300D01*
X197800Y-368300D01*
G54D10*
X177800Y-393700D02*
X177800Y-377700D01*
X183800Y-377700D01*
X186200Y-378700D01*
X187400Y-380700D01*
X187400Y-390700D01*
X186200Y-392700D01*
X183800Y-393700D01*
X177800Y-393700D01*
G54D10*
X201400Y-393700D02*
X191800Y-393700D01*
X191800Y-392700D01*
X193000Y-390700D01*
X200200Y-384700D01*
X201400Y-382700D01*
X201400Y-380700D01*
X200200Y-378700D01*
X197800Y-377700D01*
X195400Y-377700D01*
X193000Y-378700D01*
X191800Y-380700D01*
G54D10*
X177800Y-419100D02*
X177800Y-403100D01*
X183800Y-403100D01*
X186200Y-404100D01*
X187400Y-406100D01*
X187400Y-416100D01*
X186200Y-418100D01*
X183800Y-419100D01*
X177800Y-419100D01*
G54D10*
X191800Y-406100D02*
X193000Y-404100D01*
X195400Y-403100D01*
X197800Y-403100D01*
X200200Y-404100D01*
X201400Y-406100D01*
X201400Y-408100D01*
X200200Y-410100D01*
X197800Y-411100D01*
X200200Y-412100D01*
X201400Y-414100D01*
X201400Y-416100D01*
X200200Y-418100D01*
X197800Y-419100D01*
X195400Y-419100D01*
X193000Y-418100D01*
X191800Y-416100D01*
G54D10*
X177800Y-444500D02*
X177800Y-428500D01*
X183800Y-428500D01*
X186200Y-429500D01*
X187400Y-431500D01*
X187400Y-441500D01*
X186200Y-443500D01*
X183800Y-444500D01*
X177800Y-444500D01*
G54D10*
X199000Y-444500D02*
X199000Y-428500D01*
X191800Y-438500D01*
X191800Y-440500D01*
X201400Y-440500D01*
G54D10*
X177800Y-469900D02*
X177800Y-453900D01*
X183800Y-453900D01*
X186200Y-454900D01*
X187400Y-456900D01*
X187400Y-466900D01*
X186200Y-468900D01*
X183800Y-469900D01*
X177800Y-469900D01*
G54D10*
X201400Y-453900D02*
X191800Y-453900D01*
X191800Y-460900D01*
X193000Y-460900D01*
X195400Y-459900D01*
X197800Y-459900D01*
X200200Y-460900D01*
X201400Y-462900D01*
X201400Y-466900D01*
X200200Y-468900D01*
X197800Y-469900D01*
X195400Y-469900D01*
X193000Y-468900D01*
X191800Y-466900D01*
G54D10*
X177800Y-495300D02*
X177800Y-479300D01*
X183800Y-479300D01*
X186200Y-480300D01*
X187400Y-482300D01*
X187400Y-492300D01*
X186200Y-494300D01*
X183800Y-495300D01*
X177800Y-495300D01*
G54D10*
X201400Y-482300D02*
X200200Y-480300D01*
X197800Y-479300D01*
X195400Y-479300D01*
X193000Y-480300D01*
X191800Y-482300D01*
X191800Y-487300D01*
X191800Y-488300D01*
X195400Y-486300D01*
X197800Y-486300D01*
X200200Y-487300D01*
X201400Y-489300D01*
X201400Y-492300D01*
X200200Y-494300D01*
X197800Y-495300D01*
X195400Y-495300D01*
X193000Y-494300D01*
X191800Y-492300D01*
X191800Y-487300D01*
G54D10*
X177800Y-520700D02*
X177800Y-504700D01*
X183800Y-504700D01*
X186200Y-505700D01*
X187400Y-507700D01*
X187400Y-517700D01*
X186200Y-519700D01*
X183800Y-520700D01*
X177800Y-520700D01*
G54D10*
X191800Y-504700D02*
X201400Y-504700D01*
X200200Y-506700D01*
X197800Y-509700D01*
X195400Y-513700D01*
X194200Y-516700D01*
X194200Y-520700D01*
G54D10*
X165100Y-546100D02*
X174700Y-530100D01*
G54D10*
X183900Y-538100D02*
X187500Y-540100D01*
X188700Y-542100D01*
X188700Y-546100D01*
G54D10*
X179100Y-546100D02*
X179100Y-530100D01*
X185100Y-530100D01*
X187500Y-531100D01*
X188700Y-533100D01*
X188700Y-535100D01*
X187500Y-537100D01*
X185100Y-538100D01*
X179100Y-538100D01*
G54D10*
X193100Y-546100D02*
X193100Y-530100D01*
X199100Y-530100D01*
X201500Y-531100D01*
X202700Y-533100D01*
X202700Y-543100D01*
X201500Y-545100D01*
X199100Y-546100D01*
X193100Y-546100D01*
G54D10*
X165100Y-571500D02*
X174700Y-555500D01*
G54D10*
X179100Y-555500D02*
X179100Y-571500D01*
X185100Y-561500D01*
X191100Y-571500D01*
X191100Y-555500D01*
G54D10*
X200300Y-563500D02*
X203900Y-565500D01*
X205100Y-567500D01*
X205100Y-571500D01*
G54D10*
X195500Y-571500D02*
X195500Y-555500D01*
X201500Y-555500D01*
X203900Y-556500D01*
X205100Y-558500D01*
X205100Y-560500D01*
X203900Y-562500D01*
X201500Y-563500D01*
X195500Y-563500D01*
G54D10*
X152400Y-596900D02*
X162000Y-580900D01*
G54D10*
X166400Y-596900D02*
X166400Y-580900D01*
G54D10*
X180400Y-583900D02*
X180400Y-593900D01*
X179200Y-595900D01*
X176800Y-596900D01*
X174400Y-596900D01*
X172000Y-595900D01*
X170800Y-593900D01*
X170800Y-583900D01*
X172000Y-581900D01*
X174400Y-580900D01*
X176800Y-580900D01*
X179200Y-581900D01*
X180400Y-583900D01*
G54D10*
X189600Y-588900D02*
X193200Y-590900D01*
X194400Y-592900D01*
X194400Y-596900D01*
G54D10*
X184800Y-596900D02*
X184800Y-580900D01*
X190800Y-580900D01*
X193200Y-581900D01*
X194400Y-583900D01*
X194400Y-585900D01*
X193200Y-587900D01*
X190800Y-588900D01*
X184800Y-588900D01*
G54D10*
X203600Y-593900D02*
X209600Y-596900D01*
G54D10*
X208400Y-583900D02*
X208400Y-593900D01*
X207200Y-595900D01*
X204800Y-596900D01*
X202400Y-596900D01*
X200000Y-595900D01*
X198800Y-593900D01*
X198800Y-583900D01*
X200000Y-581900D01*
X202400Y-580900D01*
X204800Y-580900D01*
X207200Y-581900D01*
X208400Y-583900D01*
G54D10*
X139700Y-622300D02*
X149300Y-606300D01*
G54D10*
X153700Y-622300D02*
X153700Y-606300D01*
X159700Y-616300D01*
X165700Y-606300D01*
X165700Y-622300D01*
G54D10*
X174900Y-614300D02*
X178500Y-616300D01*
X179700Y-618300D01*
X179700Y-622300D01*
G54D10*
X170100Y-622300D02*
X170100Y-606300D01*
X176100Y-606300D01*
X178500Y-607300D01*
X179700Y-609300D01*
X179700Y-611300D01*
X178500Y-613300D01*
X176100Y-614300D01*
X170100Y-614300D01*
G54D10*
X192500Y-622300D02*
X184100Y-622300D01*
X184100Y-606300D01*
X192500Y-606300D01*
G54D10*
X184100Y-614300D02*
X192500Y-614300D01*
G54D10*
X201700Y-619300D02*
X207700Y-622300D01*
G54D10*
X206500Y-609300D02*
X206500Y-619300D01*
X205300Y-621300D01*
X202900Y-622300D01*
X200500Y-622300D01*
X198100Y-621300D01*
X196900Y-619300D01*
X196900Y-609300D01*
X198100Y-607300D01*
X200500Y-606300D01*
X202900Y-606300D01*
X205300Y-607300D01*
X206500Y-609300D01*
G54D10*
X177800Y-647700D02*
X183800Y-631700D01*
X189800Y-647700D01*
G54D10*
X180200Y-641700D02*
X187400Y-641700D01*
G54D10*
X203800Y-634700D02*
X203800Y-644700D01*
X202600Y-646700D01*
X200200Y-647700D01*
X197800Y-647700D01*
X195400Y-646700D01*
X194200Y-644700D01*
X194200Y-634700D01*
X195400Y-632700D01*
X197800Y-631700D01*
X200200Y-631700D01*
X202600Y-632700D01*
X203800Y-634700D01*
G54D10*
X177800Y-673100D02*
X183800Y-657100D01*
X189800Y-673100D01*
G54D10*
X180200Y-667100D02*
X187400Y-667100D01*
G54D10*
X194200Y-663100D02*
X200200Y-657100D01*
X200200Y-673100D01*
G54D10*
X177800Y-698500D02*
X183800Y-682500D01*
X189800Y-698500D01*
G54D10*
X180200Y-692500D02*
X187400Y-692500D01*
G54D10*
X203800Y-698500D02*
X194200Y-698500D01*
X194200Y-697500D01*
X195400Y-695500D01*
X202600Y-689500D01*
X203800Y-687500D01*
X203800Y-685500D01*
X202600Y-683500D01*
X200200Y-682500D01*
X197800Y-682500D01*
X195400Y-683500D01*
X194200Y-685500D01*
G54D10*
X177800Y-723900D02*
X183800Y-707900D01*
X189800Y-723900D01*
G54D10*
X180200Y-717900D02*
X187400Y-717900D01*
G54D10*
X194200Y-710900D02*
X195400Y-708900D01*
X197800Y-707900D01*
X200200Y-707900D01*
X202600Y-708900D01*
X203800Y-710900D01*
X203800Y-712900D01*
X202600Y-714900D01*
X200200Y-715900D01*
X202600Y-716900D01*
X203800Y-718900D01*
X203800Y-720900D01*
X202600Y-722900D01*
X200200Y-723900D01*
X197800Y-723900D01*
X195400Y-722900D01*
X194200Y-720900D01*
G54D10*
X177800Y-749300D02*
X183800Y-733300D01*
X189800Y-749300D01*
G54D10*
X180200Y-743300D02*
X187400Y-743300D01*
G54D10*
X201400Y-749300D02*
X201400Y-733300D01*
X194200Y-743300D01*
X194200Y-745300D01*
X203800Y-745300D01*
G54D10*
X177800Y-774700D02*
X183800Y-758700D01*
X189800Y-774700D01*
G54D10*
X180200Y-768700D02*
X187400Y-768700D01*
G54D10*
X203800Y-758700D02*
X194200Y-758700D01*
X194200Y-765700D01*
X195400Y-765700D01*
X197800Y-764700D01*
X200200Y-764700D01*
X202600Y-765700D01*
X203800Y-767700D01*
X203800Y-771700D01*
X202600Y-773700D01*
X200200Y-774700D01*
X197800Y-774700D01*
X195400Y-773700D01*
X194200Y-771700D01*
G54D10*
X177800Y-800100D02*
X183800Y-784100D01*
X189800Y-800100D01*
G54D10*
X180200Y-794100D02*
X187400Y-794100D01*
G54D10*
X203800Y-787100D02*
X202600Y-785100D01*
X200200Y-784100D01*
X197800Y-784100D01*
X195400Y-785100D01*
X194200Y-787100D01*
X194200Y-792100D01*
X194200Y-793100D01*
X197800Y-791100D01*
X200200Y-791100D01*
X202600Y-792100D01*
X203800Y-794100D01*
X203800Y-797100D01*
X202600Y-799100D01*
X200200Y-800100D01*
X197800Y-800100D01*
X195400Y-799100D01*
X194200Y-797100D01*
X194200Y-792100D01*
G54D10*
X177800Y-825500D02*
X183800Y-809500D01*
X189800Y-825500D01*
G54D10*
X180200Y-819500D02*
X187400Y-819500D01*
G54D10*
X194200Y-809500D02*
X203800Y-809500D01*
X202600Y-811500D01*
X200200Y-814500D01*
X197800Y-818500D01*
X196600Y-821500D01*
X196600Y-825500D01*
G54D10*
X127000Y-850900D02*
X136600Y-834900D01*
G54D10*
X145800Y-842900D02*
X149400Y-844900D01*
X150600Y-846900D01*
X150600Y-850900D01*
G54D10*
X141000Y-850900D02*
X141000Y-834900D01*
X147000Y-834900D01*
X149400Y-835900D01*
X150600Y-837900D01*
X150600Y-839900D01*
X149400Y-841900D01*
X147000Y-842900D01*
X141000Y-842900D01*
G54D10*
X163400Y-850900D02*
X155000Y-850900D01*
X155000Y-834900D01*
X163400Y-834900D01*
G54D10*
X155000Y-842900D02*
X163400Y-842900D01*
G54D10*
X167800Y-847900D02*
X169000Y-849900D01*
X171400Y-850900D01*
X173800Y-850900D01*
X176200Y-849900D01*
X177400Y-847900D01*
X177400Y-845900D01*
X176200Y-843900D01*
X173800Y-842900D01*
X171400Y-842900D01*
X169000Y-841900D01*
X167800Y-839900D01*
X167800Y-837900D01*
X169000Y-835900D01*
X171400Y-834900D01*
X173800Y-834900D01*
X176200Y-835900D01*
X177400Y-837900D01*
G54D10*
X190200Y-850900D02*
X181800Y-850900D01*
X181800Y-834900D01*
X190200Y-834900D01*
G54D10*
X181800Y-842900D02*
X190200Y-842900D01*
G54D10*
X199400Y-850900D02*
X199400Y-834900D01*
G54D10*
X194600Y-834900D02*
X204200Y-834900D01*
G54D10*
X165100Y-876300D02*
X174700Y-860300D01*
G54D10*
X179100Y-876300D02*
X179100Y-860300D01*
X185100Y-870300D01*
X191100Y-860300D01*
X191100Y-876300D01*
G54D10*
X195500Y-866300D02*
X201500Y-860300D01*
X201500Y-876300D01*
G54D10*
X127000Y-927100D02*
X136600Y-911100D01*
G54D10*
X145800Y-919100D02*
X149400Y-921100D01*
X150600Y-923100D01*
X150600Y-927100D01*
G54D10*
X141000Y-927100D02*
X141000Y-911100D01*
X147000Y-911100D01*
X149400Y-912100D01*
X150600Y-914100D01*
X150600Y-916100D01*
X149400Y-918100D01*
X147000Y-919100D01*
X141000Y-919100D01*
G54D10*
X155000Y-927100D02*
X155000Y-911100D01*
X163400Y-911100D01*
G54D10*
X155000Y-919100D02*
X163400Y-919100D01*
G54D10*
X172600Y-919100D02*
X176200Y-921100D01*
X177400Y-923100D01*
X177400Y-927100D01*
G54D10*
X167800Y-927100D02*
X167800Y-911100D01*
X173800Y-911100D01*
X176200Y-912100D01*
X177400Y-914100D01*
X177400Y-916100D01*
X176200Y-918100D01*
X173800Y-919100D01*
X167800Y-919100D01*
G54D10*
X181800Y-924100D02*
X183000Y-926100D01*
X185400Y-927100D01*
X187800Y-927100D01*
X190200Y-926100D01*
X191400Y-924100D01*
X191400Y-922100D01*
X190200Y-920100D01*
X187800Y-919100D01*
X185400Y-919100D01*
X183000Y-918100D01*
X181800Y-916100D01*
X181800Y-914100D01*
X183000Y-912100D01*
X185400Y-911100D01*
X187800Y-911100D01*
X190200Y-912100D01*
X191400Y-914100D01*
G54D10*
X195800Y-927100D02*
X195800Y-911100D01*
G54D10*
X205400Y-927100D02*
X205400Y-911100D01*
G54D10*
X195800Y-919100D02*
X205400Y-919100D01*
G54D10*
X165100Y-952500D02*
X174700Y-936500D01*
G54D10*
X179100Y-952500D02*
X179100Y-936500D01*
G54D10*
X183500Y-952500D02*
X183500Y-936500D01*
X193100Y-952500D01*
X193100Y-936500D01*
G54D10*
X202300Y-952500D02*
X202300Y-936500D01*
G54D10*
X197500Y-936500D02*
X207100Y-936500D01*
G54D10*
X152400Y-977900D02*
X162000Y-961900D01*
G54D10*
X166400Y-961900D02*
X166400Y-977900D01*
X172400Y-967900D01*
X178400Y-977900D01*
X178400Y-961900D01*
G54D10*
X182800Y-977900D02*
X188800Y-961900D01*
X194800Y-977900D01*
G54D10*
X185200Y-971900D02*
X192400Y-971900D01*
G54D10*
X199200Y-977900D02*
X199200Y-961900D01*
G54D10*
X208400Y-977900D02*
X208400Y-961900D01*
G54D10*
X203600Y-961900D02*
X213200Y-961900D01*
G54D10*
X177800Y-1003300D02*
X183800Y-987300D01*
X189800Y-1003300D01*
G54D10*
X180200Y-997300D02*
X187400Y-997300D01*
G54D10*
X200200Y-995300D02*
X197800Y-995300D01*
X195400Y-994300D01*
X194200Y-992300D01*
X194200Y-990300D01*
X195400Y-988300D01*
X197800Y-987300D01*
X200200Y-987300D01*
X202600Y-988300D01*
X203800Y-990300D01*
X203800Y-992300D01*
X202600Y-994300D01*
X200200Y-995300D01*
X202600Y-996300D01*
X203800Y-998300D01*
X203800Y-1000300D01*
X202600Y-1002300D01*
X200200Y-1003300D01*
X197800Y-1003300D01*
X195400Y-1002300D01*
X194200Y-1000300D01*
X194200Y-998300D01*
X195400Y-996300D01*
X197800Y-995300D01*
G54D10*
X177800Y-1028700D02*
X183800Y-1012700D01*
X189800Y-1028700D01*
G54D10*
X180200Y-1022700D02*
X187400Y-1022700D01*
G54D10*
X194200Y-1025700D02*
X195400Y-1027700D01*
X197800Y-1028700D01*
X200200Y-1028700D01*
X202600Y-1027700D01*
X203800Y-1025700D01*
X203800Y-1020700D01*
X203800Y-1019700D01*
X200200Y-1021700D01*
X197800Y-1021700D01*
X195400Y-1020700D01*
X194200Y-1018700D01*
X194200Y-1015700D01*
X195400Y-1013700D01*
X197800Y-1012700D01*
X200200Y-1012700D01*
X202600Y-1013700D01*
X203800Y-1015700D01*
X203800Y-1020700D01*
G54D10*
X165100Y-1079500D02*
X171100Y-1063500D01*
X177100Y-1079500D01*
G54D10*
X167500Y-1073500D02*
X174700Y-1073500D01*
G54D10*
X181500Y-1069500D02*
X187500Y-1063500D01*
X187500Y-1079500D01*
G54D10*
X191900Y-1069500D02*
X197900Y-1063500D01*
X197900Y-1079500D01*
G54D10*
X165100Y-1104900D02*
X171100Y-1088900D01*
X177100Y-1104900D01*
G54D10*
X167500Y-1098900D02*
X174700Y-1098900D01*
G54D10*
X181500Y-1094900D02*
X187500Y-1088900D01*
X187500Y-1104900D01*
G54D10*
X201500Y-1104900D02*
X191900Y-1104900D01*
X191900Y-1103900D01*
X193100Y-1101900D01*
X200300Y-1095900D01*
X201500Y-1093900D01*
X201500Y-1091900D01*
X200300Y-1089900D01*
X197900Y-1088900D01*
X195500Y-1088900D01*
X193100Y-1089900D01*
X191900Y-1091900D01*
G54D10*
X165100Y-1130300D02*
X171100Y-1114300D01*
X177100Y-1130300D01*
G54D10*
X167500Y-1124300D02*
X174700Y-1124300D01*
G54D10*
X181500Y-1120300D02*
X187500Y-1114300D01*
X187500Y-1130300D01*
G54D10*
X191900Y-1117300D02*
X193100Y-1115300D01*
X195500Y-1114300D01*
X197900Y-1114300D01*
X200300Y-1115300D01*
X201500Y-1117300D01*
X201500Y-1119300D01*
X200300Y-1121300D01*
X197900Y-1122300D01*
X200300Y-1123300D01*
X201500Y-1125300D01*
X201500Y-1127300D01*
X200300Y-1129300D01*
X197900Y-1130300D01*
X195500Y-1130300D01*
X193100Y-1129300D01*
X191900Y-1127300D01*
G54D10*
X165100Y-1054100D02*
X171100Y-1038100D01*
X177100Y-1054100D01*
G54D10*
X167500Y-1048100D02*
X174700Y-1048100D01*
G54D10*
X181500Y-1044100D02*
X187500Y-1038100D01*
X187500Y-1054100D01*
G54D10*
X201500Y-1041100D02*
X201500Y-1051100D01*
X200300Y-1053100D01*
X197900Y-1054100D01*
X195500Y-1054100D01*
X193100Y-1053100D01*
X191900Y-1051100D01*
X191900Y-1041100D01*
X193100Y-1039100D01*
X195500Y-1038100D01*
X197900Y-1038100D01*
X200300Y-1039100D01*
X201500Y-1041100D01*
G54D10*
X165100Y-1155700D02*
X171100Y-1139700D01*
X177100Y-1155700D01*
G54D10*
X167500Y-1149700D02*
X174700Y-1149700D01*
G54D10*
X181500Y-1145700D02*
X187500Y-1139700D01*
X187500Y-1155700D01*
G54D10*
X199100Y-1155700D02*
X199100Y-1139700D01*
X191900Y-1149700D01*
X191900Y-1151700D01*
X201500Y-1151700D01*
G54D10*
X165100Y-1181100D02*
X171100Y-1165100D01*
X177100Y-1181100D01*
G54D10*
X167500Y-1175100D02*
X174700Y-1175100D01*
G54D10*
X181500Y-1171100D02*
X187500Y-1165100D01*
X187500Y-1181100D01*
G54D10*
X201500Y-1165100D02*
X191900Y-1165100D01*
X191900Y-1172100D01*
X193100Y-1172100D01*
X195500Y-1171100D01*
X197900Y-1171100D01*
X200300Y-1172100D01*
X201500Y-1174100D01*
X201500Y-1178100D01*
X200300Y-1180100D01*
X197900Y-1181100D01*
X195500Y-1181100D01*
X193100Y-1180100D01*
X191900Y-1178100D01*
G54D10*
X127000Y-1206500D02*
X127000Y-1190500D01*
X133000Y-1190500D01*
X135400Y-1191500D01*
X136600Y-1193500D01*
X136600Y-1195500D01*
X135400Y-1197500D01*
X133000Y-1198500D01*
X135400Y-1199500D01*
X136600Y-1201500D01*
X136600Y-1203500D01*
X135400Y-1205500D01*
X133000Y-1206500D01*
X127000Y-1206500D01*
G54D10*
X127000Y-1198500D02*
X133000Y-1198500D01*
G54D10*
X141000Y-1206500D02*
X147000Y-1190500D01*
X153000Y-1206500D01*
G54D10*
X143400Y-1200500D02*
X150600Y-1200500D01*
G54D10*
X157400Y-1206500D02*
X157400Y-1190500D01*
X167000Y-1206500D01*
X167000Y-1190500D01*
G54D10*
X171400Y-1206500D02*
X171400Y-1190500D01*
G54D10*
X171400Y-1201500D02*
X181000Y-1190500D01*
G54D10*
X175000Y-1198500D02*
X181000Y-1206500D01*
G54D10*
X193800Y-1206500D02*
X185400Y-1206500D01*
X185400Y-1190500D01*
X193800Y-1190500D01*
G54D10*
X185400Y-1198500D02*
X193800Y-1198500D01*
G54D10*
X198200Y-1206500D02*
X198200Y-1190500D01*
X207800Y-1206500D01*
X207800Y-1190500D01*
G54D10*
X127000Y-1231900D02*
X136600Y-1215900D01*
G54D10*
X141000Y-1231900D02*
X141000Y-1215900D01*
X147000Y-1215900D01*
X149400Y-1216900D01*
X150600Y-1218900D01*
X150600Y-1220900D01*
X149400Y-1222900D01*
X147000Y-1223900D01*
X149400Y-1224900D01*
X150600Y-1226900D01*
X150600Y-1228900D01*
X149400Y-1230900D01*
X147000Y-1231900D01*
X141000Y-1231900D01*
G54D10*
X141000Y-1223900D02*
X147000Y-1223900D01*
G54D10*
X155000Y-1215900D02*
X155000Y-1228900D01*
X156200Y-1230900D01*
X158600Y-1231900D01*
X161000Y-1231900D01*
X163400Y-1230900D01*
X164600Y-1228900D01*
X164600Y-1215900D01*
G54D10*
X169000Y-1228900D02*
X170200Y-1230900D01*
X172600Y-1231900D01*
X175000Y-1231900D01*
X177400Y-1230900D01*
X178600Y-1228900D01*
X178600Y-1226900D01*
X177400Y-1224900D01*
X175000Y-1223900D01*
X172600Y-1223900D01*
X170200Y-1222900D01*
X169000Y-1220900D01*
X169000Y-1218900D01*
X170200Y-1216900D01*
X172600Y-1215900D01*
X175000Y-1215900D01*
X177400Y-1216900D01*
X178600Y-1218900D01*
G54D10*
X187800Y-1223900D02*
X191400Y-1225900D01*
X192600Y-1227900D01*
X192600Y-1231900D01*
G54D10*
X183000Y-1231900D02*
X183000Y-1215900D01*
X189000Y-1215900D01*
X191400Y-1216900D01*
X192600Y-1218900D01*
X192600Y-1220900D01*
X191400Y-1222900D01*
X189000Y-1223900D01*
X183000Y-1223900D01*
G54D10*
X201800Y-1228900D02*
X207800Y-1231900D01*
G54D10*
X206600Y-1218900D02*
X206600Y-1228900D01*
X205400Y-1230900D01*
X203000Y-1231900D01*
X200600Y-1231900D01*
X198200Y-1230900D01*
X197000Y-1228900D01*
X197000Y-1218900D01*
X198200Y-1216900D01*
X200600Y-1215900D01*
X203000Y-1215900D01*
X205400Y-1216900D01*
X206600Y-1218900D01*
G54D10*
X127000Y-1257300D02*
X136600Y-1241300D01*
G54D10*
X141000Y-1257300D02*
X141000Y-1241300D01*
X147000Y-1241300D01*
X149400Y-1242300D01*
X150600Y-1244300D01*
X150600Y-1246300D01*
X149400Y-1248300D01*
X147000Y-1249300D01*
X149400Y-1250300D01*
X150600Y-1252300D01*
X150600Y-1254300D01*
X149400Y-1256300D01*
X147000Y-1257300D01*
X141000Y-1257300D01*
G54D10*
X141000Y-1249300D02*
X147000Y-1249300D01*
G54D10*
X155000Y-1241300D02*
X155000Y-1254300D01*
X156200Y-1256300D01*
X158600Y-1257300D01*
X161000Y-1257300D01*
X163400Y-1256300D01*
X164600Y-1254300D01*
X164600Y-1241300D01*
G54D10*
X169000Y-1254300D02*
X170200Y-1256300D01*
X172600Y-1257300D01*
X175000Y-1257300D01*
X177400Y-1256300D01*
X178600Y-1254300D01*
X178600Y-1252300D01*
X177400Y-1250300D01*
X175000Y-1249300D01*
X172600Y-1249300D01*
X170200Y-1248300D01*
X169000Y-1246300D01*
X169000Y-1244300D01*
X170200Y-1242300D01*
X172600Y-1241300D01*
X175000Y-1241300D01*
X177400Y-1242300D01*
X178600Y-1244300D01*
G54D10*
X183000Y-1257300D02*
X189000Y-1241300D01*
X195000Y-1257300D01*
G54D10*
X185400Y-1251300D02*
X192600Y-1251300D01*
G54D10*
X199400Y-1257300D02*
X199400Y-1241300D01*
G54D10*
X199400Y-1252300D02*
X209000Y-1241300D01*
G54D10*
X203000Y-1249300D02*
X209000Y-1257300D01*
G54D10*
X190500Y-1282700D02*
X190500Y-1266700D01*
X196500Y-1266700D01*
X198900Y-1267700D01*
X200100Y-1269700D01*
X200100Y-1271700D01*
X198900Y-1273700D01*
X196500Y-1274700D01*
X190500Y-1274700D01*
G54D10*
X204500Y-1282700D02*
X204500Y-1266700D01*
G54D10*
X177800Y-1308100D02*
X177800Y-1292100D01*
X183800Y-1292100D01*
X186200Y-1293100D01*
X187400Y-1295100D01*
X187400Y-1297100D01*
X186200Y-1299100D01*
X183800Y-1300100D01*
X177800Y-1300100D01*
G54D10*
X201400Y-1295100D02*
X201400Y-1305100D01*
X200200Y-1307100D01*
X197800Y-1308100D01*
X195400Y-1308100D01*
X193000Y-1307100D01*
X191800Y-1305100D01*
X191800Y-1295100D01*
X193000Y-1293100D01*
X195400Y-1292100D01*
X197800Y-1292100D01*
X200200Y-1293100D01*
X201400Y-1295100D01*
G54D10*
X165100Y-1333500D02*
X174700Y-1317500D01*
G54D10*
X179100Y-1333500D02*
X179100Y-1317500D01*
X188700Y-1333500D01*
X188700Y-1317500D01*
G54D10*
X193100Y-1333500D02*
X193100Y-1317500D01*
X199100Y-1327500D01*
X205100Y-1317500D01*
X205100Y-1333500D01*
G54D10*
X209500Y-1333500D02*
X209500Y-1317500D01*
G54D10*
X165100Y-1358900D02*
X171100Y-1342900D01*
X177100Y-1358900D01*
G54D10*
X167500Y-1352900D02*
X174700Y-1352900D01*
G54D10*
X181500Y-1348900D02*
X187500Y-1342900D01*
X187500Y-1358900D01*
G54D10*
X201500Y-1345900D02*
X200300Y-1343900D01*
X197900Y-1342900D01*
X195500Y-1342900D01*
X193100Y-1343900D01*
X191900Y-1345900D01*
X191900Y-1350900D01*
X191900Y-1351900D01*
X195500Y-1349900D01*
X197900Y-1349900D01*
X200300Y-1350900D01*
X201500Y-1352900D01*
X201500Y-1355900D01*
X200300Y-1357900D01*
X197900Y-1358900D01*
X195500Y-1358900D01*
X193100Y-1357900D01*
X191900Y-1355900D01*
X191900Y-1350900D01*
G54D10*
X165100Y-1384300D02*
X171100Y-1368300D01*
X177100Y-1384300D01*
G54D10*
X167500Y-1378300D02*
X174700Y-1378300D01*
G54D10*
X181500Y-1374300D02*
X187500Y-1368300D01*
X187500Y-1384300D01*
G54D10*
X191900Y-1368300D02*
X201500Y-1368300D01*
X200300Y-1370300D01*
X197900Y-1373300D01*
X195500Y-1377300D01*
X194300Y-1380300D01*
X194300Y-1384300D01*
G54D10*
X165100Y-1409700D02*
X171100Y-1393700D01*
X177100Y-1409700D01*
G54D10*
X167500Y-1403700D02*
X174700Y-1403700D01*
G54D10*
X181500Y-1399700D02*
X187500Y-1393700D01*
X187500Y-1409700D01*
G54D10*
X197900Y-1401700D02*
X195500Y-1401700D01*
X193100Y-1400700D01*
X191900Y-1398700D01*
X191900Y-1396700D01*
X193100Y-1394700D01*
X195500Y-1393700D01*
X197900Y-1393700D01*
X200300Y-1394700D01*
X201500Y-1396700D01*
X201500Y-1398700D01*
X200300Y-1400700D01*
X197900Y-1401700D01*
X200300Y-1402700D01*
X201500Y-1404700D01*
X201500Y-1406700D01*
X200300Y-1408700D01*
X197900Y-1409700D01*
X195500Y-1409700D01*
X193100Y-1408700D01*
X191900Y-1406700D01*
X191900Y-1404700D01*
X193100Y-1402700D01*
X195500Y-1401700D01*
G54D10*
X165100Y-1435100D02*
X171100Y-1419100D01*
X177100Y-1435100D01*
G54D10*
X167500Y-1429100D02*
X174700Y-1429100D01*
G54D10*
X181500Y-1425100D02*
X187500Y-1419100D01*
X187500Y-1435100D01*
G54D10*
X191900Y-1432100D02*
X193100Y-1434100D01*
X195500Y-1435100D01*
X197900Y-1435100D01*
X200300Y-1434100D01*
X201500Y-1432100D01*
X201500Y-1427100D01*
X201500Y-1426100D01*
X197900Y-1428100D01*
X195500Y-1428100D01*
X193100Y-1427100D01*
X191900Y-1425100D01*
X191900Y-1422100D01*
X193100Y-1420100D01*
X195500Y-1419100D01*
X197900Y-1419100D01*
X200300Y-1420100D01*
X201500Y-1422100D01*
X201500Y-1427100D01*
G54D10*
X169900Y-1452500D02*
X174700Y-1452500D01*
X174700Y-1457500D01*
X173500Y-1459500D01*
X171100Y-1460500D01*
X168700Y-1460500D01*
X166300Y-1459500D01*
X165100Y-1457500D01*
X165100Y-1447500D01*
X166300Y-1445500D01*
X168700Y-1444500D01*
X171100Y-1444500D01*
X173500Y-1445500D01*
X174700Y-1447500D01*
G54D10*
X179100Y-1460500D02*
X179100Y-1444500D01*
X188700Y-1460500D01*
X188700Y-1444500D01*
G54D10*
X193100Y-1460500D02*
X193100Y-1444500D01*
X199100Y-1444500D01*
X201500Y-1445500D01*
X202700Y-1447500D01*
X202700Y-1457500D01*
X201500Y-1459500D01*
X199100Y-1460500D01*
X193100Y-1460500D01*
G54D10*
X169900Y-1477900D02*
X174700Y-1477900D01*
X174700Y-1482900D01*
X173500Y-1484900D01*
X171100Y-1485900D01*
X168700Y-1485900D01*
X166300Y-1484900D01*
X165100Y-1482900D01*
X165100Y-1472900D01*
X166300Y-1470900D01*
X168700Y-1469900D01*
X171100Y-1469900D01*
X173500Y-1470900D01*
X174700Y-1472900D01*
G54D10*
X179100Y-1485900D02*
X179100Y-1469900D01*
X188700Y-1485900D01*
X188700Y-1469900D01*
G54D10*
X193100Y-1485900D02*
X193100Y-1469900D01*
X199100Y-1469900D01*
X201500Y-1470900D01*
X202700Y-1472900D01*
X202700Y-1482900D01*
X201500Y-1484900D01*
X199100Y-1485900D01*
X193100Y-1485900D01*
G54D10*
X131800Y-1503300D02*
X135400Y-1505300D01*
X136600Y-1507300D01*
X136600Y-1511300D01*
G54D10*
X127000Y-1511300D02*
X127000Y-1495300D01*
X133000Y-1495300D01*
X135400Y-1496300D01*
X136600Y-1498300D01*
X136600Y-1500300D01*
X135400Y-1502300D01*
X133000Y-1503300D01*
X127000Y-1503300D01*
G54D10*
X148200Y-1510300D02*
X146280Y-1511300D01*
X143880Y-1511300D01*
X141480Y-1510300D01*
X141000Y-1508300D01*
X141000Y-1504900D01*
X142200Y-1502900D01*
X144600Y-1502300D01*
X147000Y-1502900D01*
X148200Y-1504300D01*
X148200Y-1506300D01*
X141000Y-1506300D01*
G54D10*
X152600Y-1510300D02*
X155000Y-1511300D01*
X157400Y-1511300D01*
X159800Y-1510300D01*
X159800Y-1508300D01*
X158600Y-1507300D01*
X153800Y-1506300D01*
X152600Y-1505300D01*
X152600Y-1503300D01*
X155000Y-1502300D01*
X157400Y-1502300D01*
X159800Y-1503300D01*
G54D10*
X171400Y-1510300D02*
X169480Y-1511300D01*
X167080Y-1511300D01*
X164680Y-1510300D01*
X164200Y-1508300D01*
X164200Y-1504900D01*
X165400Y-1502900D01*
X167800Y-1502300D01*
X170200Y-1502900D01*
X171400Y-1504300D01*
X171400Y-1506300D01*
X164200Y-1506300D01*
G54D10*
X175800Y-1511300D02*
X175800Y-1502300D01*
G54D10*
X175800Y-1504300D02*
X178200Y-1502300D01*
X180600Y-1502300D01*
G54D10*
X185000Y-1502300D02*
X189800Y-1511300D01*
X194600Y-1502300D01*
G54D10*
X206200Y-1510300D02*
X204280Y-1511300D01*
X201880Y-1511300D01*
X199480Y-1510300D01*
X199000Y-1508300D01*
X199000Y-1504900D01*
X200200Y-1502900D01*
X202600Y-1502300D01*
X205000Y-1502900D01*
X206200Y-1504300D01*
X206200Y-1506300D01*
X199000Y-1506300D01*
G54D10*
X355600Y-155100D02*
X361600Y-149100D01*
X361600Y-165100D01*
G54D10*
X365200Y-190500D02*
X355600Y-190500D01*
X355600Y-189500D01*
X356800Y-187500D01*
X364000Y-181500D01*
X365200Y-179500D01*
X365200Y-177500D01*
X364000Y-175500D01*
X361600Y-174500D01*
X359200Y-174500D01*
X356800Y-175500D01*
X355600Y-177500D01*
G54D10*
X355600Y-202900D02*
X356800Y-200900D01*
X359200Y-199900D01*
X361600Y-199900D01*
X364000Y-200900D01*
X365200Y-202900D01*
X365200Y-204900D01*
X364000Y-206900D01*
X361600Y-207900D01*
X364000Y-208900D01*
X365200Y-210900D01*
X365200Y-212900D01*
X364000Y-214900D01*
X361600Y-215900D01*
X359200Y-215900D01*
X356800Y-214900D01*
X355600Y-212900D01*
G54D10*
X362800Y-241300D02*
X362800Y-225300D01*
X355600Y-235300D01*
X355600Y-237300D01*
X365200Y-237300D01*
G54D10*
X365200Y-250700D02*
X355600Y-250700D01*
X355600Y-257700D01*
X356800Y-257700D01*
X359200Y-256700D01*
X361600Y-256700D01*
X364000Y-257700D01*
X365200Y-259700D01*
X365200Y-263700D01*
X364000Y-265700D01*
X361600Y-266700D01*
X359200Y-266700D01*
X356800Y-265700D01*
X355600Y-263700D01*
G54D10*
X365200Y-279100D02*
X364000Y-277100D01*
X361600Y-276100D01*
X359200Y-276100D01*
X356800Y-277100D01*
X355600Y-279100D01*
X355600Y-284100D01*
X355600Y-285100D01*
X359200Y-283100D01*
X361600Y-283100D01*
X364000Y-284100D01*
X365200Y-286100D01*
X365200Y-289100D01*
X364000Y-291100D01*
X361600Y-292100D01*
X359200Y-292100D01*
X356800Y-291100D01*
X355600Y-289100D01*
X355600Y-284100D01*
G54D10*
X355600Y-301500D02*
X365200Y-301500D01*
X364000Y-303500D01*
X361600Y-306500D01*
X359200Y-310500D01*
X358000Y-313500D01*
X358000Y-317500D01*
G54D10*
X361600Y-334900D02*
X359200Y-334900D01*
X356800Y-333900D01*
X355600Y-331900D01*
X355600Y-329900D01*
X356800Y-327900D01*
X359200Y-326900D01*
X361600Y-326900D01*
X364000Y-327900D01*
X365200Y-329900D01*
X365200Y-331900D01*
X364000Y-333900D01*
X361600Y-334900D01*
X364000Y-335900D01*
X365200Y-337900D01*
X365200Y-339900D01*
X364000Y-341900D01*
X361600Y-342900D01*
X359200Y-342900D01*
X356800Y-341900D01*
X355600Y-339900D01*
X355600Y-337900D01*
X356800Y-335900D01*
X359200Y-334900D01*
G54D10*
X355600Y-365300D02*
X356800Y-367300D01*
X359200Y-368300D01*
X361600Y-368300D01*
X364000Y-367300D01*
X365200Y-365300D01*
X365200Y-360300D01*
X365200Y-359300D01*
X361600Y-361300D01*
X359200Y-361300D01*
X356800Y-360300D01*
X355600Y-358300D01*
X355600Y-355300D01*
X356800Y-353300D01*
X359200Y-352300D01*
X361600Y-352300D01*
X364000Y-353300D01*
X365200Y-355300D01*
X365200Y-360300D01*
G54D10*
X355600Y-383700D02*
X361600Y-377700D01*
X361600Y-393700D01*
G54D10*
X375600Y-380700D02*
X375600Y-390700D01*
X374400Y-392700D01*
X372000Y-393700D01*
X369600Y-393700D01*
X367200Y-392700D01*
X366000Y-390700D01*
X366000Y-380700D01*
X367200Y-378700D01*
X369600Y-377700D01*
X372000Y-377700D01*
X374400Y-378700D01*
X375600Y-380700D01*
G54D10*
X355600Y-409100D02*
X361600Y-403100D01*
X361600Y-419100D01*
G54D10*
X366000Y-409100D02*
X372000Y-403100D01*
X372000Y-419100D01*
G54D10*
X355600Y-434500D02*
X361600Y-428500D01*
X361600Y-444500D01*
G54D10*
X375600Y-444500D02*
X366000Y-444500D01*
X366000Y-443500D01*
X367200Y-441500D01*
X374400Y-435500D01*
X375600Y-433500D01*
X375600Y-431500D01*
X374400Y-429500D01*
X372000Y-428500D01*
X369600Y-428500D01*
X367200Y-429500D01*
X366000Y-431500D01*
G54D10*
X355600Y-459900D02*
X361600Y-453900D01*
X361600Y-469900D01*
G54D10*
X366000Y-456900D02*
X367200Y-454900D01*
X369600Y-453900D01*
X372000Y-453900D01*
X374400Y-454900D01*
X375600Y-456900D01*
X375600Y-458900D01*
X374400Y-460900D01*
X372000Y-461900D01*
X374400Y-462900D01*
X375600Y-464900D01*
X375600Y-466900D01*
X374400Y-468900D01*
X372000Y-469900D01*
X369600Y-469900D01*
X367200Y-468900D01*
X366000Y-466900D01*
G54D10*
X355600Y-485300D02*
X361600Y-479300D01*
X361600Y-495300D01*
G54D10*
X373200Y-495300D02*
X373200Y-479300D01*
X366000Y-489300D01*
X366000Y-491300D01*
X375600Y-491300D01*
G54D10*
X355600Y-510700D02*
X361600Y-504700D01*
X361600Y-520700D01*
G54D10*
X375600Y-504700D02*
X366000Y-504700D01*
X366000Y-511700D01*
X367200Y-511700D01*
X369600Y-510700D01*
X372000Y-510700D01*
X374400Y-511700D01*
X375600Y-513700D01*
X375600Y-517700D01*
X374400Y-519700D01*
X372000Y-520700D01*
X369600Y-520700D01*
X367200Y-519700D01*
X366000Y-517700D01*
G54D10*
X355600Y-536100D02*
X361600Y-530100D01*
X361600Y-546100D01*
G54D10*
X375600Y-533100D02*
X374400Y-531100D01*
X372000Y-530100D01*
X369600Y-530100D01*
X367200Y-531100D01*
X366000Y-533100D01*
X366000Y-538100D01*
X366000Y-539100D01*
X369600Y-537100D01*
X372000Y-537100D01*
X374400Y-538100D01*
X375600Y-540100D01*
X375600Y-543100D01*
X374400Y-545100D01*
X372000Y-546100D01*
X369600Y-546100D01*
X367200Y-545100D01*
X366000Y-543100D01*
X366000Y-538100D01*
G54D10*
X355600Y-561500D02*
X361600Y-555500D01*
X361600Y-571500D01*
G54D10*
X366000Y-555500D02*
X375600Y-555500D01*
X374400Y-557500D01*
X372000Y-560500D01*
X369600Y-564500D01*
X368400Y-567500D01*
X368400Y-571500D01*
G54D10*
X355600Y-586900D02*
X361600Y-580900D01*
X361600Y-596900D01*
G54D10*
X372000Y-588900D02*
X369600Y-588900D01*
X367200Y-587900D01*
X366000Y-585900D01*
X366000Y-583900D01*
X367200Y-581900D01*
X369600Y-580900D01*
X372000Y-580900D01*
X374400Y-581900D01*
X375600Y-583900D01*
X375600Y-585900D01*
X374400Y-587900D01*
X372000Y-588900D01*
X374400Y-589900D01*
X375600Y-591900D01*
X375600Y-593900D01*
X374400Y-595900D01*
X372000Y-596900D01*
X369600Y-596900D01*
X367200Y-595900D01*
X366000Y-593900D01*
X366000Y-591900D01*
X367200Y-589900D01*
X369600Y-588900D01*
G54D10*
X355600Y-612300D02*
X361600Y-606300D01*
X361600Y-622300D01*
G54D10*
X366000Y-619300D02*
X367200Y-621300D01*
X369600Y-622300D01*
X372000Y-622300D01*
X374400Y-621300D01*
X375600Y-619300D01*
X375600Y-614300D01*
X375600Y-613300D01*
X372000Y-615300D01*
X369600Y-615300D01*
X367200Y-614300D01*
X366000Y-612300D01*
X366000Y-609300D01*
X367200Y-607300D01*
X369600Y-606300D01*
X372000Y-606300D01*
X374400Y-607300D01*
X375600Y-609300D01*
X375600Y-614300D01*
G54D10*
X365200Y-647700D02*
X355600Y-647700D01*
X355600Y-646700D01*
X356800Y-644700D01*
X364000Y-638700D01*
X365200Y-636700D01*
X365200Y-634700D01*
X364000Y-632700D01*
X361600Y-631700D01*
X359200Y-631700D01*
X356800Y-632700D01*
X355600Y-634700D01*
G54D10*
X379200Y-634700D02*
X379200Y-644700D01*
X378000Y-646700D01*
X375600Y-647700D01*
X373200Y-647700D01*
X370800Y-646700D01*
X369600Y-644700D01*
X369600Y-634700D01*
X370800Y-632700D01*
X373200Y-631700D01*
X375600Y-631700D01*
X378000Y-632700D01*
X379200Y-634700D01*
G54D10*
X365200Y-673100D02*
X355600Y-673100D01*
X355600Y-672100D01*
X356800Y-670100D01*
X364000Y-664100D01*
X365200Y-662100D01*
X365200Y-660100D01*
X364000Y-658100D01*
X361600Y-657100D01*
X359200Y-657100D01*
X356800Y-658100D01*
X355600Y-660100D01*
G54D10*
X369600Y-663100D02*
X375600Y-657100D01*
X375600Y-673100D01*
G54D10*
X365200Y-698500D02*
X355600Y-698500D01*
X355600Y-697500D01*
X356800Y-695500D01*
X364000Y-689500D01*
X365200Y-687500D01*
X365200Y-685500D01*
X364000Y-683500D01*
X361600Y-682500D01*
X359200Y-682500D01*
X356800Y-683500D01*
X355600Y-685500D01*
G54D10*
X379200Y-698500D02*
X369600Y-698500D01*
X369600Y-697500D01*
X370800Y-695500D01*
X378000Y-689500D01*
X379200Y-687500D01*
X379200Y-685500D01*
X378000Y-683500D01*
X375600Y-682500D01*
X373200Y-682500D01*
X370800Y-683500D01*
X369600Y-685500D01*
G54D10*
X365200Y-723900D02*
X355600Y-723900D01*
X355600Y-722900D01*
X356800Y-720900D01*
X364000Y-714900D01*
X365200Y-712900D01*
X365200Y-710900D01*
X364000Y-708900D01*
X361600Y-707900D01*
X359200Y-707900D01*
X356800Y-708900D01*
X355600Y-710900D01*
G54D10*
X369600Y-710900D02*
X370800Y-708900D01*
X373200Y-707900D01*
X375600Y-707900D01*
X378000Y-708900D01*
X379200Y-710900D01*
X379200Y-712900D01*
X378000Y-714900D01*
X375600Y-715900D01*
X378000Y-716900D01*
X379200Y-718900D01*
X379200Y-720900D01*
X378000Y-722900D01*
X375600Y-723900D01*
X373200Y-723900D01*
X370800Y-722900D01*
X369600Y-720900D01*
G54D10*
X365200Y-749300D02*
X355600Y-749300D01*
X355600Y-748300D01*
X356800Y-746300D01*
X364000Y-740300D01*
X365200Y-738300D01*
X365200Y-736300D01*
X364000Y-734300D01*
X361600Y-733300D01*
X359200Y-733300D01*
X356800Y-734300D01*
X355600Y-736300D01*
G54D10*
X376800Y-749300D02*
X376800Y-733300D01*
X369600Y-743300D01*
X369600Y-745300D01*
X379200Y-745300D01*
G54D10*
X365200Y-774700D02*
X355600Y-774700D01*
X355600Y-773700D01*
X356800Y-771700D01*
X364000Y-765700D01*
X365200Y-763700D01*
X365200Y-761700D01*
X364000Y-759700D01*
X361600Y-758700D01*
X359200Y-758700D01*
X356800Y-759700D01*
X355600Y-761700D01*
G54D10*
X379200Y-758700D02*
X369600Y-758700D01*
X369600Y-765700D01*
X370800Y-765700D01*
X373200Y-764700D01*
X375600Y-764700D01*
X378000Y-765700D01*
X379200Y-767700D01*
X379200Y-771700D01*
X378000Y-773700D01*
X375600Y-774700D01*
X373200Y-774700D01*
X370800Y-773700D01*
X369600Y-771700D01*
G54D10*
X365200Y-800100D02*
X355600Y-800100D01*
X355600Y-799100D01*
X356800Y-797100D01*
X364000Y-791100D01*
X365200Y-789100D01*
X365200Y-787100D01*
X364000Y-785100D01*
X361600Y-784100D01*
X359200Y-784100D01*
X356800Y-785100D01*
X355600Y-787100D01*
G54D10*
X379200Y-787100D02*
X378000Y-785100D01*
X375600Y-784100D01*
X373200Y-784100D01*
X370800Y-785100D01*
X369600Y-787100D01*
X369600Y-792100D01*
X369600Y-793100D01*
X373200Y-791100D01*
X375600Y-791100D01*
X378000Y-792100D01*
X379200Y-794100D01*
X379200Y-797100D01*
X378000Y-799100D01*
X375600Y-800100D01*
X373200Y-800100D01*
X370800Y-799100D01*
X369600Y-797100D01*
X369600Y-792100D01*
G54D10*
X365200Y-825500D02*
X355600Y-825500D01*
X355600Y-824500D01*
X356800Y-822500D01*
X364000Y-816500D01*
X365200Y-814500D01*
X365200Y-812500D01*
X364000Y-810500D01*
X361600Y-809500D01*
X359200Y-809500D01*
X356800Y-810500D01*
X355600Y-812500D01*
G54D10*
X369600Y-809500D02*
X379200Y-809500D01*
X378000Y-811500D01*
X375600Y-814500D01*
X373200Y-818500D01*
X372000Y-821500D01*
X372000Y-825500D01*
G54D10*
X365200Y-850900D02*
X355600Y-850900D01*
X355600Y-849900D01*
X356800Y-847900D01*
X364000Y-841900D01*
X365200Y-839900D01*
X365200Y-837900D01*
X364000Y-835900D01*
X361600Y-834900D01*
X359200Y-834900D01*
X356800Y-835900D01*
X355600Y-837900D01*
G54D10*
X375600Y-842900D02*
X373200Y-842900D01*
X370800Y-841900D01*
X369600Y-839900D01*
X369600Y-837900D01*
X370800Y-835900D01*
X373200Y-834900D01*
X375600Y-834900D01*
X378000Y-835900D01*
X379200Y-837900D01*
X379200Y-839900D01*
X378000Y-841900D01*
X375600Y-842900D01*
X378000Y-843900D01*
X379200Y-845900D01*
X379200Y-847900D01*
X378000Y-849900D01*
X375600Y-850900D01*
X373200Y-850900D01*
X370800Y-849900D01*
X369600Y-847900D01*
X369600Y-845900D01*
X370800Y-843900D01*
X373200Y-842900D01*
G54D10*
X365200Y-876300D02*
X355600Y-876300D01*
X355600Y-875300D01*
X356800Y-873300D01*
X364000Y-867300D01*
X365200Y-865300D01*
X365200Y-863300D01*
X364000Y-861300D01*
X361600Y-860300D01*
X359200Y-860300D01*
X356800Y-861300D01*
X355600Y-863300D01*
G54D10*
X369600Y-873300D02*
X370800Y-875300D01*
X373200Y-876300D01*
X375600Y-876300D01*
X378000Y-875300D01*
X379200Y-873300D01*
X379200Y-868300D01*
X379200Y-867300D01*
X375600Y-869300D01*
X373200Y-869300D01*
X370800Y-868300D01*
X369600Y-866300D01*
X369600Y-863300D01*
X370800Y-861300D01*
X373200Y-860300D01*
X375600Y-860300D01*
X378000Y-861300D01*
X379200Y-863300D01*
X379200Y-868300D01*
G54D10*
X355600Y-888700D02*
X356800Y-886700D01*
X359200Y-885700D01*
X361600Y-885700D01*
X364000Y-886700D01*
X365200Y-888700D01*
X365200Y-890700D01*
X364000Y-892700D01*
X361600Y-893700D01*
X364000Y-894700D01*
X365200Y-896700D01*
X365200Y-898700D01*
X364000Y-900700D01*
X361600Y-901700D01*
X359200Y-901700D01*
X356800Y-900700D01*
X355600Y-898700D01*
G54D10*
X379200Y-888700D02*
X379200Y-898700D01*
X378000Y-900700D01*
X375600Y-901700D01*
X373200Y-901700D01*
X370800Y-900700D01*
X369600Y-898700D01*
X369600Y-888700D01*
X370800Y-886700D01*
X373200Y-885700D01*
X375600Y-885700D01*
X378000Y-886700D01*
X379200Y-888700D01*
G54D10*
X355600Y-914100D02*
X356800Y-912100D01*
X359200Y-911100D01*
X361600Y-911100D01*
X364000Y-912100D01*
X365200Y-914100D01*
X365200Y-916100D01*
X364000Y-918100D01*
X361600Y-919100D01*
X364000Y-920100D01*
X365200Y-922100D01*
X365200Y-924100D01*
X364000Y-926100D01*
X361600Y-927100D01*
X359200Y-927100D01*
X356800Y-926100D01*
X355600Y-924100D01*
G54D10*
X369600Y-917100D02*
X375600Y-911100D01*
X375600Y-927100D01*
G54D10*
X355600Y-939500D02*
X356800Y-937500D01*
X359200Y-936500D01*
X361600Y-936500D01*
X364000Y-937500D01*
X365200Y-939500D01*
X365200Y-941500D01*
X364000Y-943500D01*
X361600Y-944500D01*
X364000Y-945500D01*
X365200Y-947500D01*
X365200Y-949500D01*
X364000Y-951500D01*
X361600Y-952500D01*
X359200Y-952500D01*
X356800Y-951500D01*
X355600Y-949500D01*
G54D10*
X379200Y-952500D02*
X369600Y-952500D01*
X369600Y-951500D01*
X370800Y-949500D01*
X378000Y-943500D01*
X379200Y-941500D01*
X379200Y-939500D01*
X378000Y-937500D01*
X375600Y-936500D01*
X373200Y-936500D01*
X370800Y-937500D01*
X369600Y-939500D01*
G54D10*
X355600Y-964900D02*
X356800Y-962900D01*
X359200Y-961900D01*
X361600Y-961900D01*
X364000Y-962900D01*
X365200Y-964900D01*
X365200Y-966900D01*
X364000Y-968900D01*
X361600Y-969900D01*
X364000Y-970900D01*
X365200Y-972900D01*
X365200Y-974900D01*
X364000Y-976900D01*
X361600Y-977900D01*
X359200Y-977900D01*
X356800Y-976900D01*
X355600Y-974900D01*
G54D10*
X369600Y-964900D02*
X370800Y-962900D01*
X373200Y-961900D01*
X375600Y-961900D01*
X378000Y-962900D01*
X379200Y-964900D01*
X379200Y-966900D01*
X378000Y-968900D01*
X375600Y-969900D01*
X378000Y-970900D01*
X379200Y-972900D01*
X379200Y-974900D01*
X378000Y-976900D01*
X375600Y-977900D01*
X373200Y-977900D01*
X370800Y-976900D01*
X369600Y-974900D01*
G54D10*
X355600Y-990300D02*
X356800Y-988300D01*
X359200Y-987300D01*
X361600Y-987300D01*
X364000Y-988300D01*
X365200Y-990300D01*
X365200Y-992300D01*
X364000Y-994300D01*
X361600Y-995300D01*
X364000Y-996300D01*
X365200Y-998300D01*
X365200Y-1000300D01*
X364000Y-1002300D01*
X361600Y-1003300D01*
X359200Y-1003300D01*
X356800Y-1002300D01*
X355600Y-1000300D01*
G54D10*
X376800Y-1003300D02*
X376800Y-987300D01*
X369600Y-997300D01*
X369600Y-999300D01*
X379200Y-999300D01*
G54D10*
X355600Y-1015700D02*
X356800Y-1013700D01*
X359200Y-1012700D01*
X361600Y-1012700D01*
X364000Y-1013700D01*
X365200Y-1015700D01*
X365200Y-1017700D01*
X364000Y-1019700D01*
X361600Y-1020700D01*
X364000Y-1021700D01*
X365200Y-1023700D01*
X365200Y-1025700D01*
X364000Y-1027700D01*
X361600Y-1028700D01*
X359200Y-1028700D01*
X356800Y-1027700D01*
X355600Y-1025700D01*
G54D10*
X379200Y-1012700D02*
X369600Y-1012700D01*
X369600Y-1019700D01*
X370800Y-1019700D01*
X373200Y-1018700D01*
X375600Y-1018700D01*
X378000Y-1019700D01*
X379200Y-1021700D01*
X379200Y-1025700D01*
X378000Y-1027700D01*
X375600Y-1028700D01*
X373200Y-1028700D01*
X370800Y-1027700D01*
X369600Y-1025700D01*
G54D10*
X355600Y-1041100D02*
X356800Y-1039100D01*
X359200Y-1038100D01*
X361600Y-1038100D01*
X364000Y-1039100D01*
X365200Y-1041100D01*
X365200Y-1043100D01*
X364000Y-1045100D01*
X361600Y-1046100D01*
X364000Y-1047100D01*
X365200Y-1049100D01*
X365200Y-1051100D01*
X364000Y-1053100D01*
X361600Y-1054100D01*
X359200Y-1054100D01*
X356800Y-1053100D01*
X355600Y-1051100D01*
G54D10*
X379200Y-1041100D02*
X378000Y-1039100D01*
X375600Y-1038100D01*
X373200Y-1038100D01*
X370800Y-1039100D01*
X369600Y-1041100D01*
X369600Y-1046100D01*
X369600Y-1047100D01*
X373200Y-1045100D01*
X375600Y-1045100D01*
X378000Y-1046100D01*
X379200Y-1048100D01*
X379200Y-1051100D01*
X378000Y-1053100D01*
X375600Y-1054100D01*
X373200Y-1054100D01*
X370800Y-1053100D01*
X369600Y-1051100D01*
X369600Y-1046100D01*
G54D10*
X355600Y-1066500D02*
X356800Y-1064500D01*
X359200Y-1063500D01*
X361600Y-1063500D01*
X364000Y-1064500D01*
X365200Y-1066500D01*
X365200Y-1068500D01*
X364000Y-1070500D01*
X361600Y-1071500D01*
X364000Y-1072500D01*
X365200Y-1074500D01*
X365200Y-1076500D01*
X364000Y-1078500D01*
X361600Y-1079500D01*
X359200Y-1079500D01*
X356800Y-1078500D01*
X355600Y-1076500D01*
G54D10*
X369600Y-1063500D02*
X379200Y-1063500D01*
X378000Y-1065500D01*
X375600Y-1068500D01*
X373200Y-1072500D01*
X372000Y-1075500D01*
X372000Y-1079500D01*
G54D10*
X355600Y-1091900D02*
X356800Y-1089900D01*
X359200Y-1088900D01*
X361600Y-1088900D01*
X364000Y-1089900D01*
X365200Y-1091900D01*
X365200Y-1093900D01*
X364000Y-1095900D01*
X361600Y-1096900D01*
X364000Y-1097900D01*
X365200Y-1099900D01*
X365200Y-1101900D01*
X364000Y-1103900D01*
X361600Y-1104900D01*
X359200Y-1104900D01*
X356800Y-1103900D01*
X355600Y-1101900D01*
G54D10*
X375600Y-1096900D02*
X373200Y-1096900D01*
X370800Y-1095900D01*
X369600Y-1093900D01*
X369600Y-1091900D01*
X370800Y-1089900D01*
X373200Y-1088900D01*
X375600Y-1088900D01*
X378000Y-1089900D01*
X379200Y-1091900D01*
X379200Y-1093900D01*
X378000Y-1095900D01*
X375600Y-1096900D01*
X378000Y-1097900D01*
X379200Y-1099900D01*
X379200Y-1101900D01*
X378000Y-1103900D01*
X375600Y-1104900D01*
X373200Y-1104900D01*
X370800Y-1103900D01*
X369600Y-1101900D01*
X369600Y-1099900D01*
X370800Y-1097900D01*
X373200Y-1096900D01*
G54D10*
X355600Y-1117300D02*
X356800Y-1115300D01*
X359200Y-1114300D01*
X361600Y-1114300D01*
X364000Y-1115300D01*
X365200Y-1117300D01*
X365200Y-1119300D01*
X364000Y-1121300D01*
X361600Y-1122300D01*
X364000Y-1123300D01*
X365200Y-1125300D01*
X365200Y-1127300D01*
X364000Y-1129300D01*
X361600Y-1130300D01*
X359200Y-1130300D01*
X356800Y-1129300D01*
X355600Y-1127300D01*
G54D10*
X369600Y-1127300D02*
X370800Y-1129300D01*
X373200Y-1130300D01*
X375600Y-1130300D01*
X378000Y-1129300D01*
X379200Y-1127300D01*
X379200Y-1122300D01*
X379200Y-1121300D01*
X375600Y-1123300D01*
X373200Y-1123300D01*
X370800Y-1122300D01*
X369600Y-1120300D01*
X369600Y-1117300D01*
X370800Y-1115300D01*
X373200Y-1114300D01*
X375600Y-1114300D01*
X378000Y-1115300D01*
X379200Y-1117300D01*
X379200Y-1122300D01*
G54D10*
X362800Y-1155700D02*
X362800Y-1139700D01*
X355600Y-1149700D01*
X355600Y-1151700D01*
X365200Y-1151700D01*
G54D10*
X379200Y-1142700D02*
X379200Y-1152700D01*
X378000Y-1154700D01*
X375600Y-1155700D01*
X373200Y-1155700D01*
X370800Y-1154700D01*
X369600Y-1152700D01*
X369600Y-1142700D01*
X370800Y-1140700D01*
X373200Y-1139700D01*
X375600Y-1139700D01*
X378000Y-1140700D01*
X379200Y-1142700D01*
G54D10*
X362800Y-1181100D02*
X362800Y-1165100D01*
X355600Y-1175100D01*
X355600Y-1177100D01*
X365200Y-1177100D01*
G54D10*
X369600Y-1171100D02*
X375600Y-1165100D01*
X375600Y-1181100D01*
G54D10*
X362800Y-1206500D02*
X362800Y-1190500D01*
X355600Y-1200500D01*
X355600Y-1202500D01*
X365200Y-1202500D01*
G54D10*
X379200Y-1206500D02*
X369600Y-1206500D01*
X369600Y-1205500D01*
X370800Y-1203500D01*
X378000Y-1197500D01*
X379200Y-1195500D01*
X379200Y-1193500D01*
X378000Y-1191500D01*
X375600Y-1190500D01*
X373200Y-1190500D01*
X370800Y-1191500D01*
X369600Y-1193500D01*
G54D10*
X362800Y-1231900D02*
X362800Y-1215900D01*
X355600Y-1225900D01*
X355600Y-1227900D01*
X365200Y-1227900D01*
G54D10*
X369600Y-1218900D02*
X370800Y-1216900D01*
X373200Y-1215900D01*
X375600Y-1215900D01*
X378000Y-1216900D01*
X379200Y-1218900D01*
X379200Y-1220900D01*
X378000Y-1222900D01*
X375600Y-1223900D01*
X378000Y-1224900D01*
X379200Y-1226900D01*
X379200Y-1228900D01*
X378000Y-1230900D01*
X375600Y-1231900D01*
X373200Y-1231900D01*
X370800Y-1230900D01*
X369600Y-1228900D01*
G54D10*
X362800Y-1257300D02*
X362800Y-1241300D01*
X355600Y-1251300D01*
X355600Y-1253300D01*
X365200Y-1253300D01*
G54D10*
X376800Y-1257300D02*
X376800Y-1241300D01*
X369600Y-1251300D01*
X369600Y-1253300D01*
X379200Y-1253300D01*
G54D10*
X362800Y-1282700D02*
X362800Y-1266700D01*
X355600Y-1276700D01*
X355600Y-1278700D01*
X365200Y-1278700D01*
G54D10*
X379200Y-1266700D02*
X369600Y-1266700D01*
X369600Y-1273700D01*
X370800Y-1273700D01*
X373200Y-1272700D01*
X375600Y-1272700D01*
X378000Y-1273700D01*
X379200Y-1275700D01*
X379200Y-1279700D01*
X378000Y-1281700D01*
X375600Y-1282700D01*
X373200Y-1282700D01*
X370800Y-1281700D01*
X369600Y-1279700D01*
G54D10*
X362800Y-1308100D02*
X362800Y-1292100D01*
X355600Y-1302100D01*
X355600Y-1304100D01*
X365200Y-1304100D01*
G54D10*
X379200Y-1295100D02*
X378000Y-1293100D01*
X375600Y-1292100D01*
X373200Y-1292100D01*
X370800Y-1293100D01*
X369600Y-1295100D01*
X369600Y-1300100D01*
X369600Y-1301100D01*
X373200Y-1299100D01*
X375600Y-1299100D01*
X378000Y-1300100D01*
X379200Y-1302100D01*
X379200Y-1305100D01*
X378000Y-1307100D01*
X375600Y-1308100D01*
X373200Y-1308100D01*
X370800Y-1307100D01*
X369600Y-1305100D01*
X369600Y-1300100D01*
G54D10*
X362800Y-1333500D02*
X362800Y-1317500D01*
X355600Y-1327500D01*
X355600Y-1329500D01*
X365200Y-1329500D01*
G54D10*
X369600Y-1317500D02*
X379200Y-1317500D01*
X378000Y-1319500D01*
X375600Y-1322500D01*
X373200Y-1326500D01*
X372000Y-1329500D01*
X372000Y-1333500D01*
G54D10*
X362800Y-1358900D02*
X362800Y-1342900D01*
X355600Y-1352900D01*
X355600Y-1354900D01*
X365200Y-1354900D01*
G54D10*
X375600Y-1350900D02*
X373200Y-1350900D01*
X370800Y-1349900D01*
X369600Y-1347900D01*
X369600Y-1345900D01*
X370800Y-1343900D01*
X373200Y-1342900D01*
X375600Y-1342900D01*
X378000Y-1343900D01*
X379200Y-1345900D01*
X379200Y-1347900D01*
X378000Y-1349900D01*
X375600Y-1350900D01*
X378000Y-1351900D01*
X379200Y-1353900D01*
X379200Y-1355900D01*
X378000Y-1357900D01*
X375600Y-1358900D01*
X373200Y-1358900D01*
X370800Y-1357900D01*
X369600Y-1355900D01*
X369600Y-1353900D01*
X370800Y-1351900D01*
X373200Y-1350900D01*
G54D10*
X362800Y-1384300D02*
X362800Y-1368300D01*
X355600Y-1378300D01*
X355600Y-1380300D01*
X365200Y-1380300D01*
G54D10*
X369600Y-1381300D02*
X370800Y-1383300D01*
X373200Y-1384300D01*
X375600Y-1384300D01*
X378000Y-1383300D01*
X379200Y-1381300D01*
X379200Y-1376300D01*
X379200Y-1375300D01*
X375600Y-1377300D01*
X373200Y-1377300D01*
X370800Y-1376300D01*
X369600Y-1374300D01*
X369600Y-1371300D01*
X370800Y-1369300D01*
X373200Y-1368300D01*
X375600Y-1368300D01*
X378000Y-1369300D01*
X379200Y-1371300D01*
X379200Y-1376300D01*
G54D10*
X365200Y-1393700D02*
X355600Y-1393700D01*
X355600Y-1400700D01*
X356800Y-1400700D01*
X359200Y-1399700D01*
X361600Y-1399700D01*
X364000Y-1400700D01*
X365200Y-1402700D01*
X365200Y-1406700D01*
X364000Y-1408700D01*
X361600Y-1409700D01*
X359200Y-1409700D01*
X356800Y-1408700D01*
X355600Y-1406700D01*
G54D10*
X379200Y-1396700D02*
X379200Y-1406700D01*
X378000Y-1408700D01*
X375600Y-1409700D01*
X373200Y-1409700D01*
X370800Y-1408700D01*
X369600Y-1406700D01*
X369600Y-1396700D01*
X370800Y-1394700D01*
X373200Y-1393700D01*
X375600Y-1393700D01*
X378000Y-1394700D01*
X379200Y-1396700D01*
G54D10*
X365200Y-1419100D02*
X355600Y-1419100D01*
X355600Y-1426100D01*
X356800Y-1426100D01*
X359200Y-1425100D01*
X361600Y-1425100D01*
X364000Y-1426100D01*
X365200Y-1428100D01*
X365200Y-1432100D01*
X364000Y-1434100D01*
X361600Y-1435100D01*
X359200Y-1435100D01*
X356800Y-1434100D01*
X355600Y-1432100D01*
G54D10*
X369600Y-1425100D02*
X375600Y-1419100D01*
X375600Y-1435100D01*
G54D10*
X365200Y-1444500D02*
X355600Y-1444500D01*
X355600Y-1451500D01*
X356800Y-1451500D01*
X359200Y-1450500D01*
X361600Y-1450500D01*
X364000Y-1451500D01*
X365200Y-1453500D01*
X365200Y-1457500D01*
X364000Y-1459500D01*
X361600Y-1460500D01*
X359200Y-1460500D01*
X356800Y-1459500D01*
X355600Y-1457500D01*
G54D10*
X379200Y-1460500D02*
X369600Y-1460500D01*
X369600Y-1459500D01*
X370800Y-1457500D01*
X378000Y-1451500D01*
X379200Y-1449500D01*
X379200Y-1447500D01*
X378000Y-1445500D01*
X375600Y-1444500D01*
X373200Y-1444500D01*
X370800Y-1445500D01*
X369600Y-1447500D01*
G54D10*
X365200Y-1469900D02*
X355600Y-1469900D01*
X355600Y-1476900D01*
X356800Y-1476900D01*
X359200Y-1475900D01*
X361600Y-1475900D01*
X364000Y-1476900D01*
X365200Y-1478900D01*
X365200Y-1482900D01*
X364000Y-1484900D01*
X361600Y-1485900D01*
X359200Y-1485900D01*
X356800Y-1484900D01*
X355600Y-1482900D01*
G54D10*
X369600Y-1472900D02*
X370800Y-1470900D01*
X373200Y-1469900D01*
X375600Y-1469900D01*
X378000Y-1470900D01*
X379200Y-1472900D01*
X379200Y-1474900D01*
X378000Y-1476900D01*
X375600Y-1477900D01*
X378000Y-1478900D01*
X379200Y-1480900D01*
X379200Y-1482900D01*
X378000Y-1484900D01*
X375600Y-1485900D01*
X373200Y-1485900D01*
X370800Y-1484900D01*
X369600Y-1482900D01*
G54D10*
X365200Y-1495300D02*
X355600Y-1495300D01*
X355600Y-1502300D01*
X356800Y-1502300D01*
X359200Y-1501300D01*
X361600Y-1501300D01*
X364000Y-1502300D01*
X365200Y-1504300D01*
X365200Y-1508300D01*
X364000Y-1510300D01*
X361600Y-1511300D01*
X359200Y-1511300D01*
X356800Y-1510300D01*
X355600Y-1508300D01*
G54D10*
X376800Y-1511300D02*
X376800Y-1495300D01*
X369600Y-1505300D01*
X369600Y-1507300D01*
X379200Y-1507300D01*
G54D10*
X698500Y-158100D02*
X708100Y-158100D01*
G54D10*
X722100Y-149100D02*
X712500Y-149100D01*
X712500Y-156100D01*
X713700Y-156100D01*
X716100Y-155100D01*
X718500Y-155100D01*
X720900Y-156100D01*
X722100Y-158100D01*
X722100Y-162100D01*
X720900Y-164100D01*
X718500Y-165100D01*
X716100Y-165100D01*
X713700Y-164100D01*
X712500Y-162100D01*
G54D10*
X726500Y-149100D02*
X732500Y-165100D01*
X738500Y-149100D01*
G54D10*
X685800Y-183500D02*
X695400Y-183500D01*
G54D10*
X690600Y-179500D02*
X690600Y-187500D01*
G54D10*
X699800Y-180500D02*
X705800Y-174500D01*
X705800Y-190500D01*
G54D10*
X719800Y-190500D02*
X710200Y-190500D01*
X710200Y-189500D01*
X711400Y-187500D01*
X718600Y-181500D01*
X719800Y-179500D01*
X719800Y-177500D01*
X718600Y-175500D01*
X716200Y-174500D01*
X713800Y-174500D01*
X711400Y-175500D01*
X710200Y-177500D01*
G54D10*
X724200Y-174500D02*
X730200Y-190500D01*
X736200Y-174500D01*
G54D10*
X685800Y-208900D02*
X695400Y-208900D01*
G54D10*
X699800Y-205900D02*
X705800Y-199900D01*
X705800Y-215900D01*
G54D10*
X719800Y-215900D02*
X710200Y-215900D01*
X710200Y-214900D01*
X711400Y-212900D01*
X718600Y-206900D01*
X719800Y-204900D01*
X719800Y-202900D01*
X718600Y-200900D01*
X716200Y-199900D01*
X713800Y-199900D01*
X711400Y-200900D01*
X710200Y-202900D01*
G54D10*
X724200Y-199900D02*
X730200Y-215900D01*
X736200Y-199900D01*
G54D10*
X698500Y-234300D02*
X708100Y-234300D01*
G54D10*
X703300Y-230300D02*
X703300Y-238300D01*
G54D10*
X722100Y-225300D02*
X712500Y-225300D01*
X712500Y-232300D01*
X713700Y-232300D01*
X716100Y-231300D01*
X718500Y-231300D01*
X720900Y-232300D01*
X722100Y-234300D01*
X722100Y-238300D01*
X720900Y-240300D01*
X718500Y-241300D01*
X716100Y-241300D01*
X713700Y-240300D01*
X712500Y-238300D01*
G54D10*
X726500Y-225300D02*
X732500Y-241300D01*
X738500Y-225300D01*
G54D10*
X698500Y-259700D02*
X708100Y-259700D01*
G54D10*
X703300Y-255700D02*
X703300Y-263700D01*
G54D10*
X722100Y-250700D02*
X712500Y-250700D01*
X712500Y-257700D01*
X713700Y-257700D01*
X716100Y-256700D01*
X718500Y-256700D01*
X720900Y-257700D01*
X722100Y-259700D01*
X722100Y-263700D01*
X720900Y-265700D01*
X718500Y-266700D01*
X716100Y-266700D01*
X713700Y-265700D01*
X712500Y-263700D01*
G54D10*
X726500Y-250700D02*
X732500Y-266700D01*
X738500Y-250700D01*
G54D10*
X703300Y-284100D02*
X708100Y-284100D01*
X708100Y-289100D01*
X706900Y-291100D01*
X704500Y-292100D01*
X702100Y-292100D01*
X699700Y-291100D01*
X698500Y-289100D01*
X698500Y-279100D01*
X699700Y-277100D01*
X702100Y-276100D01*
X704500Y-276100D01*
X706900Y-277100D01*
X708100Y-279100D01*
G54D10*
X712500Y-292100D02*
X712500Y-276100D01*
X722100Y-292100D01*
X722100Y-276100D01*
G54D10*
X726500Y-292100D02*
X726500Y-276100D01*
X732500Y-276100D01*
X734900Y-277100D01*
X736100Y-279100D01*
X736100Y-289100D01*
X734900Y-291100D01*
X732500Y-292100D01*
X726500Y-292100D01*
G54D10*
X703300Y-309500D02*
X708100Y-309500D01*
X708100Y-314500D01*
X706900Y-316500D01*
X704500Y-317500D01*
X702100Y-317500D01*
X699700Y-316500D01*
X698500Y-314500D01*
X698500Y-304500D01*
X699700Y-302500D01*
X702100Y-301500D01*
X704500Y-301500D01*
X706900Y-302500D01*
X708100Y-304500D01*
G54D10*
X712500Y-317500D02*
X712500Y-301500D01*
X722100Y-317500D01*
X722100Y-301500D01*
G54D10*
X726500Y-317500D02*
X726500Y-301500D01*
X732500Y-301500D01*
X734900Y-302500D01*
X736100Y-304500D01*
X736100Y-314500D01*
X734900Y-316500D01*
X732500Y-317500D01*
X726500Y-317500D01*
G54D10*
X711200Y-342900D02*
X711200Y-326900D01*
X717200Y-326900D01*
X719600Y-327900D01*
X720800Y-329900D01*
X720800Y-339900D01*
X719600Y-341900D01*
X717200Y-342900D01*
X711200Y-342900D01*
G54D10*
X734800Y-329900D02*
X734800Y-339900D01*
X733600Y-341900D01*
X731200Y-342900D01*
X728800Y-342900D01*
X726400Y-341900D01*
X725200Y-339900D01*
X725200Y-329900D01*
X726400Y-327900D01*
X728800Y-326900D01*
X731200Y-326900D01*
X733600Y-327900D01*
X734800Y-329900D01*
G54D10*
X711200Y-368300D02*
X711200Y-352300D01*
X717200Y-352300D01*
X719600Y-353300D01*
X720800Y-355300D01*
X720800Y-365300D01*
X719600Y-367300D01*
X717200Y-368300D01*
X711200Y-368300D01*
G54D10*
X725200Y-358300D02*
X731200Y-352300D01*
X731200Y-368300D01*
G54D10*
X711200Y-393700D02*
X711200Y-377700D01*
X717200Y-377700D01*
X719600Y-378700D01*
X720800Y-380700D01*
X720800Y-390700D01*
X719600Y-392700D01*
X717200Y-393700D01*
X711200Y-393700D01*
G54D10*
X734800Y-393700D02*
X725200Y-393700D01*
X725200Y-392700D01*
X726400Y-390700D01*
X733600Y-384700D01*
X734800Y-382700D01*
X734800Y-380700D01*
X733600Y-378700D01*
X731200Y-377700D01*
X728800Y-377700D01*
X726400Y-378700D01*
X725200Y-380700D01*
G54D10*
X711200Y-419100D02*
X711200Y-403100D01*
X717200Y-403100D01*
X719600Y-404100D01*
X720800Y-406100D01*
X720800Y-416100D01*
X719600Y-418100D01*
X717200Y-419100D01*
X711200Y-419100D01*
G54D10*
X725200Y-406100D02*
X726400Y-404100D01*
X728800Y-403100D01*
X731200Y-403100D01*
X733600Y-404100D01*
X734800Y-406100D01*
X734800Y-408100D01*
X733600Y-410100D01*
X731200Y-411100D01*
X733600Y-412100D01*
X734800Y-414100D01*
X734800Y-416100D01*
X733600Y-418100D01*
X731200Y-419100D01*
X728800Y-419100D01*
X726400Y-418100D01*
X725200Y-416100D01*
G54D10*
X711200Y-444500D02*
X711200Y-428500D01*
X717200Y-428500D01*
X719600Y-429500D01*
X720800Y-431500D01*
X720800Y-441500D01*
X719600Y-443500D01*
X717200Y-444500D01*
X711200Y-444500D01*
G54D10*
X732400Y-444500D02*
X732400Y-428500D01*
X725200Y-438500D01*
X725200Y-440500D01*
X734800Y-440500D01*
G54D10*
X711200Y-469900D02*
X711200Y-453900D01*
X717200Y-453900D01*
X719600Y-454900D01*
X720800Y-456900D01*
X720800Y-466900D01*
X719600Y-468900D01*
X717200Y-469900D01*
X711200Y-469900D01*
G54D10*
X734800Y-453900D02*
X725200Y-453900D01*
X725200Y-460900D01*
X726400Y-460900D01*
X728800Y-459900D01*
X731200Y-459900D01*
X733600Y-460900D01*
X734800Y-462900D01*
X734800Y-466900D01*
X733600Y-468900D01*
X731200Y-469900D01*
X728800Y-469900D01*
X726400Y-468900D01*
X725200Y-466900D01*
G54D10*
X711200Y-495300D02*
X711200Y-479300D01*
X717200Y-479300D01*
X719600Y-480300D01*
X720800Y-482300D01*
X720800Y-492300D01*
X719600Y-494300D01*
X717200Y-495300D01*
X711200Y-495300D01*
G54D10*
X734800Y-482300D02*
X733600Y-480300D01*
X731200Y-479300D01*
X728800Y-479300D01*
X726400Y-480300D01*
X725200Y-482300D01*
X725200Y-487300D01*
X725200Y-488300D01*
X728800Y-486300D01*
X731200Y-486300D01*
X733600Y-487300D01*
X734800Y-489300D01*
X734800Y-492300D01*
X733600Y-494300D01*
X731200Y-495300D01*
X728800Y-495300D01*
X726400Y-494300D01*
X725200Y-492300D01*
X725200Y-487300D01*
G54D10*
X711200Y-520700D02*
X711200Y-504700D01*
X717200Y-504700D01*
X719600Y-505700D01*
X720800Y-507700D01*
X720800Y-517700D01*
X719600Y-519700D01*
X717200Y-520700D01*
X711200Y-520700D01*
G54D10*
X725200Y-504700D02*
X734800Y-504700D01*
X733600Y-506700D01*
X731200Y-509700D01*
X728800Y-513700D01*
X727600Y-516700D01*
X727600Y-520700D01*
G54D10*
X698500Y-546100D02*
X708100Y-530100D01*
G54D10*
X717300Y-538100D02*
X720900Y-540100D01*
X722100Y-542100D01*
X722100Y-546100D01*
G54D10*
X712500Y-546100D02*
X712500Y-530100D01*
X718500Y-530100D01*
X720900Y-531100D01*
X722100Y-533100D01*
X722100Y-535100D01*
X720900Y-537100D01*
X718500Y-538100D01*
X712500Y-538100D01*
G54D10*
X726500Y-546100D02*
X726500Y-530100D01*
X732500Y-530100D01*
X734900Y-531100D01*
X736100Y-533100D01*
X736100Y-543100D01*
X734900Y-545100D01*
X732500Y-546100D01*
X726500Y-546100D01*
G54D10*
X698500Y-571500D02*
X708100Y-555500D01*
G54D10*
X712500Y-555500D02*
X712500Y-571500D01*
X718500Y-561500D01*
X724500Y-571500D01*
X724500Y-555500D01*
G54D10*
X733700Y-563500D02*
X737300Y-565500D01*
X738500Y-567500D01*
X738500Y-571500D01*
G54D10*
X728900Y-571500D02*
X728900Y-555500D01*
X734900Y-555500D01*
X737300Y-556500D01*
X738500Y-558500D01*
X738500Y-560500D01*
X737300Y-562500D01*
X734900Y-563500D01*
X728900Y-563500D01*
G54D10*
X685800Y-596900D02*
X695400Y-580900D01*
G54D10*
X699800Y-596900D02*
X699800Y-580900D01*
G54D10*
X713800Y-583900D02*
X713800Y-593900D01*
X712600Y-595900D01*
X710200Y-596900D01*
X707800Y-596900D01*
X705400Y-595900D01*
X704200Y-593900D01*
X704200Y-583900D01*
X705400Y-581900D01*
X707800Y-580900D01*
X710200Y-580900D01*
X712600Y-581900D01*
X713800Y-583900D01*
G54D10*
X723000Y-588900D02*
X726600Y-590900D01*
X727800Y-592900D01*
X727800Y-596900D01*
G54D10*
X718200Y-596900D02*
X718200Y-580900D01*
X724200Y-580900D01*
X726600Y-581900D01*
X727800Y-583900D01*
X727800Y-585900D01*
X726600Y-587900D01*
X724200Y-588900D01*
X718200Y-588900D01*
G54D10*
X737000Y-593900D02*
X743000Y-596900D01*
G54D10*
X741800Y-583900D02*
X741800Y-593900D01*
X740600Y-595900D01*
X738200Y-596900D01*
X735800Y-596900D01*
X733400Y-595900D01*
X732200Y-593900D01*
X732200Y-583900D01*
X733400Y-581900D01*
X735800Y-580900D01*
X738200Y-580900D01*
X740600Y-581900D01*
X741800Y-583900D01*
G54D10*
X673100Y-622300D02*
X682700Y-606300D01*
G54D10*
X687100Y-622300D02*
X687100Y-606300D01*
X693100Y-616300D01*
X699100Y-606300D01*
X699100Y-622300D01*
G54D10*
X708300Y-614300D02*
X711900Y-616300D01*
X713100Y-618300D01*
X713100Y-622300D01*
G54D10*
X703500Y-622300D02*
X703500Y-606300D01*
X709500Y-606300D01*
X711900Y-607300D01*
X713100Y-609300D01*
X713100Y-611300D01*
X711900Y-613300D01*
X709500Y-614300D01*
X703500Y-614300D01*
G54D10*
X725900Y-622300D02*
X717500Y-622300D01*
X717500Y-606300D01*
X725900Y-606300D01*
G54D10*
X717500Y-614300D02*
X725900Y-614300D01*
G54D10*
X735100Y-619300D02*
X741100Y-622300D01*
G54D10*
X739900Y-609300D02*
X739900Y-619300D01*
X738700Y-621300D01*
X736300Y-622300D01*
X733900Y-622300D01*
X731500Y-621300D01*
X730300Y-619300D01*
X730300Y-609300D01*
X731500Y-607300D01*
X733900Y-606300D01*
X736300Y-606300D01*
X738700Y-607300D01*
X739900Y-609300D01*
G54D10*
X711200Y-647700D02*
X717200Y-631700D01*
X723200Y-647700D01*
G54D10*
X713600Y-641700D02*
X720800Y-641700D01*
G54D10*
X737200Y-634700D02*
X737200Y-644700D01*
X736000Y-646700D01*
X733600Y-647700D01*
X731200Y-647700D01*
X728800Y-646700D01*
X727600Y-644700D01*
X727600Y-634700D01*
X728800Y-632700D01*
X731200Y-631700D01*
X733600Y-631700D01*
X736000Y-632700D01*
X737200Y-634700D01*
G54D10*
X711200Y-673100D02*
X717200Y-657100D01*
X723200Y-673100D01*
G54D10*
X713600Y-667100D02*
X720800Y-667100D01*
G54D10*
X727600Y-663100D02*
X733600Y-657100D01*
X733600Y-673100D01*
G54D10*
X711200Y-698500D02*
X717200Y-682500D01*
X723200Y-698500D01*
G54D10*
X713600Y-692500D02*
X720800Y-692500D01*
G54D10*
X737200Y-698500D02*
X727600Y-698500D01*
X727600Y-697500D01*
X728800Y-695500D01*
X736000Y-689500D01*
X737200Y-687500D01*
X737200Y-685500D01*
X736000Y-683500D01*
X733600Y-682500D01*
X731200Y-682500D01*
X728800Y-683500D01*
X727600Y-685500D01*
G54D10*
X711200Y-723900D02*
X717200Y-707900D01*
X723200Y-723900D01*
G54D10*
X713600Y-717900D02*
X720800Y-717900D01*
G54D10*
X727600Y-710900D02*
X728800Y-708900D01*
X731200Y-707900D01*
X733600Y-707900D01*
X736000Y-708900D01*
X737200Y-710900D01*
X737200Y-712900D01*
X736000Y-714900D01*
X733600Y-715900D01*
X736000Y-716900D01*
X737200Y-718900D01*
X737200Y-720900D01*
X736000Y-722900D01*
X733600Y-723900D01*
X731200Y-723900D01*
X728800Y-722900D01*
X727600Y-720900D01*
G54D10*
X711200Y-749300D02*
X717200Y-733300D01*
X723200Y-749300D01*
G54D10*
X713600Y-743300D02*
X720800Y-743300D01*
G54D10*
X734800Y-749300D02*
X734800Y-733300D01*
X727600Y-743300D01*
X727600Y-745300D01*
X737200Y-745300D01*
G54D10*
X711200Y-774700D02*
X717200Y-758700D01*
X723200Y-774700D01*
G54D10*
X713600Y-768700D02*
X720800Y-768700D01*
G54D10*
X737200Y-758700D02*
X727600Y-758700D01*
X727600Y-765700D01*
X728800Y-765700D01*
X731200Y-764700D01*
X733600Y-764700D01*
X736000Y-765700D01*
X737200Y-767700D01*
X737200Y-771700D01*
X736000Y-773700D01*
X733600Y-774700D01*
X731200Y-774700D01*
X728800Y-773700D01*
X727600Y-771700D01*
G54D10*
X711200Y-800100D02*
X717200Y-784100D01*
X723200Y-800100D01*
G54D10*
X713600Y-794100D02*
X720800Y-794100D01*
G54D10*
X737200Y-787100D02*
X736000Y-785100D01*
X733600Y-784100D01*
X731200Y-784100D01*
X728800Y-785100D01*
X727600Y-787100D01*
X727600Y-792100D01*
X727600Y-793100D01*
X731200Y-791100D01*
X733600Y-791100D01*
X736000Y-792100D01*
X737200Y-794100D01*
X737200Y-797100D01*
X736000Y-799100D01*
X733600Y-800100D01*
X731200Y-800100D01*
X728800Y-799100D01*
X727600Y-797100D01*
X727600Y-792100D01*
G54D10*
X711200Y-825500D02*
X717200Y-809500D01*
X723200Y-825500D01*
G54D10*
X713600Y-819500D02*
X720800Y-819500D01*
G54D10*
X727600Y-809500D02*
X737200Y-809500D01*
X736000Y-811500D01*
X733600Y-814500D01*
X731200Y-818500D01*
X730000Y-821500D01*
X730000Y-825500D01*
G54D10*
X660400Y-850900D02*
X670000Y-834900D01*
G54D10*
X679200Y-842900D02*
X682800Y-844900D01*
X684000Y-846900D01*
X684000Y-850900D01*
G54D10*
X674400Y-850900D02*
X674400Y-834900D01*
X680400Y-834900D01*
X682800Y-835900D01*
X684000Y-837900D01*
X684000Y-839900D01*
X682800Y-841900D01*
X680400Y-842900D01*
X674400Y-842900D01*
G54D10*
X696800Y-850900D02*
X688400Y-850900D01*
X688400Y-834900D01*
X696800Y-834900D01*
G54D10*
X688400Y-842900D02*
X696800Y-842900D01*
G54D10*
X701200Y-847900D02*
X702400Y-849900D01*
X704800Y-850900D01*
X707200Y-850900D01*
X709600Y-849900D01*
X710800Y-847900D01*
X710800Y-845900D01*
X709600Y-843900D01*
X707200Y-842900D01*
X704800Y-842900D01*
X702400Y-841900D01*
X701200Y-839900D01*
X701200Y-837900D01*
X702400Y-835900D01*
X704800Y-834900D01*
X707200Y-834900D01*
X709600Y-835900D01*
X710800Y-837900D01*
G54D10*
X723600Y-850900D02*
X715200Y-850900D01*
X715200Y-834900D01*
X723600Y-834900D01*
G54D10*
X715200Y-842900D02*
X723600Y-842900D01*
G54D10*
X732800Y-850900D02*
X732800Y-834900D01*
G54D10*
X728000Y-834900D02*
X737600Y-834900D01*
G54D10*
X698500Y-876300D02*
X708100Y-860300D01*
G54D10*
X712500Y-876300D02*
X712500Y-860300D01*
X718500Y-870300D01*
X724500Y-860300D01*
X724500Y-876300D01*
G54D10*
X728900Y-866300D02*
X734900Y-860300D01*
X734900Y-876300D01*
G54D10*
X660400Y-927100D02*
X670000Y-911100D01*
G54D10*
X679200Y-919100D02*
X682800Y-921100D01*
X684000Y-923100D01*
X684000Y-927100D01*
G54D10*
X674400Y-927100D02*
X674400Y-911100D01*
X680400Y-911100D01*
X682800Y-912100D01*
X684000Y-914100D01*
X684000Y-916100D01*
X682800Y-918100D01*
X680400Y-919100D01*
X674400Y-919100D01*
G54D10*
X688400Y-927100D02*
X688400Y-911100D01*
X696800Y-911100D01*
G54D10*
X688400Y-919100D02*
X696800Y-919100D01*
G54D10*
X706000Y-919100D02*
X709600Y-921100D01*
X710800Y-923100D01*
X710800Y-927100D01*
G54D10*
X701200Y-927100D02*
X701200Y-911100D01*
X707200Y-911100D01*
X709600Y-912100D01*
X710800Y-914100D01*
X710800Y-916100D01*
X709600Y-918100D01*
X707200Y-919100D01*
X701200Y-919100D01*
G54D10*
X715200Y-924100D02*
X716400Y-926100D01*
X718800Y-927100D01*
X721200Y-927100D01*
X723600Y-926100D01*
X724800Y-924100D01*
X724800Y-922100D01*
X723600Y-920100D01*
X721200Y-919100D01*
X718800Y-919100D01*
X716400Y-918100D01*
X715200Y-916100D01*
X715200Y-914100D01*
X716400Y-912100D01*
X718800Y-911100D01*
X721200Y-911100D01*
X723600Y-912100D01*
X724800Y-914100D01*
G54D10*
X729200Y-927100D02*
X729200Y-911100D01*
G54D10*
X738800Y-927100D02*
X738800Y-911100D01*
G54D10*
X729200Y-919100D02*
X738800Y-919100D01*
G54D10*
X698500Y-952500D02*
X708100Y-936500D01*
G54D10*
X712500Y-952500D02*
X712500Y-936500D01*
G54D10*
X716900Y-952500D02*
X716900Y-936500D01*
X726500Y-952500D01*
X726500Y-936500D01*
G54D10*
X735700Y-952500D02*
X735700Y-936500D01*
G54D10*
X730900Y-936500D02*
X740500Y-936500D01*
G54D10*
X685800Y-977900D02*
X695400Y-961900D01*
G54D10*
X699800Y-961900D02*
X699800Y-977900D01*
X705800Y-967900D01*
X711800Y-977900D01*
X711800Y-961900D01*
G54D10*
X716200Y-977900D02*
X722200Y-961900D01*
X728200Y-977900D01*
G54D10*
X718600Y-971900D02*
X725800Y-971900D01*
G54D10*
X732600Y-977900D02*
X732600Y-961900D01*
G54D10*
X741800Y-977900D02*
X741800Y-961900D01*
G54D10*
X737000Y-961900D02*
X746600Y-961900D01*
G54D10*
X711200Y-1003300D02*
X717200Y-987300D01*
X723200Y-1003300D01*
G54D10*
X713600Y-997300D02*
X720800Y-997300D01*
G54D10*
X733600Y-995300D02*
X731200Y-995300D01*
X728800Y-994300D01*
X727600Y-992300D01*
X727600Y-990300D01*
X728800Y-988300D01*
X731200Y-987300D01*
X733600Y-987300D01*
X736000Y-988300D01*
X737200Y-990300D01*
X737200Y-992300D01*
X736000Y-994300D01*
X733600Y-995300D01*
X736000Y-996300D01*
X737200Y-998300D01*
X737200Y-1000300D01*
X736000Y-1002300D01*
X733600Y-1003300D01*
X731200Y-1003300D01*
X728800Y-1002300D01*
X727600Y-1000300D01*
X727600Y-998300D01*
X728800Y-996300D01*
X731200Y-995300D01*
G54D10*
X711200Y-1028700D02*
X717200Y-1012700D01*
X723200Y-1028700D01*
G54D10*
X713600Y-1022700D02*
X720800Y-1022700D01*
G54D10*
X727600Y-1025700D02*
X728800Y-1027700D01*
X731200Y-1028700D01*
X733600Y-1028700D01*
X736000Y-1027700D01*
X737200Y-1025700D01*
X737200Y-1020700D01*
X737200Y-1019700D01*
X733600Y-1021700D01*
X731200Y-1021700D01*
X728800Y-1020700D01*
X727600Y-1018700D01*
X727600Y-1015700D01*
X728800Y-1013700D01*
X731200Y-1012700D01*
X733600Y-1012700D01*
X736000Y-1013700D01*
X737200Y-1015700D01*
X737200Y-1020700D01*
G54D10*
X698500Y-1079500D02*
X704500Y-1063500D01*
X710500Y-1079500D01*
G54D10*
X700900Y-1073500D02*
X708100Y-1073500D01*
G54D10*
X714900Y-1069500D02*
X720900Y-1063500D01*
X720900Y-1079500D01*
G54D10*
X725300Y-1069500D02*
X731300Y-1063500D01*
X731300Y-1079500D01*
G54D10*
X698500Y-1104900D02*
X704500Y-1088900D01*
X710500Y-1104900D01*
G54D10*
X700900Y-1098900D02*
X708100Y-1098900D01*
G54D10*
X714900Y-1094900D02*
X720900Y-1088900D01*
X720900Y-1104900D01*
G54D10*
X734900Y-1104900D02*
X725300Y-1104900D01*
X725300Y-1103900D01*
X726500Y-1101900D01*
X733700Y-1095900D01*
X734900Y-1093900D01*
X734900Y-1091900D01*
X733700Y-1089900D01*
X731300Y-1088900D01*
X728900Y-1088900D01*
X726500Y-1089900D01*
X725300Y-1091900D01*
G54D10*
X698500Y-1130300D02*
X704500Y-1114300D01*
X710500Y-1130300D01*
G54D10*
X700900Y-1124300D02*
X708100Y-1124300D01*
G54D10*
X714900Y-1120300D02*
X720900Y-1114300D01*
X720900Y-1130300D01*
G54D10*
X725300Y-1117300D02*
X726500Y-1115300D01*
X728900Y-1114300D01*
X731300Y-1114300D01*
X733700Y-1115300D01*
X734900Y-1117300D01*
X734900Y-1119300D01*
X733700Y-1121300D01*
X731300Y-1122300D01*
X733700Y-1123300D01*
X734900Y-1125300D01*
X734900Y-1127300D01*
X733700Y-1129300D01*
X731300Y-1130300D01*
X728900Y-1130300D01*
X726500Y-1129300D01*
X725300Y-1127300D01*
G54D10*
X698500Y-1054100D02*
X704500Y-1038100D01*
X710500Y-1054100D01*
G54D10*
X700900Y-1048100D02*
X708100Y-1048100D01*
G54D10*
X714900Y-1044100D02*
X720900Y-1038100D01*
X720900Y-1054100D01*
G54D10*
X734900Y-1041100D02*
X734900Y-1051100D01*
X733700Y-1053100D01*
X731300Y-1054100D01*
X728900Y-1054100D01*
X726500Y-1053100D01*
X725300Y-1051100D01*
X725300Y-1041100D01*
X726500Y-1039100D01*
X728900Y-1038100D01*
X731300Y-1038100D01*
X733700Y-1039100D01*
X734900Y-1041100D01*
G54D10*
X698500Y-1155700D02*
X704500Y-1139700D01*
X710500Y-1155700D01*
G54D10*
X700900Y-1149700D02*
X708100Y-1149700D01*
G54D10*
X714900Y-1145700D02*
X720900Y-1139700D01*
X720900Y-1155700D01*
G54D10*
X732500Y-1155700D02*
X732500Y-1139700D01*
X725300Y-1149700D01*
X725300Y-1151700D01*
X734900Y-1151700D01*
G54D10*
X698500Y-1181100D02*
X704500Y-1165100D01*
X710500Y-1181100D01*
G54D10*
X700900Y-1175100D02*
X708100Y-1175100D01*
G54D10*
X714900Y-1171100D02*
X720900Y-1165100D01*
X720900Y-1181100D01*
G54D10*
X734900Y-1165100D02*
X725300Y-1165100D01*
X725300Y-1172100D01*
X726500Y-1172100D01*
X728900Y-1171100D01*
X731300Y-1171100D01*
X733700Y-1172100D01*
X734900Y-1174100D01*
X734900Y-1178100D01*
X733700Y-1180100D01*
X731300Y-1181100D01*
X728900Y-1181100D01*
X726500Y-1180100D01*
X725300Y-1178100D01*
G54D10*
X660400Y-1206500D02*
X660400Y-1190500D01*
X666400Y-1190500D01*
X668800Y-1191500D01*
X670000Y-1193500D01*
X670000Y-1195500D01*
X668800Y-1197500D01*
X666400Y-1198500D01*
X668800Y-1199500D01*
X670000Y-1201500D01*
X670000Y-1203500D01*
X668800Y-1205500D01*
X666400Y-1206500D01*
X660400Y-1206500D01*
G54D10*
X660400Y-1198500D02*
X666400Y-1198500D01*
G54D10*
X674400Y-1206500D02*
X680400Y-1190500D01*
X686400Y-1206500D01*
G54D10*
X676800Y-1200500D02*
X684000Y-1200500D01*
G54D10*
X690800Y-1206500D02*
X690800Y-1190500D01*
X700400Y-1206500D01*
X700400Y-1190500D01*
G54D10*
X704800Y-1206500D02*
X704800Y-1190500D01*
G54D10*
X704800Y-1201500D02*
X714400Y-1190500D01*
G54D10*
X708400Y-1198500D02*
X714400Y-1206500D01*
G54D10*
X727200Y-1206500D02*
X718800Y-1206500D01*
X718800Y-1190500D01*
X727200Y-1190500D01*
G54D10*
X718800Y-1198500D02*
X727200Y-1198500D01*
G54D10*
X731600Y-1206500D02*
X731600Y-1190500D01*
X741200Y-1206500D01*
X741200Y-1190500D01*
G54D10*
X660400Y-1231900D02*
X670000Y-1215900D01*
G54D10*
X674400Y-1231900D02*
X674400Y-1215900D01*
X680400Y-1215900D01*
X682800Y-1216900D01*
X684000Y-1218900D01*
X684000Y-1220900D01*
X682800Y-1222900D01*
X680400Y-1223900D01*
X682800Y-1224900D01*
X684000Y-1226900D01*
X684000Y-1228900D01*
X682800Y-1230900D01*
X680400Y-1231900D01*
X674400Y-1231900D01*
G54D10*
X674400Y-1223900D02*
X680400Y-1223900D01*
G54D10*
X688400Y-1215900D02*
X688400Y-1228900D01*
X689600Y-1230900D01*
X692000Y-1231900D01*
X694400Y-1231900D01*
X696800Y-1230900D01*
X698000Y-1228900D01*
X698000Y-1215900D01*
G54D10*
X702400Y-1228900D02*
X703600Y-1230900D01*
X706000Y-1231900D01*
X708400Y-1231900D01*
X710800Y-1230900D01*
X712000Y-1228900D01*
X712000Y-1226900D01*
X710800Y-1224900D01*
X708400Y-1223900D01*
X706000Y-1223900D01*
X703600Y-1222900D01*
X702400Y-1220900D01*
X702400Y-1218900D01*
X703600Y-1216900D01*
X706000Y-1215900D01*
X708400Y-1215900D01*
X710800Y-1216900D01*
X712000Y-1218900D01*
G54D10*
X721200Y-1223900D02*
X724800Y-1225900D01*
X726000Y-1227900D01*
X726000Y-1231900D01*
G54D10*
X716400Y-1231900D02*
X716400Y-1215900D01*
X722400Y-1215900D01*
X724800Y-1216900D01*
X726000Y-1218900D01*
X726000Y-1220900D01*
X724800Y-1222900D01*
X722400Y-1223900D01*
X716400Y-1223900D01*
G54D10*
X735200Y-1228900D02*
X741200Y-1231900D01*
G54D10*
X740000Y-1218900D02*
X740000Y-1228900D01*
X738800Y-1230900D01*
X736400Y-1231900D01*
X734000Y-1231900D01*
X731600Y-1230900D01*
X730400Y-1228900D01*
X730400Y-1218900D01*
X731600Y-1216900D01*
X734000Y-1215900D01*
X736400Y-1215900D01*
X738800Y-1216900D01*
X740000Y-1218900D01*
G54D10*
X660400Y-1257300D02*
X670000Y-1241300D01*
G54D10*
X674400Y-1257300D02*
X674400Y-1241300D01*
X680400Y-1241300D01*
X682800Y-1242300D01*
X684000Y-1244300D01*
X684000Y-1246300D01*
X682800Y-1248300D01*
X680400Y-1249300D01*
X682800Y-1250300D01*
X684000Y-1252300D01*
X684000Y-1254300D01*
X682800Y-1256300D01*
X680400Y-1257300D01*
X674400Y-1257300D01*
G54D10*
X674400Y-1249300D02*
X680400Y-1249300D01*
G54D10*
X688400Y-1241300D02*
X688400Y-1254300D01*
X689600Y-1256300D01*
X692000Y-1257300D01*
X694400Y-1257300D01*
X696800Y-1256300D01*
X698000Y-1254300D01*
X698000Y-1241300D01*
G54D10*
X702400Y-1254300D02*
X703600Y-1256300D01*
X706000Y-1257300D01*
X708400Y-1257300D01*
X710800Y-1256300D01*
X712000Y-1254300D01*
X712000Y-1252300D01*
X710800Y-1250300D01*
X708400Y-1249300D01*
X706000Y-1249300D01*
X703600Y-1248300D01*
X702400Y-1246300D01*
X702400Y-1244300D01*
X703600Y-1242300D01*
X706000Y-1241300D01*
X708400Y-1241300D01*
X710800Y-1242300D01*
X712000Y-1244300D01*
G54D10*
X716400Y-1257300D02*
X722400Y-1241300D01*
X728400Y-1257300D01*
G54D10*
X718800Y-1251300D02*
X726000Y-1251300D01*
G54D10*
X732800Y-1257300D02*
X732800Y-1241300D01*
G54D10*
X732800Y-1252300D02*
X742400Y-1241300D01*
G54D10*
X736400Y-1249300D02*
X742400Y-1257300D01*
G54D10*
X723900Y-1282700D02*
X723900Y-1266700D01*
X729900Y-1266700D01*
X732300Y-1267700D01*
X733500Y-1269700D01*
X733500Y-1271700D01*
X732300Y-1273700D01*
X729900Y-1274700D01*
X723900Y-1274700D01*
G54D10*
X737900Y-1282700D02*
X737900Y-1266700D01*
G54D10*
X711200Y-1308100D02*
X711200Y-1292100D01*
X717200Y-1292100D01*
X719600Y-1293100D01*
X720800Y-1295100D01*
X720800Y-1297100D01*
X719600Y-1299100D01*
X717200Y-1300100D01*
X711200Y-1300100D01*
G54D10*
X734800Y-1295100D02*
X734800Y-1305100D01*
X733600Y-1307100D01*
X731200Y-1308100D01*
X728800Y-1308100D01*
X726400Y-1307100D01*
X725200Y-1305100D01*
X725200Y-1295100D01*
X726400Y-1293100D01*
X728800Y-1292100D01*
X731200Y-1292100D01*
X733600Y-1293100D01*
X734800Y-1295100D01*
G54D10*
X698500Y-1333500D02*
X708100Y-1317500D01*
G54D10*
X712500Y-1333500D02*
X712500Y-1317500D01*
X722100Y-1333500D01*
X722100Y-1317500D01*
G54D10*
X726500Y-1333500D02*
X726500Y-1317500D01*
X732500Y-1327500D01*
X738500Y-1317500D01*
X738500Y-1333500D01*
G54D10*
X742900Y-1333500D02*
X742900Y-1317500D01*
G54D10*
X698500Y-1358900D02*
X704500Y-1342900D01*
X710500Y-1358900D01*
G54D10*
X700900Y-1352900D02*
X708100Y-1352900D01*
G54D10*
X714900Y-1348900D02*
X720900Y-1342900D01*
X720900Y-1358900D01*
G54D10*
X734900Y-1345900D02*
X733700Y-1343900D01*
X731300Y-1342900D01*
X728900Y-1342900D01*
X726500Y-1343900D01*
X725300Y-1345900D01*
X725300Y-1350900D01*
X725300Y-1351900D01*
X728900Y-1349900D01*
X731300Y-1349900D01*
X733700Y-1350900D01*
X734900Y-1352900D01*
X734900Y-1355900D01*
X733700Y-1357900D01*
X731300Y-1358900D01*
X728900Y-1358900D01*
X726500Y-1357900D01*
X725300Y-1355900D01*
X725300Y-1350900D01*
G54D10*
X698500Y-1384300D02*
X704500Y-1368300D01*
X710500Y-1384300D01*
G54D10*
X700900Y-1378300D02*
X708100Y-1378300D01*
G54D10*
X714900Y-1374300D02*
X720900Y-1368300D01*
X720900Y-1384300D01*
G54D10*
X725300Y-1368300D02*
X734900Y-1368300D01*
X733700Y-1370300D01*
X731300Y-1373300D01*
X728900Y-1377300D01*
X727700Y-1380300D01*
X727700Y-1384300D01*
G54D10*
X698500Y-1409700D02*
X704500Y-1393700D01*
X710500Y-1409700D01*
G54D10*
X700900Y-1403700D02*
X708100Y-1403700D01*
G54D10*
X714900Y-1399700D02*
X720900Y-1393700D01*
X720900Y-1409700D01*
G54D10*
X731300Y-1401700D02*
X728900Y-1401700D01*
X726500Y-1400700D01*
X725300Y-1398700D01*
X725300Y-1396700D01*
X726500Y-1394700D01*
X728900Y-1393700D01*
X731300Y-1393700D01*
X733700Y-1394700D01*
X734900Y-1396700D01*
X734900Y-1398700D01*
X733700Y-1400700D01*
X731300Y-1401700D01*
X733700Y-1402700D01*
X734900Y-1404700D01*
X734900Y-1406700D01*
X733700Y-1408700D01*
X731300Y-1409700D01*
X728900Y-1409700D01*
X726500Y-1408700D01*
X725300Y-1406700D01*
X725300Y-1404700D01*
X726500Y-1402700D01*
X728900Y-1401700D01*
G54D10*
X698500Y-1435100D02*
X704500Y-1419100D01*
X710500Y-1435100D01*
G54D10*
X700900Y-1429100D02*
X708100Y-1429100D01*
G54D10*
X714900Y-1425100D02*
X720900Y-1419100D01*
X720900Y-1435100D01*
G54D10*
X725300Y-1432100D02*
X726500Y-1434100D01*
X728900Y-1435100D01*
X731300Y-1435100D01*
X733700Y-1434100D01*
X734900Y-1432100D01*
X734900Y-1427100D01*
X734900Y-1426100D01*
X731300Y-1428100D01*
X728900Y-1428100D01*
X726500Y-1427100D01*
X725300Y-1425100D01*
X725300Y-1422100D01*
X726500Y-1420100D01*
X728900Y-1419100D01*
X731300Y-1419100D01*
X733700Y-1420100D01*
X734900Y-1422100D01*
X734900Y-1427100D01*
G54D10*
X703300Y-1452500D02*
X708100Y-1452500D01*
X708100Y-1457500D01*
X706900Y-1459500D01*
X704500Y-1460500D01*
X702100Y-1460500D01*
X699700Y-1459500D01*
X698500Y-1457500D01*
X698500Y-1447500D01*
X699700Y-1445500D01*
X702100Y-1444500D01*
X704500Y-1444500D01*
X706900Y-1445500D01*
X708100Y-1447500D01*
G54D10*
X712500Y-1460500D02*
X712500Y-1444500D01*
X722100Y-1460500D01*
X722100Y-1444500D01*
G54D10*
X726500Y-1460500D02*
X726500Y-1444500D01*
X732500Y-1444500D01*
X734900Y-1445500D01*
X736100Y-1447500D01*
X736100Y-1457500D01*
X734900Y-1459500D01*
X732500Y-1460500D01*
X726500Y-1460500D01*
G54D10*
X703300Y-1477900D02*
X708100Y-1477900D01*
X708100Y-1482900D01*
X706900Y-1484900D01*
X704500Y-1485900D01*
X702100Y-1485900D01*
X699700Y-1484900D01*
X698500Y-1482900D01*
X698500Y-1472900D01*
X699700Y-1470900D01*
X702100Y-1469900D01*
X704500Y-1469900D01*
X706900Y-1470900D01*
X708100Y-1472900D01*
G54D10*
X712500Y-1485900D02*
X712500Y-1469900D01*
X722100Y-1485900D01*
X722100Y-1469900D01*
G54D10*
X726500Y-1485900D02*
X726500Y-1469900D01*
X732500Y-1469900D01*
X734900Y-1470900D01*
X736100Y-1472900D01*
X736100Y-1482900D01*
X734900Y-1484900D01*
X732500Y-1485900D01*
X726500Y-1485900D01*
G54D10*
X665200Y-1503300D02*
X668800Y-1505300D01*
X670000Y-1507300D01*
X670000Y-1511300D01*
G54D10*
X660400Y-1511300D02*
X660400Y-1495300D01*
X666400Y-1495300D01*
X668800Y-1496300D01*
X670000Y-1498300D01*
X670000Y-1500300D01*
X668800Y-1502300D01*
X666400Y-1503300D01*
X660400Y-1503300D01*
G54D10*
X681600Y-1510300D02*
X679680Y-1511300D01*
X677280Y-1511300D01*
X674880Y-1510300D01*
X674400Y-1508300D01*
X674400Y-1504900D01*
X675600Y-1502900D01*
X678000Y-1502300D01*
X680400Y-1502900D01*
X681600Y-1504300D01*
X681600Y-1506300D01*
X674400Y-1506300D01*
G54D10*
X686000Y-1510300D02*
X688400Y-1511300D01*
X690800Y-1511300D01*
X693200Y-1510300D01*
X693200Y-1508300D01*
X692000Y-1507300D01*
X687200Y-1506300D01*
X686000Y-1505300D01*
X686000Y-1503300D01*
X688400Y-1502300D01*
X690800Y-1502300D01*
X693200Y-1503300D01*
G54D10*
X704800Y-1510300D02*
X702880Y-1511300D01*
X700480Y-1511300D01*
X698080Y-1510300D01*
X697600Y-1508300D01*
X697600Y-1504900D01*
X698800Y-1502900D01*
X701200Y-1502300D01*
X703600Y-1502900D01*
X704800Y-1504300D01*
X704800Y-1506300D01*
X697600Y-1506300D01*
G54D10*
X709200Y-1511300D02*
X709200Y-1502300D01*
G54D10*
X709200Y-1504300D02*
X711600Y-1502300D01*
X714000Y-1502300D01*
G54D10*
X718400Y-1502300D02*
X723200Y-1511300D01*
X728000Y-1502300D01*
G54D10*
X739600Y-1510300D02*
X737680Y-1511300D01*
X735280Y-1511300D01*
X732880Y-1510300D01*
X732400Y-1508300D01*
X732400Y-1504900D01*
X733600Y-1502900D01*
X736000Y-1502300D01*
X738400Y-1502900D01*
X739600Y-1504300D01*
X739600Y-1506300D01*
X732400Y-1506300D01*
G54D10*
X889000Y-155100D02*
X895000Y-149100D01*
X895000Y-165100D01*
G54D10*
X898600Y-190500D02*
X889000Y-190500D01*
X889000Y-189500D01*
X890200Y-187500D01*
X897400Y-181500D01*
X898600Y-179500D01*
X898600Y-177500D01*
X897400Y-175500D01*
X895000Y-174500D01*
X892600Y-174500D01*
X890200Y-175500D01*
X889000Y-177500D01*
G54D10*
X889000Y-202900D02*
X890200Y-200900D01*
X892600Y-199900D01*
X895000Y-199900D01*
X897400Y-200900D01*
X898600Y-202900D01*
X898600Y-204900D01*
X897400Y-206900D01*
X895000Y-207900D01*
X897400Y-208900D01*
X898600Y-210900D01*
X898600Y-212900D01*
X897400Y-214900D01*
X895000Y-215900D01*
X892600Y-215900D01*
X890200Y-214900D01*
X889000Y-212900D01*
G54D10*
X896200Y-241300D02*
X896200Y-225300D01*
X889000Y-235300D01*
X889000Y-237300D01*
X898600Y-237300D01*
G54D10*
X898600Y-250700D02*
X889000Y-250700D01*
X889000Y-257700D01*
X890200Y-257700D01*
X892600Y-256700D01*
X895000Y-256700D01*
X897400Y-257700D01*
X898600Y-259700D01*
X898600Y-263700D01*
X897400Y-265700D01*
X895000Y-266700D01*
X892600Y-266700D01*
X890200Y-265700D01*
X889000Y-263700D01*
G54D10*
X898600Y-279100D02*
X897400Y-277100D01*
X895000Y-276100D01*
X892600Y-276100D01*
X890200Y-277100D01*
X889000Y-279100D01*
X889000Y-284100D01*
X889000Y-285100D01*
X892600Y-283100D01*
X895000Y-283100D01*
X897400Y-284100D01*
X898600Y-286100D01*
X898600Y-289100D01*
X897400Y-291100D01*
X895000Y-292100D01*
X892600Y-292100D01*
X890200Y-291100D01*
X889000Y-289100D01*
X889000Y-284100D01*
G54D10*
X889000Y-301500D02*
X898600Y-301500D01*
X897400Y-303500D01*
X895000Y-306500D01*
X892600Y-310500D01*
X891400Y-313500D01*
X891400Y-317500D01*
G54D10*
X895000Y-334900D02*
X892600Y-334900D01*
X890200Y-333900D01*
X889000Y-331900D01*
X889000Y-329900D01*
X890200Y-327900D01*
X892600Y-326900D01*
X895000Y-326900D01*
X897400Y-327900D01*
X898600Y-329900D01*
X898600Y-331900D01*
X897400Y-333900D01*
X895000Y-334900D01*
X897400Y-335900D01*
X898600Y-337900D01*
X898600Y-339900D01*
X897400Y-341900D01*
X895000Y-342900D01*
X892600Y-342900D01*
X890200Y-341900D01*
X889000Y-339900D01*
X889000Y-337900D01*
X890200Y-335900D01*
X892600Y-334900D01*
G54D10*
X889000Y-365300D02*
X890200Y-367300D01*
X892600Y-368300D01*
X895000Y-368300D01*
X897400Y-367300D01*
X898600Y-365300D01*
X898600Y-360300D01*
X898600Y-359300D01*
X895000Y-361300D01*
X892600Y-361300D01*
X890200Y-360300D01*
X889000Y-358300D01*
X889000Y-355300D01*
X890200Y-353300D01*
X892600Y-352300D01*
X895000Y-352300D01*
X897400Y-353300D01*
X898600Y-355300D01*
X898600Y-360300D01*
G54D10*
X889000Y-383700D02*
X895000Y-377700D01*
X895000Y-393700D01*
G54D10*
X909000Y-380700D02*
X909000Y-390700D01*
X907800Y-392700D01*
X905400Y-393700D01*
X903000Y-393700D01*
X900600Y-392700D01*
X899400Y-390700D01*
X899400Y-380700D01*
X900600Y-378700D01*
X903000Y-377700D01*
X905400Y-377700D01*
X907800Y-378700D01*
X909000Y-380700D01*
G54D10*
X889000Y-409100D02*
X895000Y-403100D01*
X895000Y-419100D01*
G54D10*
X899400Y-409100D02*
X905400Y-403100D01*
X905400Y-419100D01*
G54D10*
X889000Y-434500D02*
X895000Y-428500D01*
X895000Y-444500D01*
G54D10*
X909000Y-444500D02*
X899400Y-444500D01*
X899400Y-443500D01*
X900600Y-441500D01*
X907800Y-435500D01*
X909000Y-433500D01*
X909000Y-431500D01*
X907800Y-429500D01*
X905400Y-428500D01*
X903000Y-428500D01*
X900600Y-429500D01*
X899400Y-431500D01*
G54D10*
X889000Y-459900D02*
X895000Y-453900D01*
X895000Y-469900D01*
G54D10*
X899400Y-456900D02*
X900600Y-454900D01*
X903000Y-453900D01*
X905400Y-453900D01*
X907800Y-454900D01*
X909000Y-456900D01*
X909000Y-458900D01*
X907800Y-460900D01*
X905400Y-461900D01*
X907800Y-462900D01*
X909000Y-464900D01*
X909000Y-466900D01*
X907800Y-468900D01*
X905400Y-469900D01*
X903000Y-469900D01*
X900600Y-468900D01*
X899400Y-466900D01*
G54D10*
X889000Y-485300D02*
X895000Y-479300D01*
X895000Y-495300D01*
G54D10*
X906600Y-495300D02*
X906600Y-479300D01*
X899400Y-489300D01*
X899400Y-491300D01*
X909000Y-491300D01*
G54D10*
X889000Y-510700D02*
X895000Y-504700D01*
X895000Y-520700D01*
G54D10*
X909000Y-504700D02*
X899400Y-504700D01*
X899400Y-511700D01*
X900600Y-511700D01*
X903000Y-510700D01*
X905400Y-510700D01*
X907800Y-511700D01*
X909000Y-513700D01*
X909000Y-517700D01*
X907800Y-519700D01*
X905400Y-520700D01*
X903000Y-520700D01*
X900600Y-519700D01*
X899400Y-517700D01*
G54D10*
X889000Y-536100D02*
X895000Y-530100D01*
X895000Y-546100D01*
G54D10*
X909000Y-533100D02*
X907800Y-531100D01*
X905400Y-530100D01*
X903000Y-530100D01*
X900600Y-531100D01*
X899400Y-533100D01*
X899400Y-538100D01*
X899400Y-539100D01*
X903000Y-537100D01*
X905400Y-537100D01*
X907800Y-538100D01*
X909000Y-540100D01*
X909000Y-543100D01*
X907800Y-545100D01*
X905400Y-546100D01*
X903000Y-546100D01*
X900600Y-545100D01*
X899400Y-543100D01*
X899400Y-538100D01*
G54D10*
X889000Y-561500D02*
X895000Y-555500D01*
X895000Y-571500D01*
G54D10*
X899400Y-555500D02*
X909000Y-555500D01*
X907800Y-557500D01*
X905400Y-560500D01*
X903000Y-564500D01*
X901800Y-567500D01*
X901800Y-571500D01*
G54D10*
X889000Y-586900D02*
X895000Y-580900D01*
X895000Y-596900D01*
G54D10*
X905400Y-588900D02*
X903000Y-588900D01*
X900600Y-587900D01*
X899400Y-585900D01*
X899400Y-583900D01*
X900600Y-581900D01*
X903000Y-580900D01*
X905400Y-580900D01*
X907800Y-581900D01*
X909000Y-583900D01*
X909000Y-585900D01*
X907800Y-587900D01*
X905400Y-588900D01*
X907800Y-589900D01*
X909000Y-591900D01*
X909000Y-593900D01*
X907800Y-595900D01*
X905400Y-596900D01*
X903000Y-596900D01*
X900600Y-595900D01*
X899400Y-593900D01*
X899400Y-591900D01*
X900600Y-589900D01*
X903000Y-588900D01*
G54D10*
X889000Y-612300D02*
X895000Y-606300D01*
X895000Y-622300D01*
G54D10*
X899400Y-619300D02*
X900600Y-621300D01*
X903000Y-622300D01*
X905400Y-622300D01*
X907800Y-621300D01*
X909000Y-619300D01*
X909000Y-614300D01*
X909000Y-613300D01*
X905400Y-615300D01*
X903000Y-615300D01*
X900600Y-614300D01*
X899400Y-612300D01*
X899400Y-609300D01*
X900600Y-607300D01*
X903000Y-606300D01*
X905400Y-606300D01*
X907800Y-607300D01*
X909000Y-609300D01*
X909000Y-614300D01*
G54D10*
X898600Y-647700D02*
X889000Y-647700D01*
X889000Y-646700D01*
X890200Y-644700D01*
X897400Y-638700D01*
X898600Y-636700D01*
X898600Y-634700D01*
X897400Y-632700D01*
X895000Y-631700D01*
X892600Y-631700D01*
X890200Y-632700D01*
X889000Y-634700D01*
G54D10*
X912600Y-634700D02*
X912600Y-644700D01*
X911400Y-646700D01*
X909000Y-647700D01*
X906600Y-647700D01*
X904200Y-646700D01*
X903000Y-644700D01*
X903000Y-634700D01*
X904200Y-632700D01*
X906600Y-631700D01*
X909000Y-631700D01*
X911400Y-632700D01*
X912600Y-634700D01*
G54D10*
X898600Y-673100D02*
X889000Y-673100D01*
X889000Y-672100D01*
X890200Y-670100D01*
X897400Y-664100D01*
X898600Y-662100D01*
X898600Y-660100D01*
X897400Y-658100D01*
X895000Y-657100D01*
X892600Y-657100D01*
X890200Y-658100D01*
X889000Y-660100D01*
G54D10*
X903000Y-663100D02*
X909000Y-657100D01*
X909000Y-673100D01*
G54D10*
X898600Y-698500D02*
X889000Y-698500D01*
X889000Y-697500D01*
X890200Y-695500D01*
X897400Y-689500D01*
X898600Y-687500D01*
X898600Y-685500D01*
X897400Y-683500D01*
X895000Y-682500D01*
X892600Y-682500D01*
X890200Y-683500D01*
X889000Y-685500D01*
G54D10*
X912600Y-698500D02*
X903000Y-698500D01*
X903000Y-697500D01*
X904200Y-695500D01*
X911400Y-689500D01*
X912600Y-687500D01*
X912600Y-685500D01*
X911400Y-683500D01*
X909000Y-682500D01*
X906600Y-682500D01*
X904200Y-683500D01*
X903000Y-685500D01*
G54D10*
X898600Y-723900D02*
X889000Y-723900D01*
X889000Y-722900D01*
X890200Y-720900D01*
X897400Y-714900D01*
X898600Y-712900D01*
X898600Y-710900D01*
X897400Y-708900D01*
X895000Y-707900D01*
X892600Y-707900D01*
X890200Y-708900D01*
X889000Y-710900D01*
G54D10*
X903000Y-710900D02*
X904200Y-708900D01*
X906600Y-707900D01*
X909000Y-707900D01*
X911400Y-708900D01*
X912600Y-710900D01*
X912600Y-712900D01*
X911400Y-714900D01*
X909000Y-715900D01*
X911400Y-716900D01*
X912600Y-718900D01*
X912600Y-720900D01*
X911400Y-722900D01*
X909000Y-723900D01*
X906600Y-723900D01*
X904200Y-722900D01*
X903000Y-720900D01*
G54D10*
X898600Y-749300D02*
X889000Y-749300D01*
X889000Y-748300D01*
X890200Y-746300D01*
X897400Y-740300D01*
X898600Y-738300D01*
X898600Y-736300D01*
X897400Y-734300D01*
X895000Y-733300D01*
X892600Y-733300D01*
X890200Y-734300D01*
X889000Y-736300D01*
G54D10*
X910200Y-749300D02*
X910200Y-733300D01*
X903000Y-743300D01*
X903000Y-745300D01*
X912600Y-745300D01*
G54D10*
X898600Y-774700D02*
X889000Y-774700D01*
X889000Y-773700D01*
X890200Y-771700D01*
X897400Y-765700D01*
X898600Y-763700D01*
X898600Y-761700D01*
X897400Y-759700D01*
X895000Y-758700D01*
X892600Y-758700D01*
X890200Y-759700D01*
X889000Y-761700D01*
G54D10*
X912600Y-758700D02*
X903000Y-758700D01*
X903000Y-765700D01*
X904200Y-765700D01*
X906600Y-764700D01*
X909000Y-764700D01*
X911400Y-765700D01*
X912600Y-767700D01*
X912600Y-771700D01*
X911400Y-773700D01*
X909000Y-774700D01*
X906600Y-774700D01*
X904200Y-773700D01*
X903000Y-771700D01*
G54D10*
X898600Y-800100D02*
X889000Y-800100D01*
X889000Y-799100D01*
X890200Y-797100D01*
X897400Y-791100D01*
X898600Y-789100D01*
X898600Y-787100D01*
X897400Y-785100D01*
X895000Y-784100D01*
X892600Y-784100D01*
X890200Y-785100D01*
X889000Y-787100D01*
G54D10*
X912600Y-787100D02*
X911400Y-785100D01*
X909000Y-784100D01*
X906600Y-784100D01*
X904200Y-785100D01*
X903000Y-787100D01*
X903000Y-792100D01*
X903000Y-793100D01*
X906600Y-791100D01*
X909000Y-791100D01*
X911400Y-792100D01*
X912600Y-794100D01*
X912600Y-797100D01*
X911400Y-799100D01*
X909000Y-800100D01*
X906600Y-800100D01*
X904200Y-799100D01*
X903000Y-797100D01*
X903000Y-792100D01*
G54D10*
X898600Y-825500D02*
X889000Y-825500D01*
X889000Y-824500D01*
X890200Y-822500D01*
X897400Y-816500D01*
X898600Y-814500D01*
X898600Y-812500D01*
X897400Y-810500D01*
X895000Y-809500D01*
X892600Y-809500D01*
X890200Y-810500D01*
X889000Y-812500D01*
G54D10*
X903000Y-809500D02*
X912600Y-809500D01*
X911400Y-811500D01*
X909000Y-814500D01*
X906600Y-818500D01*
X905400Y-821500D01*
X905400Y-825500D01*
G54D10*
X898600Y-850900D02*
X889000Y-850900D01*
X889000Y-849900D01*
X890200Y-847900D01*
X897400Y-841900D01*
X898600Y-839900D01*
X898600Y-837900D01*
X897400Y-835900D01*
X895000Y-834900D01*
X892600Y-834900D01*
X890200Y-835900D01*
X889000Y-837900D01*
G54D10*
X909000Y-842900D02*
X906600Y-842900D01*
X904200Y-841900D01*
X903000Y-839900D01*
X903000Y-837900D01*
X904200Y-835900D01*
X906600Y-834900D01*
X909000Y-834900D01*
X911400Y-835900D01*
X912600Y-837900D01*
X912600Y-839900D01*
X911400Y-841900D01*
X909000Y-842900D01*
X911400Y-843900D01*
X912600Y-845900D01*
X912600Y-847900D01*
X911400Y-849900D01*
X909000Y-850900D01*
X906600Y-850900D01*
X904200Y-849900D01*
X903000Y-847900D01*
X903000Y-845900D01*
X904200Y-843900D01*
X906600Y-842900D01*
G54D10*
X898600Y-876300D02*
X889000Y-876300D01*
X889000Y-875300D01*
X890200Y-873300D01*
X897400Y-867300D01*
X898600Y-865300D01*
X898600Y-863300D01*
X897400Y-861300D01*
X895000Y-860300D01*
X892600Y-860300D01*
X890200Y-861300D01*
X889000Y-863300D01*
G54D10*
X903000Y-873300D02*
X904200Y-875300D01*
X906600Y-876300D01*
X909000Y-876300D01*
X911400Y-875300D01*
X912600Y-873300D01*
X912600Y-868300D01*
X912600Y-867300D01*
X909000Y-869300D01*
X906600Y-869300D01*
X904200Y-868300D01*
X903000Y-866300D01*
X903000Y-863300D01*
X904200Y-861300D01*
X906600Y-860300D01*
X909000Y-860300D01*
X911400Y-861300D01*
X912600Y-863300D01*
X912600Y-868300D01*
G54D10*
X889000Y-888700D02*
X890200Y-886700D01*
X892600Y-885700D01*
X895000Y-885700D01*
X897400Y-886700D01*
X898600Y-888700D01*
X898600Y-890700D01*
X897400Y-892700D01*
X895000Y-893700D01*
X897400Y-894700D01*
X898600Y-896700D01*
X898600Y-898700D01*
X897400Y-900700D01*
X895000Y-901700D01*
X892600Y-901700D01*
X890200Y-900700D01*
X889000Y-898700D01*
G54D10*
X912600Y-888700D02*
X912600Y-898700D01*
X911400Y-900700D01*
X909000Y-901700D01*
X906600Y-901700D01*
X904200Y-900700D01*
X903000Y-898700D01*
X903000Y-888700D01*
X904200Y-886700D01*
X906600Y-885700D01*
X909000Y-885700D01*
X911400Y-886700D01*
X912600Y-888700D01*
G54D10*
X889000Y-914100D02*
X890200Y-912100D01*
X892600Y-911100D01*
X895000Y-911100D01*
X897400Y-912100D01*
X898600Y-914100D01*
X898600Y-916100D01*
X897400Y-918100D01*
X895000Y-919100D01*
X897400Y-920100D01*
X898600Y-922100D01*
X898600Y-924100D01*
X897400Y-926100D01*
X895000Y-927100D01*
X892600Y-927100D01*
X890200Y-926100D01*
X889000Y-924100D01*
G54D10*
X903000Y-917100D02*
X909000Y-911100D01*
X909000Y-927100D01*
G54D10*
X889000Y-939500D02*
X890200Y-937500D01*
X892600Y-936500D01*
X895000Y-936500D01*
X897400Y-937500D01*
X898600Y-939500D01*
X898600Y-941500D01*
X897400Y-943500D01*
X895000Y-944500D01*
X897400Y-945500D01*
X898600Y-947500D01*
X898600Y-949500D01*
X897400Y-951500D01*
X895000Y-952500D01*
X892600Y-952500D01*
X890200Y-951500D01*
X889000Y-949500D01*
G54D10*
X912600Y-952500D02*
X903000Y-952500D01*
X903000Y-951500D01*
X904200Y-949500D01*
X911400Y-943500D01*
X912600Y-941500D01*
X912600Y-939500D01*
X911400Y-937500D01*
X909000Y-936500D01*
X906600Y-936500D01*
X904200Y-937500D01*
X903000Y-939500D01*
G54D10*
X889000Y-964900D02*
X890200Y-962900D01*
X892600Y-961900D01*
X895000Y-961900D01*
X897400Y-962900D01*
X898600Y-964900D01*
X898600Y-966900D01*
X897400Y-968900D01*
X895000Y-969900D01*
X897400Y-970900D01*
X898600Y-972900D01*
X898600Y-974900D01*
X897400Y-976900D01*
X895000Y-977900D01*
X892600Y-977900D01*
X890200Y-976900D01*
X889000Y-974900D01*
G54D10*
X903000Y-964900D02*
X904200Y-962900D01*
X906600Y-961900D01*
X909000Y-961900D01*
X911400Y-962900D01*
X912600Y-964900D01*
X912600Y-966900D01*
X911400Y-968900D01*
X909000Y-969900D01*
X911400Y-970900D01*
X912600Y-972900D01*
X912600Y-974900D01*
X911400Y-976900D01*
X909000Y-977900D01*
X906600Y-977900D01*
X904200Y-976900D01*
X903000Y-974900D01*
G54D10*
X889000Y-990300D02*
X890200Y-988300D01*
X892600Y-987300D01*
X895000Y-987300D01*
X897400Y-988300D01*
X898600Y-990300D01*
X898600Y-992300D01*
X897400Y-994300D01*
X895000Y-995300D01*
X897400Y-996300D01*
X898600Y-998300D01*
X898600Y-1000300D01*
X897400Y-1002300D01*
X895000Y-1003300D01*
X892600Y-1003300D01*
X890200Y-1002300D01*
X889000Y-1000300D01*
G54D10*
X910200Y-1003300D02*
X910200Y-987300D01*
X903000Y-997300D01*
X903000Y-999300D01*
X912600Y-999300D01*
G54D10*
X889000Y-1015700D02*
X890200Y-1013700D01*
X892600Y-1012700D01*
X895000Y-1012700D01*
X897400Y-1013700D01*
X898600Y-1015700D01*
X898600Y-1017700D01*
X897400Y-1019700D01*
X895000Y-1020700D01*
X897400Y-1021700D01*
X898600Y-1023700D01*
X898600Y-1025700D01*
X897400Y-1027700D01*
X895000Y-1028700D01*
X892600Y-1028700D01*
X890200Y-1027700D01*
X889000Y-1025700D01*
G54D10*
X912600Y-1012700D02*
X903000Y-1012700D01*
X903000Y-1019700D01*
X904200Y-1019700D01*
X906600Y-1018700D01*
X909000Y-1018700D01*
X911400Y-1019700D01*
X912600Y-1021700D01*
X912600Y-1025700D01*
X911400Y-1027700D01*
X909000Y-1028700D01*
X906600Y-1028700D01*
X904200Y-1027700D01*
X903000Y-1025700D01*
G54D10*
X889000Y-1041100D02*
X890200Y-1039100D01*
X892600Y-1038100D01*
X895000Y-1038100D01*
X897400Y-1039100D01*
X898600Y-1041100D01*
X898600Y-1043100D01*
X897400Y-1045100D01*
X895000Y-1046100D01*
X897400Y-1047100D01*
X898600Y-1049100D01*
X898600Y-1051100D01*
X897400Y-1053100D01*
X895000Y-1054100D01*
X892600Y-1054100D01*
X890200Y-1053100D01*
X889000Y-1051100D01*
G54D10*
X912600Y-1041100D02*
X911400Y-1039100D01*
X909000Y-1038100D01*
X906600Y-1038100D01*
X904200Y-1039100D01*
X903000Y-1041100D01*
X903000Y-1046100D01*
X903000Y-1047100D01*
X906600Y-1045100D01*
X909000Y-1045100D01*
X911400Y-1046100D01*
X912600Y-1048100D01*
X912600Y-1051100D01*
X911400Y-1053100D01*
X909000Y-1054100D01*
X906600Y-1054100D01*
X904200Y-1053100D01*
X903000Y-1051100D01*
X903000Y-1046100D01*
G54D10*
X889000Y-1066500D02*
X890200Y-1064500D01*
X892600Y-1063500D01*
X895000Y-1063500D01*
X897400Y-1064500D01*
X898600Y-1066500D01*
X898600Y-1068500D01*
X897400Y-1070500D01*
X895000Y-1071500D01*
X897400Y-1072500D01*
X898600Y-1074500D01*
X898600Y-1076500D01*
X897400Y-1078500D01*
X895000Y-1079500D01*
X892600Y-1079500D01*
X890200Y-1078500D01*
X889000Y-1076500D01*
G54D10*
X903000Y-1063500D02*
X912600Y-1063500D01*
X911400Y-1065500D01*
X909000Y-1068500D01*
X906600Y-1072500D01*
X905400Y-1075500D01*
X905400Y-1079500D01*
G54D10*
X889000Y-1091900D02*
X890200Y-1089900D01*
X892600Y-1088900D01*
X895000Y-1088900D01*
X897400Y-1089900D01*
X898600Y-1091900D01*
X898600Y-1093900D01*
X897400Y-1095900D01*
X895000Y-1096900D01*
X897400Y-1097900D01*
X898600Y-1099900D01*
X898600Y-1101900D01*
X897400Y-1103900D01*
X895000Y-1104900D01*
X892600Y-1104900D01*
X890200Y-1103900D01*
X889000Y-1101900D01*
G54D10*
X909000Y-1096900D02*
X906600Y-1096900D01*
X904200Y-1095900D01*
X903000Y-1093900D01*
X903000Y-1091900D01*
X904200Y-1089900D01*
X906600Y-1088900D01*
X909000Y-1088900D01*
X911400Y-1089900D01*
X912600Y-1091900D01*
X912600Y-1093900D01*
X911400Y-1095900D01*
X909000Y-1096900D01*
X911400Y-1097900D01*
X912600Y-1099900D01*
X912600Y-1101900D01*
X911400Y-1103900D01*
X909000Y-1104900D01*
X906600Y-1104900D01*
X904200Y-1103900D01*
X903000Y-1101900D01*
X903000Y-1099900D01*
X904200Y-1097900D01*
X906600Y-1096900D01*
G54D10*
X889000Y-1117300D02*
X890200Y-1115300D01*
X892600Y-1114300D01*
X895000Y-1114300D01*
X897400Y-1115300D01*
X898600Y-1117300D01*
X898600Y-1119300D01*
X897400Y-1121300D01*
X895000Y-1122300D01*
X897400Y-1123300D01*
X898600Y-1125300D01*
X898600Y-1127300D01*
X897400Y-1129300D01*
X895000Y-1130300D01*
X892600Y-1130300D01*
X890200Y-1129300D01*
X889000Y-1127300D01*
G54D10*
X903000Y-1127300D02*
X904200Y-1129300D01*
X906600Y-1130300D01*
X909000Y-1130300D01*
X911400Y-1129300D01*
X912600Y-1127300D01*
X912600Y-1122300D01*
X912600Y-1121300D01*
X909000Y-1123300D01*
X906600Y-1123300D01*
X904200Y-1122300D01*
X903000Y-1120300D01*
X903000Y-1117300D01*
X904200Y-1115300D01*
X906600Y-1114300D01*
X909000Y-1114300D01*
X911400Y-1115300D01*
X912600Y-1117300D01*
X912600Y-1122300D01*
G54D10*
X896200Y-1155700D02*
X896200Y-1139700D01*
X889000Y-1149700D01*
X889000Y-1151700D01*
X898600Y-1151700D01*
G54D10*
X912600Y-1142700D02*
X912600Y-1152700D01*
X911400Y-1154700D01*
X909000Y-1155700D01*
X906600Y-1155700D01*
X904200Y-1154700D01*
X903000Y-1152700D01*
X903000Y-1142700D01*
X904200Y-1140700D01*
X906600Y-1139700D01*
X909000Y-1139700D01*
X911400Y-1140700D01*
X912600Y-1142700D01*
G54D10*
X896200Y-1181100D02*
X896200Y-1165100D01*
X889000Y-1175100D01*
X889000Y-1177100D01*
X898600Y-1177100D01*
G54D10*
X903000Y-1171100D02*
X909000Y-1165100D01*
X909000Y-1181100D01*
G54D10*
X896200Y-1206500D02*
X896200Y-1190500D01*
X889000Y-1200500D01*
X889000Y-1202500D01*
X898600Y-1202500D01*
G54D10*
X912600Y-1206500D02*
X903000Y-1206500D01*
X903000Y-1205500D01*
X904200Y-1203500D01*
X911400Y-1197500D01*
X912600Y-1195500D01*
X912600Y-1193500D01*
X911400Y-1191500D01*
X909000Y-1190500D01*
X906600Y-1190500D01*
X904200Y-1191500D01*
X903000Y-1193500D01*
G54D10*
X896200Y-1231900D02*
X896200Y-1215900D01*
X889000Y-1225900D01*
X889000Y-1227900D01*
X898600Y-1227900D01*
G54D10*
X903000Y-1218900D02*
X904200Y-1216900D01*
X906600Y-1215900D01*
X909000Y-1215900D01*
X911400Y-1216900D01*
X912600Y-1218900D01*
X912600Y-1220900D01*
X911400Y-1222900D01*
X909000Y-1223900D01*
X911400Y-1224900D01*
X912600Y-1226900D01*
X912600Y-1228900D01*
X911400Y-1230900D01*
X909000Y-1231900D01*
X906600Y-1231900D01*
X904200Y-1230900D01*
X903000Y-1228900D01*
G54D10*
X896200Y-1257300D02*
X896200Y-1241300D01*
X889000Y-1251300D01*
X889000Y-1253300D01*
X898600Y-1253300D01*
G54D10*
X910200Y-1257300D02*
X910200Y-1241300D01*
X903000Y-1251300D01*
X903000Y-1253300D01*
X912600Y-1253300D01*
G54D10*
X896200Y-1282700D02*
X896200Y-1266700D01*
X889000Y-1276700D01*
X889000Y-1278700D01*
X898600Y-1278700D01*
G54D10*
X912600Y-1266700D02*
X903000Y-1266700D01*
X903000Y-1273700D01*
X904200Y-1273700D01*
X906600Y-1272700D01*
X909000Y-1272700D01*
X911400Y-1273700D01*
X912600Y-1275700D01*
X912600Y-1279700D01*
X911400Y-1281700D01*
X909000Y-1282700D01*
X906600Y-1282700D01*
X904200Y-1281700D01*
X903000Y-1279700D01*
G54D10*
X896200Y-1308100D02*
X896200Y-1292100D01*
X889000Y-1302100D01*
X889000Y-1304100D01*
X898600Y-1304100D01*
G54D10*
X912600Y-1295100D02*
X911400Y-1293100D01*
X909000Y-1292100D01*
X906600Y-1292100D01*
X904200Y-1293100D01*
X903000Y-1295100D01*
X903000Y-1300100D01*
X903000Y-1301100D01*
X906600Y-1299100D01*
X909000Y-1299100D01*
X911400Y-1300100D01*
X912600Y-1302100D01*
X912600Y-1305100D01*
X911400Y-1307100D01*
X909000Y-1308100D01*
X906600Y-1308100D01*
X904200Y-1307100D01*
X903000Y-1305100D01*
X903000Y-1300100D01*
G54D10*
X896200Y-1333500D02*
X896200Y-1317500D01*
X889000Y-1327500D01*
X889000Y-1329500D01*
X898600Y-1329500D01*
G54D10*
X903000Y-1317500D02*
X912600Y-1317500D01*
X911400Y-1319500D01*
X909000Y-1322500D01*
X906600Y-1326500D01*
X905400Y-1329500D01*
X905400Y-1333500D01*
G54D10*
X896200Y-1358900D02*
X896200Y-1342900D01*
X889000Y-1352900D01*
X889000Y-1354900D01*
X898600Y-1354900D01*
G54D10*
X909000Y-1350900D02*
X906600Y-1350900D01*
X904200Y-1349900D01*
X903000Y-1347900D01*
X903000Y-1345900D01*
X904200Y-1343900D01*
X906600Y-1342900D01*
X909000Y-1342900D01*
X911400Y-1343900D01*
X912600Y-1345900D01*
X912600Y-1347900D01*
X911400Y-1349900D01*
X909000Y-1350900D01*
X911400Y-1351900D01*
X912600Y-1353900D01*
X912600Y-1355900D01*
X911400Y-1357900D01*
X909000Y-1358900D01*
X906600Y-1358900D01*
X904200Y-1357900D01*
X903000Y-1355900D01*
X903000Y-1353900D01*
X904200Y-1351900D01*
X906600Y-1350900D01*
G54D10*
X896200Y-1384300D02*
X896200Y-1368300D01*
X889000Y-1378300D01*
X889000Y-1380300D01*
X898600Y-1380300D01*
G54D10*
X903000Y-1381300D02*
X904200Y-1383300D01*
X906600Y-1384300D01*
X909000Y-1384300D01*
X911400Y-1383300D01*
X912600Y-1381300D01*
X912600Y-1376300D01*
X912600Y-1375300D01*
X909000Y-1377300D01*
X906600Y-1377300D01*
X904200Y-1376300D01*
X903000Y-1374300D01*
X903000Y-1371300D01*
X904200Y-1369300D01*
X906600Y-1368300D01*
X909000Y-1368300D01*
X911400Y-1369300D01*
X912600Y-1371300D01*
X912600Y-1376300D01*
G54D10*
X898600Y-1393700D02*
X889000Y-1393700D01*
X889000Y-1400700D01*
X890200Y-1400700D01*
X892600Y-1399700D01*
X895000Y-1399700D01*
X897400Y-1400700D01*
X898600Y-1402700D01*
X898600Y-1406700D01*
X897400Y-1408700D01*
X895000Y-1409700D01*
X892600Y-1409700D01*
X890200Y-1408700D01*
X889000Y-1406700D01*
G54D10*
X912600Y-1396700D02*
X912600Y-1406700D01*
X911400Y-1408700D01*
X909000Y-1409700D01*
X906600Y-1409700D01*
X904200Y-1408700D01*
X903000Y-1406700D01*
X903000Y-1396700D01*
X904200Y-1394700D01*
X906600Y-1393700D01*
X909000Y-1393700D01*
X911400Y-1394700D01*
X912600Y-1396700D01*
G54D10*
X898600Y-1419100D02*
X889000Y-1419100D01*
X889000Y-1426100D01*
X890200Y-1426100D01*
X892600Y-1425100D01*
X895000Y-1425100D01*
X897400Y-1426100D01*
X898600Y-1428100D01*
X898600Y-1432100D01*
X897400Y-1434100D01*
X895000Y-1435100D01*
X892600Y-1435100D01*
X890200Y-1434100D01*
X889000Y-1432100D01*
G54D10*
X903000Y-1425100D02*
X909000Y-1419100D01*
X909000Y-1435100D01*
G54D10*
X898600Y-1444500D02*
X889000Y-1444500D01*
X889000Y-1451500D01*
X890200Y-1451500D01*
X892600Y-1450500D01*
X895000Y-1450500D01*
X897400Y-1451500D01*
X898600Y-1453500D01*
X898600Y-1457500D01*
X897400Y-1459500D01*
X895000Y-1460500D01*
X892600Y-1460500D01*
X890200Y-1459500D01*
X889000Y-1457500D01*
G54D10*
X912600Y-1460500D02*
X903000Y-1460500D01*
X903000Y-1459500D01*
X904200Y-1457500D01*
X911400Y-1451500D01*
X912600Y-1449500D01*
X912600Y-1447500D01*
X911400Y-1445500D01*
X909000Y-1444500D01*
X906600Y-1444500D01*
X904200Y-1445500D01*
X903000Y-1447500D01*
G54D10*
X898600Y-1469900D02*
X889000Y-1469900D01*
X889000Y-1476900D01*
X890200Y-1476900D01*
X892600Y-1475900D01*
X895000Y-1475900D01*
X897400Y-1476900D01*
X898600Y-1478900D01*
X898600Y-1482900D01*
X897400Y-1484900D01*
X895000Y-1485900D01*
X892600Y-1485900D01*
X890200Y-1484900D01*
X889000Y-1482900D01*
G54D10*
X903000Y-1472900D02*
X904200Y-1470900D01*
X906600Y-1469900D01*
X909000Y-1469900D01*
X911400Y-1470900D01*
X912600Y-1472900D01*
X912600Y-1474900D01*
X911400Y-1476900D01*
X909000Y-1477900D01*
X911400Y-1478900D01*
X912600Y-1480900D01*
X912600Y-1482900D01*
X911400Y-1484900D01*
X909000Y-1485900D01*
X906600Y-1485900D01*
X904200Y-1484900D01*
X903000Y-1482900D01*
G54D10*
X898600Y-1495300D02*
X889000Y-1495300D01*
X889000Y-1502300D01*
X890200Y-1502300D01*
X892600Y-1501300D01*
X895000Y-1501300D01*
X897400Y-1502300D01*
X898600Y-1504300D01*
X898600Y-1508300D01*
X897400Y-1510300D01*
X895000Y-1511300D01*
X892600Y-1511300D01*
X890200Y-1510300D01*
X889000Y-1508300D01*
G54D10*
X910200Y-1511300D02*
X910200Y-1495300D01*
X903000Y-1505300D01*
X903000Y-1507300D01*
X912600Y-1507300D01*
G54D10*
X177800Y-901700D02*
X177800Y-885700D01*
X183800Y-885700D01*
X186200Y-886700D01*
X187400Y-888700D01*
X187400Y-890700D01*
X186200Y-892700D01*
X183800Y-893700D01*
X177800Y-893700D01*
G54D10*
X191800Y-901700D02*
X191800Y-885700D01*
G54D10*
X191800Y-895300D02*
X193000Y-893300D01*
X195400Y-892700D01*
X197800Y-893300D01*
X199000Y-895300D01*
X199000Y-901700D01*
G54D10*
X203400Y-901700D02*
X203400Y-892700D01*
G54D10*
X203400Y-889700D02*
X203400Y-889700D01*
G54D10*
X711200Y-901700D02*
X711200Y-885700D01*
X717200Y-885700D01*
X719600Y-886700D01*
X720800Y-888700D01*
X720800Y-890700D01*
X719600Y-892700D01*
X717200Y-893700D01*
X711200Y-893700D01*
G54D10*
X725200Y-901700D02*
X725200Y-885700D01*
G54D10*
X725200Y-895300D02*
X726400Y-893300D01*
X728800Y-892700D01*
X731200Y-893300D01*
X732400Y-895300D01*
X732400Y-901700D01*
G54D10*
X736800Y-901700D02*
X736800Y-892700D01*
G54D10*
X736800Y-889700D02*
X736800Y-889700D01*
G54D11*
X504555Y-618324D02*
X524111Y-618324D01*
X524111Y-625658D01*
X522889Y-628590D01*
X520444Y-630058D01*
X518000Y-630058D01*
X515555Y-628590D01*
X514333Y-625658D01*
X513111Y-628590D01*
X510666Y-630058D01*
X508222Y-630058D01*
X505778Y-628590D01*
X504555Y-625658D01*
X504555Y-618324D01*
G54D11*
X514333Y-618324D02*
X514333Y-625658D01*
G54D11*
X524111Y-635435D02*
X508222Y-635435D01*
X505778Y-636902D01*
X504555Y-639835D01*
X504555Y-642768D01*
X505778Y-645702D01*
X508222Y-647168D01*
X524111Y-647168D01*
G54D11*
X508222Y-652546D02*
X505778Y-654013D01*
X504555Y-656946D01*
X504555Y-659879D01*
X505778Y-662813D01*
X508222Y-664279D01*
X510666Y-664279D01*
X513111Y-662813D01*
X514333Y-659879D01*
X514333Y-656946D01*
X515555Y-654013D01*
X518000Y-652546D01*
X520444Y-652546D01*
X522889Y-654013D01*
X524111Y-656946D01*
X524111Y-659879D01*
X522889Y-662813D01*
X520444Y-664279D01*
G54D11*
X504555Y-681390D02*
X504555Y-669657D01*
X505778Y-669657D01*
X508222Y-671124D01*
X515555Y-679924D01*
X518000Y-681390D01*
X520444Y-681390D01*
X522889Y-679924D01*
X524111Y-676990D01*
X524111Y-674057D01*
X522889Y-671124D01*
X520444Y-669657D01*
G54D11*
X513111Y-692439D02*
X513111Y-704172D01*
G54D11*
X520444Y-726954D02*
X508222Y-726954D01*
X505778Y-725488D01*
X504555Y-722554D01*
X504555Y-719621D01*
X505778Y-716688D01*
X508222Y-715221D01*
X520444Y-715221D01*
X522889Y-716688D01*
X524111Y-719621D01*
X524111Y-722554D01*
X522889Y-725488D01*
X520444Y-726954D01*
G54D11*
X504555Y-732332D02*
X515555Y-732332D01*
G54D11*
X513111Y-732332D02*
X515555Y-735265D01*
X515555Y-738199D01*
G54D11*
X504555Y-743577D02*
X515555Y-743577D01*
G54D11*
X519222Y-743577D02*
X519222Y-743577D01*
G54D11*
X500889Y-748955D02*
X499666Y-751888D01*
X499666Y-753942D01*
X500889Y-756875D01*
X503333Y-757755D01*
X515555Y-757755D01*
G54D11*
X512378Y-757755D02*
X514822Y-756288D01*
X515555Y-753355D01*
X514822Y-750422D01*
X512378Y-748955D01*
X507489Y-748955D01*
X505044Y-750422D01*
X504555Y-753355D01*
X505044Y-756288D01*
X507489Y-757755D01*
G54D11*
X504555Y-763133D02*
X515555Y-763133D01*
G54D11*
X519222Y-763133D02*
X519222Y-763133D01*
G54D11*
X504555Y-768511D02*
X515555Y-768511D01*
G54D11*
X513111Y-768511D02*
X514822Y-769978D01*
X515555Y-772911D01*
X514822Y-775844D01*
X513111Y-777311D01*
X504555Y-777311D01*
G54D11*
X514333Y-782689D02*
X515555Y-785622D01*
X515555Y-789142D01*
X513111Y-791489D01*
X504555Y-791489D01*
G54D11*
X508222Y-791489D02*
X510666Y-790022D01*
X511155Y-787089D01*
X510666Y-784156D01*
X508222Y-782689D01*
X505778Y-783276D01*
X504555Y-785622D01*
X504555Y-787089D01*
X504555Y-787676D01*
X505778Y-790022D01*
X508222Y-791489D01*
G54D11*
X504555Y-796867D02*
X524111Y-796867D01*
G54D11*
X514333Y-813783D02*
X511889Y-818183D01*
X509444Y-819649D01*
X504555Y-819649D01*
G54D11*
X504555Y-807916D02*
X524111Y-807916D01*
X524111Y-815249D01*
X522889Y-818183D01*
X520444Y-819649D01*
X518000Y-819649D01*
X515555Y-818183D01*
X514333Y-815249D01*
X514333Y-807916D01*
G54D11*
X504555Y-825027D02*
X524111Y-825027D01*
X524111Y-832360D01*
X522889Y-835294D01*
X520444Y-836760D01*
X508222Y-836760D01*
X505778Y-835294D01*
X504555Y-832360D01*
X504555Y-825027D01*
G54D11*
X504555Y-842138D02*
X524111Y-842138D01*
G54D11*
X510666Y-842138D02*
X524111Y-853871D01*
G54D11*
X514333Y-846538D02*
X504555Y-853871D01*
G54D11*
X513111Y-864920D02*
X513111Y-876653D01*
G54D11*
X504555Y-887702D02*
X524111Y-887702D01*
X504555Y-899435D01*
X524111Y-899435D01*
G54D11*
X505778Y-913613D02*
X504555Y-911266D01*
X504555Y-908333D01*
X505778Y-905400D01*
X508222Y-904813D01*
X512378Y-904813D01*
X514822Y-906280D01*
X515555Y-909213D01*
X514822Y-912146D01*
X513111Y-913613D01*
X510666Y-913613D01*
X510666Y-904813D01*
G54D11*
X515555Y-927791D02*
X504555Y-927791D01*
G54D11*
X507000Y-927791D02*
X505044Y-926324D01*
X504555Y-923391D01*
X505044Y-920458D01*
X507000Y-918991D01*
X515555Y-918991D01*
G54D11*
X514333Y-933169D02*
X515555Y-936102D01*
X515555Y-939622D01*
X513111Y-941969D01*
X504555Y-941969D01*
G54D11*
X508222Y-941969D02*
X510666Y-940502D01*
X511155Y-937569D01*
X510666Y-934636D01*
X508222Y-933169D01*
X505778Y-933756D01*
X504555Y-936102D01*
X504555Y-937569D01*
X504555Y-938156D01*
X505778Y-940502D01*
X508222Y-941969D01*
G54D11*
X515555Y-956147D02*
X504555Y-956147D01*
G54D11*
X507000Y-956147D02*
X505044Y-954680D01*
X504555Y-951747D01*
X505044Y-948814D01*
X507000Y-947347D01*
X515555Y-947347D01*
G54D11*
X504555Y-964458D02*
X522889Y-964458D01*
X524111Y-965925D01*
X523378Y-967392D01*
G54D11*
X515555Y-961525D02*
X515555Y-967392D01*
G54D11*
X504555Y-972770D02*
X524111Y-972770D01*
G54D11*
X514333Y-978148D02*
X515555Y-981081D01*
X515555Y-984601D01*
X513111Y-986948D01*
X504555Y-986948D01*
G54D11*
X508222Y-986948D02*
X510666Y-985481D01*
X511155Y-982548D01*
X510666Y-979615D01*
X508222Y-978148D01*
X505778Y-978735D01*
X504555Y-981081D01*
X504555Y-982548D01*
X504555Y-983135D01*
X505778Y-985481D01*
X508222Y-986948D01*
G54D11*
X500889Y-992326D02*
X499666Y-995259D01*
X499666Y-997313D01*
X500889Y-1000246D01*
X503333Y-1001126D01*
X515555Y-1001126D01*
G54D11*
X512378Y-1001126D02*
X514822Y-999659D01*
X515555Y-996726D01*
X514822Y-993793D01*
X512378Y-992326D01*
X507489Y-992326D01*
X505044Y-993793D01*
X504555Y-996726D01*
X505044Y-999659D01*
X507489Y-1001126D01*
G54D11*
X505778Y-1015304D02*
X504555Y-1012957D01*
X504555Y-1010024D01*
X505778Y-1007091D01*
X508222Y-1006504D01*
X512378Y-1006504D01*
X514822Y-1007971D01*
X515555Y-1010904D01*
X514822Y-1013837D01*
X513111Y-1015304D01*
X510666Y-1015304D01*
X510666Y-1006504D01*
G54D11*
X504555Y-1038086D02*
X504555Y-1026353D01*
X505778Y-1026353D01*
X508222Y-1027820D01*
X515555Y-1036620D01*
X518000Y-1038086D01*
X520444Y-1038086D01*
X522889Y-1036620D01*
X524111Y-1033686D01*
X524111Y-1030753D01*
X522889Y-1027820D01*
X520444Y-1026353D01*
G54D11*
X520444Y-1055197D02*
X522889Y-1053731D01*
X524111Y-1050797D01*
X524111Y-1047864D01*
X522889Y-1044931D01*
X520444Y-1043464D01*
X514333Y-1043464D01*
X513111Y-1043464D01*
X515555Y-1047864D01*
X515555Y-1050797D01*
X514333Y-1053731D01*
X511889Y-1055197D01*
X508222Y-1055197D01*
X505778Y-1053731D01*
X504555Y-1050797D01*
X504555Y-1047864D01*
X505778Y-1044931D01*
X508222Y-1043464D01*
X514333Y-1043464D01*
G54D11*
X504555Y-1060575D02*
X504555Y-1060575D01*
G54D11*
X504555Y-1074753D02*
X524111Y-1074753D01*
X511889Y-1065953D01*
X509444Y-1065953D01*
X509444Y-1077686D01*
G54D11*
X504555Y-1083064D02*
X504555Y-1083064D01*
G54D11*
X504555Y-1100175D02*
X504555Y-1088442D01*
X505778Y-1088442D01*
X508222Y-1089909D01*
X515555Y-1098709D01*
X518000Y-1100175D01*
X520444Y-1100175D01*
X522889Y-1098709D01*
X524111Y-1095775D01*
X524111Y-1092842D01*
X522889Y-1089909D01*
X520444Y-1088442D01*
G54D11*
X520444Y-1117286D02*
X508222Y-1117286D01*
X505778Y-1115820D01*
X504555Y-1112886D01*
X504555Y-1109953D01*
X505778Y-1107020D01*
X508222Y-1105553D01*
X520444Y-1105553D01*
X522889Y-1107020D01*
X524111Y-1109953D01*
X524111Y-1112886D01*
X522889Y-1115820D01*
X520444Y-1117286D01*
G54D11*
X516778Y-1122664D02*
X524111Y-1129997D01*
X504555Y-1129997D01*
G54D11*
X524111Y-1135375D02*
X524111Y-1147108D01*
X521666Y-1145642D01*
X518000Y-1142708D01*
X513111Y-1139775D01*
X509444Y-1138308D01*
X504555Y-1138308D01*
G54D11*
X515555Y-1158157D02*
X504555Y-1164024D01*
X515555Y-1169890D01*
G54D11*
X516778Y-1175268D02*
X524111Y-1182602D01*
X504555Y-1182602D01*
G54D11*
X504555Y-1187979D02*
X504555Y-1187979D01*
G54D11*
X504555Y-1205090D02*
X504555Y-1193357D01*
X505778Y-1193357D01*
X508222Y-1194824D01*
X515555Y-1203624D01*
X518000Y-1205090D01*
X520444Y-1205090D01*
X522889Y-1203624D01*
X524111Y-1200690D01*
X524111Y-1197757D01*
X522889Y-1194824D01*
X520444Y-1193357D01*
G54D11*
X514333Y-1222006D02*
X511889Y-1226406D01*
X509444Y-1227872D01*
X504555Y-1227872D01*
G54D11*
X504555Y-1216139D02*
X524111Y-1216139D01*
X524111Y-1223472D01*
X522889Y-1226406D01*
X520444Y-1227872D01*
X518000Y-1227872D01*
X515555Y-1226406D01*
X514333Y-1223472D01*
X514333Y-1216139D01*
G54D11*
X524111Y-1233250D02*
X504555Y-1240584D01*
X524111Y-1247916D01*
G54D12*
X508082Y-317657D02*
X527638Y-317657D01*
X508082Y-329390D01*
X527638Y-329390D01*
G54D12*
X508082Y-336234D02*
X527638Y-336234D01*
X527638Y-343567D01*
X526415Y-346501D01*
X523971Y-347967D01*
X511749Y-347967D01*
X509304Y-346501D01*
X508082Y-343567D01*
X508082Y-336234D01*
G54D12*
X517860Y-360678D02*
X515415Y-365078D01*
X512971Y-366544D01*
X508082Y-366544D01*
G54D12*
X508082Y-354811D02*
X527638Y-354811D01*
X527638Y-362144D01*
X526415Y-365078D01*
X523971Y-366544D01*
X521526Y-366544D01*
X519082Y-365078D01*
X517860Y-362144D01*
X517860Y-354811D01*
G54D12*
X508082Y-380525D02*
X527638Y-380525D01*
G54D12*
X514193Y-380525D02*
X527638Y-392258D01*
G54D12*
X517860Y-384925D02*
X508082Y-392258D01*
G54D12*
X508082Y-399102D02*
X527638Y-399102D01*
G54D12*
X509304Y-414746D02*
X508082Y-412399D01*
X508082Y-409466D01*
X509304Y-406533D01*
X511749Y-405946D01*
X515904Y-405946D01*
X518349Y-407413D01*
X519082Y-410346D01*
X518349Y-413279D01*
X516638Y-414746D01*
X514193Y-414746D01*
X514193Y-405946D01*
G54D12*
X508082Y-421590D02*
X519082Y-421590D01*
G54D12*
X522749Y-421590D02*
X522749Y-421590D01*
G54D12*
X508082Y-428434D02*
X519082Y-428434D01*
G54D12*
X516638Y-428434D02*
X518349Y-429901D01*
X519082Y-432834D01*
X518349Y-435767D01*
X516638Y-437234D01*
X508082Y-437234D01*
G54D12*
X511749Y-462948D02*
X509304Y-461482D01*
X508082Y-458548D01*
X508082Y-455615D01*
X509304Y-452682D01*
X511749Y-451215D01*
X523971Y-451215D01*
X526415Y-452682D01*
X527638Y-455615D01*
X527638Y-458548D01*
X526415Y-461482D01*
X523971Y-462948D01*
G54D12*
X511015Y-478592D02*
X515904Y-478592D01*
X518349Y-477125D01*
X519082Y-474192D01*
X518349Y-471259D01*
X515904Y-469792D01*
X511015Y-469792D01*
X508571Y-471259D01*
X508082Y-474192D01*
X508571Y-477125D01*
X511015Y-478592D01*
G54D12*
X508082Y-485436D02*
X519082Y-485436D01*
G54D12*
X517126Y-485436D02*
X519082Y-488369D01*
X518349Y-491303D01*
X516638Y-492769D01*
X508082Y-492769D01*
G54D12*
X517126Y-492769D02*
X519082Y-495703D01*
X518349Y-498636D01*
X516638Y-500103D01*
X508082Y-500103D01*
G54D12*
X519082Y-506947D02*
X503193Y-506947D01*
G54D12*
X511749Y-506947D02*
X508571Y-508414D01*
X508082Y-511347D01*
X508571Y-514280D01*
X511015Y-515747D01*
X515904Y-515747D01*
X518349Y-514280D01*
X519082Y-511347D01*
X518349Y-508414D01*
X515415Y-506947D01*
G54D12*
X519082Y-531391D02*
X508082Y-531391D01*
G54D12*
X510526Y-531391D02*
X508571Y-529924D01*
X508082Y-526991D01*
X508571Y-524058D01*
X510526Y-522591D01*
X519082Y-522591D01*
G54D12*
X527638Y-541168D02*
X509304Y-541168D01*
X508082Y-542635D01*
X508571Y-544102D01*
G54D12*
X519082Y-538235D02*
X519082Y-544102D01*
G54D12*
X509304Y-559746D02*
X508082Y-557399D01*
X508082Y-554466D01*
X509304Y-551533D01*
X511749Y-550946D01*
X515904Y-550946D01*
X518349Y-552413D01*
X519082Y-555346D01*
X518349Y-558279D01*
X516638Y-559746D01*
X514193Y-559746D01*
X514193Y-550946D01*
G54D12*
X508082Y-566590D02*
X519082Y-566590D01*
G54D12*
X516638Y-566590D02*
X519082Y-569523D01*
X519082Y-572457D01*
M02*
