%FSLAX34Y34*%
%MOMM*%
%LNCOPPER_BOTTOM*%
G71*
G01*
%ADD10C, 2.200*%
%ADD11C, 1.900*%
%ADD12C, 0.800*%
%ADD13R, 1.200X1.200*%
%ADD14C, 1.200*%
%ADD15C, 0.178*%
%LPD*%
X184944Y-75803D02*
G54D10*
D03*
X210344Y-75803D02*
G54D10*
D03*
X235744Y-75803D02*
G54D10*
D03*
X261144Y-75803D02*
G54D10*
D03*
X286544Y-75803D02*
G54D10*
D03*
X311944Y-75803D02*
G54D10*
D03*
X337344Y-75803D02*
G54D10*
D03*
X362744Y-75803D02*
G54D10*
D03*
X388144Y-75803D02*
G54D10*
D03*
X413544Y-75803D02*
G54D10*
D03*
X438944Y-75803D02*
G54D10*
D03*
X464344Y-75803D02*
G54D10*
D03*
X489744Y-75803D02*
G54D10*
D03*
X515144Y-75803D02*
G54D10*
D03*
X540544Y-75803D02*
G54D10*
D03*
X565944Y-75803D02*
G54D10*
D03*
X591344Y-75803D02*
G54D10*
D03*
X616744Y-75803D02*
G54D10*
D03*
X642144Y-75803D02*
G54D10*
D03*
X667544Y-75803D02*
G54D10*
D03*
X692944Y-75803D02*
G54D10*
D03*
X718344Y-75803D02*
G54D10*
D03*
X743744Y-75803D02*
G54D10*
D03*
X769144Y-75803D02*
G54D10*
D03*
X794544Y-75803D02*
G54D10*
D03*
X819944Y-75803D02*
G54D10*
D03*
X57944Y-158353D02*
G54D11*
D03*
X57944Y-183753D02*
G54D11*
D03*
X57944Y-209153D02*
G54D11*
D03*
X57944Y-234553D02*
G54D11*
D03*
X57944Y-259953D02*
G54D11*
D03*
X57944Y-285353D02*
G54D11*
D03*
X57944Y-310753D02*
G54D11*
D03*
X57944Y-336153D02*
G54D11*
D03*
X57944Y-361553D02*
G54D11*
D03*
X57944Y-386953D02*
G54D11*
D03*
X57944Y-412353D02*
G54D11*
D03*
X57944Y-437753D02*
G54D11*
D03*
X57944Y-463153D02*
G54D11*
D03*
X57944Y-488553D02*
G54D11*
D03*
X57944Y-513953D02*
G54D11*
D03*
X57944Y-539353D02*
G54D11*
D03*
X57944Y-564753D02*
G54D11*
D03*
X57944Y-590153D02*
G54D11*
D03*
X57944Y-640953D02*
G54D11*
D03*
X57944Y-615553D02*
G54D11*
D03*
X57944Y-666353D02*
G54D11*
D03*
X57944Y-691753D02*
G54D11*
D03*
X57944Y-717153D02*
G54D11*
D03*
X57944Y-742553D02*
G54D11*
D03*
X57944Y-767953D02*
G54D11*
D03*
X57944Y-793353D02*
G54D11*
D03*
X57944Y-818753D02*
G54D11*
D03*
X57944Y-844153D02*
G54D11*
D03*
X57944Y-869553D02*
G54D11*
D03*
X57944Y-894953D02*
G54D11*
D03*
X57944Y-920353D02*
G54D11*
D03*
X57944Y-945753D02*
G54D11*
D03*
X57944Y-971153D02*
G54D11*
D03*
X57944Y-996553D02*
G54D11*
D03*
X57944Y-1021953D02*
G54D11*
D03*
X57944Y-1047353D02*
G54D11*
D03*
X57944Y-1072753D02*
G54D11*
D03*
X57944Y-1098153D02*
G54D11*
D03*
X57944Y-1123553D02*
G54D11*
D03*
X57944Y-1148953D02*
G54D11*
D03*
X57944Y-1174353D02*
G54D11*
D03*
X57944Y-1225153D02*
G54D11*
D03*
X57944Y-1199753D02*
G54D11*
D03*
X57944Y-1250553D02*
G54D11*
D03*
X57944Y-1275953D02*
G54D11*
D03*
X57944Y-1301353D02*
G54D11*
D03*
X57944Y-1326753D02*
G54D11*
D03*
X57944Y-1352153D02*
G54D11*
D03*
X57944Y-1377553D02*
G54D11*
D03*
X57944Y-1402953D02*
G54D11*
D03*
X57944Y-1428353D02*
G54D11*
D03*
X57944Y-1453753D02*
G54D11*
D03*
X57944Y-1479153D02*
G54D11*
D03*
X57944Y-1504553D02*
G54D11*
D03*
X235744Y-158353D02*
G54D11*
D03*
X235744Y-183753D02*
G54D11*
D03*
X235744Y-209153D02*
G54D11*
D03*
X235744Y-234553D02*
G54D11*
D03*
X235744Y-259953D02*
G54D11*
D03*
X235744Y-285353D02*
G54D11*
D03*
X235744Y-310753D02*
G54D11*
D03*
X235744Y-336153D02*
G54D11*
D03*
X235744Y-361553D02*
G54D11*
D03*
X235744Y-386953D02*
G54D11*
D03*
X235744Y-412353D02*
G54D11*
D03*
X235744Y-437753D02*
G54D11*
D03*
X235744Y-463153D02*
G54D11*
D03*
X235744Y-488553D02*
G54D11*
D03*
X235744Y-513953D02*
G54D11*
D03*
X235744Y-539353D02*
G54D11*
D03*
X235744Y-564753D02*
G54D11*
D03*
X235744Y-590153D02*
G54D11*
D03*
X235744Y-640953D02*
G54D11*
D03*
X235744Y-615553D02*
G54D11*
D03*
X235744Y-666353D02*
G54D11*
D03*
X235744Y-691753D02*
G54D11*
D03*
X235744Y-717153D02*
G54D11*
D03*
X235744Y-742553D02*
G54D11*
D03*
X235744Y-767953D02*
G54D11*
D03*
X235744Y-793353D02*
G54D11*
D03*
X235744Y-818753D02*
G54D11*
D03*
X235744Y-844153D02*
G54D11*
D03*
X235744Y-869553D02*
G54D11*
D03*
X235744Y-894953D02*
G54D11*
D03*
X235744Y-920353D02*
G54D11*
D03*
X235744Y-945753D02*
G54D11*
D03*
X235744Y-971153D02*
G54D11*
D03*
X235744Y-996553D02*
G54D11*
D03*
X235744Y-1021953D02*
G54D11*
D03*
X235744Y-1047353D02*
G54D11*
D03*
X235744Y-1072753D02*
G54D11*
D03*
X235744Y-1098153D02*
G54D11*
D03*
X235744Y-1123553D02*
G54D11*
D03*
X235744Y-1148953D02*
G54D11*
D03*
X235744Y-1174353D02*
G54D11*
D03*
X235744Y-1225153D02*
G54D11*
D03*
X235744Y-1199753D02*
G54D11*
D03*
X235744Y-1250553D02*
G54D11*
D03*
X235744Y-1275953D02*
G54D11*
D03*
X235744Y-1301353D02*
G54D11*
D03*
X235744Y-1326753D02*
G54D11*
D03*
X235744Y-1352153D02*
G54D11*
D03*
X235744Y-1377553D02*
G54D11*
D03*
X235744Y-1402953D02*
G54D11*
D03*
X235744Y-1428353D02*
G54D11*
D03*
X235744Y-1453753D02*
G54D11*
D03*
X235744Y-1479153D02*
G54D11*
D03*
X235744Y-1504553D02*
G54D11*
D03*
X413544Y-158353D02*
G54D11*
D03*
X413544Y-183753D02*
G54D11*
D03*
X413544Y-209153D02*
G54D11*
D03*
X413544Y-234553D02*
G54D11*
D03*
X413544Y-259953D02*
G54D11*
D03*
X413544Y-285353D02*
G54D11*
D03*
X413544Y-310753D02*
G54D11*
D03*
X413544Y-336153D02*
G54D11*
D03*
X413544Y-361553D02*
G54D11*
D03*
X413544Y-386953D02*
G54D11*
D03*
X413544Y-412353D02*
G54D11*
D03*
X413544Y-437753D02*
G54D11*
D03*
X413544Y-463153D02*
G54D11*
D03*
X413544Y-488553D02*
G54D11*
D03*
X413544Y-513953D02*
G54D11*
D03*
X413544Y-539353D02*
G54D11*
D03*
X413544Y-564753D02*
G54D11*
D03*
X413544Y-590153D02*
G54D11*
D03*
X413544Y-640953D02*
G54D11*
D03*
X413544Y-615553D02*
G54D11*
D03*
X413544Y-666353D02*
G54D11*
D03*
X413544Y-691753D02*
G54D11*
D03*
X413544Y-717153D02*
G54D11*
D03*
X413544Y-742553D02*
G54D11*
D03*
X413544Y-767953D02*
G54D11*
D03*
X413544Y-793353D02*
G54D11*
D03*
X413544Y-818753D02*
G54D11*
D03*
X413544Y-844153D02*
G54D11*
D03*
X413544Y-869553D02*
G54D11*
D03*
X413544Y-894953D02*
G54D11*
D03*
X413544Y-920353D02*
G54D11*
D03*
X413544Y-945753D02*
G54D11*
D03*
X413544Y-971153D02*
G54D11*
D03*
X413544Y-996553D02*
G54D11*
D03*
X413544Y-1021953D02*
G54D11*
D03*
X413544Y-1047353D02*
G54D11*
D03*
X413544Y-1072753D02*
G54D11*
D03*
X413544Y-1098153D02*
G54D11*
D03*
X413544Y-1123553D02*
G54D11*
D03*
X413544Y-1148953D02*
G54D11*
D03*
X413544Y-1174353D02*
G54D11*
D03*
X413544Y-1225153D02*
G54D11*
D03*
X413544Y-1199753D02*
G54D11*
D03*
X413544Y-1250553D02*
G54D11*
D03*
X413544Y-1275953D02*
G54D11*
D03*
X413544Y-1301353D02*
G54D11*
D03*
X413544Y-1326753D02*
G54D11*
D03*
X413544Y-1352153D02*
G54D11*
D03*
X413544Y-1377553D02*
G54D11*
D03*
X413544Y-1402953D02*
G54D11*
D03*
X413544Y-1428353D02*
G54D11*
D03*
X413544Y-1453753D02*
G54D11*
D03*
X413544Y-1479153D02*
G54D11*
D03*
X413544Y-1504553D02*
G54D11*
D03*
X591344Y-158353D02*
G54D11*
D03*
X591344Y-183753D02*
G54D11*
D03*
X591344Y-209153D02*
G54D11*
D03*
X591344Y-234553D02*
G54D11*
D03*
X591344Y-259953D02*
G54D11*
D03*
X591344Y-285353D02*
G54D11*
D03*
X591344Y-310753D02*
G54D11*
D03*
X591344Y-336153D02*
G54D11*
D03*
X591344Y-361553D02*
G54D11*
D03*
X591344Y-386953D02*
G54D11*
D03*
X591344Y-412353D02*
G54D11*
D03*
X591344Y-437753D02*
G54D11*
D03*
X591344Y-463153D02*
G54D11*
D03*
X591344Y-488553D02*
G54D11*
D03*
X591344Y-513953D02*
G54D11*
D03*
X591344Y-539353D02*
G54D11*
D03*
X591344Y-564753D02*
G54D11*
D03*
X591344Y-590153D02*
G54D11*
D03*
X591344Y-640953D02*
G54D11*
D03*
X591344Y-615553D02*
G54D11*
D03*
X591344Y-666353D02*
G54D11*
D03*
X591344Y-691753D02*
G54D11*
D03*
X591344Y-717153D02*
G54D11*
D03*
X591344Y-742553D02*
G54D11*
D03*
X591344Y-767953D02*
G54D11*
D03*
X591344Y-793353D02*
G54D11*
D03*
X591344Y-818753D02*
G54D11*
D03*
X591344Y-844153D02*
G54D11*
D03*
X591344Y-869553D02*
G54D11*
D03*
X591344Y-894953D02*
G54D11*
D03*
X591344Y-920353D02*
G54D11*
D03*
X591344Y-945753D02*
G54D11*
D03*
X591344Y-971153D02*
G54D11*
D03*
X591344Y-996553D02*
G54D11*
D03*
X591344Y-1021953D02*
G54D11*
D03*
X591344Y-1047353D02*
G54D11*
D03*
X591344Y-1072753D02*
G54D11*
D03*
X591344Y-1098153D02*
G54D11*
D03*
X591344Y-1123553D02*
G54D11*
D03*
X591344Y-1148953D02*
G54D11*
D03*
X591344Y-1174353D02*
G54D11*
D03*
X591344Y-1225153D02*
G54D11*
D03*
X591344Y-1199753D02*
G54D11*
D03*
X591344Y-1250553D02*
G54D11*
D03*
X591344Y-1275953D02*
G54D11*
D03*
X591344Y-1301353D02*
G54D11*
D03*
X591344Y-1326753D02*
G54D11*
D03*
X591344Y-1352153D02*
G54D11*
D03*
X591344Y-1377553D02*
G54D11*
D03*
X591344Y-1402953D02*
G54D11*
D03*
X591344Y-1428353D02*
G54D11*
D03*
X591344Y-1453753D02*
G54D11*
D03*
X591344Y-1479153D02*
G54D11*
D03*
X591344Y-1504553D02*
G54D11*
D03*
X769144Y-158353D02*
G54D11*
D03*
X769144Y-183753D02*
G54D11*
D03*
X769144Y-209153D02*
G54D11*
D03*
X769144Y-234553D02*
G54D11*
D03*
X769144Y-259953D02*
G54D11*
D03*
X769144Y-285353D02*
G54D11*
D03*
X769144Y-310753D02*
G54D11*
D03*
X769144Y-336153D02*
G54D11*
D03*
X769144Y-361553D02*
G54D11*
D03*
X769144Y-386953D02*
G54D11*
D03*
X769144Y-412353D02*
G54D11*
D03*
X769144Y-437753D02*
G54D11*
D03*
X769144Y-463153D02*
G54D11*
D03*
X769144Y-488553D02*
G54D11*
D03*
X769144Y-513953D02*
G54D11*
D03*
X769144Y-539353D02*
G54D11*
D03*
X769144Y-564753D02*
G54D11*
D03*
X769144Y-590153D02*
G54D11*
D03*
X769144Y-640953D02*
G54D11*
D03*
X769144Y-615553D02*
G54D11*
D03*
X769144Y-666353D02*
G54D11*
D03*
X769144Y-691753D02*
G54D11*
D03*
X769144Y-717153D02*
G54D11*
D03*
X769144Y-742553D02*
G54D11*
D03*
X769144Y-767953D02*
G54D11*
D03*
X769144Y-793353D02*
G54D11*
D03*
X769144Y-818753D02*
G54D11*
D03*
X769144Y-844153D02*
G54D11*
D03*
X769144Y-869553D02*
G54D11*
D03*
X769144Y-894953D02*
G54D11*
D03*
X769144Y-920353D02*
G54D11*
D03*
X769144Y-945753D02*
G54D11*
D03*
X769144Y-971153D02*
G54D11*
D03*
X769144Y-996553D02*
G54D11*
D03*
X769144Y-1021953D02*
G54D11*
D03*
X769144Y-1047353D02*
G54D11*
D03*
X769144Y-1072753D02*
G54D11*
D03*
X769144Y-1098153D02*
G54D11*
D03*
X769144Y-1123553D02*
G54D11*
D03*
X769144Y-1148953D02*
G54D11*
D03*
X769144Y-1174353D02*
G54D11*
D03*
X769144Y-1225153D02*
G54D11*
D03*
X769144Y-1199753D02*
G54D11*
D03*
X769144Y-1250553D02*
G54D11*
D03*
X769144Y-1275953D02*
G54D11*
D03*
X769144Y-1301353D02*
G54D11*
D03*
X769144Y-1326753D02*
G54D11*
D03*
X769144Y-1352153D02*
G54D11*
D03*
X769144Y-1377553D02*
G54D11*
D03*
X769144Y-1402953D02*
G54D11*
D03*
X769144Y-1428353D02*
G54D11*
D03*
X769144Y-1453753D02*
G54D11*
D03*
X769144Y-1479153D02*
G54D11*
D03*
X769144Y-1504553D02*
G54D11*
D03*
X946944Y-158353D02*
G54D11*
D03*
X946944Y-183753D02*
G54D11*
D03*
X946944Y-209153D02*
G54D11*
D03*
X946944Y-234553D02*
G54D11*
D03*
X946944Y-259953D02*
G54D11*
D03*
X946944Y-285353D02*
G54D11*
D03*
X946944Y-310753D02*
G54D11*
D03*
X946944Y-336153D02*
G54D11*
D03*
X946944Y-361553D02*
G54D11*
D03*
X946944Y-386953D02*
G54D11*
D03*
X946944Y-412353D02*
G54D11*
D03*
X946944Y-437753D02*
G54D11*
D03*
X946944Y-463153D02*
G54D11*
D03*
X946944Y-488553D02*
G54D11*
D03*
X946944Y-513953D02*
G54D11*
D03*
X946944Y-539353D02*
G54D11*
D03*
X946944Y-564753D02*
G54D11*
D03*
X946944Y-590153D02*
G54D11*
D03*
X946944Y-640953D02*
G54D11*
D03*
X946944Y-615553D02*
G54D11*
D03*
X946944Y-666353D02*
G54D11*
D03*
X946944Y-691753D02*
G54D11*
D03*
X946944Y-717153D02*
G54D11*
D03*
X946944Y-742553D02*
G54D11*
D03*
X946944Y-767953D02*
G54D11*
D03*
X946944Y-793353D02*
G54D11*
D03*
X946944Y-818753D02*
G54D11*
D03*
X946944Y-844153D02*
G54D11*
D03*
X946944Y-869553D02*
G54D11*
D03*
X946944Y-894953D02*
G54D11*
D03*
X946944Y-920353D02*
G54D11*
D03*
X946944Y-945753D02*
G54D11*
D03*
X946944Y-971153D02*
G54D11*
D03*
X946944Y-996553D02*
G54D11*
D03*
X946944Y-1021953D02*
G54D11*
D03*
X946944Y-1047353D02*
G54D11*
D03*
X946944Y-1072753D02*
G54D11*
D03*
X946944Y-1098153D02*
G54D11*
D03*
X946944Y-1123553D02*
G54D11*
D03*
X946944Y-1148953D02*
G54D11*
D03*
X946944Y-1174353D02*
G54D11*
D03*
X946944Y-1225153D02*
G54D11*
D03*
X946944Y-1199753D02*
G54D11*
D03*
X946944Y-1250553D02*
G54D11*
D03*
X946944Y-1275953D02*
G54D11*
D03*
X946944Y-1301353D02*
G54D11*
D03*
X946944Y-1326753D02*
G54D11*
D03*
X946944Y-1352153D02*
G54D11*
D03*
X946944Y-1377553D02*
G54D11*
D03*
X946944Y-1402953D02*
G54D11*
D03*
X946944Y-1428353D02*
G54D11*
D03*
X946944Y-1453753D02*
G54D11*
D03*
X946944Y-1479153D02*
G54D11*
D03*
X946944Y-1504553D02*
G54D11*
D03*
X184944Y-101203D02*
G54D10*
D03*
X210344Y-101203D02*
G54D10*
D03*
X235744Y-101203D02*
G54D10*
D03*
X261144Y-101203D02*
G54D10*
D03*
X286544Y-101203D02*
G54D10*
D03*
X311944Y-101203D02*
G54D10*
D03*
X337344Y-101203D02*
G54D10*
D03*
X362744Y-101203D02*
G54D10*
D03*
X388144Y-101203D02*
G54D10*
D03*
X413544Y-101203D02*
G54D10*
D03*
X438944Y-101203D02*
G54D10*
D03*
X464344Y-101203D02*
G54D10*
D03*
X489744Y-101203D02*
G54D10*
D03*
X515144Y-101203D02*
G54D10*
D03*
X540544Y-101203D02*
G54D10*
D03*
X565944Y-101203D02*
G54D10*
D03*
X591344Y-101203D02*
G54D10*
D03*
X616744Y-101203D02*
G54D10*
D03*
X642144Y-101203D02*
G54D10*
D03*
X667544Y-101203D02*
G54D10*
D03*
X692944Y-101203D02*
G54D10*
D03*
X718344Y-101203D02*
G54D10*
D03*
X743744Y-101203D02*
G54D10*
D03*
X769144Y-101203D02*
G54D10*
D03*
X794544Y-101203D02*
G54D10*
D03*
X819944Y-101203D02*
G54D10*
D03*
X184944Y-126603D02*
G54D10*
D03*
X210344Y-126603D02*
G54D10*
D03*
X235744Y-126603D02*
G54D10*
D03*
X261144Y-126603D02*
G54D10*
D03*
X286544Y-126603D02*
G54D10*
D03*
X311944Y-126603D02*
G54D10*
D03*
X337344Y-126603D02*
G54D10*
D03*
X362744Y-126603D02*
G54D10*
D03*
X388144Y-126603D02*
G54D10*
D03*
X413544Y-126603D02*
G54D10*
D03*
X438944Y-126603D02*
G54D10*
D03*
X464344Y-126603D02*
G54D10*
D03*
X489744Y-126603D02*
G54D10*
D03*
X515144Y-126603D02*
G54D10*
D03*
X540544Y-126603D02*
G54D10*
D03*
X565944Y-126603D02*
G54D10*
D03*
X591344Y-126603D02*
G54D10*
D03*
X616744Y-126603D02*
G54D10*
D03*
X642144Y-126603D02*
G54D10*
D03*
X667544Y-126603D02*
G54D10*
D03*
X692944Y-126603D02*
G54D10*
D03*
X718344Y-126603D02*
G54D10*
D03*
X743744Y-126603D02*
G54D10*
D03*
X769144Y-126603D02*
G54D10*
D03*
X794544Y-126603D02*
G54D10*
D03*
X819944Y-126603D02*
G54D10*
D03*
X19844Y-158353D02*
G54D11*
D03*
X19844Y-183753D02*
G54D11*
D03*
X19844Y-209153D02*
G54D11*
D03*
X19844Y-234553D02*
G54D11*
D03*
X19844Y-259953D02*
G54D11*
D03*
X19844Y-285353D02*
G54D11*
D03*
X19844Y-310753D02*
G54D11*
D03*
X19844Y-336153D02*
G54D11*
D03*
X19844Y-361553D02*
G54D11*
D03*
X19844Y-386953D02*
G54D11*
D03*
X19844Y-412353D02*
G54D11*
D03*
X19844Y-437753D02*
G54D11*
D03*
X19844Y-463153D02*
G54D11*
D03*
X19844Y-488553D02*
G54D11*
D03*
X19844Y-513953D02*
G54D11*
D03*
X19844Y-539353D02*
G54D11*
D03*
X19844Y-564753D02*
G54D11*
D03*
X19844Y-590153D02*
G54D11*
D03*
X19844Y-640953D02*
G54D11*
D03*
X19844Y-615553D02*
G54D11*
D03*
X19844Y-666353D02*
G54D11*
D03*
X19844Y-691753D02*
G54D11*
D03*
X19844Y-717153D02*
G54D11*
D03*
X19844Y-742553D02*
G54D11*
D03*
X19844Y-767953D02*
G54D11*
D03*
X19844Y-793353D02*
G54D11*
D03*
X19844Y-818753D02*
G54D11*
D03*
X19844Y-844153D02*
G54D11*
D03*
X19844Y-869553D02*
G54D11*
D03*
X19844Y-894953D02*
G54D11*
D03*
X19844Y-920353D02*
G54D11*
D03*
X19844Y-945753D02*
G54D11*
D03*
X19844Y-971153D02*
G54D11*
D03*
X19844Y-996553D02*
G54D11*
D03*
X19844Y-1021953D02*
G54D11*
D03*
X19844Y-1047353D02*
G54D11*
D03*
X19844Y-1072753D02*
G54D11*
D03*
X19844Y-1098153D02*
G54D11*
D03*
X19844Y-1123553D02*
G54D11*
D03*
X19844Y-1148953D02*
G54D11*
D03*
X19844Y-1174353D02*
G54D11*
D03*
X19844Y-1225153D02*
G54D11*
D03*
X19844Y-1199753D02*
G54D11*
D03*
X19844Y-1250553D02*
G54D11*
D03*
X19844Y-1275953D02*
G54D11*
D03*
X19844Y-1301353D02*
G54D11*
D03*
X19844Y-1326753D02*
G54D11*
D03*
X19844Y-1352153D02*
G54D11*
D03*
X19844Y-1377553D02*
G54D11*
D03*
X19844Y-1402953D02*
G54D11*
D03*
X19844Y-1428353D02*
G54D11*
D03*
X19844Y-1453753D02*
G54D11*
D03*
X19844Y-1479153D02*
G54D11*
D03*
X19844Y-1504553D02*
G54D11*
D03*
X985044Y-158353D02*
G54D11*
D03*
X985044Y-183753D02*
G54D11*
D03*
X985044Y-209153D02*
G54D11*
D03*
X985044Y-234553D02*
G54D11*
D03*
X985044Y-259953D02*
G54D11*
D03*
X985044Y-285353D02*
G54D11*
D03*
X985044Y-310753D02*
G54D11*
D03*
X985044Y-336153D02*
G54D11*
D03*
X985044Y-361553D02*
G54D11*
D03*
X985044Y-386953D02*
G54D11*
D03*
X985044Y-412353D02*
G54D11*
D03*
X985044Y-437753D02*
G54D11*
D03*
X985044Y-463153D02*
G54D11*
D03*
X985044Y-488553D02*
G54D11*
D03*
X985044Y-513953D02*
G54D11*
D03*
X985044Y-539353D02*
G54D11*
D03*
X985044Y-564753D02*
G54D11*
D03*
X985044Y-590153D02*
G54D11*
D03*
X985044Y-640953D02*
G54D11*
D03*
X985044Y-615553D02*
G54D11*
D03*
X985044Y-666353D02*
G54D11*
D03*
X985044Y-691753D02*
G54D11*
D03*
X985044Y-717153D02*
G54D11*
D03*
X985044Y-742553D02*
G54D11*
D03*
X985044Y-767953D02*
G54D11*
D03*
X985044Y-793353D02*
G54D11*
D03*
X985044Y-818753D02*
G54D11*
D03*
X985044Y-844153D02*
G54D11*
D03*
X985044Y-869553D02*
G54D11*
D03*
X985044Y-894953D02*
G54D11*
D03*
X985044Y-920353D02*
G54D11*
D03*
X985044Y-945753D02*
G54D11*
D03*
X985044Y-971153D02*
G54D11*
D03*
X985044Y-996553D02*
G54D11*
D03*
X985044Y-1021953D02*
G54D11*
D03*
X985044Y-1047353D02*
G54D11*
D03*
X985044Y-1072753D02*
G54D11*
D03*
X985044Y-1098153D02*
G54D11*
D03*
X985044Y-1123553D02*
G54D11*
D03*
X985044Y-1148953D02*
G54D11*
D03*
X985044Y-1174353D02*
G54D11*
D03*
X985044Y-1225153D02*
G54D11*
D03*
X985044Y-1199753D02*
G54D11*
D03*
X985044Y-1250553D02*
G54D11*
D03*
X985044Y-1275953D02*
G54D11*
D03*
X985044Y-1301353D02*
G54D11*
D03*
X985044Y-1326753D02*
G54D11*
D03*
X985044Y-1352153D02*
G54D11*
D03*
X985044Y-1377553D02*
G54D11*
D03*
X985044Y-1402953D02*
G54D11*
D03*
X985044Y-1428353D02*
G54D11*
D03*
X985044Y-1453753D02*
G54D11*
D03*
X985044Y-1479153D02*
G54D11*
D03*
X985044Y-1504553D02*
G54D11*
D03*
G54D12*
X19844Y-336153D02*
X985044Y-336153D01*
G54D12*
X19844Y-361553D02*
X985044Y-361553D01*
G54D12*
X19844Y-386953D02*
X985044Y-386953D01*
G54D12*
X19844Y-412353D02*
X985044Y-412353D01*
G54D12*
X19844Y-437753D02*
X985044Y-437753D01*
G54D12*
X19844Y-463153D02*
X985044Y-463153D01*
G54D12*
X19844Y-488553D02*
X985044Y-488553D01*
G54D12*
X19844Y-513953D02*
X985044Y-513953D01*
G54D12*
X19844Y-640953D02*
X985044Y-640953D01*
G54D12*
X19844Y-666353D02*
X985044Y-666353D01*
G54D12*
X19844Y-691753D02*
X985044Y-691753D01*
G54D12*
X19844Y-717153D02*
X985044Y-717153D01*
G54D12*
X19844Y-742553D02*
X985044Y-742553D01*
G54D12*
X19844Y-767953D02*
X985044Y-767953D01*
G54D12*
X19844Y-793353D02*
X985044Y-793353D01*
G54D12*
X19844Y-818753D02*
X985044Y-818753D01*
G54D12*
X19844Y-996553D02*
X985044Y-996553D01*
G54D12*
X19844Y-1021953D02*
X985044Y-1021953D01*
G54D12*
X19844Y-1047353D02*
X985044Y-1047353D01*
G54D12*
X19844Y-1072753D02*
X985044Y-1072753D01*
G54D12*
X19844Y-1098153D02*
X985044Y-1098153D01*
G54D12*
X19844Y-1123553D02*
X985044Y-1123553D01*
G54D12*
X19844Y-1148953D02*
X985044Y-1148953D01*
G54D12*
X19844Y-1174353D02*
X985044Y-1174353D01*
G54D12*
X19844Y-1352153D02*
X985044Y-1352153D01*
G54D12*
X19844Y-1377553D02*
X985044Y-1377553D01*
G54D12*
X19844Y-1402953D02*
X985044Y-1402953D01*
G54D12*
X19844Y-1428353D02*
X985044Y-1428353D01*
X502444Y-539353D02*
G54D13*
D03*
X502444Y-564753D02*
G54D13*
D03*
X502444Y-590153D02*
G54D13*
D03*
X502444Y-615553D02*
G54D13*
D03*
X502444Y-844153D02*
G54D13*
D03*
X502444Y-869553D02*
G54D13*
D03*
X502444Y-894953D02*
G54D13*
D03*
X502444Y-920353D02*
G54D13*
D03*
X502444Y-945753D02*
G54D13*
D03*
X502444Y-971153D02*
G54D13*
D03*
X502444Y-1199753D02*
G54D13*
D03*
X502444Y-1225153D02*
G54D13*
D03*
X502444Y-1250553D02*
G54D13*
D03*
X502444Y-1326753D02*
G54D13*
D03*
G54D12*
X19844Y-539353D02*
X985044Y-539353D01*
G54D12*
X19844Y-564753D02*
X985044Y-564753D01*
G54D12*
X19844Y-590153D02*
X985044Y-590153D01*
G54D12*
X19844Y-615553D02*
X985044Y-615553D01*
G54D12*
X19844Y-844153D02*
X985044Y-844153D01*
G54D12*
X19844Y-869553D02*
X985044Y-869553D01*
G54D12*
X19844Y-894953D02*
X985044Y-894953D01*
G54D12*
X19844Y-920353D02*
X985044Y-920353D01*
G54D12*
X19844Y-945753D02*
X985044Y-945753D01*
G54D12*
X19844Y-971153D02*
X985044Y-971153D01*
G54D12*
X19844Y-1199753D02*
X985044Y-1199753D01*
G54D12*
X19844Y-1225153D02*
X985044Y-1225153D01*
G54D12*
X19844Y-1250553D02*
X985044Y-1250553D01*
G54D12*
X19844Y-1326753D02*
X985044Y-1326753D01*
G54D14*
X19844Y-158353D02*
X985044Y-158353D01*
G54D14*
X19844Y-183753D02*
X985044Y-183753D01*
G54D14*
X19844Y-209153D02*
X985044Y-209153D01*
G54D12*
X19844Y-1504553D02*
X985044Y-1504553D01*
G54D12*
X19844Y-1301353D02*
X19893Y-1276017D01*
X57944Y-1275953D01*
G54D12*
X57944Y-1301353D02*
X235744Y-1275953D01*
G54D12*
X235744Y-1301353D02*
X413544Y-1275953D01*
G54D12*
X413544Y-1301353D02*
X591344Y-1275953D01*
G54D12*
X591344Y-1301353D02*
X769144Y-1275953D01*
G54D12*
X769144Y-1301353D02*
X946944Y-1275953D01*
G54D12*
X946944Y-1301353D02*
X985098Y-1301416D01*
X985044Y-1275953D01*
G36*
X19844Y-259953D02*
X19844Y-234553D01*
X985044Y-234553D01*
X985044Y-259953D01*
X19844Y-259953D01*
G37*
G54D12*
X19844Y-259953D02*
X19844Y-234553D01*
X985044Y-234553D01*
X985044Y-259953D01*
X19844Y-259953D01*
G36*
X19844Y-285353D02*
X985044Y-285353D01*
X985044Y-310753D01*
X19844Y-310753D01*
X19844Y-285353D01*
G37*
G54D12*
X19844Y-285353D02*
X985044Y-285353D01*
X985044Y-310753D01*
X19844Y-310753D01*
X19844Y-285353D01*
G36*
X19844Y-1453753D02*
X985044Y-1453753D01*
X985044Y-1479153D01*
X19844Y-1479153D01*
X19844Y-1453753D01*
G37*
G54D12*
X19844Y-1453753D02*
X985044Y-1453753D01*
X985044Y-1479153D01*
X19844Y-1479153D01*
X19844Y-1453753D01*
G54D15*
X120410Y-1521442D02*
X120410Y-1535664D01*
X112943Y-1535664D01*
G54D15*
X107965Y-1524998D02*
X107965Y-1524998D01*
G54D15*
X103698Y-1524998D02*
X103698Y-1524998D01*
G54D15*
X102632Y-1533531D02*
X102632Y-1529976D01*
X103698Y-1528198D01*
X105832Y-1527664D01*
X107965Y-1528198D01*
X109032Y-1529976D01*
X109032Y-1533531D01*
X107965Y-1535309D01*
X105832Y-1535664D01*
X103698Y-1535309D01*
X102632Y-1533531D01*
G54D15*
X96587Y-1521442D02*
X96587Y-1534776D01*
X95521Y-1535664D01*
X94454Y-1535309D01*
G54D15*
X98721Y-1527664D02*
X94454Y-1527664D01*
G54D15*
X90543Y-1534776D02*
X88409Y-1535664D01*
X86276Y-1535664D01*
X84143Y-1534776D01*
X84143Y-1532998D01*
X85209Y-1532109D01*
X89476Y-1531220D01*
X90543Y-1530331D01*
X90543Y-1528553D01*
X88409Y-1527664D01*
X86276Y-1527664D01*
X84143Y-1528553D01*
G54D15*
X73832Y-1534776D02*
X75538Y-1535664D01*
X77672Y-1535664D01*
X79805Y-1534776D01*
X80232Y-1532998D01*
X80232Y-1529976D01*
X79165Y-1528198D01*
X77032Y-1527664D01*
X74898Y-1528198D01*
X73832Y-1529442D01*
X73832Y-1531220D01*
X80232Y-1531220D01*
G54D15*
X69921Y-1535664D02*
X69921Y-1527664D01*
G54D15*
X69921Y-1524998D02*
X69921Y-1524998D01*
G54D15*
X63876Y-1521442D02*
X63876Y-1534776D01*
X62810Y-1535664D01*
X61743Y-1535309D01*
G54D15*
X66010Y-1527664D02*
X61743Y-1527664D01*
G54D15*
X51432Y-1534776D02*
X53138Y-1535664D01*
X55272Y-1535664D01*
X57405Y-1534776D01*
X57832Y-1532998D01*
X57832Y-1529976D01*
X56765Y-1528198D01*
X54632Y-1527664D01*
X52498Y-1528198D01*
X51432Y-1529442D01*
X51432Y-1531220D01*
X57832Y-1531220D01*
X184944Y-50403D02*
G54D10*
D03*
X210344Y-50403D02*
G54D10*
D03*
X235744Y-50403D02*
G54D10*
D03*
X261144Y-50403D02*
G54D10*
D03*
X286544Y-50403D02*
G54D10*
D03*
X311944Y-50403D02*
G54D10*
D03*
X337344Y-50403D02*
G54D10*
D03*
X362744Y-50403D02*
G54D10*
D03*
X388144Y-50403D02*
G54D10*
D03*
X413544Y-50403D02*
G54D10*
D03*
X438944Y-50403D02*
G54D10*
D03*
X464344Y-50403D02*
G54D10*
D03*
X489744Y-50403D02*
G54D10*
D03*
X515144Y-50403D02*
G54D10*
D03*
X540544Y-50403D02*
G54D10*
D03*
X565944Y-50403D02*
G54D10*
D03*
X591344Y-50403D02*
G54D10*
D03*
X616744Y-50403D02*
G54D10*
D03*
X642144Y-50403D02*
G54D10*
D03*
X667544Y-50403D02*
G54D10*
D03*
X692944Y-50403D02*
G54D10*
D03*
X718344Y-50403D02*
G54D10*
D03*
X743744Y-50403D02*
G54D10*
D03*
X769144Y-50403D02*
G54D10*
D03*
X794544Y-50403D02*
G54D10*
D03*
X819944Y-50403D02*
G54D10*
D03*
X184944Y-25003D02*
G54D10*
D03*
X210344Y-25003D02*
G54D10*
D03*
X235744Y-25003D02*
G54D10*
D03*
X261144Y-25003D02*
G54D10*
D03*
X286544Y-25003D02*
G54D10*
D03*
X311944Y-25003D02*
G54D10*
D03*
X337344Y-25003D02*
G54D10*
D03*
X362744Y-25003D02*
G54D10*
D03*
X388144Y-25003D02*
G54D10*
D03*
X413544Y-25003D02*
G54D10*
D03*
X438944Y-25003D02*
G54D10*
D03*
X464344Y-25003D02*
G54D10*
D03*
X489744Y-25003D02*
G54D10*
D03*
X515144Y-25003D02*
G54D10*
D03*
X540544Y-25003D02*
G54D10*
D03*
X565944Y-25003D02*
G54D10*
D03*
X591344Y-25003D02*
G54D10*
D03*
X616744Y-25003D02*
G54D10*
D03*
X642144Y-25003D02*
G54D10*
D03*
X667544Y-25003D02*
G54D10*
D03*
X692944Y-25003D02*
G54D10*
D03*
X718344Y-25003D02*
G54D10*
D03*
X743744Y-25003D02*
G54D10*
D03*
X769144Y-25003D02*
G54D10*
D03*
X794544Y-25003D02*
G54D10*
D03*
X819944Y-25003D02*
G54D10*
D03*
X451644Y-1580753D02*
G54D10*
D03*
X477044Y-1580753D02*
G54D10*
D03*
X502444Y-1580753D02*
G54D10*
D03*
X527844Y-1580753D02*
G54D10*
D03*
X553244Y-1580753D02*
G54D10*
D03*
X578644Y-1580753D02*
G54D10*
D03*
X604044Y-1580753D02*
G54D10*
D03*
X629444Y-1580753D02*
G54D10*
D03*
X654844Y-1580753D02*
G54D10*
D03*
X680244Y-1580753D02*
G54D10*
D03*
X705644Y-1580753D02*
G54D10*
D03*
X451644Y-1555353D02*
G54D10*
D03*
X477044Y-1555353D02*
G54D10*
D03*
X502444Y-1555353D02*
G54D10*
D03*
X527844Y-1555353D02*
G54D10*
D03*
X553244Y-1555353D02*
G54D10*
D03*
X578644Y-1555353D02*
G54D10*
D03*
X604044Y-1555353D02*
G54D10*
D03*
X629444Y-1555353D02*
G54D10*
D03*
X654844Y-1555353D02*
G54D10*
D03*
X680244Y-1555353D02*
G54D10*
D03*
X705644Y-1555353D02*
G54D10*
D03*
X451644Y-1529953D02*
G54D10*
D03*
X477044Y-1529953D02*
G54D10*
D03*
X502444Y-1529953D02*
G54D10*
D03*
X527844Y-1529953D02*
G54D10*
D03*
X553244Y-1529953D02*
G54D10*
D03*
X578644Y-1529953D02*
G54D10*
D03*
X604044Y-1529953D02*
G54D10*
D03*
X629444Y-1529953D02*
G54D10*
D03*
X654844Y-1529953D02*
G54D10*
D03*
X680244Y-1529953D02*
G54D10*
D03*
X705644Y-1529953D02*
G54D10*
D03*
X731044Y-1580753D02*
G54D10*
D03*
X756444Y-1580753D02*
G54D10*
D03*
X781844Y-1580753D02*
G54D10*
D03*
X807244Y-1580753D02*
G54D10*
D03*
X832644Y-1580753D02*
G54D10*
D03*
X858044Y-1580753D02*
G54D10*
D03*
X883444Y-1580753D02*
G54D10*
D03*
X908844Y-1580753D02*
G54D10*
D03*
X731044Y-1555353D02*
G54D10*
D03*
X756444Y-1555353D02*
G54D10*
D03*
X781844Y-1555353D02*
G54D10*
D03*
X807244Y-1555353D02*
G54D10*
D03*
X832644Y-1555353D02*
G54D10*
D03*
X858044Y-1555353D02*
G54D10*
D03*
X883444Y-1555353D02*
G54D10*
D03*
X908844Y-1555353D02*
G54D10*
D03*
X731044Y-1529953D02*
G54D10*
D03*
X756444Y-1529953D02*
G54D10*
D03*
X781844Y-1529953D02*
G54D10*
D03*
X807244Y-1529953D02*
G54D10*
D03*
X832644Y-1529953D02*
G54D10*
D03*
X858044Y-1529953D02*
G54D10*
D03*
X883444Y-1529953D02*
G54D10*
D03*
X908844Y-1529953D02*
G54D10*
D03*
X273844Y-1580753D02*
G54D10*
D03*
X299244Y-1580753D02*
G54D10*
D03*
X324644Y-1580753D02*
G54D10*
D03*
X350044Y-1580753D02*
G54D10*
D03*
X375444Y-1580753D02*
G54D10*
D03*
X400844Y-1580753D02*
G54D10*
D03*
X426244Y-1580753D02*
G54D10*
D03*
X273844Y-1555353D02*
G54D10*
D03*
X299244Y-1555353D02*
G54D10*
D03*
X324644Y-1555353D02*
G54D10*
D03*
X350044Y-1555353D02*
G54D10*
D03*
X375444Y-1555353D02*
G54D10*
D03*
X400844Y-1555353D02*
G54D10*
D03*
X426244Y-1555353D02*
G54D10*
D03*
X273844Y-1529953D02*
G54D10*
D03*
X299244Y-1529953D02*
G54D10*
D03*
X324644Y-1529953D02*
G54D10*
D03*
X350044Y-1529953D02*
G54D10*
D03*
X375444Y-1529953D02*
G54D10*
D03*
X400844Y-1529953D02*
G54D10*
D03*
X426244Y-1529953D02*
G54D10*
D03*
X197644Y-1580753D02*
G54D10*
D03*
X223044Y-1580753D02*
G54D10*
D03*
X248444Y-1580753D02*
G54D10*
D03*
X197644Y-1555353D02*
G54D10*
D03*
X223044Y-1555353D02*
G54D10*
D03*
X248444Y-1555353D02*
G54D10*
D03*
X197644Y-1529953D02*
G54D10*
D03*
X223044Y-1529953D02*
G54D10*
D03*
X248444Y-1529953D02*
G54D10*
D03*
M02*
